<svg width="24" height="24" viewBox="0 0 24 24" fill="none" xmlns="http://www.w3.org/2000/svg">
<path d="M4 22H8.3871C9.49167 22 10.3871 21.1046 10.3871 20V16.7379C10.3871 15.8471 11.1092 15.125 12 15.125C12.8908 15.125 13.6129 15.8471 13.6129 16.7379V20C13.6129 21.1046 14.5083 22 15.6129 22H20C21.1046 22 22 21.1046 22 20V11.0769C22 10.4747 21.7286 9.90449 21.2612 9.52471L13.2612 3.02471C12.5264 2.42768 11.4736 2.42768 10.7388 3.02471L2.73881 9.52471C2.27139 9.90449 2 10.4747 2 11.0769V20C2 21.1046 2.89543 22 4 22Z" fill="url(#paint0_radial_163_518)"/>
<defs>
<radialGradient id="paint0_radial_163_518" cx="0" cy="0" r="1" gradientUnits="userSpaceOnUse" gradientTransform="translate(12 5.61258) rotate(90) scale(19.6112 16.5817)">
<stop stop-color="#9EC9C0"/>
<stop offset="0.896192" stop-color="#78A4BF"/>
</radialGradient>
</defs>
</svg>
