<svg width="24" height="24" viewBox="0 0 24 24" fill="none" xmlns="http://www.w3.org/2000/svg">
<mask id="path-1-inside-1_163_497" fill="white">
<path fill-rule="evenodd" clip-rule="evenodd" d="M10.7845 20.8464C11.464 21.541 12.537 21.541 13.2165 20.8464C15.2212 18.797 19.0005 14.2455 19.0005 9.0588C19.0005 5.16033 15.8665 2 12.0005 2C8.13449 2 5.00049 5.16033 5.00049 9.0588C5.00049 14.2455 8.7798 18.797 10.7845 20.8464ZM12.0005 6C13.6573 6 15.0005 7.34315 15.0005 9C15.0005 10.6569 13.6573 12 12.0005 12C10.3436 12 9.00049 10.6569 9.00049 9C9.00049 7.34315 10.3436 6 12.0005 6Z"/>
</mask>
<path d="M13.2165 20.8464L12.5016 20.1472L13.2165 20.8464ZM18.0005 9.0588C18.0005 11.4129 17.1403 13.671 15.9972 15.6239C14.8569 17.5722 13.4698 19.1574 12.5016 20.1472L13.9313 21.5457C14.9679 20.486 16.4728 18.7707 17.7233 16.6342C18.9711 14.5024 20.0005 11.8913 20.0005 9.0588H18.0005ZM12.0005 3C15.3063 3 18.0005 5.70472 18.0005 9.0588H20.0005C20.0005 4.61595 16.4266 1 12.0005 1V3ZM6.00049 9.0588C6.00049 5.70472 8.69465 3 12.0005 3V1C7.57434 1 4.00049 4.61595 4.00049 9.0588H6.00049ZM11.4994 20.1472C10.5312 19.1574 9.14411 17.5722 8.00377 15.6239C6.86071 13.671 6.00049 11.4129 6.00049 9.0588H4.00049C4.00049 11.8913 5.02993 14.5024 6.27769 16.6342C7.52819 18.7707 9.03308 20.486 10.0696 21.5457L11.4994 20.1472ZM16.0005 9C16.0005 6.79086 14.2096 5 12.0005 5V7C13.1051 7 14.0005 7.89543 14.0005 9H16.0005ZM12.0005 13C14.2096 13 16.0005 11.2091 16.0005 9H14.0005C14.0005 10.1046 13.1051 11 12.0005 11V13ZM8.00049 9C8.00049 11.2091 9.79135 13 12.0005 13V11C10.8959 11 10.0005 10.1046 10.0005 9H8.00049ZM12.0005 5C9.79135 5 8.00049 6.79086 8.00049 9H10.0005C10.0005 7.89543 10.8959 7 12.0005 7V5ZM12.5016 20.1472C12.2144 20.4408 11.7866 20.4408 11.4994 20.1472L10.0696 21.5457C11.1413 22.6413 12.8597 22.6413 13.9313 21.5457L12.5016 20.1472Z" fill="#808080" mask="url(#path-1-inside-1_163_497)"/>
</svg>
