<svg width="24" height="24" viewBox="0 0 24 24" fill="none" xmlns="http://www.w3.org/2000/svg">
<path d="M14.4124 14.3919C15.0718 13.7381 15.4016 12.9408 15.4016 12C15.4016 11.0592 15.0718 10.2619 14.4124 9.60808C13.753 8.95423 12.9488 8.62731 12 8.62731C11.0512 8.62731 10.247 8.95423 9.5876 9.60808C8.92816 10.2619 8.59844 11.0592 8.59844 12C8.59844 12.9408 8.92816 13.7381 9.5876 14.3919C10.247 15.0458 11.0512 15.3727 12 15.3727C12.9488 15.3727 13.753 15.0458 14.4124 14.3919ZM10.2195 13.7654C9.73074 13.2808 9.48636 12.6923 9.48636 12C9.48636 11.3077 9.73074 10.7192 10.2195 10.2346C10.7083 9.75 11.3018 9.50769 12 9.50769C12.6982 9.50769 13.2917 9.75 13.7805 10.2346C14.2693 10.7192 14.5136 11.3077 14.5136 12C14.5136 12.6923 14.2693 13.2808 13.7805 13.7654C13.2917 14.25 12.6982 14.4923 12 14.4923C11.3018 14.4923 10.7083 14.25 10.2195 13.7654ZM6.93594 16.5515C5.40045 15.5858 4.16008 14.3195 3.21482 12.7528C3.13724 12.626 3.082 12.5014 3.04911 12.3789C3.01637 12.2565 3 12.1302 3 12C3 11.8698 3.01637 11.7435 3.04911 11.6211C3.082 11.4986 3.13724 11.374 3.21482 11.2472C4.16008 9.68046 5.40045 8.41423 6.93594 7.44854C8.47144 6.48285 10.1595 6 12 6C13.8405 6 15.5286 6.48285 17.0641 7.44854C18.5996 8.41423 19.8399 9.68046 20.7852 11.2472C20.8628 11.374 20.918 11.4986 20.9509 11.6211C20.9836 11.7435 21 11.8698 21 12C21 12.1302 20.9836 12.2565 20.9509 12.3789C20.918 12.5014 20.8628 12.626 20.7852 12.7528C19.8399 14.3195 18.5996 15.5858 17.0641 16.5515C15.5286 17.5172 13.8405 18 12 18C10.1595 18 8.47144 17.5172 6.93594 16.5515ZM16.8294 15.7038C18.2957 14.7885 19.4168 13.5538 20.1926 12C19.4168 10.4462 18.2957 9.21154 16.8294 8.29615C15.3632 7.38077 13.7533 6.92308 12 6.92308C10.2467 6.92308 8.63684 7.38077 7.17055 8.29615C5.70426 9.21154 4.58321 10.4462 3.80739 12C4.58321 13.5538 5.70426 14.7885 7.17055 15.7038C8.63684 16.6192 10.2467 17.0769 12 17.0769C13.7533 17.0769 15.3632 16.6192 16.8294 15.7038Z" fill="#EAF6F2"/>
</svg>
