<svg width="24" height="24" viewBox="0 0 24 24" fill="none" xmlns="http://www.w3.org/2000/svg">
<path d="M12.0448 18.9165C11.9077 18.8608 11.776 18.7756 11.6497 18.6609L10.8666 17.9341C9.27108 16.4866 7.8944 15.1014 6.73656 13.7785C5.57885 12.4556 5 11.1013 5 9.71576C5 8.66624 5.35392 7.78461 6.06177 7.07085C6.76948 6.35695 7.64375 6 8.68459 6C9.29462 6 9.93234 6.15758 10.5977 6.47275C11.2633 6.78777 11.8974 7.4102 12.5 8.34003C13.1317 7.4102 13.7749 6.78777 14.4297 6.47275C15.0844 6.15758 15.7106 6 16.3084 6C17.3496 6 18.2251 6.35695 18.935 7.07085C19.645 7.78461 20 8.66624 20 9.71576C20 11.1357 19.3932 12.5157 18.1795 13.8559C16.9658 15.1961 15.6172 16.5498 14.1334 17.9168L13.3335 18.6609C13.2072 18.7756 13.0727 18.8608 12.9302 18.9165C12.7876 18.9722 12.6386 19 12.4832 19C12.3278 19 12.1817 18.9722 12.0448 18.9165ZM12.1612 9.15795C11.7118 8.29347 11.1835 7.67045 10.5764 7.28888C9.96926 6.90715 9.33866 6.71629 8.68459 6.71629C7.83125 6.71629 7.12006 6.99982 6.55102 7.56689C5.98212 8.13395 5.69767 8.85315 5.69767 9.72449C5.69767 10.365 5.87267 11.014 6.22267 11.6717C6.57253 12.3295 7.04375 13.0117 7.63634 13.7183C8.22892 14.4247 8.91323 15.1441 9.68924 15.8765C10.4651 16.6089 11.2847 17.3711 12.1479 18.1631C12.2485 18.255 12.3658 18.3009 12.5 18.3009C12.6342 18.3009 12.7515 18.255 12.8521 18.1631C13.7153 17.3711 14.5349 16.6089 15.3108 15.8765C16.0868 15.1441 16.7711 14.4247 17.3637 13.7183C17.9563 13.0117 18.4275 12.3295 18.7773 11.6717C19.1273 11.014 19.3023 10.365 19.3023 9.72449C19.3023 8.85315 19.0179 8.13395 18.449 7.56689C17.8799 6.99982 17.1687 6.71629 16.3154 6.71629C15.6613 6.71629 15.0271 6.90715 14.4127 7.28888C13.7983 7.67045 13.2664 8.29347 12.817 9.15795C12.8001 9.23823 12.7595 9.29471 12.6951 9.32739C12.6307 9.36022 12.5653 9.37664 12.4989 9.37664C12.4325 9.37664 12.3638 9.36022 12.2929 9.32739C12.2219 9.29471 12.1781 9.23823 12.1612 9.15795Z" fill="#EAF6F2"/>
<path d="M12.1612 9.15795C11.7118 8.29347 11.1835 7.67045 10.5764 7.28888C9.96926 6.90715 9.33866 6.71629 8.68459 6.71629C7.83125 6.71629 7.12006 6.99982 6.55102 7.56689C5.98212 8.13395 5.69767 8.85315 5.69767 9.72449C5.69767 10.365 5.87267 11.014 6.22267 11.6717C6.57253 12.3295 7.04375 13.0117 7.63634 13.7183C8.22892 14.4247 8.91323 15.1441 9.68924 15.8765C10.4651 16.6089 11.2847 17.3711 12.1479 18.1631C12.2485 18.255 12.3658 18.3009 12.5 18.3009C12.6342 18.3009 12.7515 18.255 12.8521 18.1631C13.7153 17.3711 14.5349 16.6089 15.3108 15.8765C16.0868 15.1441 16.7711 14.4247 17.3637 13.7183C17.9563 13.0117 18.4275 12.3295 18.7773 11.6717C19.1273 11.014 19.3023 10.365 19.3023 9.72449C19.3023 8.85315 19.0179 8.13395 18.449 7.56689C17.8799 6.99982 17.1687 6.71629 16.3154 6.71629C15.6613 6.71629 15.0271 6.90715 14.4127 7.28888C13.7983 7.67045 13.2664 8.29347 12.817 9.15795C12.8001 9.23823 12.7595 9.29471 12.6951 9.32739C12.6307 9.36022 12.5653 9.37664 12.4989 9.37664C12.4325 9.37664 12.3638 9.36022 12.2929 9.32739C12.2219 9.29471 12.1781 9.23823 12.1612 9.15795Z" fill="#EAF6F2"/>
</svg>
