<svg width="20" height="20" viewBox="0 0 20 20" fill="none" xmlns="http://www.w3.org/2000/svg">
<path d="M3.6456 2C3.6456 2 1.64443 8.5 6.64389 8.5M6.6456 8.5C11.6445 8.5 9.64389 2 9.64389 2M6.6456 8.5V2M6.6456 8.5H6.64389M6.64389 8.5V17.5" stroke="#F7FCFF" stroke-width="1.6" stroke-linecap="round"/>
<path fill-rule="evenodd" clip-rule="evenodd" d="M11.95 2.80004C11.95 1.97167 12.6761 1.07118 13.7297 1.32663C14.5095 1.51571 15.4653 1.94696 16.2325 2.78144C17.0137 3.63131 17.55 4.8471 17.55 6.50004C17.55 8.54336 16.7274 9.84562 15.632 10.5777C14.9498 11.0335 14.1978 11.2444 13.55 11.3058V17.5C13.55 17.9419 13.1918 18.3 12.75 18.3C12.3081 18.3 11.95 17.9419 11.95 17.5V2.80004ZM13.55 9.69492C13.925 9.64 14.3557 9.50619 14.7429 9.2474C15.3559 8.83778 15.95 8.05671 15.95 6.50004C15.95 5.21977 15.5457 4.39858 15.0545 3.86427C14.6087 3.37927 14.0514 3.08856 13.55 2.93558V9.69492Z" fill="#F7FCFF"/>
</svg>
