<svg version="1.1" xmlns="http://www.w3.org/2000/svg" viewBox="-16 -16 128 256"
     width="1024" height="2048" fill="none" style="--cold-white: #444; --color: #444;">
  <g class="map">
    <g id='circleSmall' transform="translate(0, 0)">
      <g>
        <circle cx="0" cy="0" r="12" fill="transparent"/>
        <circle cx="0" cy="0" r="4" fill="var(--color)"/>
      </g>
    </g>
    <g id='circle' transform="translate(0, 0)">
      <circle cx="0" cy="0" r="12" fill="var(--color)"/>
    </g>
    <g id='star' transform="translate(32, 0)">
      <g>
      <g transform="scale(0.6666) translate(-24, -24)" class="notSelectedOnly">
        <path d="M23.0726 2.79976C23.4092 1.9651 24.5908 1.9651 24.9274 2.79976L26.9603 7.84073C27.2209 8.48692 28.0459 8.67522 28.561 8.20609L32.5798 4.54636C33.2452 3.9404 34.3098 4.45311 34.251 5.35115L33.8953 10.7749C33.8497 11.4702 34.5113 11.9978 35.179 11.7987L40.3877 10.245C41.2501 9.98779 41.9869 10.9116 41.5442 11.6952L38.8705 16.4276C38.5277 17.0342 38.8949 17.7966 39.5829 17.9069L44.9498 18.7671C45.8384 18.9095 46.1014 20.0615 45.3625 20.5754L40.9003 23.6791C40.3283 24.0769 40.3283 24.9231 40.9003 25.3209L45.3625 28.4246C46.1014 28.9385 45.8384 30.0905 44.9498 30.2329L39.5829 31.0931C38.8949 31.2034 38.5277 31.9658 38.8705 32.5724L41.5442 37.3048C41.9869 38.0884 41.2501 39.0122 40.3877 38.755L35.179 37.2013C34.5113 37.0022 33.8497 37.5298 33.8953 38.2251L34.251 43.6488C34.3098 44.5469 33.2452 45.0596 32.5798 44.4536L28.561 40.7939C28.0459 40.3248 27.2209 40.5131 26.9603 41.1593L24.9274 46.2002C24.5908 47.0349 23.4092 47.0349 23.0726 46.2002L21.0397 41.1593C20.7791 40.5131 19.9541 40.3248 19.439 40.7939L15.4202 44.4536C14.7548 45.0596 13.6902 44.5469 13.749 43.6488L14.1047 38.2251C14.1503 37.5298 13.4887 37.0022 12.821 37.2013L7.61231 38.755C6.74988 39.0122 6.01313 38.0884 6.45583 37.3048L9.12954 32.5724C9.47227 31.9658 9.10512 31.2034 8.41715 31.0931L3.0502 30.2329C2.16157 30.0905 1.89862 28.9385 2.63746 28.4246L7.09968 25.321C7.67169 24.9231 7.67169 24.0769 7.09968 23.6791L2.63746 20.5754C1.89862 20.0615 2.16157 18.9095 3.0502 18.7671L8.41714 17.9069C9.10512 17.7966 9.47227 17.0342 9.12954 16.4276L6.45583 11.6952C6.01313 10.9117 6.74988 9.98779 7.61231 10.245L12.821 11.7987C13.4887 11.9978 14.1503 11.4702 14.1047 10.7749L13.749 5.35115C13.6902 4.45311 14.7548 3.9404 15.4202 4.54636L19.439 8.20609C19.9541 8.67522 20.7791 8.48692 21.0397 7.84073L23.0726 2.79976Z"
              fill="var(--color)"/>
      </g>
      <g transform="scale(0.6666) translate(-24, -48)" class="selectedOnly">
        <path d="M52 26C52 40.3594 42.5 47.5 26 63.5C10 48.5 0 40.3594 0 26C0 11.6406 11.6406 0 26 0C40.3594 0 52 11.6406 52 26Z"
              fill="var(--color)"/>
      </g>
      </g>
    </g>
    <g id="art" transform="translate(16, 32)">
      <g transform="scale(0.8) translate(-2,-2)">
        <path fill="var(--cold-white)" d="M5.95601 16.8887L9.19009 14.9225L12.4242 16.9146L11.5772 13.1891L14.4262 10.7054L10.6788 10.369L9.19009 6.8505L7.70139 10.3432L3.95396 10.6795L6.80303 13.1891L5.95601 16.8887ZM9.19009 17.3544L4.92932 19.9416C4.74109 20.0623 4.54431 20.114 4.33897 20.0968C4.13363 20.0795 3.95396 20.0106 3.79996 19.8898C3.64595 19.7691 3.52617 19.6182 3.44061 19.4371C3.35506 19.256 3.33795 19.0533 3.38928 18.8291L4.51864 13.9393L0.745546 10.6536C0.574431 10.4984 0.467483 10.3216 0.424705 10.1233C0.381926 9.92492 0.394759 9.73088 0.463206 9.54116C0.531652 9.35143 0.634321 9.1962 0.771213 9.07547C0.908106 8.95473 1.09633 8.87712 1.33589 8.84262L6.31535 8.4028L8.2404 3.79765C8.32596 3.59068 8.45858 3.43545 8.63825 3.33196C8.81792 3.22847 9.00187 3.17673 9.19009 3.17673C9.37832 3.17673 9.56227 3.22847 9.74194 3.33196C9.92161 3.43545 10.0542 3.59068 10.1398 3.79765L12.0648 8.4028L17.0443 8.84262C17.2839 8.87712 17.4721 8.95473 17.609 9.07547C17.7459 9.1962 17.8485 9.35143 17.917 9.54116C17.9854 9.73088 17.9983 9.92492 17.9555 10.1233C17.9127 10.3216 17.8058 10.4984 17.6346 10.6536L13.8615 13.9393L14.9909 18.8291C15.0422 19.0533 15.0251 19.256 14.9396 19.4371C14.854 19.6182 14.7342 19.7691 14.5802 19.8898C14.4262 20.0106 14.2466 20.0795 14.0412 20.0968C13.8359 20.114 13.6391 20.0623 13.4509 19.9416L9.19009 17.3544ZM16.6336 5.50518L15.0936 6.41069C14.9909 6.46243 14.8925 6.45812 14.7984 6.39775C14.7043 6.33738 14.6743 6.24683 14.7086 6.1261L15.1192 4.41857L13.7589 3.28022C13.6733 3.19398 13.6477 3.10343 13.6819 3.00856C13.7161 2.9137 13.7931 2.85765 13.9129 2.8404L15.7096 2.68517L16.4026 1.05525C16.4368 0.951768 16.5138 0.900024 16.6336 0.900024C16.7534 0.900024 16.8304 0.951768 16.8646 1.05525L17.5576 2.68517L19.3544 2.8404C19.4741 2.85765 19.5511 2.9137 19.5854 3.00856C19.6196 3.10343 19.5939 3.19398 19.5084 3.28022L18.148 4.41857L18.5587 6.1261C18.5929 6.24683 18.5629 6.33738 18.4688 6.39775C18.3747 6.45812 18.2763 6.46243 18.1737 6.41069L16.6336 5.50518Z"/>
      </g>
    </g>
    <g id="lecture" transform="translate(32, 32)">
      <g>
          <path d="M15.2008 6.64844L8.00078 2.89844L0.800781 6.64844L8.00078 10.3984L15.2008 6.64844ZM15.2008 6.64844L15.2008 11.1484M13.0408 7.77344L13.0408 12.2734L8.00078 14.8984L2.96078 12.2734L2.96078 7.77344"
                stroke="var(--cold-white)" stroke-width="1.6" stroke-linecap="round" stroke-linejoin="round"/>
      </g>
    </g>
    <g id="cafe" transform="translate(48, 32)">
      <g>
        <path d="M2.91609 2.10156C2.91609 2.10156 1.31515 7.30156 5.31472 7.30156M5.31609 7.30156C9.31523 7.30156 7.71472 2.10156 7.71472 2.10156M5.31609 7.30156V2.10156M5.31609 7.30156H5.31472M5.31472 7.30156L5.31472 14.5016"
              stroke="var(--cold-white)" stroke-width="1.6" stroke-linecap="round"/>
        <path d="M10.1992 14.5016L10.1992 8.90156M10.1992 8.90156V2.90156C10.1992 2.45973 10.5625 2.1021 10.9866 2.22611C12.0342 2.53248 13.3992 3.46665 13.3992 5.70156C13.3992 8.58156 11.1326 9.0349 10.1992 8.90156Z"
              stroke="var(--cold-white)" stroke-width="1.6" stroke-linecap="round"/>
      </g>
    </g>
    <g id="kpp" transform="translate(45,15)">
      <g>
        <path transform="translate(1, 0)" fill="var(--cold-white)" d="M7.10718 10.3656C7.63677 10.4229 8.04995 10.9 8.04995 11.48C8.04995 12.06 7.63677 12.5371 7.10718 12.5944L6.99995 12.6C6.42005 12.6 5.94995 12.0986 5.94995 11.48C5.94995 10.8614 6.42005 10.36 6.99995 10.36L7.10718 10.3656ZM5.94995 6.99999V2.51999C5.94995 1.90144 6.42005 1.39999 6.99995 1.39999C7.57985 1.39999 8.04995 1.90144 8.04995 2.51999V6.99999C8.04995 7.61855 7.57985 8.11999 6.99995 8.11999C6.42005 8.11999 5.94995 7.61855 5.94995 6.99999Z"/>
      </g>
    </g>
    <g id="sign" transform="translate(112, 32)">
      <g>
          <path d="M8 10.5V2.5M8 14.9H8.008" stroke="var(--cold-white)"
                stroke-width="3.6" stroke-linecap="round"/>
      </g>
    </g>
    <g id="eye" transform="translate(64, 32)">
      <g>
        <path fill-rule="evenodd" clip-rule="evenodd" d="M11.2 8.49844C11.2 10.2657 9.76731 11.6984 8 11.6984C6.23269 11.6984 4.8 10.2657 4.8 8.49844C4.8 6.73113 6.23269 5.29844 8 5.29844C9.76731 5.29844 11.2 6.73113 11.2 8.49844ZM9.6 8.49844C9.6 9.38209 8.88366 10.0984 8 10.0984C7.11634 10.0984 6.4 9.38209 6.4 8.49844C6.4 7.61478 7.11634 6.89844 8 6.89844C8.88366 6.89844 9.6 7.61478 9.6 8.49844Z"
              fill="var(--cold-white)"/>
        <path fill-rule="evenodd" clip-rule="evenodd" d="M8.00029 2.89844C3.82011 2.89844 0.387062 7.8842 0.014393 8.44858C0.00503183 8.46313 0 8.48056 0 8.49844C0 8.51632 0.00503183 8.53375 0.014393 8.5483C0.387062 9.1077 3.82011 14.0984 8.00029 14.0984C12.1805 14.0984 15.6135 9.1077 15.9862 8.5483C15.9952 8.53359 16 8.51622 16 8.49844C16 8.48066 15.9952 8.46329 15.9862 8.44858C15.6135 7.88818 12.1805 2.89844 8.00029 2.89844ZM12.3358 10.3575C13.0499 9.69831 13.6349 9.01623 14.0419 8.49824C13.635 7.98036 13.05 7.29824 12.3359 6.63908C10.9991 5.40528 9.47667 4.49844 8.00029 4.49844C6.52351 4.49844 5.00091 5.40474 3.66451 6.63779C2.94971 7.29732 2.36437 7.9799 1.95809 8.49743C2.36507 9.01552 2.95035 9.69797 3.66479 10.3575C5.00157 11.5915 6.52402 12.4984 8.00029 12.4984C9.47657 12.4984 10.999 11.5915 12.3358 10.3575Z"
              fill="var(--cold-white)"/>
      </g>
    </g>
    <g id="shop" transform="translate(96, 32)">
      <g>
        <path d="M5.90039 7.79045V4.2349C5.90039 3.05669 6.84059 2.10156 8.00039 2.10156C9.16019 2.10156 10.1004 3.05669 10.1004 4.2349V7.76717M6.88039 14.9016H9.12039C10.6885 14.9016 11.4726 14.9016 12.0716 14.5915C12.5984 14.3188 13.0268 13.8837 13.2952 13.3485C13.6004 12.74 13.6004 11.9435 13.6004 10.3505L13.6004 8.64378C13.6004 7.84727 13.6004 7.44901 13.4478 7.14478C13.3136 6.87717 13.0994 6.6596 12.836 6.52324C12.5365 6.36823 12.1445 6.36823 11.3604 6.36823L4.64039 6.36823C3.85632 6.36823 3.46428 6.36823 3.1648 6.52324C2.90138 6.6596 2.6872 6.87717 2.55298 7.14478C2.40039 7.44901 2.40039 7.84727 2.40039 8.64378V10.3505C2.40039 11.9435 2.40039 12.74 2.70557 13.3485C2.97402 13.8837 3.40236 14.3188 3.92922 14.5915C4.52817 14.9016 5.31224 14.9016 6.88039 14.9016Z"
              stroke="var(--cold-white)" stroke-width="1.6" stroke-linecap="round" stroke-linejoin="round"/>
      </g>
    </g>
    <g id="tent">
      <g transform="translate(-2,-2)">
        <path fill-rule="evenodd" clip-rule="evenodd"
              d="M6.52781 5.35785C6.66419 5.13551 6.90629 5 7.16712 5H12.8329C13.0937 5 13.3358 5.13551 13.4722 5.35785L19.2994 14.8579C19.6059 15.3576 19.2464 16 18.6601 16H1.3399C0.753642 16 0.394053 15.3576 0.700585 14.8579L6.52781 5.35785ZM7.73215 6.69231L3.4384 14.3077H6.74732L11.0411 6.69231H7.73215ZM12.7603 7.37158L8.95893 14.3077H11.8402V12.6154H13.6804V14.3077H16.5616L12.7603 7.37158Z"
              fill="var(--cold-white)"/>
      </g>
    </g>
    <g id="wc" transform="translate(80, 32)">
      <g transform="scale(0.8)">
        <path d="M1.7702 5.78519C1.65189 5.3595 1.21088 5.11032 0.78519 5.22864C0.359499 5.34696 0.110323 5.78796 0.22864 6.21365L2.7829 15.4036C3.06498 16.4185 4.52212 16.3638 4.72724 15.3305L5.76413 10.1077L6.80102 15.3305C7.00614 16.3637 8.46327 16.4185 8.74535 15.4036L11.2996 6.21365C11.4179 5.78796 11.1688 5.34696 10.7431 5.22864C10.3174 5.11032 9.87637 5.3595 9.75805 5.78519L7.87923 12.545L6.74498 6.83176C6.53182 5.75807 4.99643 5.75807 4.78327 6.83176L3.64903 12.545L1.7702 5.78519Z"
              fill="var(--cold-white)"/>
        <path d="M14.5063 10.9992C14.5063 9.74273 14.8225 8.64341 15.2915 7.8841C15.7682 7.11228 16.3218 6.79922 16.7947 6.79922C17.2737 6.79922 17.8361 7.12095 18.3161 7.9136C18.5449 8.29154 19.0368 8.41239 19.4147 8.18353C19.7927 7.95468 19.9135 7.46277 19.6847 7.08484C19.0436 6.02613 18.0438 5.19922 16.7947 5.19922C15.5619 5.19922 14.5713 6.00545 13.9302 7.04327C13.2814 8.09361 12.9062 9.49428 12.9062 10.9992C12.9062 12.5042 13.2814 13.9048 13.9302 14.9552C14.5713 15.993 15.5619 16.7992 16.7947 16.7992C18.0438 16.7992 19.0436 15.9723 19.6847 14.9136C19.9135 14.5357 19.7927 14.0438 19.4147 13.8149C19.0368 13.586 18.5449 13.7069 18.3161 14.0848C17.8361 14.8775 17.2737 15.1992 16.7947 15.1992C16.3218 15.1992 15.7682 14.8862 15.2915 14.1143C14.8225 13.355 14.5063 12.2557 14.5063 10.9992Z"
              fill="var(--cold-white)"/>
      </g>
    </g>
    <g id="shower" transform="translate(0, 32)">
      <g>
        <path d="M13.5996 10.3C13.5996 12.6196 12.2955 14.5 9.93294 14.5C7.57039 14.5 6.26628 12.6196 6.26628 10.3C6.26628 8.78533 7.82972 5.92291 8.91479 4.11872C9.2242 3.60424 9.37891 3.34701 9.61278 3.24487C9.8071 3.16002 10.0588 3.16002 10.2531 3.24487C10.487 3.34701 10.6417 3.60424 10.9511 4.11872C12.0362 5.92291 13.5996 8.78533 13.5996 10.3Z"
              stroke="var(--cold-white)" stroke-width="2" stroke-linecap="round" stroke-linejoin="round"/>
        <path d="M4.93294 5.96667C4.93294 6.9976 4.34016 7.83333 3.26628 7.83333C2.19239 7.83333 1.59961 6.9976 1.59961 5.96667C1.59961 5.50861 1.92863 4.77323 2.2943 4.09738C2.558 3.60999 2.68986 3.3663 2.93282 3.25488C3.12346 3.16747 3.40909 3.16747 3.59973 3.25488C3.84269 3.3663 3.97455 3.60999 4.23825 4.09738C4.60392 4.77323 4.93294 5.50861 4.93294 5.96667Z"
              stroke="var(--cold-white)" stroke-width="2" stroke-linecap="round" stroke-linejoin="round"/>
      </g>
    </g>
    <g id="direction">
      <g transform="translate(-2,-2)">
        <path fill-rule="evenodd" clip-rule="evenodd" d="M8.4942 1.79922C8.38375 1.79922 8.2942 1.88876 8.2942 1.99922V3.92336H10.4935V1.99922C10.4935 1.88876 10.404 1.79922 10.2935 1.79922H8.4942ZM12.0935 3.92336V1.99922C12.0935 1.00511 11.2876 0.199219 10.2935 0.199219H8.4942C7.50009 0.199219 6.6942 1.00511 6.6942 1.99922V3.92336H3.59922C2.82602 3.92336 2.19922 4.55016 2.19922 5.32336V10.3303C2.19922 11.1035 2.82602 11.7303 3.59922 11.7303H6.6942V17.9992C6.6942 18.9933 7.50009 19.7992 8.4942 19.7992H10.2935C11.2876 19.7992 12.0935 18.9933 12.0935 17.9992V11.7303H14.3172C14.6014 11.7303 14.8788 11.6438 15.1127 11.4823L18.7386 8.97889C19.5447 8.42234 19.5447 7.23127 18.7386 6.67472L15.1127 4.17127C14.8788 4.00983 14.6014 3.92336 14.3172 3.92336H12.0935ZM10.4935 11.7303H8.2942V17.9992C8.2942 18.1097 8.38375 18.1992 8.4942 18.1992H10.2935C10.404 18.1992 10.4935 18.1097 10.4935 17.9992V11.7303ZM3.79922 5.52336V10.1303H14.2549L17.5912 7.82681L14.2549 5.52336H3.79922Z"
              fill="var(--cold-white)"/>
      </g>
    </g>
    <g id="fountain" transform="translate(0, 15)">
      <g transform="translate(-10,-8)">
        <path fill="var(--cold-white)" d="M12.7969 22.6111C12.7978 21.8484 13.4568 21.2231 14.2783 21.2222V21.4447L14.1514 21.4501C13.5262 21.5104 13.0385 22.0074 13.0377 22.6111V23.3891L13.046 23.464C13.0512 23.4891 13.059 23.514 13.0694 23.5378C13.0902 23.5848 13.1205 23.6276 13.1587 23.6636C13.1971 23.6997 13.2426 23.7287 13.2927 23.7483C13.3428 23.7678 13.397 23.7776 13.4512 23.7776H22.5487C22.6584 23.7775 22.7637 23.7367 22.8412 23.6636C22.8993 23.609 22.9381 23.5397 22.954 23.4651L22.9622 23.3891V22.6111C22.9615 22.0074 22.4737 21.5104 21.8485 21.4501L21.7216 21.4447V21.2222C22.5431 21.2231 23.2021 21.8484 23.203 22.6111V23.388L23.1901 23.5074C23.1653 23.6243 23.1043 23.7337 23.0127 23.8199C22.8902 23.935 22.7232 24 22.5487 24H13.4512C13.3648 24 13.2795 23.9833 13.1998 23.9523C13.1203 23.9213 13.0477 23.8767 12.9872 23.8199C12.9267 23.763 12.8788 23.6952 12.8462 23.6213C12.8137 23.5474 12.7969 23.4677 12.7969 23.388V22.6111ZM21.8943 22.6111C21.8943 22.5152 21.8131 22.4442 21.7216 22.444H14.2783C14.1868 22.4442 14.1057 22.5153 14.1056 22.6111V22.7771H21.8943V22.6111ZM24.6163 15.9998C24.6163 15.9224 24.592 15.8473 24.547 15.7838L24.4953 15.7253C24.4372 15.6706 24.3632 15.6338 24.2838 15.6189L24.2028 15.6113V15.3889C24.3778 15.3887 24.5446 15.4541 24.6668 15.569L24.7479 15.6623C24.7949 15.7287 24.8276 15.8027 24.8442 15.8804L24.8571 15.9998C24.8547 18.0507 23.0857 19.7193 20.8946 19.7216H19.8949V21.2222H21.7216V21.4447H19.654V19.5002H20.8946L21.0861 19.4948C22.988 19.4022 24.5131 17.9686 24.6116 16.1799L24.6163 15.9998ZM11.1428 15.9998C11.1428 15.839 11.211 15.6839 11.3331 15.569L11.4318 15.493C11.4675 15.4706 11.5057 15.4511 11.5458 15.4355C11.6254 15.4046 11.7108 15.3888 11.7972 15.3889V15.6113L11.7161 15.6178C11.6897 15.6228 11.6636 15.6309 11.6386 15.6406L11.5669 15.6764C11.5446 15.6905 11.5237 15.7073 11.5047 15.7253L11.453 15.7838C11.408 15.8473 11.3837 15.9224 11.3837 15.9998L11.3883 16.1799C11.4868 17.9686 13.0119 19.4022 14.9138 19.4948L15.1053 19.5002H16.3459V21.4447H14.2783V21.2222H16.1051V19.7216H15.1053C12.9826 19.7193 11.2565 18.1534 11.1487 16.1907L11.1428 15.9998ZM18.827 19.5002V21.4447H17.1729V19.5002H18.827ZM17.4138 21.2222H18.5862V19.7216H17.4138V21.2222ZM23.7599 16.3882C23.5655 17.6432 22.4813 18.595 21.1613 18.7103L20.8946 18.7222V18.4998C22.118 18.4982 23.1722 17.7118 23.4674 16.6107H12.5326C12.8278 17.7118 13.8821 18.4982 15.1053 18.4998V18.7222L14.8387 18.7103C13.5188 18.595 12.4346 17.6432 12.2401 16.3882H23.7599ZM20.8946 18.4998V18.7222H15.1053V18.4998H20.8946ZM17.3456 13.8611C17.3456 13.0135 16.6164 12.3333 15.7256 12.3333C14.8349 12.3333 14.1056 13.0135 14.1056 13.8611V14.0553C14.1056 14.3889 13.8167 14.6662 13.4512 14.6662C13.086 14.6662 12.7969 14.389 12.7969 14.0553V13.8611C12.7945 12.7603 13.4934 11.7619 14.5755 11.3296C15.4946 10.9625 16.5359 11.0665 17.3456 11.5759V9.97221C17.3456 9.55419 16.9866 9.22242 16.5526 9.22242C16.1186 9.22246 15.7597 9.55423 15.7597 9.97221C15.7596 10.3058 15.4708 10.5831 15.1053 10.5831C14.7854 10.5831 14.524 10.3705 14.4639 10.0937L14.451 9.97221C14.4476 9.13656 15.009 8.38766 15.8537 8.11023C16.609 7.86234 17.4378 8.04219 18 8.55294C18.5622 8.04221 19.3909 7.86233 20.1463 8.11023C20.9909 8.38766 21.5523 9.13656 21.549 9.97221L21.536 10.0937C21.476 10.3706 21.2145 10.5831 20.8946 10.5831C20.5293 10.5831 20.2403 10.3058 20.2403 9.97221C20.2403 9.55423 19.8813 9.22246 19.4473 9.22242C19.0134 9.22242 18.6543 9.55419 18.6543 9.97221V11.5759C19.4641 11.0665 20.5053 10.9625 21.4244 11.3296C22.439 11.7349 23.116 12.6378 23.1948 13.656L23.203 13.8611V14.0553C23.203 14.389 22.9142 14.6662 22.5487 14.6662C22.1832 14.6662 21.8943 14.3889 21.8943 14.0553V13.8611C21.8943 13.0135 21.165 12.3333 20.2743 12.3333C19.3835 12.3333 18.6543 13.0135 18.6543 13.8611V15.3889L24.2028 15.3889V15.6113L18.4135 15.6113V13.8611C18.4135 12.8945 19.2465 12.1109 20.2743 12.1109C21.302 12.1109 22.1352 12.8945 22.1352 13.8611V14.0553C22.1352 14.2432 22.2769 14.3999 22.4653 14.4362L22.5487 14.4438C22.7487 14.4437 22.9156 14.3108 22.954 14.1335L22.9622 14.0553V13.8611C22.9645 12.8471 22.3205 11.93 21.3281 11.5336C20.3358 11.1375 19.1876 11.3391 18.4135 12.0447V9.97221C18.4135 9.43529 18.8764 8.99999 19.4473 8.99999L19.553 9.00433C20.0744 9.05413 20.4811 9.46886 20.4811 9.97221L20.4893 10.0503C20.5278 10.2276 20.6947 10.3607 20.8946 10.3607C21.0945 10.3607 21.2614 10.2276 21.2999 10.0503L21.3081 9.97221C21.3112 9.27497 20.8727 8.6483 20.2027 8.37064L20.0664 8.31965C19.3198 8.07454 18.4896 8.30203 18 8.88605C17.5104 8.30199 16.6801 8.07454 15.9335 8.31965L15.7973 8.37064C15.1272 8.6483 14.6887 9.27497 14.6918 9.97221L14.7 10.0503C14.733 10.2023 14.8604 10.3219 15.0219 10.3531L15.1053 10.3607C15.3053 10.3607 15.4721 10.2276 15.5106 10.0503L15.5188 9.97221C15.5188 9.43531 15.9816 9.00002 16.5526 8.99999L16.6584 9.00433C17.1797 9.05408 17.5864 9.46882 17.5864 9.97221V12.0447C16.8123 11.3391 15.6641 11.1375 14.6718 11.5336L14.4897 11.6139C13.6012 12.0449 13.0355 12.9104 13.0377 13.8611V14.0553C13.0377 14.27 13.2229 14.4437 13.4512 14.4438C13.6512 14.4438 13.8181 14.3108 13.8565 14.1335L13.8648 14.0553V13.8611C13.8648 12.8945 14.698 12.1109 15.7256 12.1109L15.9159 12.1196C16.8543 12.2092 17.5864 12.9549 17.5864 13.8611V15.6113H11.7972V15.3889H17.3456V13.8611ZM22.1352 22.9996H13.8648V22.6111C13.8649 22.3964 14.0499 22.2217 14.2783 22.2216H21.7216L21.8051 22.2303C21.9934 22.2667 22.135 22.4232 22.1352 22.6111V22.9996Z"/>
        <path fill="var(--cold-white)" fill-rule="evenodd" clip-rule="evenodd" d="M14.2783 21.4447L14.1514 21.4501C13.5262 21.5104 13.0385 22.0074 13.0377 22.6111V23.3891L13.046 23.464C13.0512 23.4891 13.059 23.514 13.0694 23.5378C13.0902 23.5848 13.1205 23.6276 13.1587 23.6636C13.1971 23.6997 13.2426 23.7287 13.2927 23.7483C13.3428 23.7678 13.397 23.7776 13.4512 23.7776H22.5487C22.6584 23.7775 22.7637 23.7367 22.8412 23.6636C22.8993 23.609 22.9381 23.5397 22.954 23.4651L22.9622 23.3891V22.6111C22.9615 22.0074 22.4737 21.5104 21.8485 21.4501L21.7216 21.4447H19.654V19.5002H20.8946L21.0861 19.4948C22.988 19.4022 24.5131 17.9686 24.6116 16.1799L24.6163 15.9998C24.6163 15.9224 24.592 15.8473 24.547 15.7838L24.4953 15.7253C24.4372 15.6706 24.3632 15.6338 24.2838 15.6189L24.2028 15.6113L18.4135 15.6113V13.8611C18.4135 12.8945 19.2465 12.1109 20.2743 12.1109C21.302 12.1109 22.1352 12.8945 22.1352 13.8611V14.0553C22.1352 14.2432 22.2769 14.3999 22.4653 14.4362L22.5487 14.4438C22.7487 14.4437 22.9156 14.3108 22.954 14.1335L22.9622 14.0553V13.8611C22.9645 12.8471 22.3205 11.93 21.3281 11.5336C20.3358 11.1375 19.1876 11.3391 18.4135 12.0447V9.97221C18.4135 9.43529 18.8764 8.99999 19.4473 8.99999L19.553 9.00433C20.0744 9.05413 20.4811 9.46886 20.4811 9.97221L20.4893 10.0503C20.5278 10.2276 20.6947 10.3607 20.8946 10.3607C21.0945 10.3607 21.2614 10.2276 21.2999 10.0503L21.3081 9.97221C21.3112 9.27497 20.8727 8.6483 20.2027 8.37064L20.0664 8.31965C19.3198 8.07454 18.4896 8.30203 18 8.88605C17.5104 8.30199 16.6801 8.07454 15.9335 8.31965L15.7973 8.37064C15.1272 8.6483 14.6887 9.27497 14.6918 9.97221L14.7 10.0503C14.733 10.2023 14.8604 10.3219 15.0219 10.3531L15.1053 10.3607C15.3053 10.3607 15.4721 10.2276 15.5106 10.0503L15.5188 9.97221C15.5188 9.43531 15.9816 9.00002 16.5526 8.99999L16.6584 9.00433C17.1797 9.05408 17.5864 9.46882 17.5864 9.97221V12.0447C16.8123 11.3391 15.6641 11.1375 14.6718 11.5336L14.4897 11.6139C13.6012 12.0449 13.0355 12.9104 13.0377 13.8611V14.0553C13.0377 14.27 13.2229 14.4437 13.4512 14.4438C13.6512 14.4438 13.8181 14.3108 13.8565 14.1335L13.8648 14.0553V13.8611C13.8648 12.8945 14.698 12.1109 15.7256 12.1109L15.9159 12.1196C16.8543 12.2092 17.5864 12.9549 17.5864 13.8611V15.6113H11.7972L11.7161 15.6178C11.6897 15.6228 11.6636 15.6309 11.6386 15.6406L11.5669 15.6764C11.5446 15.6905 11.5237 15.7073 11.5047 15.7253L11.453 15.7838C11.408 15.8473 11.3837 15.9224 11.3837 15.9998L11.3883 16.1799C11.4868 17.9686 13.0119 19.4022 14.9138 19.4948L15.1053 19.5002H16.3459V21.4447H14.2783ZM18.827 21.4447V19.5002H17.1729V21.4447H18.827ZM23.7599 16.3882C23.5655 17.6432 22.4813 18.595 21.1613 18.7103L20.8946 18.7222H15.1053L14.8387 18.7103C13.5188 18.595 12.4346 17.6432 12.2401 16.3882H23.7599ZM13.8648 22.9996H22.1352V22.6111C22.135 22.4232 21.9934 22.2667 21.8051 22.2303L21.7216 22.2216H14.2783C14.0499 22.2217 13.8649 22.3964 13.8648 22.6111V22.9996Z"/>
      </g>
    </g>
    <g id="magnifying-glass" transform="translate(15, 15)">
      <g>
        <path fill="var(--cold-white)" d="M6.22456 9.34891C5.21157 9.34891 4.35425 8.99808 3.65259 8.29642C2.95093 7.59476 2.6001 6.73743 2.6001 5.72444C2.6001 4.71145 2.95093 3.85412 3.65259 3.15246C4.35425 2.45081 5.21157 2.09998 6.22456 2.09998C7.23756 2.09998 8.09488 2.45081 8.79654 3.15246C9.4982 3.85412 9.84903 4.71145 9.84903 5.72444C9.84903 6.13336 9.78398 6.51904 9.65387 6.88148C9.52376 7.24393 9.34718 7.56456 9.12414 7.84336L12.2468 10.966C12.349 11.0682 12.4001 11.1983 12.4001 11.3563C12.4001 11.5143 12.349 11.6444 12.2468 11.7466C12.1445 11.8489 12.0144 11.9 11.8564 11.9C11.6984 11.9 11.5683 11.8489 11.4661 11.7466L8.34348 8.62401C8.06468 8.84706 7.74405 9.02364 7.38161 9.15374C7.01916 9.28385 6.63348 9.34891 6.22456 9.34891ZM6.22456 8.23369C6.92158 8.23369 7.51404 7.98973 8.00195 7.50182C8.48986 7.01392 8.73381 6.42145 8.73381 5.72444C8.73381 5.02743 8.48986 4.43497 8.00195 3.94706C7.51404 3.45915 6.92158 3.2152 6.22456 3.2152C5.52755 3.2152 4.93509 3.45915 4.44718 3.94706C3.95927 4.43497 3.71532 5.02743 3.71532 5.72444C3.71532 6.42145 3.95927 7.01392 4.44718 7.50182C4.93509 7.98973 5.52755 8.23369 6.22456 8.23369Z"/>
      </g>
    </g>
    <g id="fire" transform="translate(30, 15)">
      <g>
        <path fill="var(--cold-white)" d="M7.5 14C5.7901 14 4.3418 13.4029 3.15508 12.2088C1.96836 11.0147 1.375 9.55736 1.375 7.8368C1.375 6.38588 1.80247 4.99274 2.65742 3.65737C3.51237 2.32201 4.68633 1.15357 6.1793 0.152053C6.46003 -0.0405474 6.75033 -0.0501774 7.0502 0.123163C7.35007 0.296503 7.5 0.556513 7.5 0.903193V1.90471C7.5 2.34127 7.64993 2.70721 7.9498 3.00253C8.24967 3.29785 8.61654 3.44551 9.05039 3.44551C9.26732 3.44551 9.47467 3.39736 9.67246 3.30106C9.87025 3.20476 10.0457 3.06673 10.1988 2.88697C10.3009 2.75857 10.4317 2.67832 10.5912 2.64622C10.7507 2.61412 10.9007 2.64943 11.041 2.75215C11.8449 3.32995 12.4766 4.06825 12.9359 4.96706C13.3953 5.86586 13.625 6.82244 13.625 7.8368C13.625 9.55736 13.0316 11.0147 11.8449 12.2088C10.6582 13.4029 9.2099 14 7.5 14ZM2.90625 7.8368C2.90625 8.50448 3.04023 9.13685 3.3082 9.73391C3.57617 10.331 3.95898 10.8542 4.45664 11.3036C4.44388 11.2394 4.4375 11.1816 4.4375 11.1303V10.9569C4.4375 10.546 4.51406 10.1608 4.66719 9.80132C4.82031 9.4418 5.04362 9.11438 5.33711 8.81906L7.5 6.6812L9.66289 8.81906C9.95638 9.11438 10.1797 9.4418 10.3328 9.80132C10.4859 10.1608 10.5625 10.546 10.5625 10.9569V11.1303C10.5625 11.1816 10.5561 11.2394 10.5434 11.3036C11.041 10.8542 11.4238 10.331 11.6918 9.73391C11.9598 9.13685 12.0938 8.50448 12.0938 7.8368C12.0938 7.1948 11.9757 6.58811 11.7396 6.01673C11.5036 5.44535 11.1622 4.93496 10.7156 4.48555C10.4604 4.65247 10.1924 4.77766 9.91172 4.86112C9.63099 4.94458 9.34388 4.98632 9.05039 4.98632C8.25924 4.98632 7.57337 4.72309 6.99277 4.19665C6.41217 3.67021 6.07721 3.02179 5.98789 2.25139C4.99258 3.09883 4.23014 4.00084 3.70059 4.95743C3.17103 5.91401 2.90625 6.8738 2.90625 7.8368ZM7.5 8.83832L6.40898 9.91688C6.26862 10.0581 6.16016 10.2186 6.08359 10.3984C6.00703 10.5781 5.96875 10.7643 5.96875 10.9569C5.96875 11.3678 6.11868 11.7209 6.41855 12.0162C6.71842 12.3115 7.07891 12.4592 7.5 12.4592C7.92109 12.4592 8.28158 12.3115 8.58144 12.0162C8.88132 11.7209 9.03125 11.3678 9.03125 10.9569C9.03125 10.7515 8.99297 10.5621 8.91641 10.3887C8.83984 10.2154 8.73138 10.0581 8.59102 9.91688L7.5 8.83832Z"/>
      </g>
    </g>
    <g id="recycling" transform="translate(60, 15)">
      <g transform="translate(1, 1)">
        <path fill="var(--cold-white)" d="M5.49441 4.37572L6.66586 2.42904L5.64946 0.740771C5.51164 0.511075 5.31352 0.396226 5.05512 0.396226C4.79671 0.396226 4.59859 0.511075 4.46078 0.740771L3.13428 2.96308C3.0424 3.12387 3.01656 3.29902 3.05676 3.48851C3.09695 3.67801 3.19745 3.8187 3.35823 3.91058L4.54691 4.6169C4.7077 4.70878 4.88284 4.73175 5.07234 4.68581C5.26184 4.63987 5.40253 4.53651 5.49441 4.37572ZM11.7996 9.64725L10.6281 7.70057C10.5248 7.53979 10.4989 7.36464 10.5506 7.17514C10.6023 6.98564 10.7085 6.84495 10.8693 6.75308L12.0752 6.06399C12.236 5.97211 12.4083 5.94914 12.592 5.99508C12.7758 6.04102 12.9136 6.14438 13.0055 6.30517L13.7635 7.56276C13.8898 7.758 13.9587 7.97621 13.9702 8.21739C13.9817 8.45857 13.93 8.68253 13.8152 8.88925C13.7003 9.11895 13.5309 9.30271 13.307 9.44052C13.083 9.57834 12.839 9.64725 12.5748 9.64725H11.7996ZM9.23272 13.8852L7.54445 12.1969C7.40663 12.0591 7.33772 11.8983 7.33772 11.7145C7.33772 11.5308 7.40663 11.37 7.54445 11.2322L9.23272 9.54389C9.34757 9.42904 9.4739 9.40033 9.61172 9.45775C9.74954 9.51518 9.81845 9.62428 9.81845 9.78507V10.3363H13.0916L12.0924 12.3347C11.9661 12.5644 11.7938 12.7482 11.5756 12.886C11.3574 13.0238 11.1162 13.0927 10.8521 13.0927H9.81845V13.644C9.81845 13.8048 9.74954 13.9139 9.61172 13.9713C9.4739 14.0287 9.34757 14 9.23272 13.8852ZM3.15151 13.0927C2.92181 13.0927 2.71221 13.0324 2.52271 12.9118C2.33321 12.7912 2.19252 12.6333 2.10065 12.4381C2.00877 12.2543 1.9657 12.0619 1.97144 11.861C1.97718 11.66 2.03174 11.4733 2.1351 11.3011L2.72083 10.3363H4.99482C5.19006 10.3363 5.35372 10.4024 5.4858 10.5345C5.61787 10.6665 5.68391 10.8302 5.68391 11.0254L5.68391 12.4036C5.68391 12.5989 5.61787 12.7625 5.4858 12.8946C5.35372 13.0267 5.19006 13.0927 4.99482 13.0927H3.15151ZM1.44601 11.1288L0.32624 8.88925C0.222876 8.68253 0.174066 8.46144 0.179808 8.226C0.185551 7.99057 0.251589 7.76948 0.377922 7.56276L0.653557 7.09762L0.188422 6.82198C0.0620889 6.74159 0.0104072 6.62387 0.0333769 6.46883C0.0563465 6.31378 0.142483 6.21903 0.291785 6.18458L2.58301 5.61608C2.76677 5.57014 2.94191 5.59598 3.10844 5.6936C3.27497 5.79122 3.3812 5.93191 3.42714 6.11567L3.99564 8.42412C4.0301 8.57342 3.98416 8.69401 3.85782 8.78589C3.73149 8.87777 3.60516 8.88351 3.47882 8.80312L3.01369 8.51025L1.44601 11.1288ZM10.0769 5.06481L7.78563 4.49631C7.63633 4.46185 7.55307 4.3671 7.53584 4.21206C7.51861 4.05701 7.57316 3.93929 7.6995 3.8589L8.16463 3.58326L6.01123 0L8.44027 0C8.68145 0 8.90827 0.0602953 9.12074 0.180886C9.33321 0.301477 9.50261 0.465135 9.62895 0.671862L10.5248 2.17063L10.9727 1.895C11.099 1.8146 11.2253 1.82034 11.3517 1.91222C11.478 2.0041 11.5239 2.12469 11.4895 2.27399L10.921 4.56522C10.8751 4.74897 10.7688 4.88966 10.6023 4.98728C10.4358 5.08491 10.2606 5.11075 10.0769 5.06481Z"/>
      </g>
    </g>

  </g>
  <g class="common" transform="translate(-16, 100)">
    <g id="edit">
      <g fill="none" stroke="currentColor" stroke-linecap="round"
         stroke-width="2">
        <path d="M11 4H4a2 2 0 0 0-2 2v14a2 2 0 0 0 2 2h14a2 2 0 0 0 2-2v-7"/>
        <path d="M18.5 2.5a2.121 2.121 0 0 1 3 3L12 15l-4 1 1-4 9.5-9.5z"/>
      </g>
    </g>
    <g class="common" id="warinigCircle" fill="none">
      <path fill-rule="evenodd" clip-rule="evenodd" d="M12 22C17.5228 22 22 17.5228 22 12C22 6.47715 17.5228 2 12 2C6.47715 2 2 6.47715 2 12C2 17.5228 6.47715 22 12 22ZM11 13V7H13V13H11ZM11 17V15H13V17H11Z" fill="#FF4B16"/>
    </g>
    <g id="search" transform="translate(24, 0)">
      <g stroke="currentColor" fill="none">
        <circle cx="9.7" cy="8.9" r="7.6"/>
        <line x1="15" y1="14.3" x2="22.2" y2="21.5"/>
      </g>
    </g>
    <g id="location" fill="none">
      <path d="M8 10V2M8 14.4H8.008" stroke="#F7FCFF" stroke-width="3.6" stroke-linecap="round"/>
    </g>
    <g id="plus" transform="translate(48, 0)">
      <path d="M12 12V6M12 12H18M12 12V18M12 12H6" stroke="currentColor"
            stroke-width="2" stroke-linecap="round"/>
    </g>
    <g id="arrow-right" transform="translate(72, 0)">
      <path fill="none" stroke="currentColor" stroke-linecap="round"
            transform="scale(0.046875)"
            stroke-linejoin="round" stroke-width="48"
            d="M268 112l144 144-144 144M392 256H100"/>
    </g>
    <g id="x" transform="translate(96, 0)">
      <path d="M2.22221 1.33301L16.4066 15.4071M1.5918 15.4071L15.7762 1.33302"
            stroke="currentColor"
            transform="scale(1.3333333333333333)"
            stroke-width="2"/>
    </g>
    <g id="close" transform="translate(0, 24)">
      <path
        d="M12 0.37793C5.57812 0.37793 0.375 5.6263 0.375 12.104C0.375 18.5817 5.57812 23.8301 12 23.8301C18.4219 23.8301 23.625 18.5817 23.625 12.104C23.625 5.6263 18.4219 0.37793 12 0.37793ZM17.7 15.1821C17.9203 15.4043 17.9203 15.7637 17.7 15.9859L15.8438 17.8536C15.6234 18.0758 15.2672 18.0758 15.0469 17.8536L12 14.7518L8.94844 17.8536C8.72812 18.0758 8.37187 18.0758 8.15156 17.8536L6.3 15.9812C6.07969 15.759 6.07969 15.3996 6.3 15.1774L9.375 12.104L6.3 9.02592C6.07969 8.80369 6.07969 8.44434 6.3 8.22211L8.15625 6.34972C8.37656 6.12749 8.73281 6.12749 8.95312 6.34972L12 9.45619L15.0516 6.35445C15.2719 6.13222 15.6281 6.13222 15.8484 6.35445L17.7047 8.22684C17.925 8.44907 17.925 8.80842 17.7047 9.03065L14.625 12.104L17.7 15.1821Z"
        fill="#CBD5E0"></path>
    </g>
    <g id="ok" transform="translate(24, 24)">
      <path d="M8 13L10.2523 14.5016C10.6776 14.785 11.2481 14.7023 11.5753 14.3097L16 9"
            stroke="#636363" fill="none"
            stroke-linecap="round"/>
    </g>

    <g id="bookmark" transform="translate(48, 24)">

      <g stroke-width="0"
         stroke="currentColor"
         fill="currentColor">
        <path d="M11.3588 19.8412C11.5763 19.9162 11.79 19.9537 12 19.9537C12.21 19.9537 12.4238 19.9162 12.6413 19.8412C12.8588 19.7662 13.05 19.6462 13.215 19.4812L14.745 18.0862C16.365 16.6312 17.8125 15.1837 19.0875 13.7437C20.3625 12.3037 21 10.7212 21 8.99624C21 7.58624 20.5275 6.40874 19.5825 5.46374C18.6375 4.51874 17.46 4.04624 16.05 4.04624C15.255 4.04624 14.505 4.21499 13.8 4.55249C13.095 4.88999 12.495 5.35124 12 5.93624C11.505 5.35124 10.905 4.88999 10.2 4.55249C9.495 4.21499 8.745 4.04624 7.95 4.04624C6.54 4.04624 5.3625 4.51874 4.4175 5.46374C3.4725 6.40874 3 7.58624 3 8.99624C3 10.7212 3.64125 12.3 4.92375 13.7325C6.20625 15.165 7.6425 16.6087 9.2325 18.0637L10.785 19.4812C10.95 19.6462 11.1413 19.7662 11.3588 19.8412Z" fill="#8E1F1E"/>

      </g>
    </g>
    <g id="magic" transform="translate(72, 24)">
      <svg width="24" height="24" viewBox="0 0 24 24"
           fill="none" xmlns="http://www.w3.org/2000/svg">
        <path
          d="M7 2L7.70711 6.29289L12 7L7.70711 7.70711L7 12L6.29289 7.70711L2 7L6.29289 6.29289L7 2Z
                 M14 6L15.4142 12.5858L22 14L15.4142 15.4142L14 22L12.5858 15.4142L6 14L12.5858 12.5858L14 6Z"
          fill="currentColor"/>
      </svg>
    </g>
    <g id="minus" transform="translate(96, 24)">
      <path d="M18 12H12H6" stroke="currentColor"
            stroke-width="2" stroke-linecap="round"/>
    </g>
    <g id="eye" transform="translate(0, 48)">
      <g transform="scale(0.75)">
        <rect width="32" height="32" rx="16" fill="currentColor"/>
        <path fill-rule="evenodd" clip-rule="evenodd"
              d="M20 16C20 18.2091 18.2091 20 16 20C13.7909 20 12 18.2091 12 16C12 13.7909 13.7909 12 16 12C18.2091 12 20 13.7909 20 16ZM18 16C18 17.1046 17.1046 18 16 18C14.8954 18 14 17.1046 14 16C14 14.8954 14.8954 14 16 14C17.1046 14 18 14.8954 18 16Z"
              fill="#F7FCFF"/>
        <path fill-rule="evenodd" clip-rule="evenodd"
              d="M16.0004 9C10.7751 9 6.48383 15.2322 6.01799 15.9377C6.00629 15.9559 6 15.9777 6 16C6 16.0224 6.00629 16.0441 6.01799 16.0623C6.48383 16.7616 10.7751 23 16.0004 23C21.2256 23 25.5169 16.7616 25.9827 16.0623C25.994 16.0439 26 16.0222 26 16C26 15.9778 25.994 15.9561 25.9827 15.9377C25.5169 15.2372 21.2256 9 16.0004 9ZM21.4197 18.3238C22.3123 17.4998 23.0436 16.6472 23.5523 15.9997C23.0438 15.3524 22.3125 14.4998 21.4198 13.6758C19.7489 12.1336 17.8458 11 16.0004 11C14.1544 11 12.2511 12.1329 10.5806 13.6742C9.68714 14.4986 8.95546 15.3518 8.44761 15.9987C8.95634 16.6464 9.68794 17.4994 10.581 18.3238C12.252 19.8663 14.155 21 16.0004 21C17.8457 21 19.7488 19.8663 21.4197 18.3238Z"
              fill="#F7FCFF"/>
      </g>
    </g>
    <g id="ok-circle" transform="translate(24, 48)">
      <path fill-rule="evenodd"
            clip-rule="evenodd"
            transform="scale(1.2)"
            d="M20 9.99998C20 15.5229 15.5228 20 10 20C4.47715 20 0 15.5229 0 9.99998C0 4.47715 4.47715 0 10 0C15.5228 0 20 4.47715 20 9.99998ZM8.5 14L15 7.5L13.5 6L8.5 11L6.5 9L5 10.5L8.5 14Z"
            fill="currentColor"/>
    </g>
    <g id="eye-plug" transform="translate(48, 48)">
      <g>
        <path
          d="M12.5719 16.2569C12.6239 14.4838 11.2304 13.0042 9.45946 12.9522C7.68854 12.9002 6.21082 14.2954 6.15888 16.0685C6.10694 17.8417 7.50045 19.3212 9.27136 19.3732C11.0423 19.4252 12.52 18.03 12.5719 16.2569Z"
          fill="#536BF3"/>
        <path
          d="M18.8725 9.4928C18.086 7.24948 18.6748 5.87658 18.8058 5.62366C18.8078 5.61986 18.8086 5.61557 18.8081 5.61132C18.8077 5.60707 18.806 5.60304 18.8033 5.59972C18.8007 5.59639 18.7971 5.59393 18.793 5.59263C18.7889 5.59132 18.7846 5.59123 18.7805 5.59236C18.5473 5.65073 17.5182 6.01531 16.8626 8.00655C16.4402 9.2754 16.3321 7.20041 16.1868 6.39427C15.9586 5.15926 14.9195 3.54106 14.6821 3.17986C14.6782 3.17392 14.6726 3.16931 14.6661 3.16665C14.6595 3.16399 14.6523 3.1634 14.6454 3.16497C14.6385 3.16653 14.6322 3.17018 14.6275 3.17541C14.6227 3.18064 14.6196 3.18721 14.6187 3.19424C14.5452 3.69586 14.1633 6.1092 13.7646 5.45702C12.7626 3.81682 13.2576 0.607485 13.3565 0.0356582C13.3574 0.0293356 13.3563 0.0228896 13.3534 0.0171903C13.3506 0.011491 13.346 0.00680975 13.3404 0.00377176C13.3348 0.000733771 13.3284 -0.000515888 13.3221 0.000193834C13.3157 0.000903556 13.3098 0.00353843 13.305 0.00774207C12.798 0.456914 9.60111 3.01745 10.1536 4.90888C10.6665 6.67427 8.65995 7.20041 8.24428 5.80722C7.89282 4.62973 8.96071 2.36526 9.17362 1.93301C9.17631 1.9281 9.1773 1.92244 9.17645 1.9169C9.17559 1.91137 9.17293 1.90628 9.16888 1.90242C9.16483 1.89856 9.15962 1.89614 9.15406 1.89556C9.1485 1.89497 9.1429 1.89624 9.13813 1.89917C8.79259 2.08188 7.28452 2.91425 6.42784 3.84473C6.024 4.28376 5.62607 4.96217 5.34727 5.48831C5.17067 5.82628 5.0152 6.1749 4.88176 6.53215C4.67899 7.06761 4.14673 8.13936 3.69896 8.41258C3.15488 8.74587 2.38521 5.89604 2.3793 5.85966C2.36747 5.78184 0.153954 8.4295 0.458946 10.244C0.652418 11.3978 0.943048 11.8512 0.703954 13.3129C0.638055 13.713 0.267164 14.7001 0.112556 15.5241C-0.00149929 16.0688 -0.0361385 16.6559 0.042433 17.4865C0.193662 19.0802 3.33736 24.0177 9.43975 24C17.6424 23.9805 19.2063 15.4691 19.2063 15.4691C19.2063 15.4691 19.9582 12.5896 18.8725 9.4928ZM16.9353 16.2025C16.5847 16.6779 13.3548 20.9124 9.422 20.9124C5.48921 20.9124 2.25933 16.6829 1.90872 16.2033C1.90003 16.1909 1.89536 16.1762 1.89536 16.161C1.89536 16.1459 1.90003 16.1311 1.90872 16.1187C2.25933 15.6433 5.48921 11.4096 9.422 11.4096C13.3548 11.4096 16.5847 15.6391 16.9353 16.1187C16.9442 16.1309 16.9489 16.1455 16.9489 16.1606C16.9489 16.1756 16.9442 16.1903 16.9353 16.2025Z"
          fill="#536BF3"/>

      </g>
    </g>
    <g id="movePoint" transform="translate(72, 48)">
      <g>
        <path fill-rule="evenodd" clip-rule="evenodd" d="M5.75 8.5C5.75 4.77208 8.77208 1.75 12.5 1.75C16.2279 1.75 19.25 4.77208 19.25 8.5C19.25 10.7777 18.0456 12.83 16.5535 14.4891C15.0695 16.1393 13.3774 17.3142 12.5775 17.8242C12.5281 17.8557 12.4719 17.8557 12.4225 17.8242C11.6226 17.3142 9.93053 16.1393 8.44646 14.4891C6.95436 12.83 5.75 10.7777 5.75 8.5ZM12.5 5.75C10.9812 5.75 9.75 6.98122 9.75 8.5C9.75 10.0188 10.9812 11.25 12.5 11.25C14.0188 11.25 15.25 10.0188 15.25 8.5C15.25 6.98122 14.0188 5.75 12.5 5.75Z" fill="currentColor"/>
        <path d="M5.5 19.5C5.5 18.5462 6.99566 17.7171 9.19506 17.2957C10.1862 18.1388 11.0858 18.7509 11.616 19.089C12.1573 19.4341 12.8427 19.4341 13.384 19.089C13.9142 18.7509 14.8138 18.1388 15.8049 17.2957C18.0043 17.7171 19.5 18.5462 19.5 19.5C19.5 20.8807 16.366 22 12.5 22C8.63401 22 5.5 20.8807 5.5 19.5Z" fill="currentColor"/>
      </g>
    </g>
    <g id='trash' transform="translate(96, 48)">
      <g transform="translate(3, 1)">
        <path
          d="M10.4999 0V2H16.139C17.3749 2 18.315 3.10973 18.1118 4.3288L17.9999 5H0.999926L0.888059 4.3288C0.684881 3.10973 1.62497 2 2.86085 2H8.49993V0H10.4999Z"
          fill="currentColor"/>
        <path fill-rule="evenodd" clip-rule="evenodd"
              d="M16.4999 7H2.49993L3.80847 19.2131C3.91736 20.2293 4.77499 21 5.79709 21H13.2028C14.2249 21 15.0825 20.2293 15.1914 19.2131L16.4999 7ZM6.99993 11H8.49993V17H6.99993V11ZM10.4999 11H11.9999V17H10.4999V11Z"
              fill="currentColor"/>
      </g>
    </g>

    <g id="alert" transform="translate(0, 72)">
      <path fill-rule="evenodd" clip-rule="evenodd"
            d="M12 22C17.5228 22 22 17.5228 22 12C22 6.47715 17.5228 2 12 2C6.47715 2 2 6.47715 2 12C2 17.5228 6.47715 22 12 22ZM11 13V7H13V13H11ZM11 17V15H13V17H11Z"
            fill="currentColor"/>
    </g>
    <g id="chevron-right" transform="translate(64, 48)">
      <path fill-rule="evenodd" clip-rule="evenodd" d="M9.52327 7.07048C9.91379 6.67996 10.547 6.67996 10.9375 7.07048L15.8748 12.0078L10.9375 16.9451C10.547 17.3357 9.91379 17.3357 9.52327 16.9451C9.13274 16.5546 9.13274 15.9215 9.52327 15.5309L13.0464 12.0078L9.52327 8.48469C9.13274 8.09417 9.13274 7.46101 9.52327 7.07048Z" fill="#1C2573"/>
    </g>

    <g id="shelter" transform="translate(24, 72)">
      <path fill="#FDFCF7" d="M4.66602 22.3813V19.5254C4.66602 19.3191 4.69713 19.1208 4.75935 18.9304C4.82157 18.74 4.9149 18.5575 5.03935 18.383L12.8327 7.67328L11.7593 6.19772C11.6816 6.08666 11.6271 5.97163 11.596 5.85263C11.5649 5.73363 11.5571 5.61464 11.5727 5.49564C11.5882 5.37664 11.6271 5.26161 11.6893 5.15055C11.7516 5.03948 11.8371 4.94429 11.946 4.86495C12.1638 4.70629 12.3971 4.64283 12.646 4.67456C12.8949 4.70629 13.0971 4.83322 13.2527 5.05535L13.9993 6.07872L14.746 5.05535C14.9016 4.83322 15.1038 4.70629 15.3527 4.67456C15.6016 4.64283 15.8349 4.70629 16.0527 4.86495C16.2705 5.02362 16.3949 5.22988 16.426 5.48374C16.4571 5.7376 16.3949 5.97559 16.2394 6.19772L15.166 7.67328L22.9594 18.383C23.0838 18.5575 23.1771 18.74 23.2394 18.9304C23.3016 19.1208 23.3327 19.3191 23.3327 19.5254V22.3813C23.3327 22.651 23.2432 22.8771 23.0644 23.0596C22.8855 23.2421 22.6638 23.3333 22.3994 23.3333H5.59935C5.3349 23.3333 5.11324 23.2421 4.93435 23.0596C4.75546 22.8771 4.66602 22.651 4.66602 22.3813ZM13.9993 9.26784L6.53268 19.5254V21.4293H9.33268L13.2294 15.8603C13.416 15.5906 13.6727 15.4557 13.9993 15.4557C14.326 15.4557 14.5827 15.5906 14.7694 15.8603L18.666 21.4293H21.466V19.5254L13.9993 9.26784ZM11.6193 21.4293H16.3793L13.9993 18.0498L11.6193 21.4293Z"/>
    </g>
    <g id="timetable" transform="translate(48, 72)">
      <g>
        <path fill="#F7FCFF" fill-rule="evenodd" d="M16 12a4 4 0 1 1-8 0 4 4 0 0 1 8 0Zm-2 0a2 2 0 1 1-4 0 2 2 0 0 1 4 0Z" clip-rule="evenodd"/>
        <path fill="#F7FCFF" fill-rule="evenodd" d="M12 5c-5.22 0-9.52 6.23-9.98 6.94a.12.12 0 0 0 0 .12C2.48 12.76 6.78 19 12 19c5.23 0 9.52-6.24 9.98-6.94a.12.12 0 0 0 0-.12C21.52 11.24 17.23 5 12 5Zm5.42 9.32c.9-.82 1.62-1.67 2.13-2.32-.5-.65-1.24-1.5-2.13-2.32C15.75 8.13 13.85 7 12 7S8.25 8.13 6.58 9.67c-.9.83-1.62 1.68-2.13 2.33.5.65 1.24 1.5 2.13 2.32C8.25 15.87 10.15 17 12 17s3.75-1.13 5.42-2.68Z" clip-rule="evenodd"/>
      </g>
    </g>
    <g id="loading" transform="translate(96, 72)">
      <g>
        <path d="M11.0769 13.6615H1.84613V10.3385H11.0769L9.39858 12L11.0769 13.6615Z" fill="#8E1F1E"/>
        <path d="M22.1538 10.3385V13.6615H12.8307L14.5123 12L12.8307 10.3385H22.1538Z" fill="#8E1F1E"/>
        <path d="M4.43079 7.75385V16.2462H19.5692V7.75385H4.43079ZM11.9626 14.5458L9.4364 11.9953L11.9626 9.44475L14.4888 11.9953L11.9626 14.5458Z" fill="#8E1F1E"/>
        <path d="M6.9231 5.26154V18.7385H17.0769V5.26154H6.9231ZM14.5009 12L11.9624 14.5269L9.42395 12L11.9624 9.47307L14.5009 12Z" fill="#8E1F1E"/>
        <path d="M13.6615 12.8308V20.4H10.3384V12.9052L11.9631 14.5418L13.6615 12.8308Z" fill="#8E1F1E"/>
        <path d="M13.6615 3.60001V11.1692L11.9631 9.45825L10.3384 11.0948V3.60001H13.6615Z" fill="#8E1F1E"/>
      </g>
    </g>
    <g id="map" transform="translate(72, 72)">
      <g>
        <path d="M12.0689 16.0125C13.5482 14.7744 14.6652 13.5828 15.4198 12.4375C16.1744 11.2923 16.5517 10.2167 16.5517 9.21073C16.5517 7.81786 16.1333 6.67262 15.2965 5.775C14.4598 4.87738 13.3839 4.42857 12.0689 4.42857C10.754 4.42857 9.67812 4.87738 8.84135 5.775C8.00459 6.67262 7.58621 7.81786 7.58621 9.21073C7.58621 10.2167 7.96351 11.2923 8.71812 12.4375C9.47272 13.5828 10.5896 14.7744 12.0689 16.0125ZM12.0689 17.916C11.8897 17.916 11.7103 17.8851 11.531 17.8232C11.3518 17.7613 11.1874 17.6684 11.0379 17.5446C9.27467 16.0899 7.95977 14.67 7.0931 13.2848C6.22643 11.8997 5.7931 10.5417 5.7931 9.21073C5.7931 7.27619 6.37586 5.68601 7.54138 4.44018C8.70687 3.19434 10.2161 2.57143 12.0689 2.57143C13.9218 2.57143 15.431 3.19434 16.5966 4.44018C17.7621 5.68601 18.3449 7.27619 18.3449 9.21073C18.3449 10.5417 17.9115 11.8997 17.0448 13.2848C16.1782 14.67 14.8632 16.0899 13.1 17.5446C12.9506 17.6684 12.7862 17.7613 12.6069 17.8232C12.4276 17.8851 12.2483 17.916 12.0689 17.916ZM12.0689 10.9285C12.5621 10.9285 12.9842 10.7467 13.3353 10.383C13.6865 10.0194 13.8621 9.58213 13.8621 9.07144C13.8621 8.56067 13.6865 8.12351 13.3353 7.75982C12.9842 7.39613 12.5621 7.21428 12.0689 7.21428C11.5759 7.21428 11.1537 7.39613 10.8026 7.75982C10.4514 8.12351 10.2759 8.56067 10.2759 9.07144C10.2759 9.58213 10.4514 10.0194 10.8026 10.383C11.1537 10.7467 11.5759 10.9285 12.0689 10.9285ZM6.68965 21.1428C6.43563 21.1428 6.2227 21.0539 6.05086 20.8759C5.87902 20.6979 5.7931 20.4774 5.7931 20.2143C5.7931 19.9512 5.87902 19.7306 6.05086 19.5527C6.2227 19.3747 6.43563 19.2857 6.68965 19.2857H17.4482C17.7023 19.2857 17.9153 19.3747 18.0871 19.5527C18.2589 19.7306 18.3449 19.9512 18.3449 20.2143C18.3449 20.4774 18.2589 20.6979 18.0871 20.8759C17.9153 21.0539 17.7023 21.1428 17.4482 21.1428H6.68965Z" fill="#FDFCF7"/>
      <g>
    </g>
    <g id="activities" transform="translate(96, 72)">
      <g>
        <path d="M7.95599 18.3887L11.1901 16.4224L14.4242 18.4146L13.5771 14.689L16.4262 12.2054L12.6788 11.869L11.1901 8.35048L9.70136 11.8432L5.95394 12.1795L8.80301 14.689L7.95599 18.3887ZM11.1901 18.8544L6.92929 21.4415C6.74107 21.5623 6.54428 21.614 6.33895 21.5968C6.13361 21.5795 5.95394 21.5105 5.79993 21.3898C5.64593 21.2691 5.52615 21.1181 5.44059 20.937C5.35503 20.7559 5.33792 20.5533 5.38926 20.3291L6.51862 15.4393L2.74552 12.1536C2.57441 11.9984 2.46746 11.8216 2.42468 11.6232C2.3819 11.4249 2.39473 11.2309 2.46318 11.0411C2.53163 10.8514 2.6343 10.6962 2.77119 10.5754C2.90808 10.4547 3.09631 10.3771 3.33587 10.3426L8.31533 9.90278L10.2404 5.29763C10.3259 5.09065 10.4586 4.93542 10.6382 4.83194C10.8179 4.72845 11.0018 4.67671 11.1901 4.67671C11.3783 4.67671 11.5622 4.72845 11.7419 4.83194C11.9216 4.93542 12.0542 5.09065 12.1398 5.29763L14.0648 9.90278L19.0443 10.3426C19.2838 10.3771 19.4721 10.4547 19.609 10.5754C19.7458 10.6962 19.8485 10.8514 19.917 11.0411C19.9854 11.2309 19.9982 11.4249 19.9555 11.6232C19.9127 11.8216 19.8057 11.9984 19.6346 12.1536L15.8615 15.4393L16.9909 20.3291C17.0422 20.5533 17.0251 20.7559 16.9395 20.937C16.854 21.1181 16.7342 21.2691 16.5802 21.3898C16.4262 21.5105 16.2465 21.5795 16.0412 21.5968C15.8359 21.614 15.6391 21.5623 15.4508 21.4415L11.1901 18.8544ZM18.6336 7.00516L17.0936 7.91066C16.9909 7.96241 16.8925 7.9581 16.7984 7.89773C16.7043 7.83736 16.6743 7.74681 16.7085 7.62608L17.1192 5.91855L15.7589 4.78019C15.6733 4.69395 15.6476 4.6034 15.6819 4.50854C15.7161 4.41368 15.7931 4.35762 15.9129 4.34038L17.7096 4.18515L18.4026 2.55523C18.4368 2.45174 18.5138 2.4 18.6336 2.4C18.7534 2.4 18.8304 2.45174 18.8646 2.55523L19.5576 4.18515L21.3543 4.34038C21.4741 4.35762 21.5511 4.41368 21.5853 4.50854C21.6196 4.6034 21.5939 4.69395 21.5083 4.78019L20.148 5.91855L20.5586 7.62608C20.5929 7.74681 20.5629 7.83736 20.4688 7.89773C20.3747 7.9581 20.2763 7.96241 20.1736 7.91066L18.6336 7.00516Z" fill="#FDFCF7"/>
      </g>
    </g?>
  </g>
</svg>
