<svg width="24" height="24" viewBox="0 0 24 24" fill="none" xmlns="http://www.w3.org/2000/svg">
<path d="M15.2577 12.5067L13.5223 15.3128C13.4306 15.4574 13.2945 15.5192 13.1141 15.4982C12.9335 15.4772 12.824 15.3784 12.7853 15.2017L12.1162 12.4753L5.77505 18.8344C5.69453 18.9149 5.59657 18.9588 5.48117 18.966C5.36578 18.9732 5.26057 18.9293 5.16556 18.8344C5.07399 18.7427 5.0282 18.641 5.0282 18.5295C5.0282 18.4179 5.07399 18.3164 5.16556 18.2248L11.5233 11.8607L8.81409 11.1915C8.63741 11.1529 8.53579 11.046 8.50924 10.8711C8.48283 10.6961 8.54189 10.5627 8.68642 10.471L11.4919 8.74008L11.2501 5.44544C11.2325 5.26872 11.3003 5.13786 11.4538 5.05288C11.6072 4.96775 11.753 4.98541 11.891 5.10585L14.4166 7.23424L17.4688 5.98701C17.631 5.91638 17.7766 5.94566 17.9058 6.07487C18.035 6.20407 18.0643 6.34985 17.9937 6.51221L16.7633 9.56482L18.8912 12.086C19.0116 12.2241 19.0321 12.3726 18.9526 12.5315C18.873 12.6906 18.745 12.7613 18.5683 12.7436L15.2577 12.5067ZM5.1126 6.91791C5.03753 6.84283 5 6.75892 5 6.66618C5 6.57344 5.03753 6.48953 5.1126 6.41445L5.71886 5.80806C5.79392 5.73298 5.87781 5.69544 5.97053 5.69544C6.06325 5.69544 6.14714 5.73298 6.22221 5.80806L6.82825 6.41445C6.90346 6.48953 6.94106 6.57344 6.94106 6.66618C6.94106 6.75892 6.90346 6.84283 6.82825 6.91791L6.22221 7.52429C6.14714 7.59938 6.06325 7.63692 5.97053 7.63692C5.87781 7.63692 5.79392 7.59938 5.71886 7.52429L5.1126 6.91791ZM13.3649 13.923L14.7957 11.609L17.5101 11.8095L15.7546 9.71728L16.7732 7.2028L14.2592 8.22155L12.1675 6.47065L12.3679 9.18066L10.071 10.6167L12.7042 11.2727L13.3649 13.923ZM17.0795 18.8874L16.4733 18.281C16.3982 18.2059 16.3607 18.122 16.3607 18.0293C16.3607 17.9365 16.3982 17.8526 16.4733 17.7775L17.0795 17.1714C17.1546 17.0961 17.2385 17.0585 17.3312 17.0585C17.4239 17.0585 17.5078 17.0961 17.5829 17.1714L18.1891 17.7775C18.2642 17.8526 18.3017 17.9365 18.3017 18.0293C18.3017 18.122 18.2642 18.2059 18.1891 18.281L17.5829 18.8874C17.5078 18.9625 17.4239 19 17.3312 19C17.2385 19 17.1546 18.9625 17.0795 18.8874Z" fill="#EAF6F2"/>
</svg>
