<svg width="24" height="24" viewBox="0 0 24 24" fill="none" xmlns="http://www.w3.org/2000/svg">
<path d="M14.4448 18.9277L9.16216 17.3241L5.87334 18.3927C5.75684 18.4306 5.64994 18.4398 5.55267 18.4202C5.45524 18.4006 5.36348 18.3581 5.2774 18.2929C5.19132 18.2275 5.12352 18.1474 5.07402 18.0526C5.02467 17.9577 5 17.8545 5 17.7432V7.11764C5 6.88821 5.05668 6.68369 5.17003 6.50406C5.28339 6.32444 5.42623 6.20683 5.59855 6.15124L8.75115 5.0723C8.81311 5.04017 8.88232 5.02008 8.95878 5.01205C9.03509 5.00402 9.10288 5 9.16216 5C9.22144 5 9.28923 5.00402 9.36554 5.01205C9.442 5.02008 9.51122 5.04017 9.57318 5.0723L14.8378 6.67589L18.1267 5.60731C18.2432 5.5694 18.3501 5.56024 18.4473 5.57984C18.5448 5.59944 18.6365 5.64186 18.7226 5.70709C18.8087 5.77248 18.8765 5.85257 18.926 5.94736C18.9753 6.04231 19 6.14546 19 6.2568V16.965C19 17.1957 18.9381 17.4032 18.8144 17.5875C18.6908 17.7716 18.5289 17.8835 18.3289 17.923L15.2309 18.9463C15.164 18.9784 15.0951 18.9954 15.024 18.9973C14.9527 18.9991 14.8902 19 14.8364 19C14.7828 19 14.7209 18.996 14.6505 18.988C14.5802 18.9799 14.5116 18.9598 14.4448 18.9277ZM14.4595 18.1731V7.32827L9.54054 5.78975V16.6346L14.4595 18.1731ZM15.2162 18.1249L18.2432 17.1091V6.31247L15.2162 7.32827V18.1249ZM5.75676 17.6875L8.78378 16.6346V5.83795L5.75676 6.89086V17.6875Z" fill="#EAF6F2"/>
</svg>
