<svg width="24" height="24" viewBox="0 0 24 24" fill="none" xmlns="http://www.w3.org/2000/svg">
<path d="M5.11081 9.61295L7.61683 5.49061C7.67932 5.39349 7.75933 5.32068 7.85684 5.2722C7.9542 5.22356 8.05223 5.19925 8.15092 5.19925C8.24946 5.19925 8.34734 5.22356 8.44456 5.2722C8.54163 5.32068 8.62148 5.39349 8.68412 5.49061L11.1899 9.61295C11.2638 9.71719 11.3007 9.82498 11.3007 9.93632C11.3007 10.0478 11.2688 10.1497 11.205 10.2418C11.141 10.3342 11.0686 10.4094 10.9876 10.4674C10.9066 10.5254 10.7965 10.5543 10.6572 10.5543H5.64379C5.50447 10.5543 5.39433 10.5254 5.31336 10.4674C5.2324 10.4094 5.15993 10.3342 5.09596 10.2418C5.03199 10.1497 5 10.0478 5 9.93632C5 9.82498 5.03694 9.71719 5.11081 9.61295ZM6.19672 18.2143C5.66721 17.6904 5.40245 17.0506 5.40245 16.2948C5.40245 15.5276 5.66721 14.881 6.19672 14.355C6.72638 13.8291 7.38332 13.5661 8.16754 13.5661C8.95161 13.5661 9.60848 13.8263 10.1381 14.3468C10.6678 14.8671 10.9326 15.5125 10.9326 16.2831C10.9326 17.0536 10.6678 17.699 10.1381 18.2193C9.60848 18.7398 8.95161 19 8.16754 19C7.38332 19 6.72638 18.7381 6.19672 18.2143ZM9.6302 17.7157C10.0257 17.324 10.2235 16.8449 10.2235 16.2785C10.2235 15.712 10.0242 15.2345 9.62555 14.8459C9.22679 14.4572 8.73923 14.2629 8.16289 14.2629C7.58639 14.2629 7.10039 14.4588 6.70488 14.8504C6.30937 15.2421 6.11162 15.7212 6.11162 16.2876C6.11162 16.8541 6.31093 17.3316 6.70954 17.7202C7.10815 18.1089 7.5957 18.3032 8.17219 18.3032C8.74869 18.3032 9.23469 18.1073 9.6302 17.7157ZM5.83039 9.85749H10.4876L8.15048 5.92612L5.83039 9.85749ZM13.8954 18.3844V14.1887C13.8954 14.0143 13.9555 13.867 14.0756 13.7466C14.1955 13.6263 14.3443 13.5661 14.5219 13.5661H18.792C18.9694 13.5661 19.1194 13.6251 19.2419 13.7431C19.3643 13.861 19.4256 14.0072 19.4256 14.1817V18.3774C19.4256 18.5518 19.3655 18.6991 19.2454 18.8195C19.1253 18.9398 18.9765 19 18.7991 19H14.529C14.3516 19 14.2016 18.941 14.0791 18.823C13.9566 18.7051 13.8954 18.5589 13.8954 18.3844ZM14.6046 18.3032H18.7164V14.2629H14.6046V18.3032ZM16.27 10.2579L15.5489 9.69004C14.8682 9.15508 14.3267 8.65758 13.9244 8.19754C13.5221 7.73749 13.321 7.22504 13.321 6.66018C13.321 6.18648 13.4681 5.79133 13.7624 5.47471C14.0567 5.15824 14.4528 5 14.9505 5C15.2823 5 15.5798 5.07063 15.8429 5.21188C16.1061 5.35313 16.3786 5.59462 16.6605 5.93635C16.9424 5.6058 17.2242 5.36707 17.5059 5.22015C17.7878 5.07338 18.0864 5 18.4015 5C18.8741 5 19.2587 5.16542 19.5552 5.49627C19.8517 5.82726 20 6.23301 20 6.71353C20 7.26518 19.8025 7.75818 19.4076 8.19253C19.0127 8.62688 18.4748 9.11879 17.794 9.66826L17.0508 10.2579C16.9417 10.3406 16.8127 10.3819 16.6638 10.3819C16.515 10.3819 16.3838 10.3406 16.27 10.2579ZM16.6605 9.6197C17.631 8.88151 18.312 8.29495 18.7036 7.86001C19.0951 7.42508 19.2908 7.01889 19.2908 6.64145C19.2908 6.39248 19.1977 6.17276 19.0114 5.9823C18.8249 5.79198 18.6126 5.69682 18.3745 5.69682C18.2093 5.69682 18.0545 5.74255 17.9102 5.83401C17.7657 5.92561 17.5997 6.07078 17.4122 6.26952L16.6605 6.9548L15.9309 6.26952C15.7171 6.0596 15.54 5.91167 15.3995 5.82573C15.2588 5.73979 15.1098 5.69682 14.9523 5.69682C14.6989 5.69682 14.4819 5.78363 14.3012 5.95726C14.1205 6.13088 14.0301 6.34777 14.0301 6.60791C14.0301 7.02223 14.2333 7.45049 14.6396 7.89268C15.0459 8.33487 15.7195 8.91054 16.6605 9.6197Z" fill="#EAF6F2"/>
</svg>
