<svg width="20" height="20" viewBox="0 0 20 20" fill="none" xmlns="http://www.w3.org/2000/svg">
  <path fill-rule="evenodd" clip-rule="evenodd"
        d="M6.57495 4.66662C6.57495 2.76396 8.09655 1.19995 9.99995 1.19995C11.9034 1.19995 13.425 2.76396 13.425 4.66662V6.53328L14.2317 6.53328C14.6947 6.53327 15.0904 6.53326 15.4155 6.56025C15.7578 6.58866 16.0923 6.65103 16.4122 6.81658C16.893 7.06545 17.2816 7.46131 17.5243 7.9453C17.6851 8.2659 17.7458 8.60102 17.7735 8.94595C17.8 9.27472 17.8 9.67533 17.8 10.1467V12.3452C17.8 13.3119 17.8 14.0854 17.7497 14.7105C17.6981 15.3519 17.5897 15.9065 17.3336 16.4173C16.923 17.2358 16.2667 17.9036 15.4567 18.3229C14.9496 18.5853 14.399 18.6961 13.7649 18.7488C13.1481 18.8 12.3854 18.8 11.4351 18.7999H8.56485C7.61451 18.8 6.85181 18.8 6.23499 18.7488C5.60087 18.6961 5.05026 18.5853 4.54324 18.3229C3.73316 17.9036 3.07687 17.2358 2.66634 16.4173C2.41017 15.9065 2.3018 15.3519 2.25021 14.7105C2.19994 14.0854 2.19995 13.3119 2.19995 12.3452L2.19995 10.1467C2.19994 9.67532 2.19993 9.27471 2.22637 8.94595C2.25411 8.60102 2.3148 8.2659 2.4756 7.9453C2.71835 7.46131 3.10692 7.06545 3.58772 6.81658C3.90757 6.65103 4.24209 6.58866 4.58438 6.56025C4.90955 6.53326 5.30524 6.53327 5.76818 6.53328L6.57495 6.53328V4.66662ZM6.57495 8.13328V9.11106C6.57495 9.55289 6.93312 9.91106 7.37495 9.91106C7.81678 9.91106 8.17495 9.55289 8.17495 9.11106V8.13328H11.825V9.08196C11.825 9.52379 12.1831 9.88196 12.625 9.88196C13.0668 9.88196 13.425 9.52379 13.425 9.08196V8.13328H14.2C14.7034 8.13328 15.0321 8.13393 15.2832 8.15476C15.5245 8.1748 15.6222 8.20931 15.6767 8.23752C15.8545 8.32953 16.0013 8.47761 16.0941 8.66263C16.1241 8.72232 16.1587 8.82626 16.1787 9.07422C16.1993 9.33116 16.2 9.66691 16.2 10.1777V12.3111C16.2 13.3197 16.1993 14.0288 16.1548 14.5822C16.1111 15.1266 16.0287 15.4501 15.9034 15.6999C15.6428 16.2195 15.2282 16.6395 14.7212 16.902C14.4795 17.027 14.1657 17.11 13.6326 17.1543C13.0897 17.1993 12.3935 17.2 11.4 17.2H8.59995C7.60645 17.2 6.9102 17.1993 6.36733 17.1543C5.83418 17.11 5.5204 17.027 5.27873 16.902C4.77168 16.6395 4.3571 16.2195 4.09652 15.6999C3.97122 15.4501 3.88885 15.1266 3.84506 14.5822C3.80056 14.0288 3.79995 13.3197 3.79995 12.3111V10.1777C3.79995 9.66691 3.80056 9.33116 3.82122 9.07422C3.84116 8.82626 3.87585 8.72232 3.90578 8.66263C3.99859 8.47761 4.14545 8.32953 4.32322 8.23752C4.37771 8.20931 4.47539 8.1748 4.71673 8.15476C4.96778 8.13393 5.2965 8.13328 5.79995 8.13328H6.57495ZM11.825 6.53328H8.17495V4.66662C8.17495 3.62376 9.00386 2.79995 9.99995 2.79995C10.996 2.79995 11.825 3.62376 11.825 4.66662V6.53328Z"
        fill="#F7FCFF"/>
</svg>
