<svg width="179" height="113" viewBox="0 0 179 113" fill="none" xmlns="http://www.w3.org/2000/svg">
  <path id="eye-wrap" d="M178.184 56.1893C178.184 56.3676 178.13 56.5418 178.03 56.6893C173.88 62.2993 135.65 112.349 89.1 112.349C42.55 112.349 4.32004 62.2993 0.170044 56.6893C0.0657995 56.5434 0.00976562 56.3686 0.00976562 56.1893C0.00976562 56.01 0.0657995 55.8352 0.170044 55.6893C4.32004 50.0293 42.55 0.0292969 89.1 0.0292969C135.65 0.0292969 173.88 50.0693 178.03 55.6893C178.13 55.8368 178.184 56.011 178.184 56.1893Z" fill="#F7FCFF"/>
  <path d="M76.3897 39.3274C77.0045 18.3661 60.5104 0.875301 39.5492 0.260509C18.588 -0.354283 1.09711 16.1398 0.48232 37.101C-0.132472 58.0622 16.3616 75.5531 37.3229 76.1679C58.2841 76.7827 75.7749 60.2886 76.3897 39.3274Z"
        fill="#0C1035">
    <animateMotion
      dur="2s"
      keyPoints="0;0;0.5;1"
      keyTimes="0;0.6;0.8;1"
      repeatCount="indefinite"
      path="M50 25L 70 20 50 25 20 20z" />
  </path>
</svg>
