<svg xmlns="http://www.w3.org/2000/svg" fill="#fff">
  <path d="M28 23h-6v-2a7 7 0 0 1 0-3l1-2v-5l-1-1a9 9 0 0 1 0-3V4h6v6l1 1v5l-1 2v5Zm23-11-1-2-1-3V4h-4v6l1 2a6 6 0 0 1 0 4l-1-3-2-3-1-2-1-4h-8v6l1 1v5l-1 2v5h6v-5l1-2v-5l-1-1V7l1 1 1 3 2 3 1 4 1 5h5l-1-2a8 8 0 0 1 1-3l1-2a6 6 0 0 0 0-5Zm95 11h-6v-2a8 8 0 0 1 0-3l1-2v-6a9 9 0 0 1-1-3V4h5l1 1v5l1 1v5l-1 2v5Zm-10-11-1-2V4h-5v3l1 3v1a6 6 0 0 1 0 5l-1-3-2-3-1-2-1-4h-8v3l1 3v6l-1 2v5h6v-5l1-2v-5l-1-2a15 15 0 0 1 1-1v1a15 15 0 0 0 1 3l2 2a14 14 0 0 1 1 4l1 5h5v-5l1-2a6 6 0 0 0 0-4Zm-22-1V9l-1-3V3c-1 0-3 2-3 4a16 16 0 0 1-5 6c0-1-1-4-6-7a10 10 0 0 1-3-3v3l1 3v2a7 7 0 0 1 0 4l-1 3v5h5v-5l2 2 1 2h1l1-2 2-3v3a12 12 0 0 1-1 3h6v-2a10 10 0 0 1 0-3l1-3a7 7 0 0 0 0-4Zm49 1-3-3a12 12 0 0 1-3-4V4h-6v6l1 2v4l-1 2v5h5v-6h4v6h5v-2a9 9 0 0 1 0-3 6 6 0 0 0-2-6Zm-7 2v-2l-2-3a8 8 0 0 1 1-2l2 4a19 19 0 0 0 3 3h-4Zm-74 5a3 3 0 1 0 0-6 3 3 0 0 0 0 6Z M91 10V6l-2 2V6a11 11 0 0 0-2-3l-1 3V0c-1 1-4 3-3 5 0 2-2 2-2 1-1-1 1-4 1-4l-3 2a9 9 0 0 0-2 3l-1 2-1-3-2 4v8c0 1 3 6 9 6 8 0 10-8 10-8l-1-6Zm-2 6c0 1-3 5-7 5s-7-4-8-5c1 0 4-5 8-5s7 5 8 5Zm-24-4a38 38 0 0 0-2-1l-4-3V7l2-1h1l1 3h5c1-2 0-4-2-5l-5-1c-2 0-7 0-7 5 0 3 2 4 4 5l3 1 2 3v2l-2 1c-1 0-2-1-2-3h-5a1 1 0 0 0-1 0l1 5 7 2c4 0 6-2 6-2a5 5 0 0 0 2-4c0-3-2-5-4-6ZM9 4l-2 7-7 2v1l7 2 2 7 2-7 7-2v-1l-7-2-2-7Zm169 0-2 7-7 2 1 1 6 2 2 7h1l1-7h1l6-2v-1l-7-2-1-7h-1Z"/>
</svg>
