<svg xmlns="http://www.w3.org/2000/svg"
     xmlns:xlink="http://www.w3.org/1999/xlink" width="187" height="24">
  <defs>
    <path id="a"
          d="M27.7 23h-5.1a.3.3 0 0 1-.3-.2L22 21a7.4 7.4 0 0 1 .3-2.7l.9-2.7c.5-1.4.4-2.9 0-4.2l-.8-1.8a9 9 0 0 1-.5-2.7V4.3a.3.3 0 0 1 .4-.3h5.1a.3.3 0 0 1 .3.3V7c0 1 .2 1.8.5 2.7l.7 1.8c.5 1.3.5 2.8 0 4.2l-.8 2.7-.1.2c-.2.7-.3 2-.3 2.7l.2 1.5a.3.3 0 0 1-.2.3Z"/>
    <path id="b"
          d="M8.6 4.3 6.8 11a.4.4 0 0 1-.2.2l-6.3 2c-.4 0-.4.6 0 .7l6.3 1.9a.4.4 0 0 1 .2.2l1.8 6.7a.3.3 0 0 0 .7 0l1.8-6.7a.4.4 0 0 1 .2-.2l6.4-2c.3 0 .3-.6 0-.7l-6.4-1.9a.4.4 0 0 1-.2-.2L9.3 4.3a.3.3 0 0 0-.6-.2v.2Z"/>
    <path id="c"
          d="m50.5 11.5-.7-1.7c-.3-.9-.4-1.8-.4-2.7V4.3A.3.3 0 0 0 49 4H45a.3.3 0 0 0-.3.3v2.8c0 .8.2 2 .4 2.7l.7 1.7a6 6 0 0 1 .1 4.2v.2h-.2c-.2-.9-.6-1.7-1-2.4l-1.8-3.1c-.5-.9-.9-1.8-1.1-2.8l-1-3.6h-7.8a.3.3 0 0 0-.3.3V7c0 .8.2 2 .5 2.7l.7 1.8c.5 1.3.5 2.8 0 4.2l-.9 2.7v.2c-.2.7-.3 1.8-.2 2.5l.1 1.8a.3.3 0 0 0 .3.2h5.2a.3.3 0 0 0 .3-.3l-.2-1.5c0-.8-.2-2 0-2.7v-.2l1-2.7c.5-1.4.4-2.9 0-4.2L39 10c-.2-.5 0-1.6.2-2.7h.1l.3 1 1 2.6 2 3.2c.5 1 1 2.2 1.2 3.5l1 5.3h4.4a.3.3 0 0 0 .3-.3l-.2-1.5a8.3 8.3 0 0 1 .4-2.9l.9-2.6a6 6 0 0 0 0-4.2Z"/>
  </defs>
  <path
    d="m114.2 10.6-.7-1.9c-.3-.9-.5-1.9-.5-2.8v-3c0-.2-.1-.1-.2-.1-.8.5-2.4 1.8-3.2 3.9a15.5 15.5 0 0 1-4.3 6c-.5-.6-1.2-3.4-6-6.2a10.4 10.4 0 0 1-3.1-3.3H96V6c0 .8.2 2 .5 2.8l.6 2a7 7 0 0 1 .1 4.4l-1 2.8v.3c-.2.7-.3 1.8-.2 2.7l.2 1.8a.3.3 0 0 0 .3.3h4.5c.2 0 .5 0 .3-.4l-.6-2.4c-.2-1.7.3-2.8.3-2.8l1.6 2.8 1 1.3c.1.3 1 1 1.1.7.6-1.2 1.1-1.6 1.6-2.1l2-3.2s.4 1.1 0 2.8a12.4 12.4 0 0 1-1 3.1.1.1 0 0 0 0 .2h5.5a.3.3 0 0 0 .3-.2v-.2L113 21a9.6 9.6 0 0 1 .4-3l.9-3a7 7 0 0 0 0-4.4ZM163.1 12.1 160 9.4a11.7 11.7 0 0 1-2.8-4.1l-.4-1-.1-.1h-5.4a.4.4 0 0 0-.4.3v2.8c0 .7.1 1.5.4 2.2l.8 2c.5 1.3.5 2.8 0 4.2l-.9 2.7v.2c-.3.7-.3 1.8-.3 2.5l.2 1.7a.4.4 0 0 0 .4.3h4.4a.2.2 0 0 0 .1 0 .2.2 0 0 0 0-.2V22l-.2-.5c-.4-1.4-.6-1.7 0-3l.6-1.5h3.9l-.5 1.5c-.7 1.7-.5 2.3-.2 3.5l.2.8a.3.3 0 0 0 .2.2h4.7a.4.4 0 0 0 .3 0v-.2c.1 0 .1-.1 0-.2v-1.4a8.6 8.6 0 0 1 .2-3 6 6 0 0 0-2-6.2Zm-7 1.6-.5-1.6c-.4-.8-1-1.8-1.1-2.6a8.3 8.3 0 0 1 0-2.6c.4.6 1.7 3.2 2.3 3.9a19.3 19.3 0 0 0 3 2.9H156ZM81.9 19.4a3.2 3.2 0 1 0 0-6.5 3.2 3.2 0 0 0 0 6.5Z"/>
  <path
    d="M91.4 9.5c-.8-2.2-.2-3.6 0-3.9-.3 0-1.3.4-2 2.4-.4 1.3-.5-.8-.7-1.6a10.8 10.8 0 0 0-1.5-3.2c-.1.5-.5 3-1 2.3-1-1.7-.4-4.9-.3-5.5-.6.5-3.8 3-3.2 5 .5 1.7-1.5 2.2-2 .8-.3-1.2.8-3.4 1-3.9-.4.2-2 1-2.8 2a8.5 8.5 0 0 0-1.5 2.6c-.2.6-.8 1.6-1.2 2-.6.2-1.3-2.6-1.3-2.6 0-.1-2.3 2.5-2 4.3.2 1.2.5 1.7.3 3.1 0 .4-.5 1.4-.6 2.2-.1.6-.2 1.2 0 2 0 1.6 3.2 6.5 9.3 6.5 8.3 0 9.9-8.5 9.9-8.5s.7-3-.4-6Zm-2 6.7c-.3.5-3.5 4.7-7.5 4.7s-7.2-4.2-7.5-4.7c.3-.6 3.6-4.8 7.5-4.8 4 0 7.2 4.2 7.6 4.7v.1ZM64.6 12a38 38 0 0 0-1.9-.8c-2.1-.9-2.9-1.5-3.4-2.8-.2-.7-.2-1.3.1-1.8.4-.6 1.3-.8 1.8-.8.6 0 1 .2 1.2.5.3.4.4 1.2.2 2.3l.1.5c.2.2.4.2.6.2h4.3c.3 0 .6-.2.7-.5.7-2-.4-3.5-1.9-4.5-1-.7-3.3-1.2-5.3-1.1-1.8 0-7.5 0-7.5 5 0 3 2.3 3.9 4.5 4.7 1 .4 2.1.8 2.9 1.4 1.1.8 1.8 1.6 2 3 .2.6.2 1.6-.3 2.2-.4.4-.8.6-1.5.6-1.5 0-2-1-2.2-2.6 0-.4-.4-.6-.8-.6h-4.4a.7.7 0 0 0-.8.6c-.1 1.8.3 3.3 1.3 4.3 1.3 1.5 3.7 2.2 7 2.2 3.4 0 5.4-1.7 5.9-2.2a5 5 0 0 0 1.8-3.7c.2-3.2-2-4.8-4.4-6Z"/>
  <use xlink:href="#a"/>
  <use xlink:href="#a" x="117.9"/>
  <use xlink:href="#b" x="169.1"/>
  <use xlink:href="#b"/>
  <use xlink:href="#c"/>
  <use xlink:href="#c" x="85.5"/>
</svg>
