<svg width="187" height="24" viewBox="0 0 187 24" fill="none" xmlns="http://www.w3.org/2000/svg">
    <path d="M27.7115 23.0369H22.5736C22.4953 23.0369 22.4198 23.0079 22.3617 22.9555C22.3037 22.9031 22.2672 22.831 22.2595 22.7533L22.0886 21.0226C22.0202 20.2509 22.0791 19.2231 22.3024 18.4839C22.3242 18.4114 22.3467 18.3389 22.3714 18.27L23.2936 15.5681C23.7581 14.21 23.7323 12.7328 23.2209 11.3916L22.5365 9.59928C22.266 8.89062 22.0449 7.69091 22.0449 6.93221V4.32967C22.0449 4.24637 22.0781 4.1665 22.1372 4.1076C22.1962 4.0487 22.2763 4.01563 22.3598 4.01563H27.513C27.5544 4.01553 27.5954 4.02358 27.6337 4.03932C27.672 4.05506 27.7068 4.07818 27.7361 4.10736C27.7654 4.13653 27.7887 4.17117 27.8046 4.20932C27.8204 4.24747 27.8286 4.28836 27.8286 4.32967V6.93221C27.8285 7.84365 27.9951 8.74747 28.3202 9.59928L29.0045 11.3916C29.516 12.7328 29.5417 14.21 29.0773 15.5681L28.158 18.2671C28.1333 18.3396 28.1108 18.4121 28.089 18.481C27.8657 19.223 27.7602 20.4235 27.8286 21.196L28.0271 22.6807C28.0331 22.7254 28.0293 22.7708 28.0161 22.8139C28.003 22.857 27.9807 22.8968 27.9507 22.9306C27.9208 22.9644 27.884 22.9913 27.8427 23.0096C27.8014 23.028 27.7567 23.0373 27.7115 23.0369Z" fill="white"/>
    <path d="M50.5296 11.5403L49.8446 9.77046C49.5197 8.93046 49.353 8.03785 49.353 7.1375V4.32536C49.3527 4.28434 49.3443 4.24375 49.3283 4.20597C49.3123 4.16819 49.2889 4.13394 49.2596 4.10517C49.2303 4.0764 49.1956 4.05371 49.1574 4.03834C49.1193 4.02297 49.0785 4.01526 49.0374 4.01564H44.8689C44.7859 4.01506 44.706 4.04732 44.6468 4.10539C44.5877 4.16345 44.554 4.24257 44.5532 4.32536V7.1375C44.5532 7.88605 44.7751 9.07124 45.0456 9.77046L45.7306 11.5403C46.2414 12.863 46.2671 14.3233 45.8034 15.6631L45.735 15.8597C45.732 15.8689 45.7262 15.8769 45.7184 15.8826C45.7105 15.8884 45.7011 15.8914 45.6914 15.8914C45.6817 15.8914 45.6722 15.8884 45.6644 15.8826C45.6565 15.8769 45.6507 15.8689 45.6477 15.8597C45.3849 15.032 45.0483 14.2295 44.642 13.4617L42.7752 10.4022C42.3083 9.5211 41.9337 8.5943 41.6574 7.63652L40.6138 4.01564H32.9321C32.8486 4.01564 32.7685 4.04872 32.7094 4.10762C32.6504 4.16652 32.6172 4.24642 32.6172 4.32972V6.93222C32.6172 7.69093 32.8354 8.89064 33.1088 9.59929L33.7938 11.3916C34.305 12.7328 34.3307 14.21 33.8666 15.5681L32.9444 18.27C32.9197 18.3425 32.8972 18.415 32.8754 18.4839C32.6521 19.226 32.5932 20.2538 32.6615 21.0226L32.8332 22.7533C32.8406 22.831 32.8769 22.9032 32.9348 22.9557C32.9928 23.0081 33.0683 23.0371 33.1466 23.0369H38.2845C38.3294 23.0369 38.3739 23.0273 38.4148 23.0088C38.4557 22.9903 38.4922 22.9632 38.5218 22.9295C38.5514 22.8958 38.5734 22.8562 38.5864 22.8133C38.5994 22.7704 38.6031 22.7252 38.5972 22.6808L38.3987 21.196C38.3303 20.4235 38.19 19.2231 38.4132 18.481C38.4343 18.4085 38.4576 18.336 38.4816 18.2671L39.4037 15.5652C39.8682 14.2071 39.8425 12.7299 39.331 11.3887L39.0161 10.1491C38.8219 9.64137 39.0336 8.45106 39.2343 7.37901C39.2361 7.37222 39.2401 7.36625 39.2457 7.36197C39.2513 7.35769 39.2581 7.35538 39.2652 7.35538C39.2722 7.35538 39.2791 7.35769 39.2847 7.36197C39.2903 7.36625 39.2943 7.37222 39.2961 7.37901L39.6284 8.47427C39.8882 9.33029 40.2268 10.1605 40.64 10.9542L42.5526 14.1544C43.1302 15.2638 43.5614 16.4431 43.8355 17.6629L44.7976 23.0398H49.2337C49.2784 23.0402 49.3226 23.031 49.3634 23.0129C49.4042 22.9948 49.4406 22.9682 49.4703 22.9348C49.4999 22.9015 49.522 22.8622 49.5352 22.8197C49.5483 22.7771 49.5521 22.7322 49.5464 22.688L49.3479 21.2221C49.2795 20.4598 49.385 19.2746 49.6082 18.542C49.6301 18.4695 49.6526 18.4005 49.6773 18.3309L50.5995 15.6631C51.0642 14.3236 51.0394 12.8634 50.5296 11.5403Z" fill="white"/>
    <path d="M145.627 23.1609H140.489C140.411 23.1609 140.335 23.1319 140.277 23.0795C140.219 23.0271 140.183 22.955 140.175 22.8773L140.003 21.1474C139.936 20.3749 139.995 19.3478 140.218 18.605C140.239 18.5325 140.262 18.46 140.286 18.3911L141.208 15.6892C141.673 14.3311 141.647 12.8539 141.136 11.5127L140.451 9.72037C140.181 9.01244 139.959 7.81199 139.959 7.05401V4.4508C139.959 4.40949 139.967 4.36857 139.983 4.33041C139.999 4.29226 140.022 4.25762 140.051 4.22845C140.081 4.19928 140.116 4.17615 140.154 4.16041C140.192 4.14467 140.233 4.13662 140.275 4.13672H145.428C145.511 4.13672 145.591 4.1698 145.65 4.2287C145.709 4.2876 145.743 4.3675 145.743 4.4508V7.05401C145.743 7.96525 145.91 8.86883 146.235 9.72037L146.919 11.5127C147.431 12.8539 147.457 14.3311 146.992 15.6892L146.069 18.3911C146.045 18.4636 146.023 18.5361 146.001 18.605C145.778 19.3478 145.672 20.5475 145.74 21.32L145.938 22.8048C145.944 22.8491 145.941 22.8942 145.928 22.937C145.915 22.9799 145.893 23.0195 145.864 23.0532C145.834 23.0869 145.798 23.114 145.757 23.1325C145.716 23.1511 145.672 23.1608 145.627 23.1609Z" fill="white"/>
    <path d="M136.078 11.5754L135.394 9.80635C135.068 8.96649 134.901 8.07378 134.901 7.17335V4.36121C134.901 4.27843 134.867 4.19926 134.808 4.14106C134.749 4.08286 134.669 4.0504 134.586 4.05078H130.417C130.334 4.0504 130.254 4.08286 130.195 4.14106C130.136 4.19926 130.103 4.27843 130.102 4.36121V7.17335C130.102 7.9219 130.32 9.10713 130.594 9.80635L131.279 11.5754C131.79 12.8981 131.816 14.3585 131.352 15.6983L131.316 15.8005C131.311 15.8163 131.301 15.8301 131.287 15.8398C131.274 15.8495 131.257 15.8548 131.241 15.8548C131.224 15.8548 131.208 15.8495 131.194 15.8398C131.181 15.8301 131.171 15.8163 131.166 15.8005C130.908 15.0069 130.582 14.2372 130.191 13.4998V13.4947L128.327 10.4417V10.4359C127.861 9.55598 127.487 8.63037 127.212 7.67383L126.256 4.36051C126.232 4.27742 126.183 4.20367 126.115 4.1491C126.048 4.09454 125.966 4.06175 125.879 4.05514C125.871 4.05514 125.861 4.05514 125.852 4.05514H118.479C118.438 4.05514 118.397 4.06329 118.358 4.07912C118.32 4.09495 118.285 4.11813 118.256 4.14737C118.227 4.17661 118.204 4.21132 118.188 4.24951C118.172 4.2877 118.164 4.32862 118.164 4.36993V6.97243C118.164 7.73041 118.382 8.93085 118.656 9.6395L119.341 11.4318C119.852 12.7727 119.878 14.2498 119.413 15.6076L118.491 18.3095C118.467 18.382 118.444 18.4546 118.422 18.5271C118.199 19.2691 118.14 20.2969 118.208 21.0658L118.38 22.7964C118.388 22.874 118.424 22.9459 118.482 22.9981C118.54 23.0504 118.615 23.0793 118.694 23.0793H123.831C123.876 23.0795 123.921 23.0701 123.962 23.0517C124.003 23.0333 124.039 23.0063 124.069 22.9726C124.099 22.9389 124.121 22.8993 124.134 22.8564C124.147 22.8135 124.15 22.7683 124.144 22.7239L123.946 21.2384C123.877 20.4666 123.737 19.2662 123.96 18.5242C123.982 18.4517 124.004 18.3791 124.028 18.3066L124.951 15.6047C125.416 14.2469 125.39 12.7698 124.879 11.4289L124.66 10.861C124.386 10.1505 124.312 9.37867 124.446 8.62913C124.49 8.38469 124.543 8.1337 124.601 7.88346C124.605 7.86824 124.613 7.85468 124.626 7.84486C124.638 7.83503 124.653 7.82948 124.669 7.82899C124.685 7.8285 124.7 7.83312 124.713 7.84217C124.726 7.85121 124.736 7.86416 124.74 7.87911L124.932 8.51087C125.078 9.00338 125.257 9.4872 125.438 9.93038C125.654 10.4587 125.924 10.9633 126.244 11.4362L127.995 14.0322L127.998 14.0387C128.63 15.1885 129.096 16.4207 129.385 17.6995L130.282 22.7108C130.301 22.8126 130.355 22.9045 130.434 22.9708C130.514 23.037 130.615 23.0734 130.718 23.0735H134.785C134.83 23.074 134.874 23.0649 134.915 23.0469C134.955 23.0288 134.992 23.0023 135.022 22.969C135.051 22.9357 135.073 22.8965 135.086 22.854C135.1 22.8114 135.103 22.7666 135.098 22.7224L134.899 21.2565C134.831 20.4942 134.936 19.309 135.159 18.5728C135.181 18.5002 135.205 18.4313 135.229 18.361L136.151 15.6932C136.614 14.355 136.588 12.8965 136.078 11.5754Z" fill="white"/>
    <path d="M114.221 10.6148L113.536 8.70859C113.211 7.79811 113.044 6.83853 113.045 5.8718L113.002 2.87761C113.002 2.72819 112.879 2.75502 112.824 2.78549C112.028 3.30483 110.415 4.56401 109.604 6.65806C108.321 9.96415 105.415 12.8234 105.292 12.6907C104.762 12.1293 104.061 9.29611 99.3554 6.45278C97.7984 5.50984 96.7664 4.0853 96.2014 3.22868C96.1927 3.21581 96.1801 3.20606 96.1655 3.20084C96.1509 3.19562 96.135 3.19519 96.1201 3.19965C96.1052 3.20411 96.0922 3.21321 96.0828 3.22561C96.0735 3.23801 96.0684 3.25306 96.0683 3.26856C96.0683 3.954 96.0625 5.86964 96.0625 5.86964C96.0625 6.67622 96.2843 7.95281 96.5548 8.70643L97.2391 10.6126C97.7507 12.0453 97.7763 13.606 97.3119 15.0546L96.3919 17.9291C96.3679 18.0016 96.3447 18.08 96.3192 18.1569C96.0959 18.946 96.037 20.0391 96.1054 20.8602L96.277 22.7011C96.2821 22.7813 96.317 22.8568 96.375 22.9127C96.433 22.9685 96.5099 23.0007 96.5905 23.0029H101.065C101.308 23.0029 101.554 23.0029 101.429 22.6402C101.429 22.6402 100.965 20.9334 100.847 20.2038C100.575 18.5072 101.101 17.3713 101.101 17.3713C101.101 17.3713 102.029 19.2434 102.658 20.1849C103.01 20.7108 103.274 21.0444 103.643 21.5355C103.834 21.7901 104.661 22.5104 104.797 22.2231C105.366 21.0444 105.932 20.5635 106.351 20.0623C106.966 19.3261 108.481 16.8803 108.481 16.8803C108.481 16.8803 108.761 18.0161 108.489 19.7091C108.372 20.4388 107.984 21.4165 107.62 22.2659C107.538 22.4545 107.469 22.638 107.411 22.8092C107.403 22.8312 107.401 22.8548 107.404 22.878C107.407 22.9011 107.416 22.9232 107.43 22.9422C107.443 22.9612 107.461 22.9767 107.482 22.9872C107.503 22.9978 107.526 23.0032 107.55 23.0029H112.924C112.971 23.0011 113.016 22.9895 113.058 22.9689C113.099 22.9483 113.136 22.9192 113.166 22.8834C113.195 22.8477 113.217 22.8061 113.229 22.7614C113.241 22.7167 113.244 22.67 113.237 22.6242L113.038 21.0444C112.97 20.2226 113.075 18.946 113.299 18.1569C113.32 18.08 113.343 18.0045 113.368 17.9291L114.29 15.0546C114.755 13.6071 114.731 12.0473 114.221 10.6148Z" fill="white"/>
    <path d="M163.144 12.1451L159.886 9.40255C159.736 9.25313 159.583 9.09718 159.43 8.93543C158.43 7.8724 157.638 6.63165 157.096 5.27754L156.732 4.37232C156.703 4.29924 156.652 4.23668 156.586 4.19261C156.521 4.14855 156.443 4.12501 156.364 4.125H151.178C151.072 4.125 150.972 4.16664 150.897 4.24078C150.823 4.31491 150.781 4.41545 150.781 4.52029V7.28745C150.781 8.03657 150.918 8.77943 151.186 9.47944L151.958 11.501C152.469 12.8422 152.495 14.3193 152.031 15.6775L151.109 18.3794C151.085 18.4519 151.061 18.5244 151.039 18.5933C150.816 19.3361 150.757 20.3632 150.826 21.1356L150.99 22.793C151 22.8906 151.045 22.9812 151.118 23.047C151.191 23.1129 151.286 23.1493 151.384 23.1492H155.766C155.8 23.1492 155.834 23.1417 155.865 23.1272C155.895 23.1127 155.922 23.0917 155.944 23.0655C155.965 23.0394 155.981 23.0088 155.989 22.976C155.997 22.9432 155.998 22.9089 155.992 22.8757L155.839 22.0967C155.808 21.9375 155.768 21.7801 155.72 21.6252C155.265 20.1818 155.06 19.925 155.659 18.61L156.299 17.0549C156.305 17.0424 156.313 17.0318 156.325 17.0243C156.336 17.0168 156.349 17.0128 156.363 17.0128H160.158C160.169 17.0128 160.18 17.0154 160.19 17.0203C160.199 17.0253 160.208 17.0326 160.214 17.0414C160.22 17.0503 160.224 17.0606 160.226 17.0714C160.228 17.0822 160.227 17.0932 160.223 17.1035C160.139 17.3428 159.898 18.0181 159.656 18.6267C158.982 20.3261 159.237 20.8564 159.545 22.1359L159.677 22.9258C159.687 22.9876 159.719 23.0438 159.767 23.0843C159.815 23.1248 159.876 23.147 159.939 23.147H164.601C164.657 23.147 164.713 23.1349 164.765 23.1116C164.816 23.0884 164.862 23.0544 164.899 23.0121C164.936 22.9697 164.964 22.9199 164.981 22.866C164.997 22.8121 165.002 22.7553 164.994 22.6994L164.807 21.3061C164.74 20.5343 164.845 19.3339 165.068 18.5911C165.091 18.5186 165.113 18.4461 165.132 18.3735C165.769 16.1011 164.951 13.6675 163.144 12.1451ZM156.128 13.6987C156.112 13.6987 156.097 13.6932 156.085 13.6831C156.072 13.6731 156.064 13.6591 156.061 13.6436C155.952 13.1154 155.79 12.5993 155.579 12.103C155.215 11.2529 154.58 10.2759 154.463 9.54616C154.254 8.24055 154.371 7.26859 154.436 6.88851C154.439 6.87582 154.445 6.86415 154.454 6.85511C154.463 6.84608 154.475 6.84015 154.488 6.83815C154.5 6.83615 154.513 6.83818 154.525 6.84396C154.537 6.84974 154.546 6.85898 154.552 6.87038C154.893 7.53261 156.225 10.0894 156.806 10.7531C158.176 12.3148 159.391 13.2555 159.831 13.5747C159.841 13.5842 159.848 13.5962 159.851 13.6094C159.854 13.6226 159.854 13.6365 159.849 13.6494C159.845 13.6624 159.837 13.6739 159.827 13.6826C159.816 13.6913 159.804 13.6969 159.79 13.6987H156.128Z" fill="white"/>
    <path d="M81.8764 19.3689C83.6549 19.3689 85.0966 17.9309 85.0966 16.1571C85.0966 14.3833 83.6549 12.9453 81.8764 12.9453C80.098 12.9453 78.6562 14.3833 78.6562 16.1571C78.6562 17.9309 80.098 19.3689 81.8764 19.3689Z" fill="white"/>
    <path d="M91.4202 9.49529C90.6305 7.25182 91.2217 5.87947 91.3526 5.62706C91.3545 5.62322 91.3553 5.61892 91.3549 5.61466C91.3544 5.6104 91.3527 5.60636 91.3501 5.60301C91.3474 5.59966 91.3438 5.59714 91.3398 5.59575C91.3357 5.59436 91.3313 5.59414 91.3271 5.59515C91.0937 5.6539 90.0603 6.01949 89.4029 8.00909C88.9825 9.27989 88.8706 7.20324 88.7207 6.39667C88.4924 5.16359 87.4524 3.54389 87.2103 3.17977C87.2063 3.17401 87.2007 3.1696 87.1942 3.16707C87.1877 3.16454 87.1805 3.16402 87.1737 3.16558C87.1669 3.16715 87.1607 3.17072 87.1559 3.17583C87.1512 3.18095 87.1481 3.18738 87.147 3.19429C87.0743 3.69622 86.6896 6.10867 86.2896 5.4566C85.2838 3.81733 85.7805 0.607727 85.8802 0.0361602C85.8812 0.0298063 85.8802 0.0232962 85.8774 0.0175132C85.8746 0.0117302 85.87 0.00695846 85.8644 0.00385994C85.8587 0.000761425 85.8522 -0.000524168 85.8458 0.000194294C85.8394 0.000912755 85.8334 0.00358921 85.8285 0.00786206C85.3195 0.457572 82.1109 3.0173 82.6651 4.90898C83.1836 6.67663 81.1699 7.20324 80.7525 5.81059C80.3998 4.63264 81.4717 2.36885 81.6848 1.93727C81.6873 1.93232 81.6881 1.92671 81.6872 1.92124C81.6863 1.91578 81.6837 1.91076 81.6797 1.90688C81.6757 1.90301 81.6706 1.90049 81.6651 1.89969C81.6596 1.8989 81.654 1.89986 81.6491 1.90245C81.303 2.08524 79.7889 2.91429 78.9293 3.84417C78.5235 4.28372 78.1242 4.96195 77.8442 5.48854C77.667 5.8261 77.5113 6.17446 77.3781 6.53157C77.1745 7.06759 76.6392 8.13746 76.1898 8.41164C75.6436 8.7453 74.8706 5.89545 74.8648 5.85918C74.8524 5.78157 72.6314 8.42832 72.9369 10.2431C73.1311 11.3964 73.4227 11.8526 73.1834 13.3113C73.1172 13.7109 72.7471 14.6989 72.5885 15.5221C72.4736 16.0668 72.4387 16.6537 72.5158 17.4849C72.6678 19.0806 75.8254 24.013 81.9487 23.9999C90.1817 23.9796 91.7511 15.4699 91.7511 15.4699C91.7511 15.4699 92.5104 12.5918 91.4202 9.49529ZM89.4756 16.204C89.1243 16.6791 85.8823 20.9121 81.9349 20.9121C77.9875 20.9121 74.7455 16.6791 74.3935 16.204C74.3842 16.1915 74.3792 16.1763 74.3792 16.1608C74.3792 16.1453 74.3842 16.1301 74.3935 16.1176C74.7455 15.6425 77.9875 11.4095 81.9349 11.4095C85.8823 11.4095 89.1243 15.6425 89.4756 16.1176C89.4849 16.1301 89.4899 16.1453 89.4899 16.1608C89.4899 16.1763 89.4849 16.1915 89.4756 16.204Z" fill="white"/>
    <path d="M64.5927 12.0925C64.2749 11.9271 63.1833 11.4057 62.72 11.2134C60.5674 10.3213 59.8075 9.68298 59.3333 8.36939C59.0773 7.65928 59.1035 7.07754 59.4126 6.64016C59.83 6.04756 60.6598 5.83648 61.2445 5.83648C61.763 5.83648 62.1302 5.97286 62.3666 6.25284C62.7302 6.68369 62.8124 7.48592 62.6131 8.63413C62.584 8.79733 62.608 9.01276 62.7186 9.14187C62.8531 9.29999 63.0975 9.34495 63.3215 9.34495L67.6121 9.32827C67.9365 9.32827 68.1685 9.13317 68.3015 8.75309C68.9771 6.83675 67.8812 5.30047 66.4056 4.31111C65.3715 3.61768 63.0604 3.1114 61.1238 3.15056C59.2606 3.17232 53.5918 3.23835 53.6042 8.28308C53.6122 11.1997 55.895 12.0548 58.1028 12.8868C59.1406 13.2763 60.2118 13.6796 61.0045 14.2954C62.1004 15.1469 62.8291 15.9404 63.0807 17.2649C63.208 17.9359 63.1629 18.8679 62.6582 19.4757C62.3353 19.8645 61.8583 20.0611 61.2445 20.0611C59.6657 20.0611 59.2249 19.0819 58.9711 17.5094C58.913 17.1467 58.6294 16.8566 58.2381 16.8566H58.2308L53.7583 16.8834C53.5785 16.8794 53.4037 16.9432 53.2689 17.062C53.1341 17.1809 53.0492 17.346 53.0311 17.5246C52.8929 19.3096 53.322 20.7545 54.3118 21.8193C55.6491 23.2606 57.9901 23.9917 61.267 23.9917C64.7046 23.9917 66.6704 22.33 67.1911 21.8215C68.4332 20.608 68.8281 19.7695 68.9517 18.0817C69.1866 14.9221 66.9969 13.3358 64.5927 12.0925Z" fill="white"/>
    <path d="M8.62175 4.27601L6.81966 10.9745C6.80463 11.0345 6.7745 11.0896 6.73211 11.1346C6.68973 11.1797 6.6365 11.2132 6.57749 11.232L0.269476 13.1454C-0.0715961 13.2492 -0.0715961 13.762 0.269476 13.865L6.57749 15.7791C6.63642 15.7979 6.68958 15.8313 6.73195 15.8762C6.77433 15.9212 6.80452 15.9761 6.81966 16.0359L8.62175 22.7351C8.63864 22.8122 8.68146 22.8813 8.7431 22.9308C8.80474 22.9803 8.8815 23.0073 8.96063 23.0073C9.03976 23.0073 9.11652 22.9803 9.17816 22.9308C9.2398 22.8813 9.28262 22.8122 9.29951 22.7351L11.1023 16.0359C11.1175 15.9761 11.1477 15.9212 11.19 15.8762C11.2324 15.8313 11.2856 15.7979 11.3445 15.7791L17.6525 13.865C17.9936 13.762 17.9936 13.2492 17.6525 13.1454L11.3445 11.232C11.2855 11.2132 11.2323 11.1797 11.1899 11.1346C11.1475 11.0896 11.1174 11.0345 11.1023 10.9745L9.29951 4.27601C9.28262 4.19891 9.2398 4.12987 9.17816 4.08037C9.11652 4.03088 9.03976 4.00391 8.96063 4.00391C8.8815 4.00391 8.80474 4.03088 8.7431 4.08037C8.68146 4.12987 8.63864 4.19891 8.62175 4.27601Z" fill="white"/>
    <path d="M177.75 4.30194L175.981 10.9344C175.965 10.9997 175.932 11.0599 175.886 11.1091C175.84 11.1584 175.783 11.1951 175.719 11.2159L169.528 13.1112C169.157 13.2243 169.157 13.7865 169.528 13.8996L175.719 15.7942C175.783 15.8152 175.84 15.8521 175.886 15.9015C175.932 15.9508 175.965 16.011 175.981 16.0764L177.75 22.7089C177.767 22.7931 177.814 22.8687 177.881 22.923C177.948 22.9773 178.031 23.0069 178.118 23.0069C178.204 23.0069 178.288 22.9773 178.355 22.923C178.422 22.8687 178.468 22.7931 178.486 22.7089L180.254 16.0764C180.271 16.011 180.303 15.9508 180.349 15.9014C180.395 15.8521 180.453 15.8152 180.518 15.7942L186.708 13.8996C187.078 13.7865 187.078 13.2243 186.708 13.1112L180.518 11.2159C180.453 11.1952 180.395 11.1585 180.349 11.1092C180.303 11.06 180.271 10.9998 180.254 10.9344L178.486 4.30194C178.468 4.21768 178.422 4.14208 178.355 4.08781C178.288 4.03353 178.204 4.00391 178.118 4.00391C178.031 4.00391 177.948 4.03353 177.881 4.08781C177.814 4.14208 177.767 4.21768 177.75 4.30194Z" fill="white"/>
</svg>

