<svg version="1.1" xmlns="http://www.w3.org/2000/svg" viewBox="-16 -16 128 256"
     width="1024" height="2048">
  <g class="map">
    <g id='MainZone' transform="translate(0, 0)">
    </g>
    <g id='Screens' transform="translate(32, 0)">
      <g>
      <g transform="scale(0.6666) translate(-24, -24)" class="notSelectedOnly">
        <path d="M23.0726 2.79976C23.4092 1.9651 24.5908 1.9651 24.9274 2.79976L26.9603 7.84073C27.2209 8.48692 28.0459 8.67522 28.561 8.20609L32.5798 4.54636C33.2452 3.9404 34.3098 4.45311 34.251 5.35115L33.8953 10.7749C33.8497 11.4702 34.5113 11.9978 35.179 11.7987L40.3877 10.245C41.2501 9.98779 41.9869 10.9116 41.5442 11.6952L38.8705 16.4276C38.5277 17.0342 38.8949 17.7966 39.5829 17.9069L44.9498 18.7671C45.8384 18.9095 46.1014 20.0615 45.3625 20.5754L40.9003 23.6791C40.3283 24.0769 40.3283 24.9231 40.9003 25.3209L45.3625 28.4246C46.1014 28.9385 45.8384 30.0905 44.9498 30.2329L39.5829 31.0931C38.8949 31.2034 38.5277 31.9658 38.8705 32.5724L41.5442 37.3048C41.9869 38.0884 41.2501 39.0122 40.3877 38.755L35.179 37.2013C34.5113 37.0022 33.8497 37.5298 33.8953 38.2251L34.251 43.6488C34.3098 44.5469 33.2452 45.0596 32.5798 44.4536L28.561 40.7939C28.0459 40.3248 27.2209 40.5131 26.9603 41.1593L24.9274 46.2002C24.5908 47.0349 23.4092 47.0349 23.0726 46.2002L21.0397 41.1593C20.7791 40.5131 19.9541 40.3248 19.439 40.7939L15.4202 44.4536C14.7548 45.0596 13.6902 44.5469 13.749 43.6488L14.1047 38.2251C14.1503 37.5298 13.4887 37.0022 12.821 37.2013L7.61231 38.755C6.74988 39.0122 6.01313 38.0884 6.45583 37.3048L9.12954 32.5724C9.47227 31.9658 9.10512 31.2034 8.41715 31.0931L3.0502 30.2329C2.16157 30.0905 1.89862 28.9385 2.63746 28.4246L7.09968 25.321C7.67169 24.9231 7.67169 24.0769 7.09968 23.6791L2.63746 20.5754C1.89862 20.0615 2.16157 18.9095 3.0502 18.7671L8.41714 17.9069C9.10512 17.7966 9.47227 17.0342 9.12954 16.4276L6.45583 11.6952C6.01313 10.9117 6.74988 9.98779 7.61231 10.245L12.821 11.7987C13.4887 11.9978 14.1503 11.4702 14.1047 10.7749L13.749 5.35115C13.6902 4.45311 14.7548 3.9404 15.4202 4.54636L19.439 8.20609C19.9541 8.67522 20.7791 8.48692 21.0397 7.84073L23.0726 2.79976Z" fill="#536BF3"/>
        <path d="M24 27.9291V14.2148M24 35.472H24.0137" stroke="#F7FCFF" stroke-width="3.6" stroke-linecap="round"/>
      </g>
      <g transform="scale(0.6666) translate(-24, -48)" class="selectedOnly">
        <path d="M52 26C52 40.3594 42.5 47.5 26 63.5C10 48.5 0 40.3594 0 26C0 11.6406 11.6406 0 26 0C40.3594 0 52 11.6406 52 26Z" fill="#536BF3"/>
        <path d="M26 32.5V18.5M26 40.2H26.014" stroke="#F7FCFF" stroke-width="3.6" stroke-linecap="round"/>
      </g>
      </g>
    </g>
    <g id='Main' transform="translate(64, 0)">
      <g fill="#78CCFF" transform="translate(-16,-16) scale(0.5)">
        <path
          class="hoverOnly"
          d="M30.76 0V13.2267H33.24L33.24 0H30.76ZM61.76 28.52H48.5333V31H61.76V28.52ZM15.4667 28.52H2.24006L2.24006 31H15.4667V28.52ZM16.2502 24.5788L4.03041 19.5172L4.97946 17.226L17.1993 22.2876L16.2502 24.5788ZM59.9696 19.5172L47.7498 24.5788L46.8007 22.2876L59.0205 17.226L59.9696 19.5172ZM24.5245 14.9603L19.4629 2.74043L21.7541 1.79138L26.8157 14.0112L24.5245 14.9603ZM44.5342 2.74043L39.4726 14.9603L37.1814 14.0112L42.243 1.79138L44.5342 2.74043ZM19.4336 18.9463L10.081 9.59362L11.8346 7.84L21.1872 17.1927L19.4336 18.9463ZM53.919 9.59362L44.5664 18.9463L42.8127 17.1927L52.1654 7.84L53.919 9.59362Z"
        />
        <path
          d="M56.6 29.7599C56.6 43.4566 45.4966 57.0399 31.8 57.0399C18.1033 57.0399 7 43.4566 7 29.7599C7 16.0633 18.1033 4.95996 31.8 4.95996C45.4966 4.95996 56.6 16.0633 56.6 29.7599Z"
          fill="#78CCFF"
        />
        <circle
          cx="31.96"
          cy="57.0401"
          r="4.95999"
          class="selectedOnly"
          fill="#78CCFF"
          stroke="white"
          stroke-width="2.48"
        />
        <path
          d="M28.9262 20.4942C32.5397 22.5804 34.1746 26.7775 33.1726 30.6285C32.8326 31.9356 31.298 32.3369 30.1284 31.6616L18.654 25.0368C17.4843 24.3616 17.0646 22.8319 18.0265 21.8839C20.8606 19.0907 25.3128 18.408 28.9262 20.4942Z"
          fill="white"
        />
        <circle
          r="1.5117"
          transform="matrix(-0.866025 -0.5 -0.5 0.866025 28.1147 33.9908)"
          fill="white"
        />
        <circle
          r="1.5117"
          transform="matrix(-0.866025 -0.5 -0.5 0.866025 22.8803 30.9684)"
          fill="white"
        />
        <circle
          r="1.5117"
          transform="matrix(-0.866025 -0.5 -0.5 0.866025 23.2319 36.4078)"
          fill="white"
        />
        <circle
          r="1.5117"
          transform="matrix(-0.866025 -0.5 -0.5 0.866025 17.9936 33.3829)"
          fill="white"
        />
        <circle
          r="1.5117"
          transform="matrix(-0.866025 -0.5 -0.5 0.866025 17.6459 27.9444)"
          fill="white"
        />
        <path
          d="M42.3324 45.1256C42.3324 46.2762 41.3997 47.209 40.2491 47.209C39.0985 47.209 38.1657 46.2763 38.1657 45.1257L42.3324 45.1256ZM39.4019 18.947L40.7635 17.3702L39.4019 18.947ZM31.9808 16.143L33.7044 17.3132L31.9808 16.143ZM35.6023 15.6658L36.964 14.0891L35.6023 15.6658ZM29.113 20.367L30.8366 21.5372L29.113 20.367ZM27.7878 21.337L28.3824 23.3337L27.7878 21.337ZM27.3894 19.1967L30.2572 14.9728L33.7044 17.3132L30.8366 21.5372L27.3894 19.1967ZM36.964 14.0891L40.7635 17.3702L38.0402 20.5238L34.2407 17.2426L36.964 14.0891ZM42.3323 20.7978L42.3324 45.1256L38.1657 45.1257L38.1657 20.7978L42.3323 20.7978ZM28.3824 23.3337L25.357 24.2347L24.1677 20.2414L27.1932 19.3404L28.3824 23.3337ZM40.7635 17.3702C41.7597 18.2305 42.3323 19.4816 42.3323 20.7978L38.1657 20.7978C38.1657 20.6926 38.1199 20.5925 38.0402 20.5238L40.7635 17.3702ZM30.2572 14.9728C31.7787 12.7318 34.914 12.3187 36.964 14.0891L34.2407 17.2426C34.0768 17.101 33.8261 17.1341 33.7044 17.3132L30.2572 14.9728ZM30.8366 21.5372C30.2501 22.401 29.3831 23.0357 28.3824 23.3337L27.1932 19.3404C27.2732 19.3165 27.3425 19.2658 27.3894 19.1967L30.8366 21.5372Z"
          fill="white"
        />
      </g>
    </g>
    <g id='Cafe' transform="translate(96, 0)">
      <g fill="#78CCFF" transform="translate(-16,-16) scale(0.5)">
        <path
          class="hoverOnly"
          d="M30.7602 0V13.2267H33.2402L33.2402 0H30.7602ZM61.7602 28.52H48.5335V31H61.7602V28.52ZM15.4669 28.52H2.24023L2.24023 31H15.4669V28.52ZM16.2504 24.5788L4.03059 19.5172L4.97964 17.226L17.1995 22.2876L16.2504 24.5788ZM59.9698 19.5172L47.7499 24.5788L46.8009 22.2876L59.0207 17.226L59.9698 19.5172ZM24.5247 14.9603L19.463 2.74043L21.7543 1.79138L26.8159 14.0112L24.5247 14.9603ZM44.5344 2.74043L39.4728 14.9603L37.1816 14.0112L42.2432 1.79138L44.5344 2.74043ZM19.4338 18.9463L10.0811 9.59362L11.8348 7.84L21.1874 17.1927L19.4338 18.9463ZM53.9192 9.59362L44.5665 18.9463L42.8129 17.1927L52.1656 7.84L53.9192 9.59362Z"
        />
        <path
          d="M56.6 29.7599C56.6 43.4566 45.4966 57.0399 31.8 57.0399C18.1033 57.0399 7 43.4566 7 29.7599C7 16.0633 18.1033 4.95996 31.8 4.95996C45.4966 4.95996 56.6 16.0633 56.6 29.7599Z"/>
        <circle
          cx="31.96"
          cy="57.0401"
          class="selectedOnly"
          r="4.95999"
          stroke="white"
          stroke-width="2.48"
        />
        <path
          d="M23.0632 13.4165C22.3862 13.4165 21.8053 13.8991 21.6813 14.5646L19.5596 25.9443C19.2176 27.7779 23.7207 28.6343 23.6471 30.4998L23.0632 45.3054C22.9735 47.5816 25.399 47.5832 25.399 47.5832C25.399 47.5832 27.8244 47.5816 27.7347 45.3054L27.1508 30.4998C27.0775 28.6375 31.1996 27.8102 31.2384 25.9443L29.1167 14.5646C28.9926 13.8991 28.4118 13.4165 27.7347 13.4165L28.2848 21.9994C28.3057 22.3257 28.1491 22.6379 27.875 22.8161C27.2922 23.1949 26.5176 22.8027 26.4781 22.1088L25.9829 13.4165H24.815L24.3198 22.1088C24.2803 22.8027 23.5057 23.1949 22.923 22.8161C22.6489 22.6379 22.4922 22.3257 22.5131 21.9994L23.0632 13.4165ZM41.7493 13.4165C40.0293 13.4165 37.1614 14.9082 36.0148 17.1445C35.0592 18.8219 34.742 22.5691 34.742 24.8054V30.4998C34.742 32.3635 37.2901 32.7776 38.2457 32.7776L37.0778 45.3054C36.8664 47.5738 39.4136 47.5832 39.4136 47.5832C39.4136 47.5832 41.7493 47.5832 41.7493 45.3054V13.4165Z"
          fill="white"
        />
      </g>
    </g>

    <g id='WC' transform="translate(0, 32)">
      <g fill="#78CCFF" transform="translate(-16,-16) scale(0.5)">
        <path
          class="hoverOnly"
          d="M30.7602 0V13.2267H33.2402L33.2402 0H30.7602ZM61.7602 28.52H48.5335V31H61.7602V28.52ZM15.4669 28.52H2.24023L2.24023 31H15.4669V28.52ZM16.2504 24.5788L4.03059 19.5172L4.97964 17.226L17.1995 22.2876L16.2504 24.5788ZM59.9698 19.5172L47.7499 24.5788L46.8009 22.2876L59.0207 17.226L59.9698 19.5172ZM24.5247 14.9603L19.463 2.74043L21.7543 1.79138L26.8159 14.0112L24.5247 14.9603ZM44.5344 2.74043L39.4728 14.9603L37.1816 14.0112L42.2432 1.79138L44.5344 2.74043ZM19.4338 18.9463L10.0811 9.59362L11.8348 7.84L21.1874 17.1927L19.4338 18.9463ZM53.9192 9.59362L44.5665 18.9463L42.8129 17.1927L52.1656 7.84L53.9192 9.59362Z"
          fill="#78CCFF"
        />
        <path
          d="M56.6 29.7599C56.6 43.4566 45.4966 57.0399 31.8 57.0399C18.1033 57.0399 7 43.4566 7 29.7599C7 16.0633 18.1033 4.95996 31.8 4.95996C45.4966 4.95996 56.6 16.0633 56.6 29.7599Z"
          fill="#78CCFF"
        />
        <circle
          cx="31.96"
          cy="57.0401"
          class="selectedOnly"
          r="4.95999"
          fill="#78CCFF"
          stroke="white"
          stroke-width="2.48"
        />
        <path
          d="M19.0656 31.3143L19.1295 34.0066H19.2573L19.8005 31.4745L21.7175 25.513H24.9765L26.7657 31.4745L27.3408 34.0066H27.4686L27.5325 31.2502L28.4271 18.7822H32.4529L30.1525 41.2181H26.4462L24.0499 34.1348L23.3151 31.0579H23.1553L22.3885 34.1348L19.8005 41.2181H15.9664L13.666 18.7822H18.0432L19.0656 31.3143Z"
          fill="white"
        />
        <path
          d="M46.8181 33.6861H50.3327V40.0963C49.6511 40.5878 48.7778 40.9724 47.7127 41.2502C46.669 41.5279 45.5934 41.6668 44.4857 41.6668C43.0799 41.6668 41.738 41.4638 40.46 41.0579C39.2033 40.6305 38.0956 39.9574 37.1371 39.0386C36.1786 38.0985 35.4118 36.8912 34.8367 35.4168C34.2616 33.9211 33.974 32.1155 33.974 30.0002C33.974 27.7993 34.2935 25.9617 34.9326 24.4873C35.5929 22.9916 36.4342 21.795 37.4566 20.8976C38.4791 19.9788 39.6186 19.3271 40.8753 18.9425C42.1321 18.5365 43.3675 18.3335 44.5816 18.3335C45.8596 18.3335 46.9353 18.4403 47.8086 18.654C48.7032 18.8677 49.4381 19.1134 50.0132 19.3912V26.0579H46.4986V22.404C45.8383 22.2972 45.1567 22.2438 44.4538 22.2438C43.6231 22.2438 42.8456 22.404 42.1214 22.7245C41.4185 23.0237 40.8008 23.4938 40.2683 24.1348C39.7358 24.7758 39.3204 25.5878 39.0222 26.5707C38.724 27.5322 38.5749 28.6754 38.5749 30.0002C38.5749 31.154 38.7134 32.2117 38.9903 33.1732C39.2672 34.1134 39.6719 34.9254 40.2044 35.6091C40.7369 36.2929 41.3865 36.8271 42.1534 37.2117C42.9202 37.5749 43.7935 37.7566 44.7733 37.7566C45.4762 37.7566 46.1578 37.6925 46.8181 37.5643V33.6861Z"
          fill="white"
        />
      </g>
    </g>
    <g id='Other' transform="translate(32, 32)">
      <g fill="#DE4F69" transform="translate(-23,-16) scale(0.5)">
        <path
          class="hoverOnly"
          d="M45.26 0V13.2267H47.74L47.74 0H45.26ZM76.26 28.52H63.0333V31H76.26V28.52ZM29.9667 28.52H16.7401L16.7401 31H29.9667V28.52ZM30.7502 24.5788L18.5304 19.5172L19.4795 17.226L31.6993 22.2876L30.7502 24.5788ZM74.4696 19.5172L62.2498 24.5788L61.3007 22.2876L73.5205 17.226L74.4696 19.5172ZM39.0245 14.9603L33.9629 2.74043L36.2541 1.79138L41.3157 14.0112L39.0245 14.9603ZM59.0342 2.74043L53.9726 14.9603L51.6814 14.0112L56.743 1.79138L59.0342 2.74043ZM33.9336 18.9463L24.581 9.59362L26.3346 7.84L35.6872 17.1927L33.9336 18.9463ZM68.419 9.59362L59.0664 18.9463L57.3127 17.1927L66.6654 7.84L68.419 9.59362Z"
        />
        <path
          d="M71.1 29.7599C71.1 43.4566 59.9966 57.0399 46.3 57.0399C32.6033 57.0399 21.5 43.4566 21.5 29.7599C21.5 16.0633 32.6033 4.95996 46.3 4.95996C59.9966 4.95996 71.1 16.0633 71.1 29.7599Z"
          fill="#DE4F69"
        />
        <path
          d="M46.4997 13.4167L41.7508 20.8042C41.1122 21.7976 39.6824 21.8589 38.9611 20.9239L36.8054 18.1294C35.4608 20.4275 30.2705 25.8873 30.2705 31.8045C30.2705 40.5192 37.5366 47.5834 46.4997 47.5834C55.4627 47.5834 62.7288 40.5192 62.7288 31.8045C62.7288 25.8873 57.5385 20.4275 56.1939 18.1294L54.0383 20.9239C53.317 21.8589 51.8872 21.7976 51.2486 20.8042L46.4997 13.4167ZM46.4997 28.7328C46.4997 28.7328 52.5586 34.7693 52.5586 39.3363C52.5586 41.3088 50.557 44.0489 46.4997 44.0489C42.4424 44.0489 40.4408 41.3088 40.4408 39.3363C40.4408 34.926 46.4997 28.7328 46.4997 28.7328Z"
          fill="white"
        />
        <circle
          cx="46.46"
          cy="57.0401"
          r="4.95999"
          class="selectedOnly"
          stroke="white"
          stroke-width="2.48"
        />
      </g>
    </g>
    <g id='Unknown' transform="translate(64, 32)">
      <g fill="#DE4F69" transform="translate(-16,-16) scale(0.5)">
        <path
          class="hoverOnly"
          d="M30.76 0V13.2267H33.24L33.24 0H30.76ZM61.76 28.52H48.5333V31H61.76V28.52ZM15.4667 28.52H2.24006L2.24006 31H15.4667V28.52ZM16.2502 24.5788L4.03041 19.5172L4.97946 17.226L17.1993 22.2876L16.2502 24.5788ZM59.9696 19.5172L47.7498 24.5788L46.8007 22.2876L59.0205 17.226L59.9696 19.5172ZM24.5245 14.9603L19.4629 2.74043L21.7541 1.79138L26.8157 14.0112L24.5245 14.9603ZM44.5342 2.74043L39.4726 14.9603L37.1814 14.0112L42.243 1.79138L44.5342 2.74043ZM19.4336 18.9463L10.081 9.59362L11.8346 7.84L21.1872 17.1927L19.4336 18.9463ZM53.919 9.59362L44.5664 18.9463L42.8127 17.1927L52.1654 7.84L53.919 9.59362Z"
        />
        <path
          d="M56.6 29.7599C56.6 43.4566 45.4966 57.0399 31.8 57.0399C18.1033 57.0399 7 43.4566 7 29.7599C7 16.0633 18.1033 4.95996 31.8 4.95996C45.4966 4.95996 56.6 16.0633 56.6 29.7599Z"/>
        <path
          d="M36.5661 13.9066C36.136 13.7021 35.6367 13.7021 35.2067 13.9066L31.6082 15.617C31.0562 15.8793 30.7045 16.4359 30.7045 17.047V25.3402L18.6046 31.6127C18.0796 31.8849 17.75 32.427 17.75 33.0184V45.2502C17.75 46.1246 18.4589 46.8335 19.3333 46.8335H26.7645C27.5419 46.8335 28.2044 46.269 28.3277 45.5014L29.4829 38.3137C29.6063 37.5461 30.2687 36.9816 31.0462 36.9816H32.9538C33.7313 36.9816 34.3937 37.5461 34.5171 38.3137L35.6723 45.5014C35.7956 46.269 36.4581 46.8335 37.2355 46.8335H44.6667C45.5411 46.8335 46.25 46.1246 46.25 45.2502V33.0184C46.25 32.427 45.9204 31.8849 45.3954 31.6127L33.2955 25.3402V23.2044C33.2955 22.5933 33.6471 22.0367 34.1991 21.7744L35.2067 21.2955C35.6367 21.091 36.136 21.091 36.5661 21.2955L40.3885 23.1123C40.8186 23.3167 41.3178 23.3167 41.7479 23.1123L45.3464 21.4019C45.8983 21.1395 46.25 20.583 46.25 19.9719V16.0892C46.25 14.9259 45.0376 14.1598 43.987 14.6591L41.7479 15.7234C41.3178 15.9278 40.8186 15.9278 40.3885 15.7234L36.5661 13.9066Z"
          fill="white"
        />
        <circle
          cx="31.96"
          cy="57.0401"
          r="4.95999"
          class="selectedOnly"
          stroke="white"
          stroke-width="2.48"
        />
      </g>
    </g>
    <g id='Info' transform="translate(96, 32)">
      <g fill="#A692F3" transform="translate(-16,-16) scale(0.5)">
        <path
          class="hoverOnly"
          d="M30.76 0V13.2267H33.24L33.24 0H30.76ZM61.76 28.52H48.5333V31H61.76V28.52ZM15.4667 28.52H2.24006L2.24006 31H15.4667V28.52ZM16.2502 24.5788L4.03041 19.5172L4.97946 17.226L17.1993 22.2876L16.2502 24.5788ZM59.9696 19.5172L47.7498 24.5788L46.8007 22.2876L59.0205 17.226L59.9696 19.5172ZM24.5245 14.9603L19.4629 2.74043L21.7541 1.79138L26.8157 14.0112L24.5245 14.9603ZM44.5342 2.74043L39.4726 14.9603L37.1814 14.0112L42.243 1.79138L44.5342 2.74043ZM19.4336 18.9463L10.081 9.59362L11.8346 7.84L21.1872 17.1927L19.4336 18.9463ZM53.919 9.59362L44.5664 18.9463L42.8127 17.1927L52.1654 7.84L53.919 9.59362Z"
        />
        <path
          d="M56.6 29.7599C56.6 43.4566 45.4966 57.0399 31.8 57.0399C18.1033 57.0399 7 43.4566 7 29.7599C7 16.0633 18.1033 4.95996 31.8 4.95996C45.4966 4.95996 56.6 16.0633 56.6 29.7599Z"/>
        <path
          d="M32.7781 15.7537C32.2846 15.5145 31.7088 15.5145 31.2154 15.7537L17.4678 22.416C16.1101 23.0739 16.1238 25.0127 17.4906 25.6515L18.8579 26.2904V30.5077C17.4245 31.0038 16.469 32.4923 16.469 33.9808C16.469 35.4692 17.4245 36.9577 18.8579 37.4538V37.7019L16.7079 42.9115C15.9912 45.1442 16.469 47.625 20.0523 47.625C23.6356 47.625 24.1134 45.1442 23.3967 42.9115L21.2467 37.7019C22.6801 36.9577 23.6356 35.7173 23.6356 33.9808C23.6356 32.2442 22.6801 31.0038 21.2467 30.5077V27.5308L31.2154 32.3617C31.7088 32.6009 32.2846 32.6009 32.7781 32.3617L46.5864 25.67C47.9335 25.0172 47.9335 23.0982 46.5864 22.4454L32.7781 15.7537ZM42.5079 34.3002C42.5079 32.9927 41.1526 32.1255 39.9654 32.6735L32.5204 36.1096C32.0372 36.3326 31.48 36.3293 30.9996 36.1006L26.0245 33.7327V33.9808C26.0245 35.7173 25.3079 37.2058 24.1134 38.4462L25.5467 41.9192C25.9226 42.9115 26.0245 44.1519 25.7856 45.1442C27.4579 45.8885 29.369 46.3846 31.7579 46.3846C39.6412 46.3846 42.5079 41.4231 42.5079 38.9423V34.3002Z"
          fill="white"
        />
        <circle
          cx="31.96"
          cy="57.0401"
          r="4.95999"
          class="selectedOnly"
          stroke="white"
          stroke-width="2.48"
        />
      </g>
    </g>
  </g>
  <g class="common" transform="translate(-16, 160)">
    <g id="edit">
      <g fill="none" stroke="currentColor" stroke-linecap="round"
         stroke-width="2">
        <path d="M11 4H4a2 2 0 0 0-2 2v14a2 2 0 0 0 2 2h14a2 2 0 0 0 2-2v-7"/>
        <path d="M18.5 2.5a2.121 2.121 0 0 1 3 3L12 15l-4 1 1-4 9.5-9.5z"/>
      </g>
    </g>
    <g id="search" transform="translate(24, 0)">
      <path transform="scale(1.5)"
            d="M6.45613 0C3.16665 0 0.5 2.66664 0.5 5.95611C0.5 9.24558 3.16665 11.9122 6.45613 11.9122C7.75412 11.9122 8.95513 11.497 9.9336 10.7922L14.1414 15L15.5 13.6414L11.2922 9.43363C11.997 8.45515 12.4123 7.25412 12.4123 5.95611C12.4123 2.66664 9.74561 0 6.45613 0ZM2.42133 5.95611C2.42133 3.72776 4.22777 1.92133 6.45613 1.92133C8.68449 1.92133 10.4909 3.72776 10.4909 5.95611C10.4909 8.18446 8.68449 9.9909 6.45613 9.9909C4.22777 9.9909 2.42133 8.18446 2.42133 5.95611Z"
            fill="currentColor"/>
    </g>
    <g id="location" fill="none">
      <path d="M8 10V2M8 14.4H8.008" stroke="#F7FCFF" stroke-width="3.6" stroke-linecap="round"/>
    </g>
    <g id="plus" transform="translate(48, 0)">
      <path d="M12 12V6M12 12H18M12 12V18M12 12H6" stroke="currentColor"
            stroke-width="2" stroke-linecap="round"/>
    </g>
    <g id="arrow-right" transform="translate(72, 0)">
      <path fill="none" stroke="currentColor" stroke-linecap="round"
            transform="scale(0.046875)"
            stroke-linejoin="round" stroke-width="48"
            d="M268 112l144 144-144 144M392 256H100"/>
    </g>
    <g id="x" transform="translate(96, 0)">
      <path d="M2.22221 1.33301L16.4066 15.4071M1.5918 15.4071L15.7762 1.33302"
            stroke="currentColor"
            transform="scale(1.3333333333333333)"
            stroke-width="2"/>
    </g>
    <g id="close" transform="translate(0, 24)">
      <path
        d="M12 0.37793C5.57812 0.37793 0.375 5.6263 0.375 12.104C0.375 18.5817 5.57812 23.8301 12 23.8301C18.4219 23.8301 23.625 18.5817 23.625 12.104C23.625 5.6263 18.4219 0.37793 12 0.37793ZM17.7 15.1821C17.9203 15.4043 17.9203 15.7637 17.7 15.9859L15.8438 17.8536C15.6234 18.0758 15.2672 18.0758 15.0469 17.8536L12 14.7518L8.94844 17.8536C8.72812 18.0758 8.37187 18.0758 8.15156 17.8536L6.3 15.9812C6.07969 15.759 6.07969 15.3996 6.3 15.1774L9.375 12.104L6.3 9.02592C6.07969 8.80369 6.07969 8.44434 6.3 8.22211L8.15625 6.34972C8.37656 6.12749 8.73281 6.12749 8.95312 6.34972L12 9.45619L15.0516 6.35445C15.2719 6.13222 15.6281 6.13222 15.8484 6.35445L17.7047 8.22684C17.925 8.44907 17.925 8.80842 17.7047 9.03065L14.625 12.104L17.7 15.1821Z"
        fill="#CBD5E0"></path>
    </g>
    <g id="ok" transform="translate(24, 24)">
      <path d="M8 13L10.2523 14.5016C10.6776 14.785 11.2481 14.7023 11.5753 14.3097L16 9"
            stroke="#636363" fill="none"
            stroke-linecap="round"/>
    </g>

    <g id="bookmark" transform="translate(48, 24)">
      <path
        d="M5 5.00017V20.0004L11.0077 16.5674C11.6226 16.216 12.3774 16.216 12.9923 16.5674L19 20.0004V5.00017C19 3.89567 18.104 3.00027 16.9995 3.00019C13.3983 2.99994 10.6017 2.99994 7.00048 3.00019C5.89597 3.00027 5 3.89567 5 5.00017Z"
        stroke-width="3"
        stroke="currentColor"
        fill="currentColor"/>
    </g>
    <g id="magic" transform="translate(72, 24)">
      <svg width="24" height="24" viewBox="0 0 24 24"
           fill="none" xmlns="http://www.w3.org/2000/svg">
        <path
          d="M7 2L7.70711 6.29289L12 7L7.70711 7.70711L7 12L6.29289 7.70711L2 7L6.29289 6.29289L7 2Z
                 M14 6L15.4142 12.5858L22 14L15.4142 15.4142L14 22L12.5858 15.4142L6 14L12.5858 12.5858L14 6Z"
          fill="currentColor"/>
      </svg>

    </g>
    <g id="minus" transform="translate(96, 24)">
      <path d="M18 12H12H6" stroke="currentColor"
            stroke-width="2" stroke-linecap="round"/>
    </g>
    <g id="eye" transform="translate(0, 48)">
      <g transform="scale(0.75)">
        <rect width="32" height="32" rx="16" fill="currentColor"/>
        <path fill-rule="evenodd" clip-rule="evenodd"
              d="M20 16C20 18.2091 18.2091 20 16 20C13.7909 20 12 18.2091 12 16C12 13.7909 13.7909 12 16 12C18.2091 12 20 13.7909 20 16ZM18 16C18 17.1046 17.1046 18 16 18C14.8954 18 14 17.1046 14 16C14 14.8954 14.8954 14 16 14C17.1046 14 18 14.8954 18 16Z"
              fill="#F7FCFF"/>
        <path fill-rule="evenodd" clip-rule="evenodd"
              d="M16.0004 9C10.7751 9 6.48383 15.2322 6.01799 15.9377C6.00629 15.9559 6 15.9777 6 16C6 16.0224 6.00629 16.0441 6.01799 16.0623C6.48383 16.7616 10.7751 23 16.0004 23C21.2256 23 25.5169 16.7616 25.9827 16.0623C25.994 16.0439 26 16.0222 26 16C26 15.9778 25.994 15.9561 25.9827 15.9377C25.5169 15.2372 21.2256 9 16.0004 9ZM21.4197 18.3238C22.3123 17.4998 23.0436 16.6472 23.5523 15.9997C23.0438 15.3524 22.3125 14.4998 21.4198 13.6758C19.7489 12.1336 17.8458 11 16.0004 11C14.1544 11 12.2511 12.1329 10.5806 13.6742C9.68714 14.4986 8.95546 15.3518 8.44761 15.9987C8.95634 16.6464 9.68794 17.4994 10.581 18.3238C12.252 19.8663 14.155 21 16.0004 21C17.8457 21 19.7488 19.8663 21.4197 18.3238Z"
              fill="#F7FCFF"/>
      </g>
    </g>
    <g id="ok-circle" transform="translate(24, 48)">
      <path fill-rule="evenodd"
            clip-rule="evenodd"
            transform="scale(1.2)"
            d="M20 9.99998C20 15.5229 15.5228 20 10 20C4.47715 20 0 15.5229 0 9.99998C0 4.47715 4.47715 0 10 0C15.5228 0 20 4.47715 20 9.99998ZM8.5 14L15 7.5L13.5 6L8.5 11L6.5 9L5 10.5L8.5 14Z"
            fill="currentColor"/>
    </g>
    <g id="eye-plug" transform="translate(48, 48)">
      <g>
        <path
          d="M12.5719 16.2569C12.6239 14.4838 11.2304 13.0042 9.45946 12.9522C7.68854 12.9002 6.21082 14.2954 6.15888 16.0685C6.10694 17.8417 7.50045 19.3212 9.27136 19.3732C11.0423 19.4252 12.52 18.03 12.5719 16.2569Z"
          fill="#536BF3"/>
        <path
          d="M18.8725 9.4928C18.086 7.24948 18.6748 5.87658 18.8058 5.62366C18.8078 5.61986 18.8086 5.61557 18.8081 5.61132C18.8077 5.60707 18.806 5.60304 18.8033 5.59972C18.8007 5.59639 18.7971 5.59393 18.793 5.59263C18.7889 5.59132 18.7846 5.59123 18.7805 5.59236C18.5473 5.65073 17.5182 6.01531 16.8626 8.00655C16.4402 9.2754 16.3321 7.20041 16.1868 6.39427C15.9586 5.15926 14.9195 3.54106 14.6821 3.17986C14.6782 3.17392 14.6726 3.16931 14.6661 3.16665C14.6595 3.16399 14.6523 3.1634 14.6454 3.16497C14.6385 3.16653 14.6322 3.17018 14.6275 3.17541C14.6227 3.18064 14.6196 3.18721 14.6187 3.19424C14.5452 3.69586 14.1633 6.1092 13.7646 5.45702C12.7626 3.81682 13.2576 0.607485 13.3565 0.0356582C13.3574 0.0293356 13.3563 0.0228896 13.3534 0.0171903C13.3506 0.011491 13.346 0.00680975 13.3404 0.00377176C13.3348 0.000733771 13.3284 -0.000515888 13.3221 0.000193834C13.3157 0.000903556 13.3098 0.00353843 13.305 0.00774207C12.798 0.456914 9.60111 3.01745 10.1536 4.90888C10.6665 6.67427 8.65995 7.20041 8.24428 5.80722C7.89282 4.62973 8.96071 2.36526 9.17362 1.93301C9.17631 1.9281 9.1773 1.92244 9.17645 1.9169C9.17559 1.91137 9.17293 1.90628 9.16888 1.90242C9.16483 1.89856 9.15962 1.89614 9.15406 1.89556C9.1485 1.89497 9.1429 1.89624 9.13813 1.89917C8.79259 2.08188 7.28452 2.91425 6.42784 3.84473C6.024 4.28376 5.62607 4.96217 5.34727 5.48831C5.17067 5.82628 5.0152 6.1749 4.88176 6.53215C4.67899 7.06761 4.14673 8.13936 3.69896 8.41258C3.15488 8.74587 2.38521 5.89604 2.3793 5.85966C2.36747 5.78184 0.153954 8.4295 0.458946 10.244C0.652418 11.3978 0.943048 11.8512 0.703954 13.3129C0.638055 13.713 0.267164 14.7001 0.112556 15.5241C-0.00149929 16.0688 -0.0361385 16.6559 0.042433 17.4865C0.193662 19.0802 3.33736 24.0177 9.43975 24C17.6424 23.9805 19.2063 15.4691 19.2063 15.4691C19.2063 15.4691 19.9582 12.5896 18.8725 9.4928ZM16.9353 16.2025C16.5847 16.6779 13.3548 20.9124 9.422 20.9124C5.48921 20.9124 2.25933 16.6829 1.90872 16.2033C1.90003 16.1909 1.89536 16.1762 1.89536 16.161C1.89536 16.1459 1.90003 16.1311 1.90872 16.1187C2.25933 15.6433 5.48921 11.4096 9.422 11.4096C13.3548 11.4096 16.5847 15.6391 16.9353 16.1187C16.9442 16.1309 16.9489 16.1455 16.9489 16.1606C16.9489 16.1756 16.9442 16.1903 16.9353 16.2025Z"
          fill="#536BF3"/>

      </g>
    </g>
    <g transform="translate(72, 48)">

    </g>
    <g id='trash' transform="translate(96, 48)">
      <g transform="translate(3, 1)">
        <path d="M10.4999 0V2H16.139C17.3749 2 18.315 3.10973 18.1118 4.3288L17.9999 5H0.999926L0.888059 4.3288C0.684881 3.10973 1.62497 2 2.86085 2H8.49993V0H10.4999Z"
              fill="currentColor"/>
        <path fill-rule="evenodd" clip-rule="evenodd" d="M16.4999 7H2.49993L3.80847 19.2131C3.91736 20.2293 4.77499 21 5.79709 21H13.2028C14.2249 21 15.0825 20.2293 15.1914 19.2131L16.4999 7ZM6.99993 11H8.49993V17H6.99993V11ZM10.4999 11H11.9999V17H10.4999V11Z"
              fill="currentColor"/>
      </g>
    </g>
  </g>
  <g class="navbar" transform="translate(-16, 212)">

    <g id='main' transform="translate(0, 0)">
      <path
        d="M4 22H8.3871C9.49167 22 10.3871 21.1046 10.3871 20V16.7379C10.3871 15.8471 11.1092 15.125 12 15.125C12.8908 15.125 13.6129 15.8471 13.6129 16.7379V20C13.6129 21.1046 14.5083 22 15.6129 22H20C21.1046 22 22 21.1046 22 20V11.0769C22 10.4747 21.7286 9.90449 21.2612 9.52471L13.2612 3.02471C12.5264 2.42768 11.4736 2.42768 10.7388 3.02471L2.73881 9.52471C2.27139 9.90449 2 10.4747 2 11.0769V20C2 21.1046 2.89543 22 4 22Z"
        fill="none"
        stroke="var(--color)" stroke-linecap="round"/>
    </g>
    <g id='board' transform="translate(72, 0)">
      <path
        d="M7.47253 2.18408C6.09181 2.18408 4.97253 3.30337 4.97253 4.68408V5.14233H3.55566C2.17495 5.14233 1.05566 6.26161 1.05566 7.64233V18.4751C1.05566 19.8329 2.15634 20.9335 3.5141 20.9335H20.4456C21.8263 20.9335 22.9456 19.8143 22.9456 18.4335V4.68408C22.9456 3.30337 21.8263 2.18408 20.4456 2.18408H7.47253ZM3.55566 6.14233H4.97253V18.4751C4.97253 19.2806 4.31957 19.9335 3.5141 19.9335C2.70863 19.9335 2.05566 19.2806 2.05566 18.4751V7.64233C2.05566 6.8139 2.72724 6.14233 3.55566 6.14233ZM20.4456 19.9335H5.4934C5.79453 19.5256 5.97253 19.0211 5.97253 18.4751V5.64233V4.68408C5.97253 3.85565 6.6441 3.18408 7.47253 3.18408H20.4456C21.274 3.18408 21.9456 3.85566 21.9456 4.68408V18.4335C21.9456 19.262 21.274 19.9335 20.4456 19.9335ZM8.58398 6.64229C8.58398 6.36614 8.80784 6.14229 9.08398 6.14229H12.3065C12.5826 6.14229 12.8065 6.36614 12.8065 6.64229V9.07965C12.8065 9.3558 12.5826 9.57965 12.3065 9.57965H9.08398C8.80784 9.57965 8.58398 9.3558 8.58398 9.07965V6.64229ZM9.08398 5.14229C8.25556 5.14229 7.58398 5.81386 7.58398 6.64229V9.07965C7.58398 9.90808 8.25556 10.5797 9.08398 10.5797H12.3065C13.1349 10.5797 13.8065 9.90808 13.8065 9.07965V6.64229C13.8065 5.81386 13.1349 5.14229 12.3065 5.14229H9.08398ZM8.08398 13.2775C7.80784 13.2775 7.58398 13.5013 7.58398 13.7775C7.58398 14.0536 7.80784 14.2775 8.08398 14.2775H19.8346C20.1107 14.2775 20.3346 14.0536 20.3346 13.7775C20.3346 13.5013 20.1107 13.2775 19.8346 13.2775H8.08398ZM8.08398 16.9753C7.80784 16.9753 7.58398 17.1991 7.58398 17.4753C7.58398 17.7514 7.80784 17.9753 8.08398 17.9753H19.8346C20.1107 17.9753 20.3346 17.7514 20.3346 17.4753C20.3346 17.1991 20.1107 16.9753 19.8346 16.9753H8.08398ZM15.418 10.0797C15.418 9.80352 15.6418 9.57966 15.918 9.57966L19.8348 9.57966C20.111 9.57966 20.3348 9.80352 20.3348 10.0797C20.3348 10.3558 20.111 10.5797 19.8348 10.5797H15.918C15.6418 10.5797 15.418 10.3558 15.418 10.0797ZM15.918 6.62146C15.6418 6.62146 15.418 6.84532 15.418 7.12146C15.418 7.3976 15.6418 7.62146 15.918 7.62146L19.8348 7.62146C20.111 7.62146 20.3348 7.3976 20.3348 7.12146C20.3348 6.84531 20.111 6.62146 19.8348 6.62146L15.918 6.62146Z"
        fill="var(--color)"/>
    </g>
    <g id='map' transform="translate(24, 0)">
      <g fill="var(--color)">
        <path
          d="M11.5 0.25V4.25H12.5V0.25H11.5ZM21 8.75H17V9.75H21V8.75ZM7 8.75H3V9.75H7V8.75ZM7.18923 7.79852L3.49372 6.26779L3.8764 5.34391L7.57192 6.87464L7.18923 7.79852ZM20.5063 6.26779L16.8108 7.79852L16.4281 6.87464L20.1236 5.34391L20.5063 6.26779ZM9.62446 4.82195L8.09372 1.12643L9.0176 0.743747L10.5483 4.43927L9.62446 4.82195ZM15.9058 1.12643L14.3751 4.82195L13.4512 4.43927L14.9819 0.743747L15.9058 1.12643ZM8.1111 6.06801L5.28268 3.23959L5.98978 2.53248L8.81821 5.36091L8.1111 6.06801ZM18.7178 3.23959L15.8894 6.06801L15.1823 5.36091L18.0107 2.53248L18.7178 3.23959Z"/>
        <path
          d="M13.2165 20.8464L12.5016 20.1472L13.2165 20.8464ZM18.0005 9.0588C18.0005 11.4129 17.1403 13.671 15.9972 15.6239C14.8569 17.5722 13.4698 19.1574 12.5016 20.1472L13.9313 21.5457C14.9679 20.486 16.4728 18.7707 17.7233 16.6342C18.9711 14.5024 20.0005 11.8913 20.0005 9.0588H18.0005ZM12.0005 3C15.3063 3 18.0005 5.70472 18.0005 9.0588H20.0005C20.0005 4.61595 16.4266 1 12.0005 1V3ZM6.00049 9.0588C6.00049 5.70472 8.69465 3 12.0005 3V1C7.57434 1 4.00049 4.61595 4.00049 9.0588H6.00049ZM11.4994 20.1472C10.5312 19.1574 9.14411 17.5722 8.00377 15.6239C6.86071 13.671 6.00049 11.4129 6.00049 9.0588H4.00049C4.00049 11.8913 5.02993 14.5024 6.27769 16.6342C7.52819 18.7707 9.03308 20.486 10.0696 21.5457L11.4994 20.1472ZM16.0005 9C16.0005 6.79086 14.2096 5 12.0005 5V7C13.1051 7 14.0005 7.89543 14.0005 9H16.0005ZM12.0005 13C14.2096 13 16.0005 11.2091 16.0005 9H14.0005C14.0005 10.1046 13.1051 11 12.0005 11V13ZM8.00049 9C8.00049 11.2091 9.79135 13 12.0005 13V11C10.8959 11 10.0005 10.1046 10.0005 9H8.00049ZM12.0005 5C9.79135 5 8.00049 6.79086 8.00049 9H10.0005C10.0005 7.89543 10.8959 7 12.0005 7V5ZM12.5016 20.1472C12.2144 20.4408 11.7866 20.4408 11.4994 20.1472L10.0696 21.5457C11.1413 22.6413 12.8597 22.6413 13.9313 21.5457L12.5016 20.1472Z"/>
        <circle cx="13" cy="8" r="1"/>
      </g>
    </g>
    <g id='timetable' transform="translate(48, 0)">
      <path d="M8 13L10.2523 14.5016C10.6776 14.785 11.2481 14.7023 11.5753 14.3097L16 9"
            stroke="var(--color)"
            stroke-linecap="round" stroke-width="2" fill="none"/>
    </g>
  </g>
</svg>
