<svg version="1.1" xmlns="http://www.w3.org/2000/svg" viewBox="-16 -16 128 256"
   width="1024" height="2048" >
  <g class="map">
    <g id='camping' transform="translate(0, 0)">
      <g fill="#78CCFF" transform="translate(-32,-16) scale(0.5)">
        <path
          class="hoverOnly"
          d="M61.7602 0V13.2267H64.2402L64.2402 0H61.7602ZM92.7602 28.52H79.5335V31H92.7602V28.52ZM46.4669 28.52H33.2402L33.2402 31H46.4669V28.52ZM47.2504 24.5788L35.0306 19.5172L35.9796 17.226L48.1995 22.2876L47.2504 24.5788ZM90.9698 19.5172L78.7499 24.5788L77.8009 22.2876L90.0207 17.226L90.9698 19.5172ZM55.5247 14.9603L50.463 2.74043L52.7543 1.79138L57.8159 14.0112L55.5247 14.9603ZM75.5344 2.74043L70.4728 14.9603L68.1816 14.0112L73.2432 1.79138L75.5344 2.74043ZM50.4338 18.9463L41.0811 9.59362L42.8348 7.84L52.1874 17.1927L50.4338 18.9463ZM84.9192 9.59362L75.5665 18.9463L73.8129 17.1927L83.1656 7.84L84.9192 9.59362Z"
        />
        <path
          d="M87.6 29.7599C87.6 43.4566 76.4966 57.0399 62.8 57.0399C49.1033 57.0399 38 43.4566 38 29.7599C38 16.0633 49.1033 4.95996 62.8 4.95996C76.4966 4.95996 87.6 16.0633 87.6 29.7599Z"/>
        <circle
          cx="62.96"
          cy="57.0401"
          r="4.95999"
          class="selectedOnly"
          stroke="white"
          stroke-width="2.48"
        />
        <path
          d="M57.7616 13.5467C57.1674 13.9428 57.0068 14.7457 57.4029 15.34L61.3801 21.3056L47.6806 41.8548C46.5348 43.5735 47.7669 45.8757 49.8326 45.8757H55.6692C56.6489 45.8757 57.5444 45.3223 57.9825 44.4461L60.621 39.1691C61.5741 37.2629 64.2944 37.2629 65.2475 39.1691L67.886 44.4461C68.3241 45.3223 69.2197 45.8757 70.1993 45.8757H76.0359C78.1016 45.8757 79.3337 43.5735 78.1879 41.8548L64.4884 21.3056L68.4656 15.34C68.8617 14.7457 68.7012 13.9428 68.1069 13.5467C67.5127 13.1505 66.7098 13.3111 66.3136 13.9053L62.9343 18.9744L59.5549 13.9053C59.1587 13.3111 58.3558 13.1505 57.7616 13.5467Z"
          fill="white"
        />
      </g>
    </g>
    <g id='screen' transform="translate(32, 0)">
      <g fill="#A692F3" transform="translate(-16,-16) scale(0.5)">
        <path
          class="hoverOnly"
          d="M30.5199 0V13.2267H32.9999L32.9999 0H30.5199ZM61.5199 28.52H48.2933V31H61.5199V28.52ZM15.2267 28.52H2L2 31H15.2267V28.52ZM16.0102 24.5788L3.79035 19.5172L4.73941 17.226L16.9592 22.2876L16.0102 24.5788ZM59.7295 19.5172L47.5097 24.5788L46.5606 22.2876L58.7805 17.226L59.7295 19.5172ZM24.2844 14.9603L19.2228 2.74043L21.514 1.79138L26.5756 14.0112L24.2844 14.9603ZM44.2942 2.74043L39.2326 14.9603L36.9413 14.0112L42.003 1.79138L44.2942 2.74043ZM19.1936 18.9463L9.84091 9.59362L11.5945 7.84L20.9472 17.1927L19.1936 18.9463ZM53.679 9.59362L44.3263 18.9463L42.5727 17.1927L51.9253 7.84L53.679 9.59362Z"
        />
        <path
          d="M56.6 29.7599C56.6 43.4566 45.4966 57.0399 31.8 57.0399C18.1033 57.0399 7 43.4566 7 29.7599C7 16.0633 18.1033 4.95996 31.8 4.95996C45.4966 4.95996 56.6 16.0633 56.6 29.7599Z"/>
        <circle
          cx="31.96"
          cy="57.0401"
          r="4.95999"
          class="selectedOnly"
          stroke="white"
          stroke-width="2.48"
        />
        <rect
          x="39.7939"
          y="39.1621"
          width="9.52953"
          height="4.76477"
          rx="2.38238"
          transform="rotate(15 39.7939 39.1621)"
          fill="#E0D9FB"
        />
        <circle cx="31.8681" cy="30.7848" r="16.6767" fill="white"/>

        <path
          fill-rule="evenodd"
          clip-rule="evenodd"
          d="M31.8668 16.4905C34.4984 16.4905 36.6316 18.6237 36.6316 21.2552C36.6316 23.8868 34.4984 26.02 31.8668 26.02C29.2353 26.02 27.1021 23.8868 27.1021 21.2552C27.1021 18.6237 29.2353 16.4905 31.8668 16.4905ZM27.1028 30.785C27.1028 28.1535 24.9695 26.0202 22.338 26.0202C19.7065 26.0202 17.5732 28.1535 17.5732 30.785C17.5732 33.4165 19.7065 35.5498 22.338 35.5498C24.9695 35.5498 27.1028 33.4165 27.1028 30.785ZM41.3975 26.0202C44.029 26.0202 46.1623 28.1535 46.1623 30.785C46.1623 33.4165 44.029 35.5498 41.3975 35.5498C38.766 35.5498 36.6328 33.4165 36.6328 30.785C36.6328 28.1535 38.766 26.0202 41.3975 26.0202ZM31.8668 35.5495C34.4984 35.5495 36.6316 37.6828 36.6316 40.3143C36.6316 42.9458 34.4984 45.0791 31.8668 45.0791C29.2353 45.0791 27.1021 42.9458 27.1021 40.3143C27.1021 37.6828 29.2353 35.5495 31.8668 35.5495Z"
          fill="#BDAEF6"
        />
      </g>
    </g>
    <g id='bath' transform="translate(64, 0)">
      <g fill="#78CCFF" transform="translate(-16,-16) scale(0.5)">
        <path
          class="hoverOnly"
          d="M30.76 0V13.2267H33.24L33.24 0H30.76ZM61.76 28.52H48.5333V31H61.76V28.52ZM15.4667 28.52H2.24006L2.24006 31H15.4667V28.52ZM16.2502 24.5788L4.03041 19.5172L4.97946 17.226L17.1993 22.2876L16.2502 24.5788ZM59.9696 19.5172L47.7498 24.5788L46.8007 22.2876L59.0205 17.226L59.9696 19.5172ZM24.5245 14.9603L19.4629 2.74043L21.7541 1.79138L26.8157 14.0112L24.5245 14.9603ZM44.5342 2.74043L39.4726 14.9603L37.1814 14.0112L42.243 1.79138L44.5342 2.74043ZM19.4336 18.9463L10.081 9.59362L11.8346 7.84L21.1872 17.1927L19.4336 18.9463ZM53.919 9.59362L44.5664 18.9463L42.8127 17.1927L52.1654 7.84L53.919 9.59362Z"
        />
        <path
          d="M56.6 29.7599C56.6 43.4566 45.4966 57.0399 31.8 57.0399C18.1033 57.0399 7 43.4566 7 29.7599C7 16.0633 18.1033 4.95996 31.8 4.95996C45.4966 4.95996 56.6 16.0633 56.6 29.7599Z"
          fill="#78CCFF"
        />
        <circle
          cx="31.96"
          cy="57.0401"
          r="4.95999"
          class="selectedOnly"
          fill="#78CCFF"
          stroke="white"
          stroke-width="2.48"
        />
        <path
          d="M28.9262 20.4942C32.5397 22.5804 34.1746 26.7775 33.1726 30.6285C32.8326 31.9356 31.298 32.3369 30.1284 31.6616L18.654 25.0368C17.4843 24.3616 17.0646 22.8319 18.0265 21.8839C20.8606 19.0907 25.3128 18.408 28.9262 20.4942Z"
          fill="white"
        />
        <circle
          r="1.5117"
          transform="matrix(-0.866025 -0.5 -0.5 0.866025 28.1147 33.9908)"
          fill="white"
        />
        <circle
          r="1.5117"
          transform="matrix(-0.866025 -0.5 -0.5 0.866025 22.8803 30.9684)"
          fill="white"
        />
        <circle
          r="1.5117"
          transform="matrix(-0.866025 -0.5 -0.5 0.866025 23.2319 36.4078)"
          fill="white"
        />
        <circle
          r="1.5117"
          transform="matrix(-0.866025 -0.5 -0.5 0.866025 17.9936 33.3829)"
          fill="white"
        />
        <circle
          r="1.5117"
          transform="matrix(-0.866025 -0.5 -0.5 0.866025 17.6459 27.9444)"
          fill="white"
        />
        <path
          d="M42.3324 45.1256C42.3324 46.2762 41.3997 47.209 40.2491 47.209C39.0985 47.209 38.1657 46.2763 38.1657 45.1257L42.3324 45.1256ZM39.4019 18.947L40.7635 17.3702L39.4019 18.947ZM31.9808 16.143L33.7044 17.3132L31.9808 16.143ZM35.6023 15.6658L36.964 14.0891L35.6023 15.6658ZM29.113 20.367L30.8366 21.5372L29.113 20.367ZM27.7878 21.337L28.3824 23.3337L27.7878 21.337ZM27.3894 19.1967L30.2572 14.9728L33.7044 17.3132L30.8366 21.5372L27.3894 19.1967ZM36.964 14.0891L40.7635 17.3702L38.0402 20.5238L34.2407 17.2426L36.964 14.0891ZM42.3323 20.7978L42.3324 45.1256L38.1657 45.1257L38.1657 20.7978L42.3323 20.7978ZM28.3824 23.3337L25.357 24.2347L24.1677 20.2414L27.1932 19.3404L28.3824 23.3337ZM40.7635 17.3702C41.7597 18.2305 42.3323 19.4816 42.3323 20.7978L38.1657 20.7978C38.1657 20.6926 38.1199 20.5925 38.0402 20.5238L40.7635 17.3702ZM30.2572 14.9728C31.7787 12.7318 34.914 12.3187 36.964 14.0891L34.2407 17.2426C34.0768 17.101 33.8261 17.1341 33.7044 17.3132L30.2572 14.9728ZM30.8366 21.5372C30.2501 22.401 29.3831 23.0357 28.3824 23.3337L27.1932 19.3404C27.2732 19.3165 27.3425 19.2658 27.3894 19.1967L30.8366 21.5372Z"
          fill="white"
        />
      </g>
    </g>
    <g id='cafe' transform="translate(96, 0)">
      <g fill="#78CCFF" transform="translate(-16,-16) scale(0.5)">
        <path
          class="hoverOnly"
          d="M30.7602 0V13.2267H33.2402L33.2402 0H30.7602ZM61.7602 28.52H48.5335V31H61.7602V28.52ZM15.4669 28.52H2.24023L2.24023 31H15.4669V28.52ZM16.2504 24.5788L4.03059 19.5172L4.97964 17.226L17.1995 22.2876L16.2504 24.5788ZM59.9698 19.5172L47.7499 24.5788L46.8009 22.2876L59.0207 17.226L59.9698 19.5172ZM24.5247 14.9603L19.463 2.74043L21.7543 1.79138L26.8159 14.0112L24.5247 14.9603ZM44.5344 2.74043L39.4728 14.9603L37.1816 14.0112L42.2432 1.79138L44.5344 2.74043ZM19.4338 18.9463L10.0811 9.59362L11.8348 7.84L21.1874 17.1927L19.4338 18.9463ZM53.9192 9.59362L44.5665 18.9463L42.8129 17.1927L52.1656 7.84L53.9192 9.59362Z"
        />
        <path
          d="M56.6 29.7599C56.6 43.4566 45.4966 57.0399 31.8 57.0399C18.1033 57.0399 7 43.4566 7 29.7599C7 16.0633 18.1033 4.95996 31.8 4.95996C45.4966 4.95996 56.6 16.0633 56.6 29.7599Z"/>
        <circle
          cx="31.96"
          cy="57.0401"
          class="selectedOnly"
          r="4.95999"
          stroke="white"
          stroke-width="2.48"
        />
        <path
          d="M23.0632 13.4165C22.3862 13.4165 21.8053 13.8991 21.6813 14.5646L19.5596 25.9443C19.2176 27.7779 23.7207 28.6343 23.6471 30.4998L23.0632 45.3054C22.9735 47.5816 25.399 47.5832 25.399 47.5832C25.399 47.5832 27.8244 47.5816 27.7347 45.3054L27.1508 30.4998C27.0775 28.6375 31.1996 27.8102 31.2384 25.9443L29.1167 14.5646C28.9926 13.8991 28.4118 13.4165 27.7347 13.4165L28.2848 21.9994C28.3057 22.3257 28.1491 22.6379 27.875 22.8161C27.2922 23.1949 26.5176 22.8027 26.4781 22.1088L25.9829 13.4165H24.815L24.3198 22.1088C24.2803 22.8027 23.5057 23.1949 22.923 22.8161C22.6489 22.6379 22.4922 22.3257 22.5131 21.9994L23.0632 13.4165ZM41.7493 13.4165C40.0293 13.4165 37.1614 14.9082 36.0148 17.1445C35.0592 18.8219 34.742 22.5691 34.742 24.8054V30.4998C34.742 32.3635 37.2901 32.7776 38.2457 32.7776L37.0778 45.3054C36.8664 47.5738 39.4136 47.5832 39.4136 47.5832C39.4136 47.5832 41.7493 47.5832 41.7493 45.3054V13.4165Z"
          fill="white"
        />
      </g>
    </g>

    <g id='wc' transform="translate(0, 32)">
      <g fill="#78CCFF" transform="translate(-16,-16) scale(0.5)">
        <path
          class="hoverOnly"
          d="M30.7602 0V13.2267H33.2402L33.2402 0H30.7602ZM61.7602 28.52H48.5335V31H61.7602V28.52ZM15.4669 28.52H2.24023L2.24023 31H15.4669V28.52ZM16.2504 24.5788L4.03059 19.5172L4.97964 17.226L17.1995 22.2876L16.2504 24.5788ZM59.9698 19.5172L47.7499 24.5788L46.8009 22.2876L59.0207 17.226L59.9698 19.5172ZM24.5247 14.9603L19.463 2.74043L21.7543 1.79138L26.8159 14.0112L24.5247 14.9603ZM44.5344 2.74043L39.4728 14.9603L37.1816 14.0112L42.2432 1.79138L44.5344 2.74043ZM19.4338 18.9463L10.0811 9.59362L11.8348 7.84L21.1874 17.1927L19.4338 18.9463ZM53.9192 9.59362L44.5665 18.9463L42.8129 17.1927L52.1656 7.84L53.9192 9.59362Z"
          fill="#78CCFF"
        />
        <path
          d="M56.6 29.7599C56.6 43.4566 45.4966 57.0399 31.8 57.0399C18.1033 57.0399 7 43.4566 7 29.7599C7 16.0633 18.1033 4.95996 31.8 4.95996C45.4966 4.95996 56.6 16.0633 56.6 29.7599Z"
          fill="#78CCFF"
        />
        <circle
          cx="31.96"
          cy="57.0401"
          class="selectedOnly"
          r="4.95999"
          fill="#78CCFF"
          stroke="white"
          stroke-width="2.48"
        />
        <path
          d="M19.0656 31.3143L19.1295 34.0066H19.2573L19.8005 31.4745L21.7175 25.513H24.9765L26.7657 31.4745L27.3408 34.0066H27.4686L27.5325 31.2502L28.4271 18.7822H32.4529L30.1525 41.2181H26.4462L24.0499 34.1348L23.3151 31.0579H23.1553L22.3885 34.1348L19.8005 41.2181H15.9664L13.666 18.7822H18.0432L19.0656 31.3143Z"
          fill="white"
        />
        <path
          d="M46.8181 33.6861H50.3327V40.0963C49.6511 40.5878 48.7778 40.9724 47.7127 41.2502C46.669 41.5279 45.5934 41.6668 44.4857 41.6668C43.0799 41.6668 41.738 41.4638 40.46 41.0579C39.2033 40.6305 38.0956 39.9574 37.1371 39.0386C36.1786 38.0985 35.4118 36.8912 34.8367 35.4168C34.2616 33.9211 33.974 32.1155 33.974 30.0002C33.974 27.7993 34.2935 25.9617 34.9326 24.4873C35.5929 22.9916 36.4342 21.795 37.4566 20.8976C38.4791 19.9788 39.6186 19.3271 40.8753 18.9425C42.1321 18.5365 43.3675 18.3335 44.5816 18.3335C45.8596 18.3335 46.9353 18.4403 47.8086 18.654C48.7032 18.8677 49.4381 19.1134 50.0132 19.3912V26.0579H46.4986V22.404C45.8383 22.2972 45.1567 22.2438 44.4538 22.2438C43.6231 22.2438 42.8456 22.404 42.1214 22.7245C41.4185 23.0237 40.8008 23.4938 40.2683 24.1348C39.7358 24.7758 39.3204 25.5878 39.0222 26.5707C38.724 27.5322 38.5749 28.6754 38.5749 30.0002C38.5749 31.154 38.7134 32.2117 38.9903 33.1732C39.2672 34.1134 39.6719 34.9254 40.2044 35.6091C40.7369 36.2929 41.3865 36.8271 42.1534 37.2117C42.9202 37.5749 43.7935 37.7566 44.7733 37.7566C45.4762 37.7566 46.1578 37.6925 46.8181 37.5643V33.6861Z"
          fill="white"
        />
      </g>
    </g>
    <g id='fire' transform="translate(32, 32)">
      <g fill="#DE4F69" transform="translate(-23,-16) scale(0.5)">
        <path
          class="hoverOnly"
          d="M45.26 0V13.2267H47.74L47.74 0H45.26ZM76.26 28.52H63.0333V31H76.26V28.52ZM29.9667 28.52H16.7401L16.7401 31H29.9667V28.52ZM30.7502 24.5788L18.5304 19.5172L19.4795 17.226L31.6993 22.2876L30.7502 24.5788ZM74.4696 19.5172L62.2498 24.5788L61.3007 22.2876L73.5205 17.226L74.4696 19.5172ZM39.0245 14.9603L33.9629 2.74043L36.2541 1.79138L41.3157 14.0112L39.0245 14.9603ZM59.0342 2.74043L53.9726 14.9603L51.6814 14.0112L56.743 1.79138L59.0342 2.74043ZM33.9336 18.9463L24.581 9.59362L26.3346 7.84L35.6872 17.1927L33.9336 18.9463ZM68.419 9.59362L59.0664 18.9463L57.3127 17.1927L66.6654 7.84L68.419 9.59362Z"
        />
        <path
          d="M71.1 29.7599C71.1 43.4566 59.9966 57.0399 46.3 57.0399C32.6033 57.0399 21.5 43.4566 21.5 29.7599C21.5 16.0633 32.6033 4.95996 46.3 4.95996C59.9966 4.95996 71.1 16.0633 71.1 29.7599Z"
          fill="#DE4F69"
        />
        <path
          d="M46.4997 13.4167L41.7508 20.8042C41.1122 21.7976 39.6824 21.8589 38.9611 20.9239L36.8054 18.1294C35.4608 20.4275 30.2705 25.8873 30.2705 31.8045C30.2705 40.5192 37.5366 47.5834 46.4997 47.5834C55.4627 47.5834 62.7288 40.5192 62.7288 31.8045C62.7288 25.8873 57.5385 20.4275 56.1939 18.1294L54.0383 20.9239C53.317 21.8589 51.8872 21.7976 51.2486 20.8042L46.4997 13.4167ZM46.4997 28.7328C46.4997 28.7328 52.5586 34.7693 52.5586 39.3363C52.5586 41.3088 50.557 44.0489 46.4997 44.0489C42.4424 44.0489 40.4408 41.3088 40.4408 39.3363C40.4408 34.926 46.4997 28.7328 46.4997 28.7328Z"
          fill="white"
        />
        <circle
          cx="46.46"
          cy="57.0401"
          r="4.95999"
          class="selectedOnly"
          stroke="white"
          stroke-width="2.48"
        />
      </g>
    </g>
    <g id='staffCamp' transform="translate(64, 32)">
      <g fill="#DE4F69" transform="translate(-16,-16) scale(0.5)">
        <path
          class="hoverOnly"
          d="M30.76 0V13.2267H33.24L33.24 0H30.76ZM61.76 28.52H48.5333V31H61.76V28.52ZM15.4667 28.52H2.24006L2.24006 31H15.4667V28.52ZM16.2502 24.5788L4.03041 19.5172L4.97946 17.226L17.1993 22.2876L16.2502 24.5788ZM59.9696 19.5172L47.7498 24.5788L46.8007 22.2876L59.0205 17.226L59.9696 19.5172ZM24.5245 14.9603L19.4629 2.74043L21.7541 1.79138L26.8157 14.0112L24.5245 14.9603ZM44.5342 2.74043L39.4726 14.9603L37.1814 14.0112L42.243 1.79138L44.5342 2.74043ZM19.4336 18.9463L10.081 9.59362L11.8346 7.84L21.1872 17.1927L19.4336 18.9463ZM53.919 9.59362L44.5664 18.9463L42.8127 17.1927L52.1654 7.84L53.919 9.59362Z"
        />
        <path
          d="M56.6 29.7599C56.6 43.4566 45.4966 57.0399 31.8 57.0399C18.1033 57.0399 7 43.4566 7 29.7599C7 16.0633 18.1033 4.95996 31.8 4.95996C45.4966 4.95996 56.6 16.0633 56.6 29.7599Z"/>
        <path
          d="M36.5661 13.9066C36.136 13.7021 35.6367 13.7021 35.2067 13.9066L31.6082 15.617C31.0562 15.8793 30.7045 16.4359 30.7045 17.047V25.3402L18.6046 31.6127C18.0796 31.8849 17.75 32.427 17.75 33.0184V45.2502C17.75 46.1246 18.4589 46.8335 19.3333 46.8335H26.7645C27.5419 46.8335 28.2044 46.269 28.3277 45.5014L29.4829 38.3137C29.6063 37.5461 30.2687 36.9816 31.0462 36.9816H32.9538C33.7313 36.9816 34.3937 37.5461 34.5171 38.3137L35.6723 45.5014C35.7956 46.269 36.4581 46.8335 37.2355 46.8335H44.6667C45.5411 46.8335 46.25 46.1246 46.25 45.2502V33.0184C46.25 32.427 45.9204 31.8849 45.3954 31.6127L33.2955 25.3402V23.2044C33.2955 22.5933 33.6471 22.0367 34.1991 21.7744L35.2067 21.2955C35.6367 21.091 36.136 21.091 36.5661 21.2955L40.3885 23.1123C40.8186 23.3167 41.3178 23.3167 41.7479 23.1123L45.3464 21.4019C45.8983 21.1395 46.25 20.583 46.25 19.9719V16.0892C46.25 14.9259 45.0376 14.1598 43.987 14.6591L41.7479 15.7234C41.3178 15.9278 40.8186 15.9278 40.3885 15.7234L36.5661 13.9066Z"
          fill="white"
        />
        <circle
          cx="31.96"
          cy="57.0401"
          r="4.95999"
          class="selectedOnly"
          stroke="white"
          stroke-width="2.48"
        />
      </g>
    </g>
    <g id='lectures' transform="translate(96, 32)">
      <g fill="#A692F3" transform="translate(-16,-16) scale(0.5)">
        <path
          class="hoverOnly"
          d="M30.76 0V13.2267H33.24L33.24 0H30.76ZM61.76 28.52H48.5333V31H61.76V28.52ZM15.4667 28.52H2.24006L2.24006 31H15.4667V28.52ZM16.2502 24.5788L4.03041 19.5172L4.97946 17.226L17.1993 22.2876L16.2502 24.5788ZM59.9696 19.5172L47.7498 24.5788L46.8007 22.2876L59.0205 17.226L59.9696 19.5172ZM24.5245 14.9603L19.4629 2.74043L21.7541 1.79138L26.8157 14.0112L24.5245 14.9603ZM44.5342 2.74043L39.4726 14.9603L37.1814 14.0112L42.243 1.79138L44.5342 2.74043ZM19.4336 18.9463L10.081 9.59362L11.8346 7.84L21.1872 17.1927L19.4336 18.9463ZM53.919 9.59362L44.5664 18.9463L42.8127 17.1927L52.1654 7.84L53.919 9.59362Z"
        />
        <path
          d="M56.6 29.7599C56.6 43.4566 45.4966 57.0399 31.8 57.0399C18.1033 57.0399 7 43.4566 7 29.7599C7 16.0633 18.1033 4.95996 31.8 4.95996C45.4966 4.95996 56.6 16.0633 56.6 29.7599Z"/>
        <path
          d="M32.7781 15.7537C32.2846 15.5145 31.7088 15.5145 31.2154 15.7537L17.4678 22.416C16.1101 23.0739 16.1238 25.0127 17.4906 25.6515L18.8579 26.2904V30.5077C17.4245 31.0038 16.469 32.4923 16.469 33.9808C16.469 35.4692 17.4245 36.9577 18.8579 37.4538V37.7019L16.7079 42.9115C15.9912 45.1442 16.469 47.625 20.0523 47.625C23.6356 47.625 24.1134 45.1442 23.3967 42.9115L21.2467 37.7019C22.6801 36.9577 23.6356 35.7173 23.6356 33.9808C23.6356 32.2442 22.6801 31.0038 21.2467 30.5077V27.5308L31.2154 32.3617C31.7088 32.6009 32.2846 32.6009 32.7781 32.3617L46.5864 25.67C47.9335 25.0172 47.9335 23.0982 46.5864 22.4454L32.7781 15.7537ZM42.5079 34.3002C42.5079 32.9927 41.1526 32.1255 39.9654 32.6735L32.5204 36.1096C32.0372 36.3326 31.48 36.3293 30.9996 36.1006L26.0245 33.7327V33.9808C26.0245 35.7173 25.3079 37.2058 24.1134 38.4462L25.5467 41.9192C25.9226 42.9115 26.0245 44.1519 25.7856 45.1442C27.4579 45.8885 29.369 46.3846 31.7579 46.3846C39.6412 46.3846 42.5079 41.4231 42.5079 38.9423V34.3002Z"
          fill="white"
        />
        <circle
          cx="31.96"
          cy="57.0401"
          r="4.95999"
          class="selectedOnly"
          stroke="white"
          stroke-width="2.48"
        />
      </g>
    </g>

    <g id='bathhouse' transform="translate(0, 64)">
      <g fill="#78CCFF" transform="translate(-16,-16) scale(0.5)">
        <path
          class="hoverOnly"
          d="M30.7602 0V13.2267H33.2402L33.2402 0H30.7602ZM61.7602 28.52H48.5335V31H61.7602V28.52ZM15.4669 28.52H2.24023L2.24023 31H15.4669V28.52ZM16.2504 24.5788L4.03059 19.5172L4.97964 17.226L17.1995 22.2876L16.2504 24.5788ZM59.9698 19.5172L47.7499 24.5788L46.8009 22.2876L59.0207 17.226L59.9698 19.5172ZM24.5247 14.9603L19.463 2.74043L21.7543 1.79138L26.8159 14.0112L24.5247 14.9603ZM44.5344 2.74043L39.4728 14.9603L37.1816 14.0112L42.2432 1.79138L44.5344 2.74043ZM19.4338 18.9463L10.0811 9.59362L11.8348 7.84L21.1874 17.1927L19.4338 18.9463ZM53.9192 9.59362L44.5665 18.9463L42.8129 17.1927L52.1656 7.84L53.9192 9.59362Z"
        />
        <path
          d="M56.6 29.7599C56.6 43.4566 45.4966 57.0399 31.8 57.0399C18.1033 57.0399 7 43.4566 7 29.7599C7 16.0633 18.1033 4.95996 31.8 4.95996C45.4966 4.95996 56.6 16.0633 56.6 29.7599Z"/>
        <path
          fill-rule="evenodd"
          clip-rule="evenodd"
          d="M30.9407 45.9281V36.5895H25.6315L28.1783 45.9281H26.3389L23.792 36.5895H20.1182L21.926 43.218C22.3625 44.8185 23.8163 45.9289 25.4753 45.9289H38.2498C39.9088 45.9289 41.3625 44.8185 41.799 43.218L43.6068 36.5895H39.9221L37.3752 45.9281H35.5357L38.0826 36.5895H32.7802V45.9281H30.9407ZM44.0313 35.033L45.9444 28.0185C46.2635 26.8484 45.3826 25.6951 44.1697 25.6951H42.8933L40.3466 35.033H44.0313ZM41.0538 25.6951H32.7802V35.033H38.5071L41.0538 25.6951ZM30.9407 25.6951H22.6603L25.207 35.033H30.9407V25.6951ZM20.8208 25.6951H19.5553C18.3424 25.6951 17.4616 26.8484 17.7807 28.0185L19.6938 35.033H23.3675L20.8208 25.6951Z"
          fill="white"
        />
        <path
          fill-rule="evenodd"
          clip-rule="evenodd"
          d="M31.8616 23.857H29.6633C28.7989 23.857 28.0511 23.2551 27.8663 22.4107L26.5415 16.3544C26.4169 15.7844 26.57 15.1891 26.9542 14.75L30.4773 10.7236C31.2101 9.88607 32.5131 9.88607 33.2459 10.7236L36.769 14.75C37.1532 15.1891 37.3064 15.7844 37.1817 16.3544L35.8569 22.4107C35.6721 23.2551 34.9243 23.857 34.0599 23.857H31.8616ZM31.8631 16.4992C32.8789 16.4992 33.7025 15.6757 33.7025 14.6598C33.7025 13.6439 32.8789 12.8204 31.8631 12.8204C30.8472 12.8204 30.0236 13.6439 30.0236 14.6598C30.0236 15.6757 30.8472 16.4992 31.8631 16.4992Z"
          fill="white"
        />
        <circle
          cx="31.96"
          cy="57.0401"
          r="4.95999"
          class="selectedOnly"
          stroke="white"
          stroke-width="2.48"
        />
      </g>
    </g>
    <g id='meeting' transform="translate(32, 64)">
      <g fill="#DE4F69" transform="translate(-24,-16) scale(0.5)">
        <path
          class="hoverOnly"
          d="M45.76 0V13.2267H48.24L48.24 0H45.76ZM76.76 28.52H63.5333V31H76.76V28.52ZM30.4667 28.52H17.2401L17.2401 31H30.4667V28.52ZM31.2502 24.5788L19.0304 19.5172L19.9795 17.226L32.1993 22.2876L31.2502 24.5788ZM74.9696 19.5172L62.7498 24.5788L61.8007 22.2876L74.0205 17.226L74.9696 19.5172ZM39.5245 14.9603L34.4629 2.74043L36.7541 1.79138L41.8157 14.0112L39.5245 14.9603ZM59.5342 2.74043L54.4726 14.9603L52.1814 14.0112L57.243 1.79138L59.5342 2.74043ZM34.4336 18.9463L25.081 9.59362L26.8346 7.84L36.1872 17.1927L34.4336 18.9463ZM68.919 9.59362L59.5664 18.9463L57.8127 17.1927L67.1654 7.84L68.919 9.59362Z"
        />
        <path
          d="M71.6 29.7599C71.6 43.4566 60.4966 57.0399 46.8 57.0399C33.1033 57.0399 22 43.4566 22 29.7599C22 16.0633 33.1033 4.95996 46.8 4.95996C60.4966 4.95996 71.6 16.0633 71.6 29.7599Z"/>
        <path
          d="M62.1051 30.455C59.348 35.7212 51.9722 42.8833 47.8012 46.6984C47.3528 47.1005 46.6708 47.1005 46.2224 46.6984C42.0278 42.8833 34.652 35.7212 31.8949 30.455C25.8387 18.8692 41.1088 11.1454 47 22.7312C52.8912 11.1454 68.1613 18.8692 62.1051 30.455Z"
          fill="white"
        />
        <circle
          cx="46.96"
          cy="57.0401"
          r="4.95999"
          class="selectedOnly"
          stroke="white"
          stroke-width="2.48"
        />
      </g>
    </g>
    <g id='tentRent' transform="translate(64, 64)">
      <g fill="#FFD28B" transform="translate(-26,-16) scale(0.5)">
        <path
          class="hoverOnly"
          d="M49.26 0V13.2267H51.74L51.74 0H49.26ZM80.26 28.52H67.0333V31H80.26V28.52ZM33.9667 28.52H20.7401L20.7401 31H33.9667V28.52ZM34.7502 24.5788L22.5304 19.5172L23.4795 17.226L35.6993 22.2876L34.7502 24.5788ZM78.4696 19.5172L66.2498 24.5788L65.3007 22.2876L77.5205 17.226L78.4696 19.5172ZM43.0245 14.9603L37.9629 2.74043L40.2541 1.79138L45.3157 14.0112L43.0245 14.9603ZM63.0342 2.74043L57.9726 14.9603L55.6814 14.0112L60.743 1.79138L63.0342 2.74043ZM37.9336 18.9463L28.581 9.59362L30.3346 7.84L39.6872 17.1927L37.9336 18.9463ZM72.419 9.59362L63.0664 18.9463L61.3127 17.1927L70.6654 7.84L72.419 9.59362Z"
        />
        <path
          d="M75.1 29.7599C75.1 43.4566 63.9966 57.0399 50.3 57.0399C36.6033 57.0399 25.5 43.4566 25.5 29.7599C25.5 16.0633 36.6033 4.95996 50.3 4.95996C63.9966 4.95996 75.1 16.0633 75.1 29.7599Z"/>
        <path
          d="M51.155 14.4893C50.7132 14.7733 50.5938 15.3489 50.8883 15.775L53.8452 20.0519L43.6602 34.7841C42.8083 36.0163 43.7243 37.6668 45.2601 37.6668H49.5994C50.3277 37.6668 50.9935 37.27 51.3192 36.6419L53.2808 32.8587C53.9894 31.492 56.0119 31.492 56.7205 32.8587L58.6821 36.6419C59.0078 37.27 59.6736 37.6668 60.4019 37.6668H64.7413C66.277 37.6668 67.193 36.0163 66.3411 34.7841L56.1561 20.0519L59.113 15.775C59.4075 15.3489 59.2881 14.7733 58.8463 14.4893C58.4045 14.2053 57.8076 14.3204 57.5131 14.7464L55.0007 18.3806L52.4882 14.7464C52.1937 14.3204 51.5968 14.2053 51.155 14.4893Z"
          fill="white"
        />
        <path
          d="M39.166 36.7554H38.0358V37.8856V39.9157V40.0795V41.0459V41.2097V43.2398V44.37H39.166H39.7983V46.0062V47.1364H40.9285H43.7394H44.8696V46.0062V44.37H47.309H48.4391V43.2398V41.2097V40.4979C48.9307 40.2993 49.3896 40.0438 49.8123 39.7298L49.8205 39.7237L49.8287 39.7174C50.4924 39.2054 51.0149 38.5559 51.3985 37.7886C51.8092 36.9673 51.9863 36.0174 51.9863 34.9853C51.9863 33.8929 51.8065 32.8965 51.3715 32.0611C50.9793 31.2802 50.4307 30.6365 49.7206 30.1631C49.0432 29.7115 48.2723 29.4148 47.428 29.2565C46.6411 29.1089 45.8276 29.0363 44.9888 29.0363C44.2122 29.0363 43.468 29.0749 42.757 29.1534C42.0568 29.216 41.3766 29.3099 40.717 29.4355L39.7983 29.6105V30.5458V36.7554H39.166ZM46.5939 35.9199L46.5892 35.93L46.5848 35.9402C46.5038 36.1265 46.4066 36.2434 46.3028 36.3242C46.1685 36.4286 45.9899 36.5226 45.7475 36.5922C45.4921 36.6546 45.2107 36.6884 44.8995 36.6884H44.8696V33.7598C44.9867 33.7538 45.1082 33.7507 45.2342 33.7507C45.8156 33.7507 46.1832 33.8931 46.431 34.0883L46.4395 34.095L46.448 34.1015C46.5419 34.1726 46.7365 34.3912 46.7365 35.1192C46.7365 35.4869 46.675 35.7428 46.5939 35.9199Z"
          stroke="white"
          stroke-width="2.26039"
        />
        <circle
          cx="50.46"
          cy="57.0401"
          r="4.95999"
          class="selectedOnly"
          stroke="white"
          stroke-width="2.48"
        />
      </g>
    </g>
    <g id='music' transform="translate(96, 64)">
      <g fill="#78CCFF" transform="translate(-16,-16) scale(0.5)">
        <path
          class="hoverOnly"
          d="M30.76 0V13.2267H33.24L33.24 0H30.76ZM61.76 28.52H48.5333V31H61.76V28.52ZM15.4667 28.52H2.24006L2.24006 31H15.4667V28.52ZM16.2502 24.5788L4.03041 19.5172L4.97946 17.226L17.1993 22.2876L16.2502 24.5788ZM59.9696 19.5172L47.7498 24.5788L46.8007 22.2876L59.0205 17.226L59.9696 19.5172ZM24.5245 14.9603L19.4629 2.74043L21.7541 1.79138L26.8157 14.0112L24.5245 14.9603ZM44.5342 2.74043L39.4726 14.9603L37.1814 14.0112L42.243 1.79138L44.5342 2.74043ZM19.4336 18.9463L10.081 9.59362L11.8346 7.84L21.1872 17.1927L19.4336 18.9463ZM53.919 9.59362L44.5664 18.9463L42.8127 17.1927L52.1654 7.84L53.919 9.59362Z"
          fill="#A692F3"
        />
        <path
          d="M56.6 29.7599C56.6 43.4566 45.4966 57.0399 31.8 57.0399C18.1033 57.0399 7 43.4566 7 29.7599C7 16.0633 18.1033 4.95996 31.8 4.95996C45.4966 4.95996 56.6 16.0633 56.6 29.7599Z"
          fill="#A692F3"
        />
        <path
          fill-rule="evenodd"
          clip-rule="evenodd"
          d="M36.6259 19.6374C38.5225 22.3769 41.8626 24.7555 44.9467 22.6017C45.8521 21.9693 45.5556 20.6335 44.6577 19.9906C43.4156 19.1012 41.922 17.7985 40.8097 16.1919C38.6365 13.0527 36.4632 12.5197 32.1977 12.5008L32.196 12.5002H31.9499H30.2271V34.9255C28.3555 34.4822 26.0956 34.8148 24.0367 36.0036C20.3876 38.1103 18.7517 42.1084 20.3828 44.9335C22.0138 47.7586 26.2942 48.3409 29.9433 46.2341C32.5037 44.7558 34.1648 42.2502 34.1648 38.7413V17.5313C34.951 17.843 35.8206 18.4742 36.6259 19.6374Z"
          fill="white"
        />
        <circle
          cx="31.96"
          cy="57.0401"
          r="4.95999"
          class="selectedOnly"
          fill="#A692F3"
          stroke="white"
          stroke-width="2.48"
        />
      </g>
    </g>

    <g id='playground' transform="translate(0, 96)">
      <g fill="#78CCFF" transform="translate(-30,-16) scale(0.5)">
        <path
          class="hoverOnly"
          d="M57.76 0V13.2267H60.24L60.24 0H57.76ZM88.76 28.52H75.5333V31H88.76V28.52ZM42.4667 28.52H29.2401L29.2401 31H42.4667V28.52ZM43.2502 24.5788L31.0304 19.5172L31.9795 17.226L44.1993 22.2876L43.2502 24.5788ZM86.9696 19.5172L74.7498 24.5788L73.8007 22.2876L86.0205 17.226L86.9696 19.5172ZM51.5245 14.9603L46.4629 2.74043L48.7541 1.79138L53.8157 14.0112L51.5245 14.9603ZM71.5342 2.74043L66.4726 14.9603L64.1814 14.0112L69.243 1.79138L71.5342 2.74043ZM46.4336 18.9463L37.081 9.59362L38.8346 7.84L48.1872 17.1927L46.4336 18.9463ZM80.919 9.59362L71.5664 18.9463L69.8127 17.1927L79.1654 7.84L80.919 9.59362Z"
          fill="#A692F3"
        />
        <path
          d="M83.6 29.7599C83.6 43.4566 72.4966 57.0399 58.8 57.0399C45.1033 57.0399 34 43.4566 34 29.7599C34 16.0633 45.1033 4.95996 58.8 4.95996C72.4966 4.95996 83.6 16.0633 83.6 29.7599Z"
          fill="#A692F3"
        />
        <path
          fill-rule="evenodd"
          clip-rule="evenodd"
          d="M59.3831 29.0649C58.7356 29.0649 58.1534 29.459 57.913 30.0602L52.4684 43.6716C51.7471 45.4749 50.0004 46.6575 48.0581 46.6575H43.165V45.0741C43.165 44.1997 43.8739 43.4908 44.7484 43.4908H48.0581C48.7056 43.4908 49.2878 43.0966 49.5282 42.4955L54.9728 28.8841C55.6941 27.0807 57.4408 25.8982 59.3831 25.8982H60.7576V29.0649H59.3831Z"
          fill="white"
        />
        <mask id="path-4-inside-1_1547_9810" fill="white">
          <path
            fill-rule="evenodd"
            clip-rule="evenodd"
            d="M67.9678 39.7959H65.8567C64.9823 39.7959 64.2734 40.5048 64.2734 41.3792V43.3144L64.2734 46.8326L60.7555 46.8329C60.7555 46.8329 60.7549 45.2576 60.7549 43.3144V18.6848C60.7549 16.7416 64.9691 15.1663 66.9123 15.1663C68.8555 15.1663 73.0697 16.7416 73.0697 18.6848V43.3144V46.8329H69.5512V43.3144V41.3792C69.5512 40.5048 68.8423 39.7959 67.9678 39.7959ZM69.55 35.4857C69.55 35.923 69.1955 36.2774 68.7583 36.2774H65.0638C64.6266 36.2774 64.2722 35.923 64.2722 35.4857V33.5506C64.2722 33.1133 64.6266 32.7589 65.0638 32.7589H68.7583C69.1955 32.7589 69.55 33.1133 69.55 33.5506V35.4857ZM69.55 28.4487C69.55 28.8859 69.1955 29.2404 68.7583 29.2404H65.0638C64.6266 29.2404 64.2722 28.8859 64.2722 28.4487V26.5135C64.2722 26.0763 64.6266 25.7219 65.0638 25.7219H68.7583C69.1955 25.7219 69.55 26.0763 69.55 26.5135V28.4487ZM68.7583 22.2035H65.0638C64.6266 22.2035 64.2722 21.8491 64.2722 21.4118V19.4767C64.2722 19.0394 64.6266 18.685 65.0638 18.685H68.7583C69.1955 18.685 69.55 19.0394 69.55 19.4767V21.4118C69.55 21.8491 69.1955 22.2035 68.7583 22.2035Z"
          />
        </mask>
        <path
          fill-rule="evenodd"
          clip-rule="evenodd"
          d="M67.9678 39.7959H65.8567C64.9823 39.7959 64.2734 40.5048 64.2734 41.3792V43.3144L64.2734 46.8326L60.7555 46.8329C60.7555 46.8329 60.7549 45.2576 60.7549 43.3144V18.6848C60.7549 16.7416 64.9691 15.1663 66.9123 15.1663C68.8555 15.1663 73.0697 16.7416 73.0697 18.6848V43.3144V46.8329H69.5512V43.3144V41.3792C69.5512 40.5048 68.8423 39.7959 67.9678 39.7959ZM69.55 35.4857C69.55 35.923 69.1955 36.2774 68.7583 36.2774H65.0638C64.6266 36.2774 64.2722 35.923 64.2722 35.4857V33.5506C64.2722 33.1133 64.6266 32.7589 65.0638 32.7589H68.7583C69.1955 32.7589 69.55 33.1133 69.55 33.5506V35.4857ZM69.55 28.4487C69.55 28.8859 69.1955 29.2404 68.7583 29.2404H65.0638C64.6266 29.2404 64.2722 28.8859 64.2722 28.4487V26.5135C64.2722 26.0763 64.6266 25.7219 65.0638 25.7219H68.7583C69.1955 25.7219 69.55 26.0763 69.55 26.5135V28.4487ZM68.7583 22.2035H65.0638C64.6266 22.2035 64.2722 21.8491 64.2722 21.4118V19.4767C64.2722 19.0394 64.6266 18.685 65.0638 18.685H68.7583C69.1955 18.685 69.55 19.0394 69.55 19.4767V21.4118C69.55 21.8491 69.1955 22.2035 68.7583 22.2035Z"
          fill="black"
        />
        <path
          d="M69.5512 22.2033V23.7866H71.1345V22.2033H69.5512ZM64.2734 22.2033H62.6901V23.7866H64.2734V22.2033ZM64.2734 18.6848L63.0067 17.7348L62.6901 18.157V18.6848H64.2734ZM69.5512 18.6848H71.1345V18.157L70.8178 17.7348L69.5512 18.6848ZM66.9123 15.1663L68.179 14.2163L66.9123 12.5274L65.6456 14.2163L66.9123 15.1663ZM69.5512 20.62H68.7767V23.7866H69.5512V20.62ZM65.0454 20.62H64.2734V23.7866H65.0454V20.62ZM65.8567 22.2033V21.4561H62.6901V22.2033H65.8567ZM65.8567 19.4324V18.6848H62.6901V19.4324H65.8567ZM67.9678 18.6848V22.2033H71.1345V18.6848H67.9678ZM65.5401 19.6348L68.179 16.1163L65.6456 14.2163L63.0067 17.7348L65.5401 19.6348ZM70.8178 17.7348L68.179 14.2163L65.6456 16.1163L68.2845 19.6348L70.8178 17.7348ZM64.2734 43.3144H61.1067H64.2734ZM64.2734 46.8326L64.2737 49.9993L67.4401 49.999L67.4401 46.8326H64.2734ZM60.7555 46.8329L57.5888 46.8342L57.5901 49.9999L60.7558 49.9996L60.7555 46.8329ZM73.0697 46.8329V49.9996H76.2364V46.8329H73.0697ZM69.5512 46.8329H66.3845V49.9996H69.5512V46.8329ZM65.8567 42.9626H67.9678V36.6292H65.8567V42.9626ZM67.4401 41.3792C67.4401 42.2537 66.7312 42.9626 65.8567 42.9626V36.6292C63.2334 36.6292 61.1067 38.7559 61.1067 41.3792H67.4401ZM67.4401 43.3144V41.3792H61.1067V43.3144H67.4401ZM67.4401 46.8326L67.4401 43.3144H61.1067L61.1067 46.8326H67.4401ZM60.7558 49.9996L64.2737 49.9993L64.2731 43.666L60.7552 43.6663L60.7558 49.9996ZM57.5882 43.3144C57.5882 44.2863 57.5884 45.1662 57.5885 45.8031C57.5886 46.1216 57.5887 46.3793 57.5887 46.5574C57.5888 46.6465 57.5888 46.7157 57.5888 46.7626C57.5888 46.786 57.5888 46.8039 57.5888 46.8159C57.5888 46.822 57.5888 46.8265 57.5888 46.8296C57.5888 46.8311 57.5888 46.8322 57.5888 46.833C57.5888 46.8334 57.5888 46.8337 57.5888 46.8339C57.5888 46.834 57.5888 46.834 57.5888 46.8341C57.5888 46.8341 57.5888 46.8341 57.5888 46.8341C57.5888 46.8341 57.5888 46.8342 60.7555 46.8329C63.9222 46.8317 63.9222 46.8317 63.9222 46.8317C63.9222 46.8317 63.9222 46.8317 63.9222 46.8316C63.9222 46.8316 63.9222 46.8315 63.9222 46.8314C63.9222 46.8312 63.9222 46.8309 63.9222 46.8306C63.9222 46.8298 63.9222 46.8287 63.9222 46.8271C63.9222 46.8241 63.9222 46.8196 63.9222 46.8136C63.9221 46.8016 63.9221 46.7837 63.9221 46.7603C63.9221 46.7135 63.9221 46.6444 63.9221 46.5554C63.922 46.3774 63.9219 46.1199 63.9219 45.8016C63.9217 45.1651 63.9215 44.2857 63.9215 43.3144H57.5882ZM57.5882 18.6848V43.3144H63.9215V18.6848H57.5882ZM66.9123 11.9996C65.3272 11.9996 63.3063 12.5699 61.7089 13.3544C60.8829 13.7601 59.97 14.3186 59.2165 15.0642C58.4898 15.7832 57.5882 17.0085 57.5882 18.6848H63.9215C63.9215 19.3895 63.5467 19.6892 63.671 19.5662C63.7683 19.47 64.0304 19.2702 64.5009 19.0392C64.9478 18.8196 65.4604 18.632 65.9456 18.5027C66.4567 18.3665 66.7952 18.3329 66.9123 18.3329V11.9996ZM76.2364 18.6848C76.2364 17.0085 75.3348 15.7832 74.6081 15.0642C73.8545 14.3186 72.9417 13.7601 72.1157 13.3544C70.5183 12.5699 68.4974 11.9996 66.9123 11.9996V18.3329C67.0294 18.3329 67.3679 18.3665 67.879 18.5027C68.3642 18.632 68.8767 18.8196 69.3237 19.0392C69.7942 19.2702 70.0563 19.47 70.1536 19.5662C70.2779 19.6892 69.903 19.3895 69.903 18.6848H76.2364ZM76.2364 43.3144V18.6848H69.903V43.3144H76.2364ZM76.2364 46.8329V43.3144H69.903V46.8329H76.2364ZM69.5512 49.9996H73.0697V43.6663H69.5512V49.9996ZM66.3845 43.3144V46.8329H72.7178V43.3144H66.3845ZM66.3845 41.3792V43.3144H72.7178V41.3792H66.3845ZM67.9678 42.9626C67.0934 42.9626 66.3845 42.2537 66.3845 41.3792H72.7178C72.7178 38.7559 70.5912 36.6292 67.9678 36.6292V42.9626ZM68.7583 39.4441C70.9444 39.4441 72.7166 37.6719 72.7166 35.4857H66.3833C66.3833 34.1741 67.4466 33.1107 68.7583 33.1107V39.4441ZM65.0638 39.4441H68.7583V33.1107H65.0638V39.4441ZM61.1055 35.4857C61.1055 37.6719 62.8777 39.4441 65.0638 39.4441V33.1107C66.3755 33.1107 67.4388 34.1741 67.4388 35.4857H61.1055ZM61.1055 33.5506V35.4857H67.4388V33.5506H61.1055ZM65.0638 29.5922C62.8777 29.5922 61.1055 31.3644 61.1055 33.5506H67.4388C67.4388 34.8622 66.3755 35.9256 65.0638 35.9256V29.5922ZM68.7583 29.5922H65.0638V35.9256H68.7583V29.5922ZM72.7166 33.5506C72.7166 31.3644 70.9444 29.5922 68.7583 29.5922V35.9256C67.4466 35.9256 66.3833 34.8622 66.3833 33.5506H72.7166ZM72.7166 35.4857V33.5506H66.3833V35.4857H72.7166ZM68.7583 32.407C70.9444 32.407 72.7166 30.6348 72.7166 28.4487H66.3833C66.3833 27.137 67.4466 26.0737 68.7583 26.0737V32.407ZM65.0638 32.407H68.7583V26.0737H65.0638V32.407ZM61.1055 28.4487C61.1055 30.6348 62.8777 32.407 65.0638 32.407V26.0737C66.3755 26.0737 67.4388 27.137 67.4388 28.4487H61.1055ZM61.1055 26.5135V28.4487H67.4388V26.5135H61.1055ZM65.0638 22.5552C62.8777 22.5552 61.1055 24.3274 61.1055 26.5135H67.4388C67.4388 27.8252 66.3755 28.8885 65.0638 28.8885V22.5552ZM68.7583 22.5552H65.0638V28.8885H68.7583V22.5552ZM72.7166 26.5135C72.7166 24.3274 70.9444 22.5552 68.7583 22.5552V28.8885C67.4466 28.8885 66.3833 27.8252 66.3833 26.5135H72.7166ZM72.7166 28.4487V26.5135H66.3833V28.4487H72.7166ZM65.0638 25.3702H68.7583V19.0368H65.0638V25.3702ZM61.1055 21.4118C61.1055 23.598 62.8777 25.3702 65.0638 25.3702V19.0368C66.3755 19.0368 67.4388 20.1002 67.4388 21.4118H61.1055ZM61.1055 19.4767V21.4118H67.4388V19.4767H61.1055ZM65.0638 15.5183C62.8777 15.5183 61.1055 17.2905 61.1055 19.4767H67.4388C67.4388 20.7883 66.3755 21.8517 65.0638 21.8517V15.5183ZM68.7583 15.5183H65.0638V21.8517H68.7583V15.5183ZM72.7166 19.4767C72.7166 17.2905 70.9444 15.5183 68.7583 15.5183V21.8517C67.4466 21.8517 66.3833 20.7883 66.3833 19.4767H72.7166ZM72.7166 21.4118V19.4767H66.3833V21.4118H72.7166ZM68.7583 25.3702C70.9444 25.3702 72.7166 23.598 72.7166 21.4118H66.3833C66.3833 20.1002 67.4466 19.0368 68.7583 19.0368V25.3702Z"
          fill="white"
          mask="url(#path-4-inside-1_1547_9810)"
        />
        <path d="M58.9971 18.6851H74.8304" stroke="white" stroke-width="1.58333"/>
        <circle
          cx="58.96"
          cy="57.0401"
          r="4.95999"
          class="selectedOnly"
          fill="#A692F3"
          stroke="white"
          stroke-width="2.48"
        />
      </g>
    </g>
    <g id='lab' transform="translate(32, 96)">
      <g fill="#78CCFF" transform="translate(-21,-16) scale(0.5)">
        <path
          class="hoverOnly"
          d="M41.2602 0V13.2267H43.7402L43.7402 0H41.2602ZM72.2602 28.52H59.0335V31H72.2602V28.52ZM25.9669 28.52H12.7402L12.7402 31H25.9669V28.52ZM26.7504 24.5788L14.5306 19.5172L15.4796 17.226L27.6995 22.2876L26.7504 24.5788ZM70.4698 19.5172L58.2499 24.5788L57.3009 22.2876L69.5207 17.226L70.4698 19.5172ZM35.0247 14.9603L29.963 2.74043L32.2543 1.79138L37.3159 14.0112L35.0247 14.9603ZM55.0344 2.74043L49.9728 14.9603L47.6816 14.0112L52.7432 1.79138L55.0344 2.74043ZM29.9338 18.9463L20.5811 9.59362L22.3348 7.84L31.6874 17.1927L29.9338 18.9463ZM64.4192 9.59362L55.0665 18.9463L53.3129 17.1927L62.6656 7.84L64.4192 9.59362Z"
          fill="#A692F3"
        />
        <path
          d="M67.1 29.7599C67.1 43.4566 55.9966 57.0399 42.3 57.0399C28.6033 57.0399 17.5 43.4566 17.5 29.7599C17.5 16.0633 28.6033 4.95996 42.3 4.95996C55.9966 4.95996 67.1 16.0633 67.1 29.7599Z"
          fill="#A692F3"
        />
        <path
          fill-rule="evenodd"
          clip-rule="evenodd"
          d="M39.0023 17.842V26.4153L28.1287 42.1596C26.5215 44.4866 28.1817 47.6666 31.0038 47.6666H53.9962C56.8183 47.6666 58.4785 44.4866 56.8713 42.1596L45.9977 26.4153V17.842H47.7466C48.7124 17.842 49.4954 17.0566 49.4954 16.0876C49.4954 15.1187 48.7124 14.3333 47.7466 14.3333H45.9977H39.0023H37.2534C36.2875 14.3333 35.5046 15.1187 35.5046 16.0876C35.5046 17.0566 36.2875 17.842 37.2534 17.842H39.0023ZM51.4424 45.1667C54.1667 45.1667 54.9286 42.8449 53.6786 41.1458L50.2297 36.458C49.7725 35.8366 48.9499 35.6211 48.2164 35.8602C44.289 37.1404 41.2661 36.2947 39.025 35.6678C37.7582 35.3134 36.7412 35.0289 35.9518 35.2376C35.6764 35.3103 35.4645 35.5168 35.2957 35.7462L31.3232 41.1458C30.0732 42.8449 30.8336 45.1667 33.5594 45.1667H51.4424Z"
          fill="white"
        />
        <circle
          cx="42.46"
          cy="57.0401"
          r="4.95999"
          class="selectedOnly"
          fill="#A692F3"
          stroke="white"
          stroke-width="2.48"
        />
      </g>
    </g>
    <g id='info' transform="translate(64, 96)">
      <g fill="#78CCFF" transform="translate(-18,-16) scale(0.5)">
        <path
          class="hoverOnly"
          d="M35.7602 0V13.2267H38.2402L38.2402 0H35.7602ZM66.7602 28.52H53.5335V31H66.7602V28.52ZM20.4669 28.52H7.24023L7.24023 31H20.4669V28.52ZM21.2504 24.5788L9.03059 19.5172L9.97964 17.226L22.1995 22.2876L21.2504 24.5788ZM64.9698 19.5172L52.7499 24.5788L51.8009 22.2876L64.0207 17.226L64.9698 19.5172ZM29.5247 14.9603L24.463 2.74043L26.7543 1.79138L31.8159 14.0112L29.5247 14.9603ZM49.5344 2.74043L44.4728 14.9603L42.1816 14.0112L47.2432 1.79138L49.5344 2.74043ZM24.4338 18.9463L15.0811 9.59362L16.8348 7.84L26.1874 17.1927L24.4338 18.9463ZM58.9192 9.59362L49.5665 18.9463L47.8129 17.1927L57.1656 7.84L58.9192 9.59362Z"
          fill="#A692F3"
        />
        <path
          d="M61.6 29.7599C61.6 43.4566 50.4966 57.0399 36.8 57.0399C23.1033 57.0399 12 43.4566 12 29.7599C12 16.0633 23.1033 4.95996 36.8 4.95996C50.4966 4.95996 61.6 16.0633 61.6 29.7599Z"
          fill="#A692F3"
        />
        <path
          d="M30.4026 42.5278C30.4026 42.0989 30.4183 41.6546 30.4498 41.195C30.5126 40.7354 30.5911 40.2146 30.6854 39.6324C30.8111 39.0196 30.9367 38.2843 31.0624 37.4264L32.8061 28.2346C32.8689 27.8669 32.8218 27.5911 32.6647 27.4073C32.539 27.1928 32.3191 27.0243 32.0049 26.9017C31.6907 26.7792 31.2823 26.6719 30.7796 26.58L30.167 26.4881L30.7325 23.5467H42.8911L40.1578 38.6213C40.0321 39.2341 39.9222 39.8009 39.8279 40.3218C39.7651 40.812 39.7022 41.241 39.6394 41.6086C39.608 41.9763 39.5923 42.298 39.5923 42.5738C39.5923 42.9721 39.7022 43.2785 39.9222 43.493C40.1735 43.6768 40.5348 43.7687 41.0061 43.7687C41.3517 43.7687 41.6816 43.7228 41.9957 43.6308C42.3099 43.5389 42.577 43.447 42.7969 43.3551C43.0482 43.2632 43.221 43.2019 43.3153 43.1713L42.7498 46.2505C42.4042 46.4344 41.9329 46.6335 41.336 46.848C40.7704 47.0625 40.1107 47.231 39.3566 47.3535C38.634 47.5067 37.8329 47.5833 36.9532 47.5833C35.6965 47.5833 34.5655 47.3995 33.5601 47.0318C32.5861 46.6335 31.8164 46.0667 31.2509 45.3313C30.6854 44.5653 30.4026 43.6308 30.4026 42.5278ZM33.513 16.4231C33.513 15.2281 33.9842 14.2936 34.9268 13.6196C35.8693 12.9149 37.1417 12.5625 38.744 12.5625C40.3463 12.5625 41.5873 12.8995 42.467 13.5736C43.3781 14.217 43.8337 15.1209 43.8337 16.2852C43.8337 17.4801 43.3624 18.4299 42.4199 19.1347C41.5088 19.8087 40.2363 20.1458 38.6026 20.1458C37.0317 20.1458 35.7907 19.824 34.8796 19.1806C33.9685 18.5065 33.513 17.5874 33.513 16.4231Z"
          fill="white"
        />
        <circle
          cx="36.96"
          cy="57.0401"
          r="4.95999"
          fill="#A692F3"
          class="selectedOnly"
          stroke="white"
          stroke-width="2.48"
        />
      </g>
    </g>
    <g id='fair' transform="translate(96, 96)">
      <g fill="#78CCFF" transform="translate(-16,-16) scale(0.5)">
        <path
          class="hoverOnly"
          d="M30.7602 0V13.2267H33.2402L33.2402 0H30.7602ZM61.7602 28.52H48.5335V31H61.7602V28.52ZM15.4669 28.52H2.24023L2.24023 31H15.4669V28.52ZM16.2504 24.5788L4.03059 19.5172L4.97964 17.226L17.1995 22.2876L16.2504 24.5788ZM59.9698 19.5172L47.7499 24.5788L46.8009 22.2876L59.0207 17.226L59.9698 19.5172ZM24.5247 14.9603L19.463 2.74043L21.7543 1.79138L26.8159 14.0112L24.5247 14.9603ZM44.5344 2.74043L39.4728 14.9603L37.1816 14.0112L42.2432 1.79138L44.5344 2.74043ZM19.4338 18.9463L10.0811 9.59362L11.8348 7.84L21.1874 17.1927L19.4338 18.9463ZM53.9192 9.59362L44.5665 18.9463L42.8129 17.1927L52.1656 7.84L53.9192 9.59362Z"
          fill="#A692F3"
        />
        <path
          d="M56.6 29.7599C56.6 43.4566 45.4966 57.0399 31.8 57.0399C18.1033 57.0399 7 43.4566 7 29.7599C7 16.0633 18.1033 4.95996 31.8 4.95996C45.4966 4.95996 56.6 16.0633 56.6 29.7599Z"
          fill="#A692F3"
        />
        <path
          fill-rule="evenodd"
          clip-rule="evenodd"
          d="M17.5469 16.5289C18.0219 15.3415 19.1718 14.563 20.4506 14.563C22.6631 14.563 24.176 16.7976 23.3543 18.8518L21.3651 23.8246C20.8902 25.0119 19.7403 25.7905 18.4615 25.7905C16.249 25.7905 14.7361 23.5559 15.5578 21.5017L17.5469 16.5289ZM46.0686 16.5289C45.5937 15.3415 44.4438 14.563 43.165 14.563C40.9525 14.563 39.4396 16.7976 40.2613 18.8518L42.2504 23.8246C42.7254 25.0119 43.8753 25.7905 45.1541 25.7905C47.3666 25.7905 48.8795 23.5559 48.0578 21.5017L46.0686 16.5289ZM27.7799 14.563C26.2055 14.563 24.8499 15.6743 24.5411 17.2181L23.6168 21.8399C23.208 23.8837 24.7712 25.7905 26.8555 25.7905C28.4299 25.7905 29.7854 24.6792 30.0942 23.1354L31.0186 18.5136C31.4273 16.4698 29.8641 14.563 27.7799 14.563ZM39.0744 17.2181C38.7657 15.6743 37.4101 14.563 35.8357 14.563C33.7515 14.563 32.1883 16.4698 32.597 18.5136L33.5214 23.1354C33.8302 24.6792 35.1857 25.7905 36.7601 25.7905C38.8443 25.7905 40.4075 23.8837 39.9988 21.8399L39.0744 17.2181ZM19.4572 28.0363C18.8372 28.0363 18.3345 28.539 18.3345 29.159V46.0003C18.3345 46.9208 19.0807 47.667 20.0011 47.667H43.6138C44.5343 47.667 45.2805 46.9208 45.2805 46.0003V29.159C45.2805 28.539 44.7778 28.0363 44.1577 28.0363C43.5377 28.0363 43.035 28.539 43.035 29.159V37.5971C43.035 38.5176 42.2888 39.2638 41.3683 39.2638H22.2466C21.3262 39.2638 20.58 38.5176 20.58 37.5971V29.159C20.58 28.539 20.0773 28.0363 19.4572 28.0363Z"
          fill="white"
        />
        <circle
          cx="31.96"
          cy="57.0401"
          r="4.95999"
          class="selectedOnly"
          fill="#A692F3"
          stroke="white"
          stroke-width="2.48"
        />
      </g>
    </g>

    <g id='artObject' transform="translate(0, 128)">
      <g fill="#78CCFF" transform="translate(-18,-16) scale(0.5)">
        <path
          class="hoverOnly"
          d="M35.2602 0V13.2267H37.7402L37.7402 0H35.2602ZM66.2602 28.52H53.0335V31H66.2602V28.52ZM19.9669 28.52H6.74023L6.74023 31H19.9669V28.52ZM20.7504 24.5788L8.53059 19.5172L9.47964 17.226L21.6995 22.2876L20.7504 24.5788ZM64.4698 19.5172L52.2499 24.5788L51.3009 22.2876L63.5207 17.226L64.4698 19.5172ZM29.0247 14.9603L23.963 2.74043L26.2543 1.79138L31.3159 14.0112L29.0247 14.9603ZM49.0344 2.74043L43.9728 14.9603L41.6816 14.0112L46.7432 1.79138L49.0344 2.74043ZM23.9338 18.9463L14.5811 9.59362L16.3348 7.84L25.6874 17.1927L23.9338 18.9463ZM58.4192 9.59362L49.0665 18.9463L47.3129 17.1927L56.6656 7.84L58.4192 9.59362Z"
          fill="#A692F3"
        />
        <path
          d="M61.1 29.7599C61.1 43.4566 49.9966 57.0399 36.3 57.0399C22.6033 57.0399 11.5 43.4566 11.5 29.7599C11.5 16.0633 22.6033 4.95996 36.3 4.95996C49.9966 4.95996 61.1 16.0633 61.1 29.7599Z"
          fill="#A692F3"
        />
        <path
          d="M50.8952 42.1948H49.4558V40.8753C49.4558 40.0837 48.8801 39.5559 48.0165 39.5559H46.5771V26.3614H48.5159C49.0953 26.3614 49.6285 26.0449 49.9059 25.5363L52.3346 21.0837C52.0657 21.1083 51.7968 21.1307 51.5279 21.1507C46.4024 21.5328 41.1954 19.7839 37.9407 15.8059V14.4864C37.9407 13.6948 37.3649 13.167 36.5013 13.167C35.6377 13.167 35.0619 13.6948 35.0619 14.4864V15.8059C31.8072 19.7838 26.6002 21.5328 21.4747 21.1507C21.2058 21.1307 20.9369 21.1083 20.668 21.0837L23.0967 25.5363C23.3741 26.0449 23.9073 26.3614 24.4867 26.3614H26.4255V39.5559H24.9862C24.1225 39.5559 23.5468 40.0837 23.5468 40.8753V42.1948H22.1074C21.2437 42.1948 20.668 42.7225 20.668 43.5142V44.8337H52.3346V43.5142C52.3346 42.7225 51.7589 42.1948 50.8952 42.1948ZM35.0619 37.9725C35.0619 38.847 34.353 39.5559 33.4786 39.5559H30.8877C30.0132 39.5559 29.3043 38.847 29.3043 37.9725V27.9448C29.3043 27.0703 30.0132 26.3614 30.8877 26.3614H33.4786C34.353 26.3614 35.0619 27.0703 35.0619 27.9448V37.9725ZM43.6983 37.9725C43.6983 38.847 42.9894 39.5559 42.1149 39.5559H39.524C38.6496 39.5559 37.9407 38.847 37.9407 37.9725V27.9448C37.9407 27.0703 38.6496 26.3614 39.524 26.3614H42.1149C42.9894 26.3614 43.6983 27.0703 43.6983 27.9448V37.9725Z"
          fill="white"
        />
        <circle
          cx="36.46"
          cy="57.0401"
          r="4.95999"
          fill="#A692F3"
          class="selectedOnly"
          stroke="white"
          stroke-width="2.48"
        />
      </g>
    </g>
    <g id='checkpoint' transform="translate(32, 128)">
      <g fill="#78CCFF" transform="translate(-16,-16) scale(0.5)">
        <path
          class="hoverOnly"
          d="M30.7602 0V13.2267H33.2402L33.2402 0H30.7602ZM61.7602 28.52H48.5335V31H61.7602V28.52ZM15.4669 28.52H2.24023L2.24023 31H15.4669V28.52ZM16.2504 24.5788L4.03059 19.5172L4.97964 17.226L17.1995 22.2876L16.2504 24.5788ZM59.9698 19.5172L47.7499 24.5788L46.8009 22.2876L59.0207 17.226L59.9698 19.5172ZM24.5247 14.9603L19.463 2.74043L21.7543 1.79138L26.8159 14.0112L24.5247 14.9603ZM44.5344 2.74043L39.4728 14.9603L37.1816 14.0112L42.2432 1.79138L44.5344 2.74043ZM19.4338 18.9463L10.0811 9.59362L11.8348 7.84L21.1874 17.1927L19.4338 18.9463ZM53.9192 9.59362L44.5665 18.9463L42.8129 17.1927L52.1656 7.84L53.9192 9.59362Z"
          fill="#A692F3"
        />
        <path
          d="M56.6 29.7599C56.6 43.4566 45.4966 57.0399 31.8 57.0399C18.1033 57.0399 7 43.4566 7 29.7599C7 16.0633 18.1033 4.95996 31.8 4.95996C45.4966 4.95996 56.6 16.0633 56.6 29.7599Z"
          fill="#A692F3"
        />
        <path
          fill-rule="evenodd"
          clip-rule="evenodd"
          d="M29.4127 31.5H32.4968L38.6634 22.25H35.5794L29.4127 31.5ZM32.4958 22.25H29.4121V26.8756L32.4958 22.25ZM44.8283 22.25H41.747L35.5803 31.5H38.6616L44.8283 22.25ZM47.5477 22.7962L41.7452 31.5H44.8288C46.5317 31.5 47.9121 30.1195 47.9121 28.4167V23.7917C47.9121 23.4122 47.775 23.0648 47.5477 22.7962Z"
          fill="white"
        />
        <path
          fill-rule="evenodd"
          clip-rule="evenodd"
          d="M17.0879 22.2511C17.0879 18.8454 19.8488 16.0845 23.2546 16.0845C26.6603 16.0845 29.4212 18.8454 29.4212 22.2511V36.1264H17.088V38.4389H29.4212V46.9178H17.0879V22.2511ZM23.2509 29.9586C24.9538 29.9586 26.3343 28.5781 26.3343 26.8752C26.3343 25.1724 24.9538 23.7919 23.2509 23.7919C21.548 23.7919 20.1676 25.1724 20.1676 26.8752C20.1676 28.5781 21.548 29.9586 23.2509 29.9586Z"
          fill="white"
        />
        <circle
          cx="31.96"
          cy="57.0401"
          r="4.95999"
          fill="#A692F3"
          class="selectedOnly"
          stroke="white"
          stroke-width="2.48"
        />
      </g>
    </g>
  </g>
  <g class="common" transform="translate(-16, 160)">
    <g id="edit">
      <g fill="none" stroke="currentColor" stroke-linecap="round"
         stroke-width="2">
        <path d="M11 4H4a2 2 0 0 0-2 2v14a2 2 0 0 0 2 2h14a2 2 0 0 0 2-2v-7"/>
        <path d="M18.5 2.5a2.121 2.121 0 0 1 3 3L12 15l-4 1 1-4 9.5-9.5z"/>
      </g>
    </g>
    <g id="search" transform="translate(24, 0)">
      <path transform="scale(1.5)"
            d="M6.45613 0C3.16665 0 0.5 2.66664 0.5 5.95611C0.5 9.24558 3.16665 11.9122 6.45613 11.9122C7.75412 11.9122 8.95513 11.497 9.9336 10.7922L14.1414 15L15.5 13.6414L11.2922 9.43363C11.997 8.45515 12.4123 7.25412 12.4123 5.95611C12.4123 2.66664 9.74561 0 6.45613 0ZM2.42133 5.95611C2.42133 3.72776 4.22777 1.92133 6.45613 1.92133C8.68449 1.92133 10.4909 3.72776 10.4909 5.95611C10.4909 8.18446 8.68449 9.9909 6.45613 9.9909C4.22777 9.9909 2.42133 8.18446 2.42133 5.95611Z"
            fill="currentColor"/>
    </g>
    <g id="add" transform="translate(48, 0)">
      <path fill="currentColor"
            d="M0,12a1.5,1.5,0,0,0,1.5,1.5h8.75a.25.25,0,0,1,.25.25V22.5a1.5,1.5,0,0,0,3,0V13.75a.25.25,0,0,1,.25-.25H22.5a1.5,1.5,0,0,0,0-3H13.75a.25.25,0,0,1-.25-.25V1.5a1.5,1.5,0,0,0-3,0v8.75a.25.25,0,0,1-.25.25H1.5A1.5,1.5,0,0,0,0,12Z"></path>
    </g>
    <g id="arrow-right" transform="translate(72, 0)">
      <g transform="scale(0.046875)">
        <path fill="none" stroke="currentColor" stroke-linecap="round"
              stroke-linejoin="round" stroke-width="48"
              d="M268 112l144 144-144 144M392 256H100"/>
      </g>
    </g>
    <g id="cancel" transform="translate(96, 0)">
      <path fill="currentColor"
            d="M.439,21.44a1.5,1.5,0,0,0,2.122,2.121L11.823,14.3a.25.25,0,0,1,.354,0l9.262,9.263a1.5,1.5,0,1,0,2.122-2.121L14.3,12.177a.25.25,0,0,1,0-.354l9.263-9.262A1.5,1.5,0,0,0,21.439.44L12.177,9.7a.25.25,0,0,1-.354,0L2.561.44A1.5,1.5,0,0,0,.439,2.561L9.7,11.823a.25.25,0,0,1,0,.354Z"></path>
    </g>
    <g id="close" transform="translate(0, 24)">
      <path
        d="M12 0.37793C5.57812 0.37793 0.375 5.6263 0.375 12.104C0.375 18.5817 5.57812 23.8301 12 23.8301C18.4219 23.8301 23.625 18.5817 23.625 12.104C23.625 5.6263 18.4219 0.37793 12 0.37793ZM17.7 15.1821C17.9203 15.4043 17.9203 15.7637 17.7 15.9859L15.8438 17.8536C15.6234 18.0758 15.2672 18.0758 15.0469 17.8536L12 14.7518L8.94844 17.8536C8.72812 18.0758 8.37187 18.0758 8.15156 17.8536L6.3 15.9812C6.07969 15.759 6.07969 15.3996 6.3 15.1774L9.375 12.104L6.3 9.02592C6.07969 8.80369 6.07969 8.44434 6.3 8.22211L8.15625 6.34972C8.37656 6.12749 8.73281 6.12749 8.95312 6.34972L12 9.45619L15.0516 6.35445C15.2719 6.13222 15.6281 6.13222 15.8484 6.35445L17.7047 8.22684C17.925 8.44907 17.925 8.80842 17.7047 9.03065L14.625 12.104L17.7 15.1821Z"
        fill="#CBD5E0"></path>
    </g>
    <g id="ok" transform="translate(24, 24)">
      <path d="M8 13L10.2523 14.5016C10.6776 14.785 11.2481 14.7023 11.5753 14.3097L16 9"
            stroke="#636363" fill="none"
            stroke-linecap="round"/>
    </g>
    <g transform="translate(48, 24)">
    </g>
    <g transform="translate(72, 24)">
    </g>
    <g transform="translate(96, 24)">
    </g>
    <g transform="translate(0, 48)">
    </g>
    <g transform="translate(24, 48)">
    </g>
    <g transform="translate(48, 48)">
    </g>
    <g transform="translate(72, 48)">
    </g>
    <g transform="translate(96, 48)">
    </g>
  </g>
  <g class="navbar" transform="translate(-16, 212)">

    <g id='main' transform="translate(0, 0)">
      <path
        d="M4 22H8.3871C9.49167 22 10.3871 21.1046 10.3871 20V16.7379C10.3871 15.8471 11.1092 15.125 12 15.125C12.8908 15.125 13.6129 15.8471 13.6129 16.7379V20C13.6129 21.1046 14.5083 22 15.6129 22H20C21.1046 22 22 21.1046 22 20V11.0769C22 10.4747 21.7286 9.90449 21.2612 9.52471L13.2612 3.02471C12.5264 2.42768 11.4736 2.42768 10.7388 3.02471L2.73881 9.52471C2.27139 9.90449 2 10.4747 2 11.0769V20C2 21.1046 2.89543 22 4 22Z"
        fill="none"
        stroke="var(--color)" stroke-linecap="round"/>
    </g>
    <g id='board' transform="translate(72, 0)">
      <path
        d="M7.47253 2.18408C6.09181 2.18408 4.97253 3.30337 4.97253 4.68408V5.14233H3.55566C2.17495 5.14233 1.05566 6.26161 1.05566 7.64233V18.4751C1.05566 19.8329 2.15634 20.9335 3.5141 20.9335H20.4456C21.8263 20.9335 22.9456 19.8143 22.9456 18.4335V4.68408C22.9456 3.30337 21.8263 2.18408 20.4456 2.18408H7.47253ZM3.55566 6.14233H4.97253V18.4751C4.97253 19.2806 4.31957 19.9335 3.5141 19.9335C2.70863 19.9335 2.05566 19.2806 2.05566 18.4751V7.64233C2.05566 6.8139 2.72724 6.14233 3.55566 6.14233ZM20.4456 19.9335H5.4934C5.79453 19.5256 5.97253 19.0211 5.97253 18.4751V5.64233V4.68408C5.97253 3.85565 6.6441 3.18408 7.47253 3.18408H20.4456C21.274 3.18408 21.9456 3.85566 21.9456 4.68408V18.4335C21.9456 19.262 21.274 19.9335 20.4456 19.9335ZM8.58398 6.64229C8.58398 6.36614 8.80784 6.14229 9.08398 6.14229H12.3065C12.5826 6.14229 12.8065 6.36614 12.8065 6.64229V9.07965C12.8065 9.3558 12.5826 9.57965 12.3065 9.57965H9.08398C8.80784 9.57965 8.58398 9.3558 8.58398 9.07965V6.64229ZM9.08398 5.14229C8.25556 5.14229 7.58398 5.81386 7.58398 6.64229V9.07965C7.58398 9.90808 8.25556 10.5797 9.08398 10.5797H12.3065C13.1349 10.5797 13.8065 9.90808 13.8065 9.07965V6.64229C13.8065 5.81386 13.1349 5.14229 12.3065 5.14229H9.08398ZM8.08398 13.2775C7.80784 13.2775 7.58398 13.5013 7.58398 13.7775C7.58398 14.0536 7.80784 14.2775 8.08398 14.2775H19.8346C20.1107 14.2775 20.3346 14.0536 20.3346 13.7775C20.3346 13.5013 20.1107 13.2775 19.8346 13.2775H8.08398ZM8.08398 16.9753C7.80784 16.9753 7.58398 17.1991 7.58398 17.4753C7.58398 17.7514 7.80784 17.9753 8.08398 17.9753H19.8346C20.1107 17.9753 20.3346 17.7514 20.3346 17.4753C20.3346 17.1991 20.1107 16.9753 19.8346 16.9753H8.08398ZM15.418 10.0797C15.418 9.80352 15.6418 9.57966 15.918 9.57966L19.8348 9.57966C20.111 9.57966 20.3348 9.80352 20.3348 10.0797C20.3348 10.3558 20.111 10.5797 19.8348 10.5797H15.918C15.6418 10.5797 15.418 10.3558 15.418 10.0797ZM15.918 6.62146C15.6418 6.62146 15.418 6.84532 15.418 7.12146C15.418 7.3976 15.6418 7.62146 15.918 7.62146L19.8348 7.62146C20.111 7.62146 20.3348 7.3976 20.3348 7.12146C20.3348 6.84531 20.111 6.62146 19.8348 6.62146L15.918 6.62146Z"
        fill="var(--color)"/>
    </g>
    <g id='map' transform="translate(24, 0)">
      <g fill="var(--color)">
        <path
          d="M11.5 0.25V4.25H12.5V0.25H11.5ZM21 8.75H17V9.75H21V8.75ZM7 8.75H3V9.75H7V8.75ZM7.18923 7.79852L3.49372 6.26779L3.8764 5.34391L7.57192 6.87464L7.18923 7.79852ZM20.5063 6.26779L16.8108 7.79852L16.4281 6.87464L20.1236 5.34391L20.5063 6.26779ZM9.62446 4.82195L8.09372 1.12643L9.0176 0.743747L10.5483 4.43927L9.62446 4.82195ZM15.9058 1.12643L14.3751 4.82195L13.4512 4.43927L14.9819 0.743747L15.9058 1.12643ZM8.1111 6.06801L5.28268 3.23959L5.98978 2.53248L8.81821 5.36091L8.1111 6.06801ZM18.7178 3.23959L15.8894 6.06801L15.1823 5.36091L18.0107 2.53248L18.7178 3.23959Z"/>
        <path
          d="M13.2165 20.8464L12.5016 20.1472L13.2165 20.8464ZM18.0005 9.0588C18.0005 11.4129 17.1403 13.671 15.9972 15.6239C14.8569 17.5722 13.4698 19.1574 12.5016 20.1472L13.9313 21.5457C14.9679 20.486 16.4728 18.7707 17.7233 16.6342C18.9711 14.5024 20.0005 11.8913 20.0005 9.0588H18.0005ZM12.0005 3C15.3063 3 18.0005 5.70472 18.0005 9.0588H20.0005C20.0005 4.61595 16.4266 1 12.0005 1V3ZM6.00049 9.0588C6.00049 5.70472 8.69465 3 12.0005 3V1C7.57434 1 4.00049 4.61595 4.00049 9.0588H6.00049ZM11.4994 20.1472C10.5312 19.1574 9.14411 17.5722 8.00377 15.6239C6.86071 13.671 6.00049 11.4129 6.00049 9.0588H4.00049C4.00049 11.8913 5.02993 14.5024 6.27769 16.6342C7.52819 18.7707 9.03308 20.486 10.0696 21.5457L11.4994 20.1472ZM16.0005 9C16.0005 6.79086 14.2096 5 12.0005 5V7C13.1051 7 14.0005 7.89543 14.0005 9H16.0005ZM12.0005 13C14.2096 13 16.0005 11.2091 16.0005 9H14.0005C14.0005 10.1046 13.1051 11 12.0005 11V13ZM8.00049 9C8.00049 11.2091 9.79135 13 12.0005 13V11C10.8959 11 10.0005 10.1046 10.0005 9H8.00049ZM12.0005 5C9.79135 5 8.00049 6.79086 8.00049 9H10.0005C10.0005 7.89543 10.8959 7 12.0005 7V5ZM12.5016 20.1472C12.2144 20.4408 11.7866 20.4408 11.4994 20.1472L10.0696 21.5457C11.1413 22.6413 12.8597 22.6413 13.9313 21.5457L12.5016 20.1472Z"/>
        <circle cx="13" cy="8" r="1"/>
      </g>
    </g>
    <g id='timetable' transform="translate(48, 0)">
      <path d="M8 13L10.2523 14.5016C10.6776 14.785 11.2481 14.7023 11.5753 14.3097L16 9"
            stroke="var(--color)"
            stroke-linecap="round" stroke-width="2" fill="none"/>
    </g>
  </g>
</svg>
