<svg version="1.1" xmlns="http://www.w3.org/2000/svg" viewBox="-16 -16 128 256"
     width="1024" height="2048">
  <g class="map">
    <g id='circle' transform="translate(0, 0)">
      <circle cx="0" cy="0" r="16" fill="var(--color)"/>
    </g>
    <g id='star' transform="translate(32, 0)">
      <g>
        <g transform="scale(0.6666) translate(-24, -24)" class="notSelectedOnly">
          <path
            d="M23.0726 2.79976C23.4092 1.9651 24.5908 1.9651 24.9274 2.79976L26.9603 7.84073C27.2209 8.48692 28.0459 8.67522 28.561 8.20609L32.5798 4.54636C33.2452 3.9404 34.3098 4.45311 34.251 5.35115L33.8953 10.7749C33.8497 11.4702 34.5113 11.9978 35.179 11.7987L40.3877 10.245C41.2501 9.98779 41.9869 10.9116 41.5442 11.6952L38.8705 16.4276C38.5277 17.0342 38.8949 17.7966 39.5829 17.9069L44.9498 18.7671C45.8384 18.9095 46.1014 20.0615 45.3625 20.5754L40.9003 23.6791C40.3283 24.0769 40.3283 24.9231 40.9003 25.3209L45.3625 28.4246C46.1014 28.9385 45.8384 30.0905 44.9498 30.2329L39.5829 31.0931C38.8949 31.2034 38.5277 31.9658 38.8705 32.5724L41.5442 37.3048C41.9869 38.0884 41.2501 39.0122 40.3877 38.755L35.179 37.2013C34.5113 37.0022 33.8497 37.5298 33.8953 38.2251L34.251 43.6488C34.3098 44.5469 33.2452 45.0596 32.5798 44.4536L28.561 40.7939C28.0459 40.3248 27.2209 40.5131 26.9603 41.1593L24.9274 46.2002C24.5908 47.0349 23.4092 47.0349 23.0726 46.2002L21.0397 41.1593C20.7791 40.5131 19.9541 40.3248 19.439 40.7939L15.4202 44.4536C14.7548 45.0596 13.6902 44.5469 13.749 43.6488L14.1047 38.2251C14.1503 37.5298 13.4887 37.0022 12.821 37.2013L7.61231 38.755C6.74988 39.0122 6.01313 38.0884 6.45583 37.3048L9.12954 32.5724C9.47227 31.9658 9.10512 31.2034 8.41715 31.0931L3.0502 30.2329C2.16157 30.0905 1.89862 28.9385 2.63746 28.4246L7.09968 25.321C7.67169 24.9231 7.67169 24.0769 7.09968 23.6791L2.63746 20.5754C1.89862 20.0615 2.16157 18.9095 3.0502 18.7671L8.41714 17.9069C9.10512 17.7966 9.47227 17.0342 9.12954 16.4276L6.45583 11.6952C6.01313 10.9117 6.74988 9.98779 7.61231 10.245L12.821 11.7987C13.4887 11.9978 14.1503 11.4702 14.1047 10.7749L13.749 5.35115C13.6902 4.45311 14.7548 3.9404 15.4202 4.54636L19.439 8.20609C19.9541 8.67522 20.7791 8.48692 21.0397 7.84073L23.0726 2.79976Z"
            fill="var(--color)"/>
          <path d="M24 27.9291V14.2148M24 35.472H24.0137" stroke="#F7FCFF" stroke-width="3.6" stroke-linecap="round"/>
        </g>
        <g transform="scale(0.6666) translate(-24, -48)" class="selectedOnly">
          <path
            d="M52 26C52 40.3594 42.5 47.5 26 63.5C10 48.5 0 40.3594 0 26C0 11.6406 11.6406 0 26 0C40.3594 0 52 11.6406 52 26Z"
            fill="var(--color)"/>
          <path d="M26 32.5V18.5M26 40.2H26.014" stroke="#F7FCFF" stroke-width="3.6" stroke-linecap="round"/>
        </g>
      </g>
    </g>
    <g id="art">
      <g transform="scale(1.2)">
        <path fill-rule="evenodd" clip-rule="evenodd"
              d="M5.48291 1.16749C5.44612 0.944168 5.12501 0.944169 5.08823 1.1675L4.53375 4.53375L1.16749 5.08823C0.944168 5.12501 0.944169 5.44612 1.1675 5.48291L4.53375 6.03738L5.08823 9.40364C5.12501 9.62697 5.44612 9.62697 5.48291 9.40364L6.03738 6.03738L9.40364 5.48291C9.62697 5.44612 9.62697 5.12501 9.40364 5.08823L6.03738 4.53375L5.48291 1.16749ZM13.3584 6.51683C13.2679 6.09547 12.6667 6.09547 12.5762 6.51683L11.5055 11.5033L6.51899 12.5741C6.09763 12.6646 6.09763 13.2658 6.51899 13.3562L11.5055 14.427L12.5762 19.4135C12.6667 19.8348 13.2679 19.8348 13.3584 19.4135L14.4292 14.427L19.4157 13.3562C19.837 13.2658 19.837 12.6646 19.4157 12.5741L14.4292 11.5033L13.3584 6.51683Z"
              fill="#F7FCFF"/>
      </g>
    </g>
    <g id="door">
      <g transform="scale(1.2)">
        <path
          d="M3 21H21M18 21V6.2C18 5.0799 18 4.51984 17.782 4.09202C17.5903 3.71569 17.2843 3.40973 16.908 3.21799C16.4802 3 15.9201 3 14.8 3H9.2C8.0799 3 7.51984 3 7.09202 3.21799C6.71569 3.40973 6.40973 3.71569 6.21799 4.09202C6 4.51984 6 5.0799 6 6.2V21M15 12H15.01"
          stroke="#F7FCFF" stroke-width="2" stroke-linecap="round" stroke-linejoin="round"/>
      </g>
    </g>
    <g id="educational">
      <g transform="scale(1.2)">
        <path
          d="M19 7.6875L10 3L1 7.6875L10 12.375L19 7.6875ZM19 7.6875V13.3125M16.3 9.09375V14.7188L10 18L3.7 14.7188V9.09375"
          stroke="#F7FCFF" stroke-width="1.6" stroke-linecap="round" stroke-linejoin="round"/>
      </g>
    </g>
    <g id="food">
      <g transform="scale(1.2)">
        <path
          d="M3.6456 2C3.6456 2 1.64443 8.5 6.64389 8.5M6.6456 8.5C11.6445 8.5 9.64389 2 9.64389 2M6.6456 8.5V2M6.6456 8.5H6.64389M6.64389 8.5V17.5"
          stroke="#F7FCFF" stroke-width="1.6" stroke-linecap="round"/>
        <path fill-rule="evenodd" clip-rule="evenodd"
              d="M11.95 2.80004C11.95 1.97167 12.6761 1.07118 13.7297 1.32663C14.5095 1.51571 15.4653 1.94696 16.2325 2.78144C17.0137 3.63131 17.55 4.8471 17.55 6.50004C17.55 8.54336 16.7274 9.84562 15.632 10.5777C14.9498 11.0335 14.1978 11.2444 13.55 11.3058V17.5C13.55 17.9419 13.1918 18.3 12.75 18.3C12.3081 18.3 11.95 17.9419 11.95 17.5V2.80004ZM13.55 9.69492C13.925 9.64 14.3557 9.50619 14.7429 9.2474C15.3559 8.83778 15.95 8.05671 15.95 6.50004C15.95 5.21977 15.5457 4.39858 15.0545 3.86427C14.6087 3.37927 14.0514 3.08856 13.55 2.93558V9.69492Z"
              fill="#F7FCFF"/>
      </g>
    </g>
    <g id="info">
      <g transform="scale(1.2)">
        <path d="M10 12.5V2.5M10 18H10.01" stroke="#F7FCFF" stroke-width="3.6" stroke-linecap="round"/>
      </g>
    </g>
    <g id="medical">
      <g transform="scale(1.2)">
        <path d="M10 2V10M10 18V10M10 10H18M10 10H2" stroke="#F7FCFF" stroke-width="2.6" stroke-linecap="round"/>
      </g>
    </g>
    <g id="point">
      <g transform="scale(1.2)">
        <path
          d="M7.49498 4.72414H3.6C3.26863 4.72414 3 4.99277 3 5.32414V10.331C3 10.6624 3.26863 10.931 3.6 10.931H7.49498M7.49498 4.72414V2C7.49498 1.44772 7.9427 1 8.49498 1H10.2943C10.8466 1 11.2943 1.44772 11.2943 2V4.72414M7.49498 4.72414H11.2943M11.2943 4.72414H14.318C14.4398 4.72414 14.5587 4.7612 14.6589 4.83039L18.2849 7.33384C18.6303 7.57236 18.6303 8.08281 18.2849 8.32134L14.6589 10.8248C14.5587 10.894 14.4398 10.931 14.318 10.931H11.2943M7.49498 10.931V18C7.49498 18.5523 7.9427 19 8.49498 19H10.2943C10.8466 19 11.2943 18.5523 11.2943 18V10.931M7.49498 10.931H11.2943"
          stroke="#F7FCFF" stroke-width="1.6"/>
      </g>
    </g>
    <g id="screen">
      <g transform="scale(1.2)">
        <path fill-rule="evenodd" clip-rule="evenodd"
              d="M14 10C14 12.2091 12.2091 14 10 14C7.79086 14 6 12.2091 6 10C6 7.79086 7.79086 6 10 6C12.2091 6 14 7.79086 14 10ZM12 10C12 11.1046 11.1046 12 10 12C8.89543 12 8 11.1046 8 10C8 8.89543 8.89543 8 10 8C11.1046 8 12 8.89543 12 10Z"
              fill="#F7FCFF"/>
        <path fill-rule="evenodd" clip-rule="evenodd"
              d="M10.0004 3C4.77514 3 0.483828 9.2322 0.0179912 9.93768C0.00628979 9.95586 0 9.97765 0 10C0 10.0224 0.00628979 10.0441 0.0179912 10.0623C0.483828 10.7616 4.77514 17 10.0004 17C15.2256 17 19.5169 10.7616 19.9827 10.0623C19.994 10.0439 20 10.0222 20 10C20 9.97778 19.994 9.95607 19.9827 9.93768C19.5169 9.23718 15.2256 3 10.0004 3ZM15.4197 12.3238C16.3123 11.4998 17.0436 10.6472 17.5523 9.99975C17.0438 9.3524 16.3125 8.49976 15.4198 7.6758C13.7489 6.13355 11.8458 5 10.0004 5C8.15439 5 6.25113 6.13288 4.58064 7.67419C3.68714 8.4986 2.95546 9.35183 2.44761 9.99874C2.95634 10.6464 3.68794 11.4994 4.58099 12.3238C6.25196 13.8663 8.15503 15 10.0004 15C11.8457 15 13.7488 13.8663 15.4197 12.3238Z"
              fill="#F7FCFF"/>
      </g>
    </g>
    <g id="shop">
      <g transform="scale(1.2)">
        <path fill-rule="evenodd" clip-rule="evenodd"
              d="M6.57495 4.66662C6.57495 2.76396 8.09655 1.19995 9.99995 1.19995C11.9034 1.19995 13.425 2.76396 13.425 4.66662V6.53328L14.2317 6.53328C14.6947 6.53327 15.0904 6.53326 15.4155 6.56025C15.7578 6.58866 16.0923 6.65103 16.4122 6.81658C16.893 7.06545 17.2816 7.46131 17.5243 7.9453C17.6851 8.2659 17.7458 8.60102 17.7735 8.94595C17.8 9.27472 17.8 9.67533 17.8 10.1467V12.3452C17.8 13.3119 17.8 14.0854 17.7497 14.7105C17.6981 15.3519 17.5897 15.9065 17.3336 16.4173C16.923 17.2358 16.2667 17.9036 15.4567 18.3229C14.9496 18.5853 14.399 18.6961 13.7649 18.7488C13.1481 18.8 12.3854 18.8 11.4351 18.7999H8.56485C7.61451 18.8 6.85181 18.8 6.23499 18.7488C5.60087 18.6961 5.05026 18.5853 4.54324 18.3229C3.73316 17.9036 3.07687 17.2358 2.66634 16.4173C2.41017 15.9065 2.3018 15.3519 2.25021 14.7105C2.19994 14.0854 2.19995 13.3119 2.19995 12.3452L2.19995 10.1467C2.19994 9.67532 2.19993 9.27471 2.22637 8.94595C2.25411 8.60102 2.3148 8.2659 2.4756 7.9453C2.71835 7.46131 3.10692 7.06545 3.58772 6.81658C3.90757 6.65103 4.24209 6.58866 4.58438 6.56025C4.90955 6.53326 5.30524 6.53327 5.76818 6.53328L6.57495 6.53328V4.66662ZM6.57495 8.13328V9.11106C6.57495 9.55289 6.93312 9.91106 7.37495 9.91106C7.81678 9.91106 8.17495 9.55289 8.17495 9.11106V8.13328H11.825V9.08196C11.825 9.52379 12.1831 9.88196 12.625 9.88196C13.0668 9.88196 13.425 9.52379 13.425 9.08196V8.13328H14.2C14.7034 8.13328 15.0321 8.13393 15.2832 8.15476C15.5245 8.1748 15.6222 8.20931 15.6767 8.23752C15.8545 8.32953 16.0013 8.47761 16.0941 8.66263C16.1241 8.72232 16.1587 8.82626 16.1787 9.07422C16.1993 9.33116 16.2 9.66691 16.2 10.1777V12.3111C16.2 13.3197 16.1993 14.0288 16.1548 14.5822C16.1111 15.1266 16.0287 15.4501 15.9034 15.6999C15.6428 16.2195 15.2282 16.6395 14.7212 16.902C14.4795 17.027 14.1657 17.11 13.6326 17.1543C13.0897 17.1993 12.3935 17.2 11.4 17.2H8.59995C7.60645 17.2 6.9102 17.1993 6.36733 17.1543C5.83418 17.11 5.5204 17.027 5.27873 16.902C4.77168 16.6395 4.3571 16.2195 4.09652 15.6999C3.97122 15.4501 3.88885 15.1266 3.84506 14.5822C3.80056 14.0288 3.79995 13.3197 3.79995 12.3111V10.1777C3.79995 9.66691 3.80056 9.33116 3.82122 9.07422C3.84116 8.82626 3.87585 8.72232 3.90578 8.66263C3.99859 8.47761 4.14545 8.32953 4.32322 8.23752C4.37771 8.20931 4.47539 8.1748 4.71673 8.15476C4.96778 8.13393 5.2965 8.13328 5.79995 8.13328H6.57495ZM11.825 6.53328H8.17495V4.66662C8.17495 3.62376 9.00386 2.79995 9.99995 2.79995C10.996 2.79995 11.825 3.62376 11.825 4.66662V6.53328Z"
              fill="#F7FCFF"/>
      </g>
    </g>
    <g id="shower">
      <g transform="scale(1.2)">
        <path fill-rule="evenodd" clip-rule="evenodd"
              d="M12.4167 4.35832C12.3675 4.43637 12.3124 4.52646 12.2456 4.63558C11.5781 5.72627 10.7082 7.22424 10.0084 8.68651C9.65846 9.41783 9.35871 10.1244 9.14822 10.7562C8.93293 11.4023 8.83333 11.9053 8.83333 12.25C8.83333 13.5224 9.19163 14.5953 9.79177 15.3294C10.3736 16.0411 11.2322 16.5 12.4167 16.5C13.6011 16.5 14.4598 16.0411 15.0416 15.3294C15.6417 14.5953 16 13.5224 16 12.25C16 11.9053 15.9004 11.4023 15.6851 10.7562C15.4746 10.1244 15.1749 9.41783 14.8249 8.68651C14.1252 7.22424 13.2552 5.72627 12.5878 4.63558C12.521 4.52646 12.4658 4.43637 12.4167 4.35832ZM11.7014 2.32107C12.1495 2.12703 12.6838 2.12703 13.1319 2.32107C13.473 2.46875 13.6963 2.71049 13.8514 2.91388C13.9912 3.09712 14.1332 3.32934 14.2736 3.55872C14.2803 3.56969 14.287 3.58065 14.2937 3.5916C14.9771 4.70835 15.8868 6.27228 16.629 7.8232C17 8.59848 17.3368 9.38629 17.5826 10.1239C17.8236 10.8472 18 11.5885 18 12.25C18 13.8771 17.5432 15.4292 16.59 16.5953C15.6184 17.7837 14.1854 18.5 12.4167 18.5C10.6479 18.5 9.21489 17.7837 8.24334 16.5953C7.29011 15.4292 6.83333 13.8771 6.83333 12.25C6.83333 11.5885 7.00978 10.8472 7.25078 10.1239C7.49657 9.38629 7.83335 8.59848 8.20434 7.8232C8.94651 6.27228 9.85624 4.70835 10.5397 3.5916C10.5464 3.58066 10.5531 3.56972 10.5598 3.55877C10.7001 3.32936 10.8421 3.09713 10.9819 2.91388C11.137 2.71049 11.3604 2.46875 11.7014 2.32107ZM4.08333 4.37668C4.04836 4.43678 4.00951 4.50474 3.96422 4.58399C3.70468 5.03816 3.45155 5.52043 3.26615 5.95569C3.06583 6.42598 3 6.7168 3 6.83336C3 7.29503 3.13303 7.63561 3.30546 7.84185C3.46067 8.02749 3.69594 8.16669 4.08333 8.16669C4.47073 8.16669 4.70599 8.02749 4.8612 7.84185C5.03363 7.63561 5.16667 7.29503 5.16667 6.83336C5.16667 6.7168 5.10084 6.42598 4.90052 5.95569C4.71512 5.52043 4.46198 5.03816 4.20245 4.58399C4.15716 4.50474 4.1183 4.43678 4.08333 4.37668ZM3.34829 2.32937C3.79957 2.12748 4.3671 2.12748 4.81838 2.32937C5.15406 2.47953 5.37353 2.71493 5.53033 2.92857C5.66508 3.11217 5.79588 3.34121 5.91945 3.55761C5.92596 3.569 5.93245 3.58037 5.93892 3.59169C6.21768 4.0795 6.51254 4.63662 6.74055 5.17194C6.95365 5.67223 7.16667 6.28318 7.16667 6.83336C7.16667 7.66036 6.92921 8.48644 6.39557 9.12471C5.8447 9.78357 5.0383 10.1667 4.08333 10.1667C3.12837 10.1667 2.32197 9.78357 1.7711 9.12471C1.23745 8.48644 1 7.66036 1 6.83336C1 6.28318 1.21301 5.67223 1.42611 5.17194C1.65413 4.63662 1.94899 4.0795 2.22775 3.59169C2.23421 3.58037 2.2407 3.56901 2.24721 3.55761C2.37079 3.34121 2.50159 3.11217 2.63633 2.92857C2.79313 2.71493 3.01261 2.47953 3.34829 2.32937Z"
              fill="#F7FCFF"/>
      </g>
    </g>
    <g id="tent">
      <g transform="scale(1.2)">
        <path fill-rule="evenodd" clip-rule="evenodd"
              d="M6.52781 5.35785C6.66419 5.13551 6.90629 5 7.16712 5H12.8329C13.0937 5 13.3358 5.13551 13.4722 5.35785L19.2994 14.8579C19.6059 15.3576 19.2464 16 18.6601 16H1.3399C0.753642 16 0.394053 15.3576 0.700585 14.8579L6.52781 5.35785ZM7.73215 6.69231L3.4384 14.3077H6.74732L11.0411 6.69231H7.73215ZM12.7603 7.37158L8.95893 14.3077H11.8402V12.6154H13.6804V14.3077H16.5616L12.7603 7.37158Z"
              fill="#F7FCFF"/>
      </g>
    </g>
    <g id="wc">
      <g transform="scale(1.2)">
        <path
          d="M1 6L3.55426 15.1899C3.61068 15.3929 3.90211 15.382 3.94313 15.1753L5.56853 6.98812C5.61117 6.77338 5.91825 6.77338 5.96088 6.98812L7.58628 15.1753C7.6273 15.382 7.91873 15.3929 7.97515 15.1899L10.5294 6"
          stroke="#F7FCFF" stroke-width="1.6" stroke-linecap="round"/>
        <path
          d="M19.0011 7.5C18.4406 6.57432 17.6595 6 16.7955 6C15.0898 6 13.707 8.23858 13.707 11C13.707 13.7614 15.0898 16 16.7955 16C17.6595 16 18.4406 15.4257 19.0011 14.5"
          stroke="#F7FCFF" stroke-width="1.6" stroke-linecap="round"/>
      </g>
    </g>
  </g>
  <g class="common" transform="translate(-16, 160)">
    <g id="edit">
      <g fill="none" stroke="currentColor" stroke-linecap="round"
         stroke-width="2">
        <path d="M11 4H4a2 2 0 0 0-2 2v14a2 2 0 0 0 2 2h14a2 2 0 0 0 2-2v-7"/>
        <path d="M18.5 2.5a2.121 2.121 0 0 1 3 3L12 15l-4 1 1-4 9.5-9.5z"/>
      </g>
    </g>
    <g id="search" transform="translate(24, 0)">
      <path transform="scale(1.5)"
            d="M6.45613 0C3.16665 0 0.5 2.66664 0.5 5.95611C0.5 9.24558 3.16665 11.9122 6.45613 11.9122C7.75412 11.9122 8.95513 11.497 9.9336 10.7922L14.1414 15L15.5 13.6414L11.2922 9.43363C11.997 8.45515 12.4123 7.25412 12.4123 5.95611C12.4123 2.66664 9.74561 0 6.45613 0ZM2.42133 5.95611C2.42133 3.72776 4.22777 1.92133 6.45613 1.92133C8.68449 1.92133 10.4909 3.72776 10.4909 5.95611C10.4909 8.18446 8.68449 9.9909 6.45613 9.9909C4.22777 9.9909 2.42133 8.18446 2.42133 5.95611Z"
            fill="currentColor"/>
    </g>
    <g id="location" fill="none">
      <path d="M8 10V2M8 14.4H8.008" stroke="#F7FCFF" stroke-width="3.6" stroke-linecap="round"/>
    </g>
    <g id="plus" transform="translate(48, 0)">
      <path d="M12 12V6M12 12H18M12 12V18M12 12H6" stroke="currentColor"
            stroke-width="2" stroke-linecap="round"/>
    </g>
    <g id="arrow-right" transform="translate(72, 0)">
      <path fill="none" stroke="currentColor" stroke-linecap="round"
            transform="scale(0.046875)"
            stroke-linejoin="round" stroke-width="48"
            d="M268 112l144 144-144 144M392 256H100"/>
    </g>
    <g id="x" transform="translate(96, 0)">
      <path d="M2.22221 1.33301L16.4066 15.4071M1.5918 15.4071L15.7762 1.33302"
            stroke="currentColor"
            transform="scale(1.3333333333333333)"
            stroke-width="2"/>
    </g>
    <g id="close" transform="translate(0, 24)">
      <path
        d="M12 0.37793C5.57812 0.37793 0.375 5.6263 0.375 12.104C0.375 18.5817 5.57812 23.8301 12 23.8301C18.4219 23.8301 23.625 18.5817 23.625 12.104C23.625 5.6263 18.4219 0.37793 12 0.37793ZM17.7 15.1821C17.9203 15.4043 17.9203 15.7637 17.7 15.9859L15.8438 17.8536C15.6234 18.0758 15.2672 18.0758 15.0469 17.8536L12 14.7518L8.94844 17.8536C8.72812 18.0758 8.37187 18.0758 8.15156 17.8536L6.3 15.9812C6.07969 15.759 6.07969 15.3996 6.3 15.1774L9.375 12.104L6.3 9.02592C6.07969 8.80369 6.07969 8.44434 6.3 8.22211L8.15625 6.34972C8.37656 6.12749 8.73281 6.12749 8.95312 6.34972L12 9.45619L15.0516 6.35445C15.2719 6.13222 15.6281 6.13222 15.8484 6.35445L17.7047 8.22684C17.925 8.44907 17.925 8.80842 17.7047 9.03065L14.625 12.104L17.7 15.1821Z"
        fill="#CBD5E0"></path>
    </g>
    <g id="ok" transform="translate(24, 24)">
      <path d="M8 13L10.2523 14.5016C10.6776 14.785 11.2481 14.7023 11.5753 14.3097L16 9"
            stroke="#636363" fill="none"
            stroke-linecap="round"/>
    </g>

    <g id="bookmark" transform="translate(48, 24)">
      <path
        d="M5 5.00017V20.0004L11.0077 16.5674C11.6226 16.216 12.3774 16.216 12.9923 16.5674L19 20.0004V5.00017C19 3.89567 18.104 3.00027 16.9995 3.00019C13.3983 2.99994 10.6017 2.99994 7.00048 3.00019C5.89597 3.00027 5 3.89567 5 5.00017Z"
        stroke-width="3"
        stroke="currentColor"
        fill="currentColor"/>
    </g>
    <g id="magic" transform="translate(72, 24)">
      <svg width="24" height="24" viewBox="0 0 24 24"
           fill="none" xmlns="http://www.w3.org/2000/svg">
        <path
          d="M7 2L7.70711 6.29289L12 7L7.70711 7.70711L7 12L6.29289 7.70711L2 7L6.29289 6.29289L7 2Z
                 M14 6L15.4142 12.5858L22 14L15.4142 15.4142L14 22L12.5858 15.4142L6 14L12.5858 12.5858L14 6Z"
          fill="currentColor"/>
      </svg>

    </g>
    <g id="minus" transform="translate(96, 24)">
      <path d="M18 12H12H6" stroke="currentColor"
            stroke-width="2" stroke-linecap="round"/>
    </g>
    <g id="eye" transform="translate(0, 48)">
      <g transform="scale(0.75)">
        <rect width="32" height="32" rx="16" fill="currentColor"/>
        <path fill-rule="evenodd" clip-rule="evenodd"
              d="M20 16C20 18.2091 18.2091 20 16 20C13.7909 20 12 18.2091 12 16C12 13.7909 13.7909 12 16 12C18.2091 12 20 13.7909 20 16ZM18 16C18 17.1046 17.1046 18 16 18C14.8954 18 14 17.1046 14 16C14 14.8954 14.8954 14 16 14C17.1046 14 18 14.8954 18 16Z"
              fill="#F7FCFF"/>
        <path fill-rule="evenodd" clip-rule="evenodd"
              d="M16.0004 9C10.7751 9 6.48383 15.2322 6.01799 15.9377C6.00629 15.9559 6 15.9777 6 16C6 16.0224 6.00629 16.0441 6.01799 16.0623C6.48383 16.7616 10.7751 23 16.0004 23C21.2256 23 25.5169 16.7616 25.9827 16.0623C25.994 16.0439 26 16.0222 26 16C26 15.9778 25.994 15.9561 25.9827 15.9377C25.5169 15.2372 21.2256 9 16.0004 9ZM21.4197 18.3238C22.3123 17.4998 23.0436 16.6472 23.5523 15.9997C23.0438 15.3524 22.3125 14.4998 21.4198 13.6758C19.7489 12.1336 17.8458 11 16.0004 11C14.1544 11 12.2511 12.1329 10.5806 13.6742C9.68714 14.4986 8.95546 15.3518 8.44761 15.9987C8.95634 16.6464 9.68794 17.4994 10.581 18.3238C12.252 19.8663 14.155 21 16.0004 21C17.8457 21 19.7488 19.8663 21.4197 18.3238Z"
              fill="#F7FCFF"/>
      </g>
    </g>
    <g id="location2">
      <g transform="scale(0.75)">
        <rect width="32" height="32" rx="16" fill="#536BF3"/>
        <path d="M16 18V10M16 22.4H16.008" stroke="#F7FCFF" stroke-width="3.6" stroke-linecap="round"/>
      </g>
    </g>
    <g id="ok-circle" transform="translate(24, 48)">
      <path fill-rule="evenodd"
            clip-rule="evenodd"
            transform="scale(1.2)"
            d="M20 9.99998C20 15.5229 15.5228 20 10 20C4.47715 20 0 15.5229 0 9.99998C0 4.47715 4.47715 0 10 0C15.5228 0 20 4.47715 20 9.99998ZM8.5 14L15 7.5L13.5 6L8.5 11L6.5 9L5 10.5L8.5 14Z"
            fill="currentColor"/>
    </g>
    <g id="eye-plug" transform="translate(48, 48)">
      <g>
        <path
          d="M12.5719 16.2569C12.6239 14.4838 11.2304 13.0042 9.45946 12.9522C7.68854 12.9002 6.21082 14.2954 6.15888 16.0685C6.10694 17.8417 7.50045 19.3212 9.27136 19.3732C11.0423 19.4252 12.52 18.03 12.5719 16.2569Z"
          fill="#536BF3"/>
        <path
          d="M18.8725 9.4928C18.086 7.24948 18.6748 5.87658 18.8058 5.62366C18.8078 5.61986 18.8086 5.61557 18.8081 5.61132C18.8077 5.60707 18.806 5.60304 18.8033 5.59972C18.8007 5.59639 18.7971 5.59393 18.793 5.59263C18.7889 5.59132 18.7846 5.59123 18.7805 5.59236C18.5473 5.65073 17.5182 6.01531 16.8626 8.00655C16.4402 9.2754 16.3321 7.20041 16.1868 6.39427C15.9586 5.15926 14.9195 3.54106 14.6821 3.17986C14.6782 3.17392 14.6726 3.16931 14.6661 3.16665C14.6595 3.16399 14.6523 3.1634 14.6454 3.16497C14.6385 3.16653 14.6322 3.17018 14.6275 3.17541C14.6227 3.18064 14.6196 3.18721 14.6187 3.19424C14.5452 3.69586 14.1633 6.1092 13.7646 5.45702C12.7626 3.81682 13.2576 0.607485 13.3565 0.0356582C13.3574 0.0293356 13.3563 0.0228896 13.3534 0.0171903C13.3506 0.011491 13.346 0.00680975 13.3404 0.00377176C13.3348 0.000733771 13.3284 -0.000515888 13.3221 0.000193834C13.3157 0.000903556 13.3098 0.00353843 13.305 0.00774207C12.798 0.456914 9.60111 3.01745 10.1536 4.90888C10.6665 6.67427 8.65995 7.20041 8.24428 5.80722C7.89282 4.62973 8.96071 2.36526 9.17362 1.93301C9.17631 1.9281 9.1773 1.92244 9.17645 1.9169C9.17559 1.91137 9.17293 1.90628 9.16888 1.90242C9.16483 1.89856 9.15962 1.89614 9.15406 1.89556C9.1485 1.89497 9.1429 1.89624 9.13813 1.89917C8.79259 2.08188 7.28452 2.91425 6.42784 3.84473C6.024 4.28376 5.62607 4.96217 5.34727 5.48831C5.17067 5.82628 5.0152 6.1749 4.88176 6.53215C4.67899 7.06761 4.14673 8.13936 3.69896 8.41258C3.15488 8.74587 2.38521 5.89604 2.3793 5.85966C2.36747 5.78184 0.153954 8.4295 0.458946 10.244C0.652418 11.3978 0.943048 11.8512 0.703954 13.3129C0.638055 13.713 0.267164 14.7001 0.112556 15.5241C-0.00149929 16.0688 -0.0361385 16.6559 0.042433 17.4865C0.193662 19.0802 3.33736 24.0177 9.43975 24C17.6424 23.9805 19.2063 15.4691 19.2063 15.4691C19.2063 15.4691 19.9582 12.5896 18.8725 9.4928ZM16.9353 16.2025C16.5847 16.6779 13.3548 20.9124 9.422 20.9124C5.48921 20.9124 2.25933 16.6829 1.90872 16.2033C1.90003 16.1909 1.89536 16.1762 1.89536 16.161C1.89536 16.1459 1.90003 16.1311 1.90872 16.1187C2.25933 15.6433 5.48921 11.4096 9.422 11.4096C13.3548 11.4096 16.5847 15.6391 16.9353 16.1187C16.9442 16.1309 16.9489 16.1455 16.9489 16.1606C16.9489 16.1756 16.9442 16.1903 16.9353 16.2025Z"
          fill="#536BF3"/>

      </g>
    </g>
    <g transform="translate(72, 48)">

    </g>
    <g id='trash' transform="translate(96, 48)">
      <g transform="translate(3, 1)">
        <path
          d="M10.4999 0V2H16.139C17.3749 2 18.315 3.10973 18.1118 4.3288L17.9999 5H0.999926L0.888059 4.3288C0.684881 3.10973 1.62497 2 2.86085 2H8.49993V0H10.4999Z"
          fill="currentColor"/>
        <path fill-rule="evenodd" clip-rule="evenodd"
              d="M16.4999 7H2.49993L3.80847 19.2131C3.91736 20.2293 4.77499 21 5.79709 21H13.2028C14.2249 21 15.0825 20.2293 15.1914 19.2131L16.4999 7ZM6.99993 11H8.49993V17H6.99993V11ZM10.4999 11H11.9999V17H10.4999V11Z"
              fill="currentColor"/>
      </g>
    </g>
  </g>
  <g class="navbar" transform="translate(-16, 212)">

    <g id='main' transform="translate(0, 0)">
      <path
        d="M4 22H8.3871C9.49167 22 10.3871 21.1046 10.3871 20V16.7379C10.3871 15.8471 11.1092 15.125 12 15.125C12.8908 15.125 13.6129 15.8471 13.6129 16.7379V20C13.6129 21.1046 14.5083 22 15.6129 22H20C21.1046 22 22 21.1046 22 20V11.0769C22 10.4747 21.7286 9.90449 21.2612 9.52471L13.2612 3.02471C12.5264 2.42768 11.4736 2.42768 10.7388 3.02471L2.73881 9.52471C2.27139 9.90449 2 10.4747 2 11.0769V20C2 21.1046 2.89543 22 4 22Z"
        fill="none"
        stroke="var(--color)" stroke-linecap="round"/>
    </g>
    <g id='board' transform="translate(72, 0)">
      <path
        d="M7.47253 2.18408C6.09181 2.18408 4.97253 3.30337 4.97253 4.68408V5.14233H3.55566C2.17495 5.14233 1.05566 6.26161 1.05566 7.64233V18.4751C1.05566 19.8329 2.15634 20.9335 3.5141 20.9335H20.4456C21.8263 20.9335 22.9456 19.8143 22.9456 18.4335V4.68408C22.9456 3.30337 21.8263 2.18408 20.4456 2.18408H7.47253ZM3.55566 6.14233H4.97253V18.4751C4.97253 19.2806 4.31957 19.9335 3.5141 19.9335C2.70863 19.9335 2.05566 19.2806 2.05566 18.4751V7.64233C2.05566 6.8139 2.72724 6.14233 3.55566 6.14233ZM20.4456 19.9335H5.4934C5.79453 19.5256 5.97253 19.0211 5.97253 18.4751V5.64233V4.68408C5.97253 3.85565 6.6441 3.18408 7.47253 3.18408H20.4456C21.274 3.18408 21.9456 3.85566 21.9456 4.68408V18.4335C21.9456 19.262 21.274 19.9335 20.4456 19.9335ZM8.58398 6.64229C8.58398 6.36614 8.80784 6.14229 9.08398 6.14229H12.3065C12.5826 6.14229 12.8065 6.36614 12.8065 6.64229V9.07965C12.8065 9.3558 12.5826 9.57965 12.3065 9.57965H9.08398C8.80784 9.57965 8.58398 9.3558 8.58398 9.07965V6.64229ZM9.08398 5.14229C8.25556 5.14229 7.58398 5.81386 7.58398 6.64229V9.07965C7.58398 9.90808 8.25556 10.5797 9.08398 10.5797H12.3065C13.1349 10.5797 13.8065 9.90808 13.8065 9.07965V6.64229C13.8065 5.81386 13.1349 5.14229 12.3065 5.14229H9.08398ZM8.08398 13.2775C7.80784 13.2775 7.58398 13.5013 7.58398 13.7775C7.58398 14.0536 7.80784 14.2775 8.08398 14.2775H19.8346C20.1107 14.2775 20.3346 14.0536 20.3346 13.7775C20.3346 13.5013 20.1107 13.2775 19.8346 13.2775H8.08398ZM8.08398 16.9753C7.80784 16.9753 7.58398 17.1991 7.58398 17.4753C7.58398 17.7514 7.80784 17.9753 8.08398 17.9753H19.8346C20.1107 17.9753 20.3346 17.7514 20.3346 17.4753C20.3346 17.1991 20.1107 16.9753 19.8346 16.9753H8.08398ZM15.418 10.0797C15.418 9.80352 15.6418 9.57966 15.918 9.57966L19.8348 9.57966C20.111 9.57966 20.3348 9.80352 20.3348 10.0797C20.3348 10.3558 20.111 10.5797 19.8348 10.5797H15.918C15.6418 10.5797 15.418 10.3558 15.418 10.0797ZM15.918 6.62146C15.6418 6.62146 15.418 6.84532 15.418 7.12146C15.418 7.3976 15.6418 7.62146 15.918 7.62146L19.8348 7.62146C20.111 7.62146 20.3348 7.3976 20.3348 7.12146C20.3348 6.84531 20.111 6.62146 19.8348 6.62146L15.918 6.62146Z"
        fill="var(--color)"/>
    </g>
    <g id='map' transform="translate(24, 0)">
      <g fill="var(--color)">
        <path
          d="M11.5 0.25V4.25H12.5V0.25H11.5ZM21 8.75H17V9.75H21V8.75ZM7 8.75H3V9.75H7V8.75ZM7.18923 7.79852L3.49372 6.26779L3.8764 5.34391L7.57192 6.87464L7.18923 7.79852ZM20.5063 6.26779L16.8108 7.79852L16.4281 6.87464L20.1236 5.34391L20.5063 6.26779ZM9.62446 4.82195L8.09372 1.12643L9.0176 0.743747L10.5483 4.43927L9.62446 4.82195ZM15.9058 1.12643L14.3751 4.82195L13.4512 4.43927L14.9819 0.743747L15.9058 1.12643ZM8.1111 6.06801L5.28268 3.23959L5.98978 2.53248L8.81821 5.36091L8.1111 6.06801ZM18.7178 3.23959L15.8894 6.06801L15.1823 5.36091L18.0107 2.53248L18.7178 3.23959Z"/>
        <path
          d="M13.2165 20.8464L12.5016 20.1472L13.2165 20.8464ZM18.0005 9.0588C18.0005 11.4129 17.1403 13.671 15.9972 15.6239C14.8569 17.5722 13.4698 19.1574 12.5016 20.1472L13.9313 21.5457C14.9679 20.486 16.4728 18.7707 17.7233 16.6342C18.9711 14.5024 20.0005 11.8913 20.0005 9.0588H18.0005ZM12.0005 3C15.3063 3 18.0005 5.70472 18.0005 9.0588H20.0005C20.0005 4.61595 16.4266 1 12.0005 1V3ZM6.00049 9.0588C6.00049 5.70472 8.69465 3 12.0005 3V1C7.57434 1 4.00049 4.61595 4.00049 9.0588H6.00049ZM11.4994 20.1472C10.5312 19.1574 9.14411 17.5722 8.00377 15.6239C6.86071 13.671 6.00049 11.4129 6.00049 9.0588H4.00049C4.00049 11.8913 5.02993 14.5024 6.27769 16.6342C7.52819 18.7707 9.03308 20.486 10.0696 21.5457L11.4994 20.1472ZM16.0005 9C16.0005 6.79086 14.2096 5 12.0005 5V7C13.1051 7 14.0005 7.89543 14.0005 9H16.0005ZM12.0005 13C14.2096 13 16.0005 11.2091 16.0005 9H14.0005C14.0005 10.1046 13.1051 11 12.0005 11V13ZM8.00049 9C8.00049 11.2091 9.79135 13 12.0005 13V11C10.8959 11 10.0005 10.1046 10.0005 9H8.00049ZM12.0005 5C9.79135 5 8.00049 6.79086 8.00049 9H10.0005C10.0005 7.89543 10.8959 7 12.0005 7V5ZM12.5016 20.1472C12.2144 20.4408 11.7866 20.4408 11.4994 20.1472L10.0696 21.5457C11.1413 22.6413 12.8597 22.6413 13.9313 21.5457L12.5016 20.1472Z"/>
        <circle cx="13" cy="8" r="1"/>
      </g>
    </g>
    <g id='timetable' transform="translate(48, 0)">
      <path d="M8 13L10.2523 14.5016C10.6776 14.785 11.2481 14.7023 11.5753 14.3097L16 9"
            stroke="var(--color)"
            stroke-linecap="round" stroke-width="2" fill="none"/>
    </g>
  </g>
</svg>
