<svg width="20" height="20" viewBox="0 0 20 20" fill="none" xmlns="http://www.w3.org/2000/svg">
<path d="M7.49498 4.72414H3.6C3.26863 4.72414 3 4.99277 3 5.32414V10.331C3 10.6624 3.26863 10.931 3.6 10.931H7.49498M7.49498 4.72414V2C7.49498 1.44772 7.9427 1 8.49498 1H10.2943C10.8466 1 11.2943 1.44772 11.2943 2V4.72414M7.49498 4.72414H11.2943M11.2943 4.72414H14.318C14.4398 4.72414 14.5587 4.7612 14.6589 4.83039L18.2849 7.33384C18.6303 7.57236 18.6303 8.08281 18.2849 8.32134L14.6589 10.8248C14.5587 10.894 14.4398 10.931 14.318 10.931H11.2943M7.49498 10.931V18C7.49498 18.5523 7.9427 19 8.49498 19H10.2943C10.8466 19 11.2943 18.5523 11.2943 18V10.931M7.49498 10.931H11.2943" stroke="#F7FCFF" stroke-width="1.6"/>
</svg>
