<svg width="20" height="20" viewBox="0 0 20 20" fill="none" xmlns="http://www.w3.org/2000/svg">
<path fill-rule="evenodd" clip-rule="evenodd" d="M14 10C14 12.2091 12.2091 14 10 14C7.79086 14 6 12.2091 6 10C6 7.79086 7.79086 6 10 6C12.2091 6 14 7.79086 14 10ZM12 10C12 11.1046 11.1046 12 10 12C8.89543 12 8 11.1046 8 10C8 8.89543 8.89543 8 10 8C11.1046 8 12 8.89543 12 10Z" fill="#F7FCFF"/>
<path fill-rule="evenodd" clip-rule="evenodd" d="M10.0004 3C4.77514 3 0.483828 9.2322 0.0179912 9.93768C0.00628979 9.95586 0 9.97765 0 10C0 10.0224 0.00628979 10.0441 0.0179912 10.0623C0.483828 10.7616 4.77514 17 10.0004 17C15.2256 17 19.5169 10.7616 19.9827 10.0623C19.994 10.0439 20 10.0222 20 10C20 9.97778 19.994 9.95607 19.9827 9.93768C19.5169 9.23718 15.2256 3 10.0004 3ZM15.4197 12.3238C16.3123 11.4998 17.0436 10.6472 17.5523 9.99975C17.0438 9.3524 16.3125 8.49976 15.4198 7.6758C13.7489 6.13355 11.8458 5 10.0004 5C8.15439 5 6.25113 6.13288 4.58064 7.67419C3.68714 8.4986 2.95546 9.35183 2.44761 9.99874C2.95634 10.6464 3.68794 11.4994 4.58099 12.3238C6.25196 13.8663 8.15503 15 10.0004 15C11.8457 15 13.7488 13.8663 15.4197 12.3238Z" fill="#F7FCFF"/>
</svg>
