<svg width="20" height="20" viewBox="0 0 20 20" fill="none" xmlns="http://www.w3.org/2000/svg">
  <path fill-rule="evenodd" clip-rule="evenodd"
        d="M12.4167 4.35832C12.3675 4.43637 12.3124 4.52646 12.2456 4.63558C11.5781 5.72627 10.7082 7.22424 10.0084 8.68651C9.65846 9.41783 9.35871 10.1244 9.14822 10.7562C8.93293 11.4023 8.83333 11.9053 8.83333 12.25C8.83333 13.5224 9.19163 14.5953 9.79177 15.3294C10.3736 16.0411 11.2322 16.5 12.4167 16.5C13.6011 16.5 14.4598 16.0411 15.0416 15.3294C15.6417 14.5953 16 13.5224 16 12.25C16 11.9053 15.9004 11.4023 15.6851 10.7562C15.4746 10.1244 15.1749 9.41783 14.8249 8.68651C14.1252 7.22424 13.2552 5.72627 12.5878 4.63558C12.521 4.52646 12.4658 4.43637 12.4167 4.35832ZM11.7014 2.32107C12.1495 2.12703 12.6838 2.12703 13.1319 2.32107C13.473 2.46875 13.6963 2.71049 13.8514 2.91388C13.9912 3.09712 14.1332 3.32934 14.2736 3.55872C14.2803 3.56969 14.287 3.58065 14.2937 3.5916C14.9771 4.70835 15.8868 6.27228 16.629 7.8232C17 8.59848 17.3368 9.38629 17.5826 10.1239C17.8236 10.8472 18 11.5885 18 12.25C18 13.8771 17.5432 15.4292 16.59 16.5953C15.6184 17.7837 14.1854 18.5 12.4167 18.5C10.6479 18.5 9.21489 17.7837 8.24334 16.5953C7.29011 15.4292 6.83333 13.8771 6.83333 12.25C6.83333 11.5885 7.00978 10.8472 7.25078 10.1239C7.49657 9.38629 7.83335 8.59848 8.20434 7.8232C8.94651 6.27228 9.85624 4.70835 10.5397 3.5916C10.5464 3.58066 10.5531 3.56972 10.5598 3.55877C10.7001 3.32936 10.8421 3.09713 10.9819 2.91388C11.137 2.71049 11.3604 2.46875 11.7014 2.32107ZM4.08333 4.37668C4.04836 4.43678 4.00951 4.50474 3.96422 4.58399C3.70468 5.03816 3.45155 5.52043 3.26615 5.95569C3.06583 6.42598 3 6.7168 3 6.83336C3 7.29503 3.13303 7.63561 3.30546 7.84185C3.46067 8.02749 3.69594 8.16669 4.08333 8.16669C4.47073 8.16669 4.70599 8.02749 4.8612 7.84185C5.03363 7.63561 5.16667 7.29503 5.16667 6.83336C5.16667 6.7168 5.10084 6.42598 4.90052 5.95569C4.71512 5.52043 4.46198 5.03816 4.20245 4.58399C4.15716 4.50474 4.1183 4.43678 4.08333 4.37668ZM3.34829 2.32937C3.79957 2.12748 4.3671 2.12748 4.81838 2.32937C5.15406 2.47953 5.37353 2.71493 5.53033 2.92857C5.66508 3.11217 5.79588 3.34121 5.91945 3.55761C5.92596 3.569 5.93245 3.58037 5.93892 3.59169C6.21768 4.0795 6.51254 4.63662 6.74055 5.17194C6.95365 5.67223 7.16667 6.28318 7.16667 6.83336C7.16667 7.66036 6.92921 8.48644 6.39557 9.12471C5.8447 9.78357 5.0383 10.1667 4.08333 10.1667C3.12837 10.1667 2.32197 9.78357 1.7711 9.12471C1.23745 8.48644 1 7.66036 1 6.83336C1 6.28318 1.21301 5.67223 1.42611 5.17194C1.65413 4.63662 1.94899 4.0795 2.22775 3.59169C2.23421 3.58037 2.2407 3.56901 2.24721 3.55761C2.37079 3.34121 2.50159 3.11217 2.63633 2.92857C2.79313 2.71493 3.01261 2.47953 3.34829 2.32937Z"
        fill="#F7FCFF"/>
</svg>
