<svg width="24" height="24" viewBox="0 0 24 24" fill="none" xmlns="http://www.w3.org/2000/svg">
<path fill-rule="evenodd" clip-rule="evenodd" d="M4.86969 6.95275H3.70179C2.76192 6.95275 2 7.82911 2 8.91015V19.3496C2 20.2611 2.6424 21 3.43485 21C4.22729 21 4.86969 20.2611 4.86969 19.3496V6.95275ZM5.56657 21H20.5195C21.4594 21 22.2213 20.1236 22.2213 19.0426V5.83972C22.2213 4.75868 21.4594 3.88232 20.5195 3.88232H7.70601C6.76614 3.88232 6.00422 4.75868 6.00422 5.83972V19.3496C6.00422 19.9608 5.8429 20.5287 5.56657 21ZM7.53906 7.60518C7.53906 6.52413 8.30098 5.64778 9.24086 5.64778H12.3108C13.2506 5.64778 14.0126 6.52413 14.0126 7.60518V9.60096C14.0126 10.682 13.2506 11.5584 12.3108 11.5584H9.24086C8.30098 11.5584 7.53906 10.682 7.53906 9.60096V7.60518ZM7.53906 14.7439C7.53906 14.3836 7.79304 14.0915 8.10633 14.0915H20.119C20.4323 14.0915 20.6863 14.3836 20.6863 14.7439C20.6863 15.1043 20.4323 15.3964 20.119 15.3964H8.10633C7.79304 15.3964 7.53906 15.1043 7.53906 14.7439ZM7.53906 18.582C7.53906 18.2216 7.79304 17.9295 8.10633 17.9295H20.119C20.4323 17.9295 20.6863 18.2216 20.6863 18.582C20.6863 18.9423 20.4323 19.2344 20.119 19.2344H8.10633C7.79304 19.2344 7.53906 18.9423 7.53906 18.582ZM16.1151 7.18305C15.8018 7.18305 15.5478 7.47517 15.5478 7.83551C15.5478 8.19586 15.8018 8.48798 16.1151 8.48798L20.1193 8.48798C20.4326 8.48798 20.6865 8.19586 20.6865 7.83551C20.6865 7.47517 20.4326 7.18305 20.1193 7.18305L16.1151 7.18305ZM16.1151 10.2534C15.8018 10.2534 15.5478 10.5455 15.5478 10.9059C15.5478 11.2662 15.8018 11.5584 16.1151 11.5584L20.1193 11.5584C20.4326 11.5584 20.6865 11.2662 20.6865 10.9059C20.6865 10.5455 20.4326 10.2534 20.1193 10.2534L16.1151 10.2534Z" fill="url(#paint0_radial_163_544)"/>
<defs>
<radialGradient id="paint0_radial_163_544" cx="0" cy="0" r="1" gradientUnits="userSpaceOnUse" gradientTransform="translate(12.1107 6.97427) rotate(90) scale(16.7849 16.7652)">
<stop stop-color="#9EC9C0"/>
<stop offset="0.896192" stop-color="#78A4BF"/>
</radialGradient>
</defs>
</svg>
