<svg xmlns="http://www.w3.org/2000/svg"
     width="181" height="34"
     fill="white"><path d="M71.16 31.3c-.6-.15-1.14-.44-1.55-.34-1.37.35-1.33.32-2.6-.15s-1.15-.22-1.53-.58c-.52-.49-.08-4.37-.2-4.48-.72-.64-1.96-.38-2.54.4-.72.95-1.78 2.78-2.56 3.7-.1.12-.3.18-.5.3-.26-.63-2.68-.37-3.03-1.12-.11-.23-.5-.34-.87-.58 1.15-2.3 2.3-3.93 3.02-5.5-.3-.34-.74-.68-.92-1.11-.43-1.03-.72-2.12-1.1-3.17-.17-.45.23-2.5.41-3.12s-1.65-2.4-2.25-2.71c-.4-.2-.73-.5-1.09-.76q-.31-.23-.7-.57c-.3-.4-1.1-.5-1.01-.73.26-.68.5-1.37.89-2a3.53 3.53 0 0 1 2.83-1.51c.57.03 1.27.24 1.67.6.88.8 1.66 1.75 2.6 2.78 1.56-.9 3.53-1.6 4.94-3.1.18-.12.49-.22.5-.36.12-1.13.1-2.28.28-3.4.16-.99.52-1.95.82-2.92.02-.09.24-.2.35-.18 1.26.21 2.63-.08 3.76.83.95.77.91 1.77 1.02 2.73.1.82-.09 1.66-.07 2.5 0 .25.22.6.46.74 1.04.59 2.17 1.04 3.16 1.68.98.63 1.82 1.44 2.73 2.18.16-.1.27-.14.35-.22 1.23-1.31 2.43-2.65 3.7-3.94.2-.2.76-.4.93-.3.51.3 1.47.43 1.32 1.19-.38 1.84-.42 3.78-1.54 5.43-.47.7-1.12 1.3-1.63 1.87.27.91 1.1 1.75 1.1 2.73 0 .7-1.07 1.67-.8 2.23.62 1.3 1.36 2.56 1.92 3.88.32.75.37 1.6.5 2.12-.69.77-1.15 1.31-1.64 1.83-.12.13-.32.2-.5.26-.18.07-.39.08-.57.16-.32.14-.8.52-.93.44a5 5 0 0 1-1.4-1.31c-.4-.6-.62-1.3-.9-1.97-.1-.25-.1-.53-.22-.78-.12-.3-.24-.64-.49-.8-.15-.1-.54.1-.82.18-.62.19-1.27.34-1.86.6q-1.39.56-2.69 1.3c-.18.1-.44 1.13-.44 1.4-.01 2.08.16 2.4-.32 3.64m-.28-20.61a5 5 0 0 0-3.58.9c-.88.64-1.82 1.24-2.55 2a39 39 0 0 0-3.14 3.7c-.37.5-.67 1.19-.63 1.76.07.77.49 1.52.77 2.28.36.93 1.11 1.5 2.07 1.87 2.19.84 4.48.67 6.73.46.87-.08 1.64-.79 2.52-1.02 1-.26 2.7-1.68 4.27-2.77.79-.54 1.62-1.7 1.14-2.49-.84-1.39-1.66-2.8-2.57-4.15a5.6 5.6 0 0 0-5.02-2.54"/><path d="M73.57 16.91c-.3 1.65-.97 3.13-2.68 4.02-.25.14-.58.19-.87.22-1.17.12-2.81-.88-3.23-1.9a1 1 0 0 0-.5-.54c-1.07-.44-1.04-1.31-.98-2.12.06-.8.33-1.54 1.32-1.9.53-.2.93-.7 1.45-.93.62-.27 1.32-.4 1.99-.56.16-.04.44-.05.52.04.59.65 1.59.77 2.11 1.55.44.67 1.22 1.16.87 2.12m39.71 7.75c.88-.32 2.29-.96 3.17-.8 1.43.26 1.44.87 1.77 2.16.12.47-.6 1.3-1.16 1.71a6 6 0 0 1-5.34 1.09 9 9 0 0 1-1.95-2.07c-.3-.44-.42-2.83-.36-3.5.12-1.67.04-3.37.26-5.01.39-2.22 1.15-5.95.45-6.27-1.26-.58-3.47 3.14-4.4 4.98a14 14 0 0 0-1.29 3.58 43 43 0 0 0-.88 7.6c0 .84-.39 1.03-1.3.92-1.64-.19-2.5-.47-3.38-1.55-.09-.12-.08-.33-.07-.49.18-1.81.36-5.96.54-7.77q.2-2.03.35-4.07c.03-.32.54-3.64-.48-3.53-1.27.15-3.56 3.57-3.95 4.46-.82 1.86-1.01 2.02-1.27 3.42-.25 2.33-.66 3.22-.68 5.14-.01 1.19.06 2.38.02 3.56-.03.54-.23 1.08-.4 1.6-.03.13-.24.27-.38.29-1.77.28-4.87-.49-5.12-2.12-.65-4.08-.13-8.12.62-12.14.15-.83.46-4.4.55-4.92.17-.94.4-1.73.59-2.66.21-1.11 2.05-.98 2.44-.76.49.26 1.07.91.96 1.64-.13.81.22 1.6.76 1.28.69-.4 2.35-2.25 3.58-2.8 1.4-.65 3.79-.45 4.65.35 1.03.96 1.82 1.94 1.66 3.27-.3 2.46.2 1.83 1.6.23s1.14-1.4 2.41-2.33c.43-.32 1.05-.58 1.53-.82 1.66-.81 3.65-.65 4.59.14 1.43 1.2 2.2 2.56 1.9 4.42-.5 3.16-1.73 6.33-2.12 9.5-.04.3.08 1.73.13 2.27m64.46 2.03c.24-1 .75-1.7 2.23-1.38.68.35 1.22.94.97 1.8q-.19.69-.3 1.38c-.3 1.63-1.99 2.49-3.64 2.06a8 8 0 0 1-2.54-1.15 2.6 2.6 0 0 1-1.05-1.32c-.13-.35-.27-1.14-.66-1.33-1 .87-2.74 2.65-3.8 3.4-2.19 1.02-7.03.8-11.05-1.9-.9-.91-2.07-1.65-2.8-2.65-1.22-1.65-.96-4.91-.45-6.54a9 9 0 0 1 1.65-3.12c2.34-3.3 4.44-4.6 7.91-5.27.71-.14 3-.37 3.72-.33 3.22.18 3.92 1.95 4.8 1.3.62-.44.38-2.18 1.06-2.57s2.7.18 2.74.91q.13 2.07.06 4.13c-.05 1.6-.25 3.2-.31 4.8-.05 1.07-.07 2.14.07 3.2.13.97.31 2.87.63 3.82.1.3.5.5.76.76m-6.94-4.4c.55-1.25 1.95-4.16-1.27-6.52a4 4 0 0 0-2.16-.88 7.2 7.2 0 0 0-6.88 4.1 3 3 0 0 0-.23 1.45c.2 1.72 1.04 2.84 2.44 4.02a4.85 4.85 0 0 0 6.16.04c1.43-1.14 1.34-1.37 1.94-2.21M37.62 26.88l1.83.58.12-.21c-.16-.2-.28-.41-.47-.57-.52-.44-.96-2.73-.34-3.74.8.17 1.45.25 2.06.45.75.24 5.36 2.6 6.24 1.14.64-1.05-1.98-2.09-2.89-2.38-1.02-.34-1.96-.92-2.93-1.4a33 33 0 0 1-4.46-3.89c-.48-.57-.85-1.22-1.34-1.79q-.92-1.04.45-1.33c.18-.03.74-.84.9-1.17.05-.1.13-1.77.42-2.41.55-1.24 1.07-1.76 2.85-2.72s4.82-.57 6.3.17c1.47.73 2.64 2.07 2.66 3.25 0 .2-.15.39-.25.58-.33.67-.61 1.38-1.03 2-.28.43-.7.9-1.17 1.07-.77.28-1.63.34-2.45.46-.16.02-.36-.08-.52-.16-.5-.25-1.58-2.26-1.5-2.88q-.75-.12-1.51-.2a1 1 0 0 0-.42.13c-.4.26-.58 2.05-.3 2.45 1.33 1.97 3.48 2.75 5.76 3.42 1.22.36 2.52.78 3.5 1.5 1.88 1.37 3.1 3.2 2.28 5.7-.94 2.91-2.8 4.83-6.32 5.39-2.25.36-5.82-1.31-7.17-2.62-.2-.2-.21-.56-.3-.82M2.03 33.1l.12-2.18-.54.1c-.73.07-.93-.18-.69-.8.28-.69.3-9.48.29-10.08q-.04-2.35-.14-4.7c-.01-.29.63-2.67-1.07-3.48.16-.43.23-.93.5-1.3.31-.42.76-.8 1.23-1.08a54 54 0 0 1 5.22-2.03c1.04-.35 2.11.48 2.1 1.4 0 .34-.3.8-.61 1-1.17.73-.87 1.8-.83 2.77.13 3 .43 5.99.5 8.98.07 2.44-.09 4.89-.15 7.33-.03 1.26-1 2.7-2.09 3.05-.3.1-.64.07-.96.1-.51.06-1.01-.07-1.37.53-.16.27-.9.25-1.51.4M2.4 6.32l-.09-.4-.11-.48-1.07.09c0-.26.09-.54-.03-.67-1.36-1.58.11-2.76.79-3.95C2.18.4 3.2.02 3.92 0c1.16-.03 2.1.6 2.1 1.78a23 23 0 0 1-.3 3.88c-.15.92-.98 1.25-1.99 1zm147.27 2.88c.72.99 1.75 2.7 1.86 4.59q-.08 3.24-.2 6.48c-.04 1.1 0 2.22-.13 3.32-.24 1.9-.58 3.78-.9 5.67-.04.27-.15.53-.28.96-1-.11-2.07-.04-2.95-.38-1.35-.52-2.27-1.46-2.18-3 .06-1.08-.13-2.16-.2-3.23q-.06-.45-.05-.91.02-1.4.09-2.77l.24-4.39-.3-.14-.55.36c-.09-.25-.3-.55-.25-.8q.33-1.5.8-2.97c.06-.16 3.14-2.08 4.28-2.9a.5.5 0 0 1 .72.1m-3.97-3.17-.5-1.07c-.27-.58-.6-1.13.15-1.67.22-.16.15-.6.34-.83.58-.69 1.34-1.06 2.33-.85q.05 0 .1.02c.42.2.95-.48 1.36.2.55.9.97 1.78.68 2.84-.1.34 0 .72-.11 1.05-.16.44-.53.83-.64 1.27-.2.81-.7.54-1.25.42-.44-.1-.93-.03-1.4-.05-1.07-.05-1.35-.35-1.06-1.33M35.54 26.1c-.35-.8-.7-1.77-2.81-1.45-.87.13-1.76 1.45-1.94.64 0-.26.11-1.52.13-1.76a20.4 20.4 0 0 0-1.61-9.91c-.82-1.97-2.26-3.63-4.79-4.07q-.2-.06-.38-.2c-.9-.68-1.9-.46-2.79-.09-1.01.43-1.92 1.06-2.9 1.62q-.1-.14-.2-.27c-.72-.71-1.33-1.58-2.2-2.1-1.21-.71-3.81.55-4.12 1.87a1 1 0 0 0-.03.25l.32 1.58c.3 1.52.7 3.03.9 4.56.3 2.35.5 4.7.7 7.06l.01.49q.18 1.16.29 2.32l.06.01q.06.63.15 1.25c.05.29.16.81.23.81.7 0 .39.45.41.71.05.48-.14.91.38 1.4.63.6 1.27.82 2.06.45.51-.24 1.2-.18 2.1-.28.68-.63 1.37-1.8 1.37-2.47 0-.82.04-1.63 0-2.44q-.2-3.08-.4-6.15c-.05-.77-.31-1.67.03-2.29.79-1.42 1.56-2.94 3.38-3.72q.22.06.41.16c.53.09 1.02.4 1.15.88.26 1.04.62 2.3.67 3.52.09.52.06 1.05.07 1.58q.05 3.16-.03 6.33 0 .3-.05.6.05.91.35 1.8c.3.21.55.5.8.77q.11.13.18.3.16.11.33.2c1.27.22 3.03.22 4.08.06 2.21-.34 2.67-.91 3.52-2.74.08-.17.24-1.12.17-1.28m106.54.78c-.2-.85-.4-1.85-2.53-1.83-.88 0-1.98 1.18-2.02.36.04-.26.36-1.5.43-1.73.92-3.33.83-6.7.08-10.01-.47-2.07-1.61-3.91-4.04-4.7-.13-.04-.24-.16-.34-.26-.78-.79-1.8-.72-2.74-.47-1.07.28-2.08.77-3.15 1.18q-.06-.15-.14-.29c-.6-.8-1.05-1.75-1.82-2.38-1.08-.88-3.86 0-4.4 1.26a1 1 0 0 0-.06.24l.05 1.6c.04 1.55.17 3.1.1 4.64-.09 2.36-.3 4.72-.5 7.07l-.06.48q-.02 1.18-.12 2.34l.07.02q-.06.63-.07 1.26c0 .29.02.82.1.83.7.1.3.5.28.76-.03.48-.3.88.13 1.44.52.68 1.12.98 1.96.73.55-.16 1.22 0 2.12.02.78-.52 1.67-1.57 1.78-2.25.13-.8.31-1.6.4-2.4.24-2.05.43-4.1.66-6.14.08-.77-.02-1.7.41-2.25 1.03-1.3 2.05-2.7 3.97-3.2q.22.09.38.21c.51.17.95.54.99 1.04.08 1.06.22 2.36.07 3.57 0 .53-.12 1.05-.2 1.57q-.49 3.13-1.1 6.25a4 4 0 0 1-.16.58q-.1.91.05 1.83.38.41.66.88.08.15.12.33.14.12.3.23a10 10 0 0 0 3.35.7c2.24.07 3.46-.58 4.6-2.27.11-.15.44-1.07.4-1.24"/></svg>
