<svg width="187" height="24" viewBox="0 0 187 24" fill="none" xmlns="http://www.w3.org/2000/svg">
  <path d="M104.903 8.67236L101.509 12.0664L104.903 15.4605L108.297 12.0664L104.903 8.67236Z"
    fill="#FDFCF7" />
  <path d="M122.769 8.67189L119.375 12.066L122.769 15.46L126.163 12.066L122.769 8.67189Z"
    fill="#FDFCF7" />
  <path d="M140.895 14.8093L137.501 18.2034L140.895 21.5975L144.289 18.2034L140.895 14.8093Z"
    fill="#FDFCF7" />
  <path d="M158.761 14.8088L155.367 18.2029L158.761 21.597L162.155 18.2029L158.761 14.8088Z"
    fill="#FDFCF7" />
  <path d="M24.5 2.4H19.7V21.6H24.5V2.4Z" fill="#FDFCF7" />
  <path d="M38.9 2.4H34.1V21.6H38.9V2.4Z" fill="#FDFCF7" />
  <path d="M29.3 2.4H24.5V7.2H29.3V2.4Z" fill="#FDFCF7" />
  <path d="M29.3 16.8H24.5V21.6H29.3V16.8Z" fill="#FDFCF7" />
  <path d="M43.7 2.4H38.9V7.2H43.7V2.4Z" fill="#FDFCF7" />
  <path d="M43.7 16.8H38.9V21.6H43.7V16.8Z" fill="#FDFCF7" />
  <path d="M55.7 2.4H50.9V21.6H55.7V2.4Z" fill="#FDFCF7" />
  <path d="M60.5 2.4H55.7V7.2H60.5V2.4Z" fill="#FDFCF7" />
  <path d="M60.5 16.8H55.7V21.6H60.5V16.8Z" fill="#FDFCF7" />
  <path d="M169.433 19.2H164.633V24H169.433V19.2Z" fill="#FDFCF7" />
  <path d="M181.7 9.6V14.4H176.9V9.6H177.3L179.3 11.6L181.3 9.6H181.7Z" fill="#FDFCF7" />
  <path d="M176.9 9.2L177.3 9.6H176.9V9.2Z" fill="#FDFCF7" />
  <path d="M181.7 0V7.69334L179.3 5.30667L176.9 7.70667V0H181.7Z" fill="#FDFCF7" />
  <path d="M181.3 9.6L181.7 9.2V9.6H181.3Z" fill="#FDFCF7" />
  <path d="M79.7 14.4H66.5V9.6H79.7L77.3 12L79.7 14.4Z" fill="#FDFCF7" />
  <path d="M95.4067 9.6V14.4H82.1L84.5 12L82.1 9.6H95.4067Z" fill="#FDFCF7" />
  <path d="M70.1667 6.01333V18H91.74V6.01333H70.1667ZM80.9 15.6L77.3 12L80.9 8.4L84.5 12L80.9 15.6Z"
    fill="#FDFCF7" />
  <path d="M73.7533 2.4V21.6H88.1533V2.4H73.7533ZM84.5 12L80.9 15.6L77.3 12L80.9 8.4L84.5 12Z"
    fill="#FDFCF7" />
  <path d="M83.3533 13.1467V24H78.5533V13.2533L80.9 15.6L83.3533 13.1467Z" fill="#FDFCF7" />
  <path d="M83.3533 0V10.8533L80.9 8.4L78.5533 10.7467V0H83.3533Z" fill="#FDFCF7" />
  <path d="M104.9 2.4H100.1V21.6H104.9V2.4Z" fill="#FDFCF7" />
  <path d="M113.167 2.4H108.367V21.6H113.167V2.4Z" fill="#FDFCF7" />
  <path d="M122.767 2.4H117.967V21.6H122.767V2.4Z" fill="#FDFCF7" />
  <path d="M131.033 2.4H126.233V21.6H131.033V2.4Z" fill="#FDFCF7" />
  <path d="M140.9 2.4H136.1V21.6H140.9V2.4Z" fill="#FDFCF7" />
  <path d="M176.9 7.70667L176.153 8.45334L176.9 9.2V21.6H172.1V2.4H176.9V7.70667Z" fill="#FDFCF7" />
  <path d="M186.5 2.4V21.6H181.7V9.2L182.447 8.45334L181.7 7.69334V2.4H186.5Z" fill="#FDFCF7" />
  <path d="M149.167 2.4H144.367V21.6H149.167V2.4Z" fill="#FDFCF7" />
  <path d="M158.767 2.4H153.967V21.6H158.767V2.4Z" fill="#FDFCF7" />
  <path d="M167.033 2.4H162.233V21.6H167.033V2.4Z" fill="#FDFCF7" />
  <path d="M5.3 2.4V13.6533L4.55333 14.4L5.3 15.1467V21.6H0.5V2.4H5.3Z" fill="#FDFCF7" />
  <path d="M14.9 7.2V21.6H5.3V15.1467L7.7 17.5467L10.86 14.4L7.7 11.2533L5.3 13.6533V7.2H14.9Z"
    fill="#FDFCF7" />
  <path d="M14.9 0H5.3V4.8H14.9V0Z" fill="#FDFCF7" />
  <path d="M43.6982 2.40335L40.1533 5.94828L43.6982 9.49321L47.2431 5.94828L43.6982 2.40335Z"
    fill="#FDFCF7" />
  <path d="M43.7265 14.4252L40.125 18.0267L43.7265 21.6282L47.328 18.0267L43.7265 14.4252Z"
    fill="#FDFCF7" />
  <path d="M60.4994 2.39968L56.8979 6.00117L60.4994 9.60267L64.1009 6.00118L60.4994 2.39968Z"
    fill="#FDFCF7" />
  <path d="M60.4993 14.3996L56.8978 18.0011L60.4993 21.6026L64.1008 18.0011L60.4993 14.3996Z"
    fill="#FDFCF7" />
  <path d="M24.4996 8.39942L20.8981 12.0009L24.4996 15.6024L28.1011 12.0009L24.4996 8.39942Z"
    fill="#FDFCF7" />
</svg>