<svg width="187" height="32" viewBox="0 0 187 32" fill="none" xmlns="http://www.w3.org/2000/svg">
  <path
    d="M19.634 2.75404C21.5614 1.85573 23.1487 1.444 24.3959 1.51886C24.8872 1.51886 24.9628 1.66858 24.6226 1.96802C24.2069 2.30489 22.5818 2.99734 19.7474 4.04537C16.913 5.05598 14.6265 5.78586 12.8881 6.23502C11.6409 6.57188 10.8095 6.92747 10.3938 7.30177C9.97804 7.67606 9.50563 8.48081 8.97654 9.71599C8.25848 11.3255 7.71049 12.6917 7.33257 13.8146C7.1436 14.4883 7.10581 14.8813 7.21919 14.9936C7.33257 15.0684 7.74828 15.0123 8.46634 14.8252C9.14661 14.6754 9.6946 14.6942 10.1103 14.8813C10.5638 15.0684 11.1307 15.4989 11.811 16.1726C12.529 16.8838 13.0014 17.5388 13.2282 18.1377C13.4927 18.6991 13.625 19.4852 13.625 20.4958C13.625 22.4795 13.3983 23.8832 12.9448 24.7066C12.529 25.5675 11.5842 26.5033 10.1103 27.5139C8.86316 28.3373 7.89945 28.8239 7.21919 28.9736C6.57671 29.1233 5.44294 29.1233 3.81786 28.9736C1.51252 28.7865 0.246473 28.5806 0.0197178 28.356C-0.131452 28.2063 0.586605 26.4845 2.17389 23.1907C3.79897 19.8595 4.98943 17.0522 5.74528 14.769C6.6523 12.1489 7.46484 10.0716 8.1829 8.53695C8.78758 7.22691 9.31667 6.40345 9.77018 6.06658C10.2237 5.72971 11.3575 5.3367 13.1715 4.88754C15.6658 4.25124 17.82 3.54007 19.634 2.75404ZM11.811 17.8008C11.622 17.2019 11.3575 16.8089 11.0173 16.6218C10.6772 16.3972 10.167 16.2849 9.48674 16.2849C8.42855 16.2849 7.40815 16.8276 6.42555 17.9131C5.44294 18.9611 4.57371 20.4958 3.81786 22.517C3.17539 24.2762 2.6463 25.4178 2.23058 25.9418C1.77707 26.4284 1.64479 26.8027 1.83376 27.0647C2.02272 27.3267 2.57071 27.5513 3.47773 27.7384C5.6697 28.225 7.71049 27.832 9.60011 26.5594C11.4897 25.2868 12.4346 23.6399 12.4346 21.6187C12.4346 19.9718 12.2267 18.6991 11.811 17.8008Z"
    fill="#EAF6F2" />
  <path
    d="M31.4944 3.25935C31.9479 2.73533 33.2139 2.62304 35.2925 2.92248C37.1443 3.18449 38.5994 3.31549 39.6576 3.31549C40.7157 3.31549 41.8684 3.18449 43.1156 2.92248C43.8336 2.77276 44.306 2.73533 44.5328 2.81019C44.7973 2.84762 44.9296 3.03477 44.9296 3.37164C44.9296 3.97051 43.9281 4.38224 41.9251 4.60682C39.9221 4.79397 38.0892 4.68168 36.4263 4.26995C34.7256 3.82079 33.5352 3.70851 32.8549 3.93308C32.4014 4.12023 31.9857 4.98112 31.6077 6.51574C31.2676 8.01293 31.2487 8.91125 31.5511 9.21069C31.929 9.58498 33.1761 9.79085 35.2925 9.82828C37.4467 9.86571 39.2418 9.71599 40.6779 9.37912C42.6432 8.92996 44.1738 8.87382 45.2697 9.21069C46.4791 9.58498 47.046 9.94057 46.9704 10.2774C46.857 10.6517 45.95 10.8202 44.2493 10.7827C41.6039 10.7827 38.8639 10.8389 36.0295 10.9512L30.7574 11.0635V14.0953C30.7574 16.1165 30.285 18.1377 29.3402 20.1589C28.3954 22.1053 27.923 23.3217 27.923 23.8083C27.923 24.1452 28.8867 24.3698 30.8141 24.482C32.7415 24.6318 34.7445 24.613 36.8231 24.4259C38.9017 24.2762 40.0922 24.0329 40.3945 23.696C40.6213 23.3966 40.9614 23.172 41.4149 23.0223C41.8684 22.8726 42.2841 22.8164 42.6621 22.8538C43.04 22.8913 43.2289 23.041 43.2289 23.303C43.2289 23.6399 42.4164 24.2013 40.7913 24.9873C39.6953 25.5114 38.6938 25.8108 37.7868 25.8857C36.9176 25.998 35.1413 25.9605 32.4581 25.7734C32.4203 25.7734 32.4014 25.7734 32.4014 25.7734C29.4536 25.5862 27.734 25.4178 27.2427 25.2681C26.7892 25.1184 26.6002 24.6879 26.6758 23.9767C26.7136 23.1907 27.2238 21.731 28.2064 19.5975C29.1512 17.5014 29.6236 15.5176 29.6236 13.6461C29.6236 11.8121 29.8315 9.75342 30.2472 7.4702C30.6629 5.14955 31.0787 3.74594 31.4944 3.25935Z"
    fill="#EAF6F2" />
  <path
    d="M56.1026 6.12273C57.8788 5.3367 58.767 5.26184 58.767 5.89815C58.767 6.01044 58.578 6.17887 58.2001 6.40345C57.8599 6.5906 57.4631 6.75903 57.0096 6.90875C56.027 7.24562 54.9499 7.93807 53.7784 8.98611C52.6446 10.0341 51.7943 11.1383 51.2274 12.2986C50.5093 13.6461 50.0936 15.0497 49.9802 16.5095C49.8668 17.9693 50.0369 19.2419 50.4904 20.3273C50.9439 21.4128 51.5675 22.3673 52.3611 23.1907C53.1926 24.0142 54.1563 24.4633 55.2523 24.5382C56.386 24.6505 57.5765 24.4259 58.8237 23.8645C59.7307 23.4153 60.2787 23.3404 60.4676 23.6399C60.6188 23.827 60.4298 24.0703 59.9007 24.3698C59.3717 24.6692 58.6914 24.9312 57.86 25.1558C57.0663 25.3804 56.3671 25.4926 55.7625 25.4926C54.8176 25.4926 53.7973 25.1932 52.7013 24.5943C51.6431 23.9955 50.8872 23.303 50.4337 22.517C49.9802 21.8058 49.5456 20.7204 49.1299 19.2606C48.8653 18.2874 48.752 17.5014 48.7897 16.9025C48.8275 16.3036 49.0165 15.424 49.3566 14.2637C49.7724 12.7665 50.6794 11.1758 52.0777 9.49141C53.476 7.80707 54.8177 6.68417 56.1026 6.12273Z"
    fill="#EAF6F2" />
  <path
    d="M69.637 6.12273C71.4133 5.3367 72.3014 5.26184 72.3014 5.89815C72.3014 6.01044 72.1124 6.17887 71.7345 6.40345C71.3944 6.5906 70.9976 6.75903 70.544 6.90875C69.5614 7.24562 68.4844 7.93807 67.3128 8.98611C66.179 10.0341 65.3287 11.1383 64.7618 12.2986C64.0437 13.6461 63.628 15.0497 63.5146 16.5095C63.4013 17.9693 63.5713 19.2419 64.0248 20.3273C64.4784 21.4128 65.1019 22.3673 65.8956 23.1907C66.727 24.0142 67.6907 24.4633 68.7867 24.5382C69.9205 24.6505 71.1109 24.4259 72.3581 23.8645C73.2651 23.4153 73.8131 23.3404 74.0021 23.6399C74.1532 23.827 73.9643 24.0703 73.4352 24.3698C72.9061 24.6692 72.2258 24.9312 71.3944 25.1558C70.6007 25.3804 69.9016 25.4926 69.2969 25.4926C68.3521 25.4926 67.3317 25.1932 66.2357 24.5943C65.1775 23.9955 64.4217 23.303 63.9682 22.517C63.5146 21.8058 63.08 20.7204 62.6643 19.2606C62.3998 18.2874 62.2864 17.5014 62.3242 16.9025C62.362 16.3036 62.5509 15.424 62.8911 14.2637C63.3068 12.7665 64.2138 11.1758 65.6121 9.49141C67.0104 7.80707 68.3521 6.68417 69.637 6.12273Z"
    fill="#EAF6F2" />
  <path
    d="M96.3742 5.78586C96.3742 2.5669 96.5631 0.957414 96.9411 0.957414C97.319 0.957414 97.508 2.8289 97.508 6.57189C97.508 7.8445 97.508 8.78024 97.508 9.37912C97.5458 9.94057 97.6402 10.5394 97.7914 11.1758C97.9426 11.8121 98.0938 12.2238 98.2449 12.4109C98.3961 12.5981 98.7173 12.8039 99.2086 13.0285C99.7377 13.2531 100.229 13.4028 100.683 13.4777C101.174 13.5151 101.949 13.59 103.007 13.7023C103.385 13.7397 103.914 13.7958 104.594 13.8707C105.312 13.9456 105.841 14.0017 106.181 14.0391C106.144 13.328 106.068 12.2799 105.955 10.895C105.879 9.51012 105.822 8.4808 105.785 7.80707C105.482 3.61493 105.52 1.51886 105.898 1.51886C106.427 1.51886 106.824 4.53196 107.088 10.5582C107.391 16.5469 107.315 20.5893 106.862 22.6854C105.955 26.915 105.255 29.0298 104.764 29.0298C104.424 29.0298 104.348 28.5993 104.537 27.7384C104.915 26.5033 105.255 24.8376 105.558 22.7416C105.86 20.6829 106.011 19.0173 106.011 17.7447V15.162C105.709 15.1246 105.218 15.0684 104.537 14.9936C103.895 14.9187 103.404 14.8626 103.063 14.8252C100.947 14.6006 99.6243 14.376 99.0953 14.1514C98.6417 13.9643 98.3583 14.1514 98.2449 14.7129C98.1315 15.3117 98.0749 17.2394 98.0749 20.4958C98.0749 24.9125 97.9615 27.4577 97.7347 28.1315C97.2812 29.3666 96.9789 29.0859 96.8277 27.2893C96.7521 26.129 96.7332 24.2388 96.771 21.6187C96.9222 18.9237 96.9222 16.8838 96.771 15.4989C96.6198 14.0766 96.412 13.1595 96.1474 12.7478C95.8829 12.3361 95.3727 11.9618 94.6168 11.6249C94.2011 11.4752 93.9366 11.3068 93.8232 11.1196C93.7098 10.895 93.7287 10.7079 93.8799 10.5582C94.0311 10.4084 94.2389 10.3523 94.5035 10.3897C94.6924 10.4272 95.1081 10.6892 95.7506 11.1758C96.4309 11.6249 96.8655 11.8682 97.0545 11.9056C97.0545 11.3816 96.9411 10.371 96.7143 8.87382C96.4876 7.3392 96.3742 6.30988 96.3742 5.78586Z"
    fill="#EAF6F2" />
  <path
    d="M111.68 5.78586C111.68 2.5669 111.869 0.957414 112.247 0.957414C112.625 0.957414 112.814 2.8289 112.814 6.57189C112.814 7.8445 112.814 8.78024 112.814 9.37912C112.852 9.94057 112.946 10.5394 113.097 11.1758C113.249 11.8121 113.4 12.2238 113.551 12.4109C113.702 12.5981 114.023 12.8039 114.515 13.0285C115.044 13.2531 115.535 13.4028 115.989 13.4777C116.48 13.5151 117.255 13.59 118.313 13.7023C118.691 13.7397 119.22 13.7958 119.9 13.8707C120.618 13.9456 121.147 14.0017 121.487 14.0391C121.45 13.328 121.374 12.2799 121.261 10.895C121.185 9.51012 121.128 8.4808 121.09 7.80707C120.788 3.61493 120.826 1.51886 121.204 1.51886C121.733 1.51886 122.13 4.53196 122.394 10.5582C122.697 16.5469 122.621 20.5893 122.168 22.6854C121.261 26.915 120.561 29.0298 120.07 29.0298C119.73 29.0298 119.654 28.5993 119.843 27.7384C120.221 26.5033 120.561 24.8376 120.864 22.7416C121.166 20.6829 121.317 19.0173 121.317 17.7447V15.162C121.015 15.1246 120.524 15.0684 119.843 14.9936C119.201 14.9187 118.71 14.8626 118.369 14.8252C116.253 14.6006 114.93 14.376 114.401 14.1514C113.948 13.9643 113.664 14.1514 113.551 14.7129C113.437 15.3117 113.381 17.2394 113.381 20.4958C113.381 24.9125 113.267 27.4577 113.041 28.1315C112.587 29.3666 112.285 29.0859 112.134 27.2893C112.058 26.129 112.039 24.2388 112.077 21.6187C112.228 18.9237 112.228 16.8838 112.077 15.4989C111.926 14.0766 111.718 13.1595 111.453 12.7478C111.189 12.3361 110.679 11.9618 109.923 11.6249C109.507 11.4752 109.243 11.3068 109.129 11.1196C109.016 10.895 109.035 10.7079 109.186 10.5582C109.337 10.4084 109.545 10.3523 109.809 10.3897C109.998 10.4272 110.414 10.6892 111.057 11.1758C111.737 11.6249 112.171 11.8682 112.36 11.9056C112.36 11.3816 112.247 10.371 112.02 8.87382C111.794 7.3392 111.68 6.30988 111.68 5.78586Z"
    fill="#EAF6F2" />
  <path
    d="M126.192 0.957414C126.306 0.283679 126.533 -0.0344744 126.873 0.00295491C127.175 0.0403842 127.307 0.339823 127.27 0.90127C126.778 4.60682 126.344 6.94618 125.966 7.91936C125.701 8.59309 125.588 11.7559 125.626 17.4078C125.701 22.5731 125.852 25.1932 126.079 25.2681C126.117 25.2681 126.211 25.1932 126.363 25.0435C127.27 23.8083 128.592 21.1134 130.331 16.9587C131.351 14.4134 132.013 12.9162 132.315 12.4671C132.542 12.1302 132.806 11.6062 133.108 10.895C133.449 10.109 133.978 8.98611 134.696 7.52634C135.489 5.87943 135.886 4.79397 135.886 4.26995C135.886 3.89565 135.943 3.65236 136.056 3.54007C136.17 3.39035 136.321 3.39035 136.51 3.54007C136.699 3.68979 136.869 3.93308 137.02 4.26995C137.285 5.05598 137.474 7.11462 137.587 10.4459C137.7 13.7771 137.662 16.0229 137.474 17.1832C137.285 18.0816 137.039 19.8407 136.737 22.4608C136.472 25.0809 136.321 26.8214 136.283 27.6823C136.283 27.7946 136.207 27.9069 136.056 28.0192C135.943 28.1314 135.811 28.1876 135.659 28.1876C135.357 28.1876 135.168 28.0004 135.093 27.6261C135.017 26.915 135.489 22.6854 136.51 14.9374C136.661 13.852 136.642 12.2986 136.453 10.2774L136.17 7.30177L134.639 10.3897C133.505 12.5981 132.636 14.4696 132.031 16.0042C130.86 18.8489 129.537 21.6748 128.063 24.482C126.589 27.2893 125.644 28.749 125.229 28.8613C124.926 28.9362 124.756 28.5432 124.719 27.6823C124.719 27.0834 124.662 25.2119 124.548 22.0678C124.284 14.4696 124.397 9.69727 124.889 7.75092C125.342 5.87943 125.607 4.56939 125.682 3.8208C125.985 2.09902 126.155 1.14456 126.192 0.957414Z"
    fill="#EAF6F2" />
  <path
    d="M139.52 15.7235C139.368 9.80956 139.539 6.85261 140.03 6.85261C140.446 6.85261 140.653 9.65984 140.653 15.2743V23.696L147.74 23.5276L154.712 23.303V17.1832C154.712 12.9162 154.769 10.3523 154.882 9.49141C154.958 8.59309 155.09 8.16265 155.279 8.20008C155.695 8.27494 155.922 9.39783 155.959 11.5688C155.997 11.7933 156.016 12.0179 156.016 12.2425C156.016 14.9374 156.073 17.3891 156.186 19.5975L156.299 23.6399H160.835C162.082 23.6399 163.178 23.696 164.123 23.8083C165.105 23.958 165.653 24.1265 165.767 24.3136C165.955 24.613 165.37 25.4552 164.009 26.8401C162.649 28.2625 160.986 29.7409 159.021 31.2756C157.736 32.0242 157.055 32.1926 156.98 31.7809C156.98 31.4814 157.225 31.0697 157.717 30.5457C158.246 30.0591 158.869 29.5912 159.587 29.1421C160.872 28.2812 161.779 27.4951 162.309 26.784C162.875 26.0728 162.97 25.5301 162.592 25.1558C162.365 24.8189 158.473 24.6505 150.914 24.6505L139.69 24.5943L139.52 15.7235Z"
    fill="#EAF6F2" />
  <path
    d="M176.853 2.41718C177.344 1.51886 177.816 1.36914 178.27 1.96802C178.572 2.34232 178.742 2.92248 178.78 3.70851C178.856 5.2057 179.29 8.03165 180.084 12.1864C180.915 16.3411 181.445 18.5494 181.671 18.8114C182.011 19.1483 182.805 19.0173 184.052 18.4184C185.98 17.5201 186.962 17.4078 187 18.0816C187 18.2313 186.754 18.4746 186.263 18.8114C185.772 19.1109 185.186 19.4103 184.506 19.7097C183.296 20.2338 182.597 20.6268 182.408 20.8888C182.219 21.1134 182.219 21.6374 182.408 22.4608C182.711 23.8083 182.937 24.8189 183.088 25.4926C183.24 26.2038 183.334 26.7653 183.372 27.177C183.41 27.6261 183.391 27.9069 183.315 28.0192C183.24 28.1314 183.126 28.1876 182.975 28.1876C182.786 28.1876 182.559 27.8694 182.295 27.2331C182.03 26.6343 181.804 25.8857 181.615 24.9873L180.934 21.7871H173.168L172.488 24.8189C171.883 27.3267 171.392 28.5806 171.014 28.5806C170.825 28.5806 170.655 28.3935 170.504 28.0192C170.315 27.3829 170.504 26.3535 171.07 24.9312C171.637 23.5089 171.826 22.648 171.637 22.3485C171.486 22.0491 170.768 21.7871 169.483 21.5625C168.236 21.3005 167.612 20.8888 167.612 20.3273C167.612 19.8033 167.896 19.6536 168.463 19.8782C170.05 20.4771 171.014 20.6829 171.354 20.4958C171.694 20.2712 171.959 19.2606 172.148 17.464C172.412 15.1807 172.828 13.4215 173.395 12.1864C173.962 10.8389 174.585 9.06097 175.265 6.85261C175.983 4.4571 176.513 2.97862 176.853 2.41718ZM179.007 12.8601C178.024 8.14394 177.439 5.78586 177.25 5.78586C177.098 5.78586 176.72 6.62803 176.116 8.31237C175.738 9.47269 175.19 11.026 174.472 12.9724C173.905 14.507 173.565 16.1539 173.451 17.9131L173.168 20.6642L176.739 20.3273C179.12 20.1402 180.33 20.0279 180.367 19.9905C180.367 19.8407 179.914 17.464 179.007 12.8601Z"
    fill="#EAF6F2" />
  <path
    d="M76.8995 20.839C76.9139 20.7775 76.8842 20.7204 76.8111 20.6588C76.6957 20.5607 76.5911 20.4439 76.6524 20.2592C76.6686 20.2111 76.5793 20.1352 76.5857 20.0773C76.6172 19.8052 76.3809 19.6955 76.2556 19.5207C76.233 19.4895 76.1627 19.4921 76.105 19.477C76.0869 19.4065 76.068 19.3307 76.049 19.2558C76.0292 19.1755 75.9787 19.0881 76.0987 19.0381C76.1041 19.0355 76.1113 19.0265 76.1113 19.0212C76.1032 18.9463 76.086 18.8713 76.0878 18.7973C76.0896 18.7197 76.2078 18.676 76.1483 18.5698C76.1113 18.5047 76.1194 18.4155 76.0887 18.3451C76.0427 18.2398 75.976 18.2238 75.8272 18.2719C75.6342 17.3024 75.6044 16.3319 75.7081 15.3409C75.7614 15.3463 75.7947 15.3499 75.8317 15.3534C75.9652 15.2303 75.9381 15.0537 75.9751 14.8718C75.9228 14.8923 75.884 14.9083 75.8326 14.9289C75.7704 14.8941 75.7469 14.8307 75.7532 14.7442C75.7758 14.4178 75.7965 14.0922 75.8083 13.7648C75.8137 13.6186 75.8019 13.4705 75.7848 13.3251C75.7487 13.0325 75.6937 12.7418 75.6639 12.4483C75.5882 11.7017 75.5575 10.956 75.8101 10.2291C75.8461 10.1247 75.8885 10.0382 76.0139 10.0052C76.086 9.98648 76.1419 9.91334 76.2132 9.88301C76.2826 9.85358 76.344 9.78757 76.445 9.87052C76.5018 9.91691 76.6298 9.87855 76.6921 9.87855C76.7489 9.76884 76.785 9.69124 76.8283 9.6181C76.8797 9.53158 76.913 9.45754 76.886 9.34159C76.8643 9.24882 76.9139 9.12484 76.9662 9.03297C77.0519 8.88044 77.1277 8.73059 77.1908 8.56469C77.2693 8.35864 77.2999 8.12495 77.4424 7.94566C77.6021 7.74497 77.7689 7.54963 77.9421 7.35964C77.9817 7.31594 78.0584 7.30434 78.1405 7.26777C78.1973 7.16609 78.2523 7.01624 78.3515 6.90563C78.43 6.81911 78.5697 6.79057 78.6708 6.71921C79.0153 6.47749 79.4049 6.33389 79.7981 6.19741C79.9288 6.15192 80.0551 6.09662 80.1841 6.04667C80.1976 6.04132 80.212 6.03329 80.2256 6.03508C80.5737 6.077 80.7874 5.79692 81.0733 5.69167C81.1851 5.65064 81.3087 5.61496 81.4259 5.61764C81.6649 5.6221 81.8976 5.60783 82.1312 5.54896C82.3007 5.50614 82.4721 5.53201 82.6398 5.59445C82.9104 5.69613 83.1737 5.80763 83.374 6.02527C83.3884 6.04043 83.4064 6.06094 83.4254 6.06273C83.7275 6.09751 83.8321 6.3767 84.0287 6.54082C84.1351 6.63002 84.2163 6.75935 84.3931 6.71654C84.4264 6.70851 84.5058 6.76292 84.5157 6.80127C84.5824 7.04121 84.7727 7.14736 84.973 7.25082C85.0262 7.27847 85.0722 7.32129 85.1163 7.36321C85.2101 7.45152 85.3102 7.51752 85.4464 7.52733C85.6043 7.53893 85.7035 7.60583 85.7801 7.76816C85.8712 7.96172 85.9857 8.1642 86.2085 8.2632C86.2644 8.28818 86.3086 8.33902 86.3591 8.37559C86.4222 8.42197 86.5097 8.5192 86.5467 8.50314C86.6603 8.45408 86.6143 8.6628 86.7153 8.58788C86.7722 8.66548 86.8813 8.70294 86.8822 8.82336C86.8831 8.94734 86.9489 9.03208 87.0544 9.09987C87.1663 9.17211 87.242 9.26577 87.2934 9.40492C87.3692 9.61007 87.5396 9.76081 87.7471 9.85804C87.7877 9.87766 87.8291 9.89907 87.8634 9.9285C87.9834 10.0302 88.1042 10.1274 88.2729 10.131C88.317 10.2862 88.3477 10.3129 88.4794 10.2871C88.5894 10.2657 88.6643 10.2782 88.7039 10.4021C88.7265 10.4717 88.7896 10.5279 88.8374 10.5886C88.9411 10.7188 89.0629 10.783 89.2351 10.6706C89.2658 10.7482 89.2902 10.8098 89.3235 10.8963C89.384 10.7946 89.4588 10.7982 89.5346 10.8499C89.6581 10.9355 89.7871 11.0149 89.898 11.1148C89.9693 11.179 90.0153 11.2718 90.0667 11.3556C90.1063 11.4208 90.1361 11.4921 90.1713 11.5644C90.2362 11.5331 90.2894 11.5073 90.3544 11.4761C90.3913 11.5224 90.4563 11.567 90.4599 11.6161C90.4644 11.6794 90.4842 11.699 90.5356 11.7213C90.7115 11.7954 90.7133 11.8007 90.688 12.0103C90.9126 12.0871 91.0813 12.2512 91.2589 12.401C91.2752 12.4144 91.2887 12.4331 91.2968 12.4519C91.4222 12.7703 91.6819 13.0102 91.819 13.3197C91.9137 13.5329 91.9985 13.7559 92.0462 13.9834C92.1355 14.4062 92.2023 14.8343 92.2627 15.2624C92.3177 15.6513 92.2708 16.0411 92.2176 16.4274C92.2104 16.4773 92.1473 16.5433 92.1626 16.5683C92.2194 16.6575 92.1247 16.6477 92.1103 16.6816C92.076 16.7627 92.0183 16.8385 92.0706 16.9536C92.1391 17.1035 92.15 17.2667 92.0544 17.4326C91.9984 17.5298 92.0129 17.6654 91.9912 17.7831C91.966 17.9214 91.947 18.0614 91.9056 18.1943C91.8839 18.2648 91.8325 18.3406 91.7721 18.3808C91.6837 18.4396 91.6395 18.5003 91.6503 18.6073C91.653 18.6376 91.6161 18.6733 91.5917 18.7036C91.4808 18.8437 91.4149 18.9971 91.4799 19.1737C91.5529 19.369 91.4185 19.5055 91.3437 19.6518C91.2634 19.8088 91.1056 19.8998 90.9523 19.9783C90.8783 20.0157 90.8531 20.063 90.8278 20.1352C90.7927 20.2343 90.7367 20.3261 90.6844 20.418C90.643 20.4911 90.5825 20.5545 90.551 20.6312C90.4977 20.7587 90.4328 20.864 90.3066 20.9389C90.238 20.979 90.1641 21.0486 90.2029 21.1664C90.2191 21.2145 90.1875 21.293 90.1523 21.3403C90.0126 21.5303 89.8637 21.7131 89.7167 21.8969C89.6951 21.9245 89.6644 21.9575 89.6338 21.9629C89.5201 21.9807 89.4958 22.0664 89.5075 22.1466C89.5246 22.267 89.4606 22.3384 89.3957 22.4196C89.3046 22.5328 89.2207 22.6524 89.126 22.7781C89.1558 22.7906 89.1955 22.8085 89.2577 22.8361C89.0981 23.0207 88.9547 23.1965 88.7373 23.3017C88.4253 23.4525 88.1024 23.5613 87.7561 23.6112C87.6082 23.6326 87.4675 23.696 87.3223 23.7352C86.8344 23.8672 86.3357 23.8958 85.8333 23.8949C85.6205 23.8949 85.4077 23.9252 85.1939 23.9314C84.9811 23.9377 84.7691 23.9297 84.5563 23.9279C84.5356 23.9279 84.5112 23.9172 84.4932 23.9243C84.3056 24.0019 84.1153 23.9377 83.9259 23.9377C83.8898 23.9377 83.8501 23.9413 83.8195 23.927C83.5462 23.8012 83.2477 23.8271 82.9609 23.7843C82.9393 23.7807 82.9158 23.7807 82.8978 23.7709C82.5578 23.5987 82.1745 23.6005 81.8137 23.5095C81.655 23.4694 81.4891 23.4542 81.333 23.4052C81.0814 23.3258 80.828 23.2428 80.589 23.1331C80.3112 23.0065 80.0398 22.87 79.7557 22.7549C79.5401 22.6684 79.3336 22.5551 79.1596 22.3901C79.082 22.317 78.9639 22.2884 78.8701 22.2296C78.7799 22.1734 78.669 22.1225 78.6166 22.0396C78.5373 21.9111 78.4146 21.9076 78.3037 21.8951C78.0638 21.8692 78.0331 21.8514 78.0268 21.6114C77.9457 21.5767 77.8555 21.549 77.7779 21.5026C77.639 21.4197 77.5182 21.3225 77.4072 21.194C77.281 21.0477 77.0817 20.963 76.8959 20.839H76.8995ZM78.1278 8.36756C78.1332 8.5299 78.1405 8.6521 78.0918 8.78946C78.0223 8.9848 77.8879 9.13019 77.7978 9.30502C77.7274 9.4406 77.6111 9.55209 77.5362 9.68589C77.3991 9.93118 77.4054 9.93474 77.1367 10.1363C77.07 10.1863 77.0077 10.4699 77.0709 10.5386C77.1971 10.6769 77.1628 10.8276 77.0997 10.956C76.9789 11.2013 77.014 11.4716 76.9374 11.724C76.8761 11.9247 76.8661 12.1406 76.8319 12.3493C76.7994 12.5411 76.693 12.7159 76.7218 12.9255C76.739 13.0513 76.7471 13.1931 76.6479 13.3064C76.6353 13.3206 76.6262 13.3501 76.6325 13.3652C76.6957 13.5195 76.6497 13.673 76.6461 13.8282C76.6398 14.0565 76.6804 14.2866 76.6849 14.5159C76.6867 14.5872 76.6452 14.6657 76.6046 14.7291C76.5333 14.8388 76.4468 14.9387 76.3602 15.0519C76.4269 15.1233 76.5604 15.159 76.5027 15.266C76.4387 15.3829 76.4594 15.481 76.509 15.5889C76.5225 15.6192 76.5315 15.6629 76.5189 15.6906C76.4612 15.8164 76.4774 15.9528 76.4828 16.0777C76.5009 16.4657 76.5433 16.8537 76.5811 17.2408C76.5902 17.3309 76.6172 17.4192 76.6371 17.5075C76.684 17.7225 76.7417 17.9357 76.7768 18.1515C76.8183 18.4084 76.8391 18.668 76.8715 18.9257C76.8751 18.9516 76.9049 18.9739 76.9103 19.0007C76.9446 19.1728 77.0691 19.328 76.9798 19.5251C76.9554 19.5787 77.0213 19.6786 77.0591 19.749C77.0853 19.7963 77.1556 19.824 77.1719 19.8721C77.29 20.2182 77.5416 20.4778 77.7454 20.7676C77.7896 20.8301 77.7878 20.9291 77.8392 20.9799C77.9439 21.0843 78.0611 21.1851 78.191 21.2529C78.3064 21.3135 78.4588 21.3064 78.5733 21.3679C78.8556 21.5196 79.1262 21.6944 79.4013 21.8594C79.4662 21.8987 79.5302 21.9406 79.5961 21.9789C79.6376 22.0039 79.6835 22.0217 79.7241 22.0476C79.8242 22.1118 79.9225 22.1805 80.0226 22.2456C80.0632 22.2724 80.1164 22.2867 80.1471 22.3206C80.2003 22.3794 80.2418 22.4294 80.3356 22.4401C80.4077 22.4481 80.47 22.523 80.5403 22.5614C80.617 22.6042 80.6936 22.5908 80.764 22.5427C80.8758 22.4668 80.993 22.4793 81.1121 22.5168C81.2122 22.548 81.3114 22.598 81.4142 22.606C81.5522 22.6167 81.6334 22.6818 81.6875 22.7978C81.6947 22.8129 81.7127 22.8218 81.7479 22.854V22.6524C81.9896 22.6765 82.216 22.7014 82.4423 22.7211C82.6164 22.7362 82.7923 22.7335 82.9483 22.829C82.9717 22.8433 83.0024 22.854 83.0294 22.854C83.1927 22.854 83.3577 22.8343 83.5191 22.8495C83.7789 22.8736 84.0449 22.8236 84.3002 22.9084C84.3669 22.9307 84.4354 22.9753 84.5013 22.9726C84.7493 22.9628 85.0009 23.0225 85.2444 22.9057C85.3562 22.8522 85.4951 22.845 85.6232 22.8325C85.7504 22.8201 85.8838 22.804 86.0056 22.8308C86.2148 22.8754 86.4087 22.8343 86.5999 22.7692C87.0265 22.6238 87.4468 22.457 87.876 22.3215C88.0916 22.2537 88.2918 22.177 88.4668 22.0307C88.5813 21.9343 88.7103 21.8541 88.8374 21.7747C88.9862 21.681 89.1486 21.6034 89.2099 21.4197C89.2189 21.3947 89.2415 21.3724 89.2613 21.3519C89.3812 21.2333 89.5012 21.1146 89.6247 20.9996C89.77 20.8649 89.8439 20.6883 89.9377 20.5206C89.9864 20.4341 89.9765 20.3359 89.9521 20.3083C89.8764 20.2182 89.9133 20.1415 89.9467 20.0666C90.0035 19.9363 90.0712 19.8106 90.1388 19.6848C90.2723 19.4413 90.4112 19.2014 90.5428 18.957C90.6475 18.7625 90.7385 18.56 90.8486 18.3692C90.9703 18.1595 91.0569 17.941 91.1065 17.7038C91.1796 17.3568 91.2481 17.0071 91.3482 16.6673C91.4799 16.2204 91.433 15.7834 91.3166 15.3499C91.212 14.9592 91.0677 14.581 91.038 14.1707C91.0253 13.9976 90.9577 13.8246 90.8937 13.6596C90.808 13.4375 90.624 13.2582 90.6168 13.0423C90.5401 13.0183 90.4815 13.0165 90.4491 12.987C90.2236 12.7783 90.0035 12.5651 89.7817 12.352C89.6852 12.2592 89.5896 12.1647 89.4732 12.0496C89.6257 12.0112 89.5688 11.9042 89.6013 11.8453C89.5165 11.8052 89.4525 11.7749 89.3749 11.7383C89.3677 11.8123 89.3614 11.8765 89.356 11.939C89.218 11.9301 89.2974 11.8498 89.292 11.8195C89.2315 11.8034 89.1792 11.7918 89.1287 11.7767C89.0403 11.7517 88.9475 11.6937 88.8672 11.708C88.7689 11.7249 88.6913 11.7026 88.6237 11.658C88.3964 11.51 88.1755 11.353 87.9554 11.1942C87.8833 11.1416 87.8228 11.072 87.7606 11.0131C87.683 11.0675 87.6975 11.097 87.7489 11.138C87.8481 11.2156 87.9455 11.2977 88.0348 11.386C88.097 11.4484 88.1466 11.5233 88.1998 11.5947C88.3486 11.7945 88.5037 12.0014 88.5371 12.2476C88.5669 12.4688 88.6066 12.6838 88.6787 12.8943C88.7481 13.0976 88.7779 13.3287 88.896 13.499C89.0277 13.6881 89.062 13.8933 89.1341 14.0949C89.2045 14.292 89.1522 14.4855 89.0972 14.6586C89.034 14.8575 88.9835 15.0555 88.9529 15.2598C88.9393 15.349 88.9204 15.4382 88.9024 15.5265C88.8834 15.6228 88.8519 15.7173 88.8455 15.8146C88.8365 15.9555 88.8158 16.0911 88.7608 16.2222C88.7472 16.2543 88.7337 16.29 88.7355 16.3239C88.7499 16.5968 88.6661 16.8537 88.5984 17.1124C88.5434 17.3247 88.4361 17.5245 88.3928 17.7376C88.3378 18.0097 88.2224 18.2487 88.079 18.4807C87.9897 18.6243 87.8706 18.7625 87.8291 18.9195C87.7462 19.2281 87.5757 19.4502 87.3115 19.6215C87.2375 19.6696 87.1573 19.7553 87.141 19.8364C87.0563 20.236 86.7875 20.451 86.4249 20.5794C86.2022 20.6588 85.9695 20.715 85.7522 20.8069C85.3039 20.9951 84.8251 21.0379 84.3534 21.0905C84.0927 21.12 83.8177 21.1851 83.5507 21.0941C83.5327 21.0879 83.5047 21.0923 83.4876 21.1021C83.3352 21.1922 83.1656 21.1414 83.006 21.1512C82.8581 21.1601 82.694 21.1485 82.5614 21.0905C82.4117 21.0245 82.2638 20.9826 82.1059 20.9452C81.9409 20.9059 81.7912 20.8007 81.6361 20.7222C81.3348 20.5705 81.0571 20.3877 80.81 20.1575C80.6981 20.0532 80.5908 19.9524 80.5683 19.7865C80.4023 19.774 80.3662 19.6357 80.286 19.5278C80.1056 19.2852 79.9 19.0622 79.7097 18.8267C79.4301 18.4798 79.257 18.0819 79.1758 17.6493C79.0108 16.7743 78.9449 15.8877 78.9079 14.9984C78.8926 14.622 78.8556 14.2438 78.8737 13.8683C78.8962 13.4152 78.9431 12.9594 79.0252 12.5134C79.0901 12.162 79.2128 11.8195 79.3318 11.4805C79.3769 11.3512 79.4653 11.2227 79.5672 11.1309C79.6565 11.0515 79.8071 10.9659 79.9054 10.9882C80.0614 11.0238 80.1092 10.9587 80.1507 10.8544C80.203 10.8749 80.2391 10.89 80.2571 10.8972C80.3004 10.7937 80.3158 10.6822 80.3798 10.6207C80.5277 10.4788 80.6936 10.3531 80.8632 10.2353C81.0435 10.1096 81.0886 10.1337 81.1527 10.3513C81.1563 10.362 81.1725 10.3691 81.1698 10.3665C81.2582 10.3665 81.3321 10.3682 81.4061 10.3665C81.5242 10.3629 81.5585 10.3254 81.5504 10.2077C81.5468 10.1524 81.5287 10.0962 81.5324 10.0409C81.5378 9.9615 81.6099 9.9285 81.6839 9.96775C81.7118 9.98291 81.7353 10.0079 81.7777 10.0427C81.8408 9.83663 81.9977 9.78222 82.1691 9.74565C82.2502 9.7287 82.3134 9.68856 82.3422 9.60293C82.3675 9.5289 82.4198 9.49947 82.5064 9.49768C82.5677 9.49679 82.6678 9.45844 82.6831 9.41473C82.7517 9.21582 82.8888 9.20244 83.0592 9.24258C83.1079 9.25418 83.1575 9.26042 83.2062 9.27202C83.41 9.32107 83.6121 9.39421 83.8186 9.41205C83.9448 9.42276 84.1009 9.47984 84.2181 9.35408C84.228 9.34337 84.2587 9.35229 84.2857 9.35229C84.3254 9.42811 84.3705 9.50036 84.4039 9.57796C84.458 9.70283 84.5743 9.72781 84.6853 9.73851C84.7358 9.74297 84.7899 9.67251 84.8485 9.65556C84.8927 9.64307 84.9594 9.68321 84.9919 9.6618C85.1876 9.53604 85.3851 9.5842 85.5745 9.65645C85.901 9.77954 86.2202 9.92226 86.5683 9.98648C86.5683 9.9731 86.5711 9.96418 86.5683 9.96061C86.2058 9.56904 85.809 9.20779 85.5177 8.75557C85.5069 8.73951 85.4843 8.7297 85.4654 8.71989C85.2949 8.62712 85.2011 8.46389 85.0848 8.3194C85.0018 8.21682 84.9107 8.09373 84.7962 8.04913C84.5545 7.95548 84.2993 7.89571 84.0891 7.73338C84.0837 7.72892 84.0756 7.72892 84.0684 7.72624C83.6761 7.58442 83.3496 7.34002 83.0511 7.06173C82.9302 6.94934 82.7923 6.88066 82.6434 6.83428C82.5506 6.80573 82.4441 6.82179 82.344 6.81465C82.0112 6.79146 81.683 6.83963 81.361 6.91009C81.0886 6.96986 80.8271 7.07332 80.5556 7.13576C80.4375 7.16252 80.313 7.20266 80.1778 7.15003C80.1182 7.12684 79.9794 7.16341 79.9586 7.2089C79.9153 7.30702 79.8314 7.32307 79.7593 7.35608C79.3201 7.55498 78.9287 7.8199 78.5733 8.14368C78.457 8.24982 78.3416 8.38629 78.126 8.3631L78.1278 8.36756ZM80.1155 11.6072C80.0623 11.6714 80.0235 11.7196 79.983 11.7659C79.8955 11.865 79.8396 11.9631 79.8269 12.1111C79.8053 12.3689 79.7232 12.6222 79.6664 12.8782C79.6646 12.8854 79.6619 12.8925 79.6565 12.897C79.496 13.0352 79.5492 13.2359 79.5176 13.4072C79.4689 13.6703 79.5843 13.9379 79.523 14.2055C79.5176 14.2304 79.5347 14.2608 79.5402 14.2884C79.6258 14.7068 79.6817 15.126 79.5925 15.5514C79.5825 15.5987 79.5717 15.654 79.5871 15.6977C79.652 15.885 79.5816 16.0786 79.6222 16.265C79.6529 16.4068 79.6745 16.5576 79.7404 16.6825C79.7954 16.785 79.8107 16.8778 79.7999 16.9857C79.771 17.2694 79.8089 17.5477 79.8774 17.8233C79.8991 17.9107 79.9361 17.9954 79.9568 18.0828C79.9983 18.2603 80.0145 18.445 80.1778 18.5707C80.2183 18.602 80.2301 18.6689 80.2589 18.717C80.3221 18.8232 80.3708 18.9463 80.46 19.0256C80.5051 19.0667 80.5556 19.0952 80.5782 19.1559C80.6404 19.328 80.8307 19.3753 80.9344 19.5082C80.9434 19.5207 80.9795 19.5287 80.9912 19.5207C81.0787 19.46 81.1202 19.5564 81.1473 19.5876C81.1978 19.6447 81.2447 19.6919 81.315 19.7303C81.3989 19.7767 81.4602 19.8614 81.5405 19.9167C81.618 19.9693 81.7263 19.9756 81.7632 20.088C81.7714 20.1112 81.8372 20.1129 81.8715 20.1317C81.9887 20.1968 82.1267 20.245 82.2106 20.3395C82.2701 20.4064 82.3179 20.4332 82.3981 20.4457C82.6912 20.492 82.9952 20.4858 83.272 20.6178C83.3117 20.6365 83.3703 20.6339 83.4154 20.6223C83.5669 20.5839 83.7167 20.5598 83.8745 20.5759C83.9737 20.5866 84.0918 20.5295 84.1757 20.5643C84.3985 20.657 84.6032 20.6142 84.8124 20.5429C84.9666 20.4902 85.1145 20.4091 85.2724 20.3779C85.5429 20.3243 85.7864 20.2235 86.0218 20.0844C86.3591 19.8855 86.6703 19.6661 86.8723 19.3182C86.9715 19.1478 87.1185 19.0033 87.2096 18.8294C87.3476 18.5672 87.4432 18.2826 87.5784 18.0186C87.8174 17.5503 87.9518 17.0464 88.0808 16.5451C88.1845 16.1419 88.2359 15.7227 88.2774 15.307C88.3171 14.9039 88.3252 14.4963 88.2566 14.0931C88.1908 13.7078 88.106 13.326 87.9464 12.9656C87.6975 12.4046 87.4422 11.8427 86.9823 11.4145C86.7848 11.2308 86.5674 11.0488 86.3248 10.9391C85.9352 10.7625 85.524 10.6278 85.0992 10.5422C84.8043 10.4833 84.504 10.4342 84.2181 10.3459C83.9466 10.2621 83.6923 10.2978 83.4371 10.3736C82.9907 10.5065 82.5497 10.6581 82.1041 10.7937C81.9265 10.8472 81.7434 10.9061 81.5603 10.9141C81.3944 10.9213 81.2925 10.9766 81.1897 11.0997C81.0931 11.2147 80.9543 11.2959 80.8343 11.3922C80.6332 11.3423 80.5151 11.518 80.3536 11.5742C80.2689 11.6036 80.1994 11.633 80.1173 11.609L80.1155 11.6072ZM78.5093 7.01445C78.4471 7.05905 78.3849 7.10365 78.3109 7.15717C78.4077 7.19522 78.4738 7.14765 78.5093 7.01445ZM81.5765 10.1292C81.5856 10.1988 81.591 10.2398 81.5982 10.2915C81.6857 10.2451 81.7551 10.2086 81.8372 10.1649C81.7542 10.1533 81.683 10.1435 81.5765 10.1292ZM84.7556 20.8756C84.7691 20.8631 84.7836 20.8515 84.7971 20.839C84.7727 20.814 84.7502 20.7891 84.724 20.7668C84.7222 20.765 84.6988 20.7891 84.6853 20.8015C84.7087 20.8265 84.7322 20.8506 84.7565 20.8756H84.7556ZM87.5983 10.9569C87.6154 10.9284 87.6343 10.907 87.6307 10.9016C87.6172 10.8829 87.5965 10.8677 87.5757 10.8553C87.573 10.8535 87.5433 10.8838 87.546 10.8909C87.555 10.9114 87.5739 10.9284 87.5983 10.9578V10.9569Z"
    fill="#EAF6F2" />
  <path
    d="M77.3883 4.41884C77.253 4.18247 77.1169 3.96483 77.0032 3.73648C76.9419 3.6125 76.9193 3.46979 76.8743 3.31726C77.0438 3.29318 77.0456 3.17901 77.0528 3.06394C77.0763 2.70091 77.1601 2.63758 77.5245 2.67683C77.8059 2.70716 78.0827 2.76068 78.3533 2.84006C78.4182 2.85968 78.4877 2.89715 78.5319 2.9471C78.6644 3.09338 78.8277 3.2245 78.8277 3.44838C78.8277 3.46087 78.8385 3.47514 78.8466 3.48673C78.9846 3.68118 78.9927 3.8792 78.9107 4.10486C78.8656 4.22796 78.8196 4.3225 78.6987 4.37602C78.6239 4.40903 78.5499 4.44381 78.4769 4.48038C78.3894 4.52409 78.3073 4.5339 78.209 4.49822C78.0701 4.44649 77.9294 4.42686 77.7707 4.45987C77.648 4.48573 77.5083 4.43578 77.3874 4.42062L77.3883 4.41884Z"
    fill="#EAF6F2" />
  <path
    d="M79.4644 27.7883C79.3381 27.667 79.2344 27.5082 79.3039 27.2834C79.3147 27.2478 79.2885 27.2023 79.284 27.1612C79.2705 27.0364 79.2317 26.907 79.2516 26.7875C79.3111 26.4272 79.4139 26.0838 79.7232 25.8358C79.9144 25.6824 80.1417 25.652 80.3635 25.6289C80.516 25.6128 80.617 25.7573 80.69 25.8777C80.7784 26.0231 80.8578 26.1783 80.9074 26.3389C80.9416 26.4495 80.9263 26.5841 80.8181 26.6671C80.7153 26.7447 80.6801 26.8384 80.6918 26.9614C80.6999 27.0471 80.6567 27.0935 80.58 27.1443C80.497 27.1987 80.4222 27.2941 80.3897 27.3869C80.341 27.5261 80.2598 27.6197 80.1345 27.6866C80.0786 27.716 80.029 27.7598 79.9703 27.7821C79.9063 27.8061 79.8351 27.824 79.7665 27.824C79.6772 27.824 79.5879 27.8044 79.4644 27.7883Z"
    fill="#EAF6F2" />
  <path
    d="M74.3328 8.77787C74.3499 8.85279 74.3644 8.91434 74.3824 8.99015C74.3563 9.00621 74.3048 9.01959 74.2913 9.04902C74.1768 9.30948 73.9459 9.26666 73.7304 9.26666C73.6735 9.26666 73.6131 9.25774 73.5599 9.2738C73.3372 9.3398 73.1514 9.24615 72.9764 9.13733C72.815 9.03654 72.7347 8.88579 72.7843 8.68778C72.7906 8.66102 72.7897 8.63158 72.7861 8.60393C72.7711 8.45765 72.8276 8.35032 72.9557 8.28193C72.9241 8.14368 72.7987 8.19809 72.7158 8.17401C72.6716 8.08927 72.7086 8.04646 72.7879 8.04556C72.8366 8.04556 72.8853 8.07232 72.934 8.08659C72.9403 8.07232 72.9466 8.05805 72.9521 8.04467C72.9034 8.01078 72.8556 7.97777 72.7942 7.93496C72.879 7.88144 72.9602 7.83328 73.0386 7.77887C73.0711 7.75657 73.1063 7.72802 73.1216 7.69413C73.2064 7.5086 73.2398 7.49076 73.4679 7.52822C73.4977 7.58531 73.4571 7.65934 73.5653 7.71554C73.6717 7.77173 73.7746 7.91355 73.7628 8.07946C73.7601 8.11157 73.7953 8.16241 73.8269 8.17668C73.9676 8.24269 74.1109 8.30602 74.2589 8.35418C74.3472 8.38362 74.4681 8.39521 74.478 8.48887C74.4888 8.59145 74.4555 8.71097 74.3319 8.77787H74.3328Z"
    fill="#EAF6F2" />
  <path
    d="M85.708 27.8516C85.8252 27.7455 85.735 27.6126 85.7044 27.4931C85.6503 27.2834 85.6692 27.0052 85.7819 26.8062C85.7918 26.7884 85.8018 26.7697 85.8072 26.7501C85.8529 26.5889 85.9596 26.4744 86.1273 26.4066C86.2238 26.4584 86.3239 26.511 86.424 26.5645C86.4367 26.5717 86.4484 26.5797 86.4619 26.5841C86.6378 26.6484 86.5458 26.8919 86.6991 26.9525C86.8903 27.0283 86.8696 27.1809 86.884 27.328C86.8966 27.4601 86.9237 27.5921 86.9201 27.7232C86.9101 28.0586 86.6991 28.2619 86.4222 28.4118C86.2175 28.5224 85.8874 28.3306 85.8243 28.1576C85.7909 28.0666 85.7567 27.9765 85.7098 27.8516H85.708Z"
    fill="#EAF6F2" />
  <path
    d="M91.175 24.6334C91.4357 24.6004 91.4736 24.8118 91.561 24.9438C91.6233 25.0375 91.6242 25.1704 91.653 25.2854C91.7089 25.5111 91.6043 25.6645 91.424 25.7823C91.2724 25.8804 91.1209 25.908 90.9243 25.8902C90.6294 25.8634 90.5428 25.6619 90.4274 25.4692C90.3733 25.3782 90.3399 25.2756 90.3011 25.1766C90.2633 25.0794 90.2001 24.9813 90.3111 24.885C90.3264 24.8716 90.3093 24.8225 90.3093 24.7904C90.3093 24.7137 90.3057 24.6361 90.3129 24.5603C90.3282 24.4095 90.4139 24.3186 90.5654 24.2856C90.6258 24.2722 90.6844 24.2481 90.7449 24.2303C90.8522 24.1973 90.9532 24.2276 91.0019 24.3177C91.038 24.3846 91.0776 24.4033 91.1426 24.4229C91.2544 24.4577 91.2508 24.5344 91.1759 24.6343L91.175 24.6334Z"
    fill="#EAF6F2" />
  <path
    d="M85.5204 3.27891C85.7026 3.24144 85.8811 3.19685 86.0633 3.1692C86.2698 3.13798 86.4051 3.27802 86.5692 3.40467C86.553 3.51171 86.4953 3.64194 86.5278 3.74273C86.5945 3.94966 86.4989 4.08257 86.3988 4.23866C86.3465 4.32161 86.3555 4.44114 86.3312 4.54282C86.3149 4.6115 86.2915 4.67929 86.2644 4.7444C86.1887 4.92815 86.0597 4.98256 85.8694 4.92547C85.8099 4.90763 85.744 4.90853 85.6854 4.9005C85.6142 4.71229 85.5348 4.50536 85.4582 4.29664C85.4122 4.17087 85.4221 4.04689 85.4663 3.92112C85.5042 3.81498 85.5375 3.71508 85.4924 3.59199C85.4636 3.51528 85.506 3.4127 85.5213 3.27802L85.5204 3.27891Z"
    fill="#EAF6F2" />
  <path
    d="M89.6879 7.22674C89.6635 7.17857 89.6473 7.14736 89.632 7.11703C89.7609 6.94934 89.9512 6.97075 90.1271 6.97432C90.1983 6.9761 90.2741 7.02783 90.3372 7.07154C90.4238 7.1313 90.4986 7.20801 90.5825 7.27134C90.6601 7.33021 90.6457 7.40781 90.6339 7.48452C90.6213 7.56747 90.5997 7.64953 90.5852 7.73249C90.5636 7.85558 90.4878 7.93674 90.3814 7.99115C90.2831 8.042 90.2146 8.10265 90.174 8.21771C90.0955 8.43624 89.8917 8.53168 89.6563 8.47817C89.5643 8.45765 89.4678 8.49155 89.3767 8.40324C89.2712 8.30156 89.264 8.17133 89.2342 8.05805C89.1738 7.82257 89.3154 7.63704 89.466 7.46846C89.4768 7.45687 89.5021 7.45776 89.5427 7.44706C89.4958 7.43011 89.4705 7.42119 89.4444 7.41227C89.42 7.35875 89.5174 7.28026 89.687 7.22585L89.6879 7.22674Z"
    fill="#EAF6F2" />
  <path
    d="M78.3109 7.15717C78.4077 7.19522 78.4738 7.14765 78.5093 7.01445C78.4471 7.05905 78.3849 7.10365 78.3109 7.15717Z"
    fill="#EAF6F2" />
  <path
    d="M81.5765 10.1292C81.683 10.1435 81.7542 10.1533 81.8372 10.1649C81.7551 10.2086 81.6848 10.2451 81.5982 10.2915C81.591 10.2407 81.5856 10.1988 81.5765 10.1292Z"
    fill="#EAF6F2" />
  <path
    d="M84.7556 20.8756C84.7322 20.8506 84.7087 20.8265 84.6844 20.8015C84.6979 20.7891 84.7213 20.7659 84.7231 20.7668C84.7493 20.7891 84.7727 20.814 84.7962 20.839C84.7827 20.8515 84.7682 20.8631 84.7547 20.8756H84.7556Z"
    fill="#EAF6F2" />
  <path
    d="M87.5983 10.9569C87.5739 10.9275 87.555 10.9114 87.546 10.89C87.5433 10.8838 87.573 10.8535 87.5757 10.8544C87.5965 10.8668 87.6172 10.882 87.6307 10.9007C87.6343 10.9061 87.6154 10.9275 87.5983 10.956V10.9569Z"
    fill="#EAF6F2" />
  <path
    d="M81.9986 14.8771C81.986 14.8593 81.9698 14.837 81.9517 14.812C81.9743 14.7728 82.0239 14.7273 82.023 14.6827C82.0149 14.3981 82.1637 14.1537 82.2232 13.8879C82.2502 13.7684 82.3125 13.656 82.3675 13.5445C82.5307 13.2136 82.8301 13.0557 83.1719 13.0869C83.4705 13.1137 83.7861 13.0887 84.072 13.2172C84.1162 13.2368 84.1505 13.2778 84.1937 13.2983C84.2875 13.3429 84.3858 13.3795 84.4805 13.4214C84.5563 13.4553 84.6302 13.4928 84.7051 13.5285C84.8052 13.5766 84.8539 13.6453 84.8368 13.7648C84.8296 13.8175 84.8728 13.8763 84.8909 13.9334C84.9252 14.0396 85.0388 14.1136 85.0171 14.2447C85.0144 14.2617 85.0514 14.284 85.0758 14.3107C85.1136 14.2831 85.1452 14.2599 85.1759 14.2385C85.1867 14.2411 85.1966 14.2403 85.1993 14.2447C85.2643 14.341 85.3499 14.4302 85.3887 14.5364C85.4987 14.8397 85.551 15.1394 85.4482 15.4712C85.3752 15.7084 85.3265 15.9448 85.1768 16.1517C85.1136 16.24 85.0478 16.3105 84.9576 16.3747C84.8485 16.4523 84.7583 16.5611 84.6753 16.6673C84.5906 16.7752 84.5103 16.876 84.357 16.8867C84.3173 16.8894 84.2803 16.9224 84.2424 16.942C84.2235 16.9518 84.1992 16.9786 84.1892 16.9741C84.0044 16.8823 83.87 17.0624 83.6995 17.0615C83.594 17.0615 83.4858 17.0838 83.3839 17.1133C83.0817 17.2007 82.8283 17.0499 82.5911 16.9224C82.3585 16.7966 82.1988 16.5692 82.0816 16.3283C81.8886 15.9314 81.8678 15.506 81.8931 15.0769C81.8967 15.0109 81.9598 14.9494 81.9986 14.8789V14.8771Z"
    fill="#EAF6F2" />
</svg>