<svg xmlns="http://www.w3.org/2000/svg" width="9728" height="6656" fill="none" viewBox="0 0 4096 2803"><g clip-path="url(#a)"><path fill="#b8d2c9" d="M4088 0H8a8 8 0 0 0-8 8v2787a8 8 0 0 0 8 8h4080a8 8 0 0 0 8-8V8a8 8 0 0 0-8-8"/><path fill="#dde7d9" fill-rule="evenodd" d="M2514 961.6a8 8 0 0 1 10.8-1.6l13.7 9a8 8 0 0 1 3.5 7.9l-22.8 159a8 8 0 0 0 1.8 6.4l43.3 50.4a8 8 0 0 0 6 2.8h54.6a8 8 0 0 0 7.6-5.5l29.2-87.8a8 8 0 0 1 3.2-4.1l19.7-13a8 8 0 0 1 4.4-1.4h26.8q3 0 5.2 2l50 43a8 8 0 0 1 2.7 7.6l-70.7 344.5q-.4 2.4-2.1 4l-35.6 35.6a8 8 0 0 1-6.6 2.3l-191-23c-3-.4-6 1-7.7 3.5l-42.7 64.2a8 8 0 0 1-6.6 3.5H2386a8 8 0 0 1-5.6-2.3l-35-35a8 8 0 0 1-2.3-6.4l7.4-80.2a8 8 0 0 0-2.4-6.5l-10.8-10.6a8 8 0 0 0-6.4-2.3l-71 7a8 8 0 0 1-7.8-4l-28-49.2a8 8 0 0 0-3.6-3.3l-80.4-36.5a8 8 0 0 1-4.6-8.2l15.1-128.7q0-1.1.6-2.2l21.5-50a8 8 0 0 1 7.3-4.8h39.5a8 8 0 0 1 5.7 2.3l27.7 27.8a8 8 0 0 1 2.2 4.3l14.8 87.6a8 8 0 0 0 6.8 6.6l47.6 6.6a8 8 0 0 0 4.7-.7l26.4-13.2c2-1 3.6-3 4.2-5.2l14.3-57.3a8 8 0 0 0-.6-5.5l-19.4-39.3a8 8 0 0 1 2.6-10.1l72.3-50.6a8 8 0 0 0 2.9-3.7l22.7-60.2 1.2-2.2zM8 1432a8 8 0 0 1 11.6-7.1l34.9 17.4a8 8 0 0 1 2.7 2.2l29 36.4a8 8 0 0 1 1.7 5v25a8 8 0 0 1-3.2 6.5l-58.6 44a8 8 0 0 1-4.8 1.6H16a8 8 0 0 1-8-8zm3901.5 10.6a8 8 0 0 1 8-7.4h12.8a8 8 0 0 1 6.1 2.8l90.8 105.5a8 8 0 0 0 7.2 2.7l41.9-6.4a8 8 0 0 1 8.3 4.4l16.6 33a8 8 0 0 1 .8 3.7v376a8 8 0 0 1-11.9 6.9l-4.4-2.5q-1.7-.9-2.7-2.4l-16.5-23.9-1-1-35.3-35.5-36-43.1a8 8 0 0 0-9.8-2l-56.9 28.4a8 8 0 0 1-11.4-5.6l-9.4-48.7a8 8 0 0 0-3-4.8l-54.5-41.7a8 8 0 0 1-3.1-6.4v-26.5a8 8 0 0 1 9.3-8l29.5 5a8 8 0 0 0 9.3-7.8v-29.6q0-1 .3-2l6.6-27a8 8 0 0 0-1.4-6.9l-49-63a8 8 0 0 1 1.2-11l47.5-40.6a8 8 0 0 0 2.8-5.6zM-2.3 2024.1a8 8 0 0 1 5.6-13.6h23.3a8 8 0 0 1 7.5 5l13.3 33.5q.6 1.5.6 3v17.6a8 8 0 0 1-4 6.9l-43.4 25A8 8 0 0 1-11 2097l-2.2-6.6a8 8 0 0 1 5.6-10.3l17.4-4.5a8 8 0 0 0 6-7.7v-22.4a8 8 0 0 0-2.3-5.6zm1070.6 12.4a8 8 0 0 1 7-1l38.6 12.8a8 8 0 0 1 5.4 7.6v53.7a8 8 0 0 1-3.8 6.9l-72.8 43.5a8 8 0 0 0-3.8 5.8l-6.4 45.7a8 8 0 0 0 5 8.6l52.9 19.9a8 8 0 0 1 5.2 7.4v30a8 8 0 0 1-3.8 6.8l-159.6 98.6a8 8 0 0 1-9-.4l-25.8-19.2a8 8 0 0 1-2.8-3.6l-23.2-61.8-23.1-77.9a8 8 0 0 1-.1-4.1l6.6-26.9a8 8 0 0 1 3.2-4.6zm2680.6 132.1a8 8 0 0 1 8-6.7h31.8a8 8 0 0 1 2.6.5l91.2 30.3a8 8 0 0 1 4.9 4.5l13.6 33.6q1.2 3 0 6l-94.2 235q-.7 1.5-.6 3.4l7.8 164.3q.1 1.7-.5 3.2l-22.8 61.1q-.5 1.5-1.5 2.5l-53.2 61a8 8 0 0 1-4.2 2.5l-24.2 5.9a8 8 0 0 1-8.6-3.4l-11.5-17.3a8 8 0 0 1-1.3-4.4V2538l.1-1.3zm-2222.2 215.8q.7 1.3 1.7 2.3l188.7 180.9a8 8 0 0 1 2.4 4.4l38 227.7a8 8 0 0 1-8 9.3H1546a8 8 0 0 1-5-1.7l-106.1-83.4a8 8 0 0 1-3-7l23.4-242.4v-2l-11.8-74.2v-1.4l1.9-68.1q0-1.1.3-2.2l11.6-37.5a8 8 0 0 1 14-2.5l22.6 29.5.8 1.4zm-290.3 138.5a8 8 0 0 1 6.1-.4l41.4 13.7a8 8 0 0 1 5 4.6l86 211q.6 1.3 1.4 2.3l35.7 41.7a8 8 0 0 1-6 13.2H872.6a8 8 0 0 1-8-9l6.8-53a8 8 0 0 0-.5-4l-13.4-32.8a8 8 0 0 1 1.7-8.7l58.8-58.8q1.5-1.5 3.4-2l205.5-63.1 1.3-.5z" clip-rule="evenodd"/><path fill="#dde7d9" d="M1305.2 145.9a8 8 0 0 0-6.8-5l-95.4-7.5a8 8 0 0 1-5.8-3.1l-20.9-27.7a8 8 0 0 1-1.3-2.9l-21.2-84.4a8 8 0 0 1 7.8-9.9h101a8 8 0 0 1 7.6 5.4l21 61.2a5 5 0 1 0 9.3-3.5c-8.7-21.5-22.1-56-22.1-63.1 0-7.4 33.7-4 54.3-.8q4.5 1 6.2 5.2l19.4 55 77 227.3a8 8 0 0 0 10 5l18.3-6.2a8 8 0 0 0 5-10.3L1384 46a8 8 0 0 0-8.5-5.2l-10 1.3a8 8 0 0 1-8.8-6.1l-7.4-30.5h50c4 0 68.7 171 100.5 256.4L1415.3 5.4h32.5c10 0 97.4 243.4 103.4 243.4s-88-243.4-80-243.4 100.5 243.4 107.5 243.4-95.4-243.4-85-243.4h38.5c9.5 0 81 218.9 85 225.9s28.5 4.5 32.5 17.5 49 90.4 50 100.4 84 217.4 79 222.4-42.5-29.5-53.5-37.5-116-269.3-126-272.3-17.5 37-48 32.5-37.4 19.4-57.4 32.4-42 0-56 12.5 27.5 77 45.5 115.5 59 22.5 79.4 46c20.5 23.4-22.5 27-49 33.4-26.4 6.5-18 70-20 60.5s-61.9-122.4-67.9-140c-6-17.4-36-95.4-48-105.4s-45.5 10-59 22.5-40.4-2-40.4-12.5 82.4-56.5 80-71c-2-11.1-35.2-96.7-53.2-142.3M1591.7 5.4c-6 0-10.4 6.5-8.4 12.1 16.5 46.2 70.4 205.2 77.4 200.8 6-3.8 69-48.3 104.2-73.3a8 8 0 0 0 2.6-9.7l-12.9-29.7c-3-7-13.4-6.1-15.5 1.2-5 17.2-10.7 34.5-14 34.5-6 0-38.4 6.5-41-6.5-1.8-10-29-83.9-44-124.2a8 8 0 0 0-7.5-5.2zM2886.5 13.4a8 8 0 0 0-8-8h-44.7a8 8 0 0 0-7.6 10.6l59.8 171.6a8 8 0 0 0 1.5 2.6l47 54.8 30.6 38.3a8 8 0 0 1 1.6 3.8l7.6 52.2q.2 1.5 1 3l22.6 37.6 1.3 1.7 6.8 6.4 1.2 1.4 62.3 93.8q.9 1.4 1.2 2.9l15.6 77q.3 1.4 1.1 2.6l54.7 86 .7 1.3 44.6 111c30.2 68.5 90.4 206.2 90 209.4-.4 3.6 15.5-6.8 19.2-2.3-3.2-15.7-16.2-90.5-28.2-101.6-14-13-58.5-45.5-51-63 7.1-16.5-3.7-45.6-4.9-53.4q0-1-.4-2.1c-5.2-15.4-44.2-98.8-47.6-102.4-3.5-3.7-27-53.5-35.5-93s13.5-21.5 8.5-29.5-80.5-152.4-88-173.9-89-179.4-97.4-203c-6.8-19-30.6-45.3-41.6-56L2889 71.8a8 8 0 0 1-2.4-5.7zM3551.7 556.6c-6-6.5-16.4 0-13.2 8.2 52.7 137 145.8 369.3 151.7 391 5 18.5 15.9-282.4 21.3-453.6.3-7.4-8.7-11-13.8-5.7l-96 101.8a8 8 0 0 1-11.8 0zM3311.7 1070c-3.7-7.4-15.3-4.5-15.5 3.8-1.7 67.4-6.7 212.7.4 235 8.8 27.4 59.8 166.9 53.8 190.9s-41 255.3-53.8 284.8-22.2 121.5-23.2 142c-1 20.4 0 64 0 88.9s8.5 79.5 23.2 76c9-2.2 28-5 42.3-7a8 8 0 0 1 8.8 9.7l-4 16.7a8 8 0 0 0 3.5 8.6l38.3 24a8 8 0 0 0 8 .5c19.7-9.2 53.5-19.3 56.8 2 4.5 28.4-17 48-24 48s-6 39.9 6 39.9 48.5-22 54.5-40-9.5-46.5-16.5-58.5-22-41-7-52.4c15-11.5 30-7 32-23.5s-5.5-79 11.5-89 23-16 27.5-44c4.5-27.9-9.5-64.3-9.5-75.9 0-11.5 21-74.2 23.5-89s15-13.6 7.5-54.8-20.5-54.3-31-79.1-36-41.8-18-48.6 36-17.2 18-40-54.5-9.9-54.5-28.8c0-19-21.5-92.5-38-111.5s-4.5-136.4-20-150.4-33-62-47.4-82c-14.5-20-38-53-41.5-68.5a155 155 0 0 0-11.7-27.8M3503.4 90.2a8 8 0 0 0-12.1 1.7l-61 98.2a8 8 0 0 0 .4 9.1l62.4 80.4a8 8 0 0 0 8.3 2.8l71.8-18.5a8 8 0 0 1 7.8 2.3l76.3 79.9a8 8 0 0 0 9.9 1.3l78-46.8a8 8 0 0 0 .4-13.4l-96.4-67.4zM3641.7 8.4a8 8 0 0 0-5.7 13.7l176.7 175.3a8 8 0 0 0 12-.9l133.1-175.3a8 8 0 0 0-6.4-12.8zM4106 62.8a8 8 0 0 0-13.8-5.7l-113.5 124a8 8 0 0 0 1.8 12.2L4086 256a8 8 0 0 0 12-6.5zM1616.8 1934.5a8 8 0 0 0 7.3-11.3l-201.5-446.7-.8-1.4-60.3-83.2a4.4 4.4 0 0 0-7.3 4.7l44.1 75.8a8 8 0 0 1 .6 7l-65.7 165.5a8 8 0 0 0 1.7 8.5l267.4 278.7a8 8 0 0 0 5.8 2.4zM988.5 1547.7a8 8 0 0 1 1.5 10.2l-30.7 49.5a8 8 0 0 1-9.2 3.4l-134.3-43.2q-1.2-.4-2.5-.4h-93.8a8 8 0 0 1-7.5-11l70.2-175.5a8 8 0 0 1 3-3.8l156-100.9a8 8 0 0 1 4-1.2l164-6.3a8 8 0 0 1 6.9 12.4l-74.4 109.6a8 8 0 0 0 .3 9.4l53.2 70a8 8 0 0 1-6.4 12.8h-10.3a8 8 0 0 1-4.6-1.4l-68-47.5a8 8 0 0 0-11 1.8l-47.6 65.3a8 8 0 0 0 1 10.7zM32.6 2635.3q-.5-3 1.2-5.8l52.4-79.1a8 8 0 0 0-2.8-11.4l-44-24.7a8 8 0 0 1-3-11.2l99-159.3 77.5-166.4 34.9-68.9c4.1-8.2 16.5-4 15 5L243.4 2226l-55.7 176.5a8 8 0 0 0 7.6 10.4h54.1a8 8 0 0 0 7.5-5l36-91.4a8 8 0 0 1 15 0l2 5.1a8 8 0 0 1 .4 4.8l-10.2 44.9c-2.1 9.3 10.8 13.8 15 5.3l17.9-36.6a8 8 0 0 1 14.6.5l7.6 18.7a8 8 0 0 1 .2 5.5L325 2456a8 8 0 0 0 2.8 8.8l79.2 60.6a8 8 0 0 1 2 2.2l69.7 113.8 45.7 92.1a8 8 0 0 1-7.2 11.6H499q-3.2 0-5.6 2.2l-48.5 46.5a8 8 0 0 1-12-1l-54.6-75.6-52-88.3a8 8 0 0 0-8.7-3.7l-103.3 25.2q-1.5.3-2.6 1.2L117 2716a8 8 0 0 1-3.5 1.4l-57.9 7.3a8 8 0 0 1-8.9-6.6zM-17.6 275a8 8 0 0 1 4.8-8L635.6-21.5a8 8 0 0 1 4.3-.6l70.8 9.6A8 8 0 0 1 715.4.8l-22.6 24a8 8 0 0 1-2.6 1.8L207.9 242l-26 11.6-184 82.2a8 8 0 0 1-11.3-6.7z"/><path fill="#dde7d9" d="M121 427.3c-35.4 9.2-80.8-27.7-108.8-57.5-5.2-5.5-15.1-1.9-15 5.7L-.7 762a8 8 0 0 0 8.6 8l80.2-6a8 8 0 0 1 8 5l3.2 7.8a8 8 0 0 1-3.2 9.9l-23 14.2a8 8 0 0 0-1 12.8l6.5 5.7a8 8 0 0 0 9.2 1l36.4-20.5 1.2-.7 82.8-66.9a8 8 0 0 0 2.7-4.3l35.3-145.3a8 8 0 0 1 11.9-5l42 25a8 8 0 0 1 3.9 7.3l-9.2 152.5-.2 1.2L272 865.3l-.5 1.5-25.7 57.2-.6 2.2-8.5 61.6a8 8 0 0 0 .5 4.2l18.7 44.5 6.8 15.1a8 8 0 0 0 5.8 4.6l40.4 7.7a8 8 0 0 1 4.8 3l16 20.7a8 8 0 0 0 6.8 3.1l55.5-2.7a8 8 0 0 1 3.4.6l64 26.1a8 8 0 0 0 5.8 0l35.3-13.5a8 8 0 0 1 10.3 4.3l4.9 11.6a8 8 0 0 0 7.3 4.8H542a8 8 0 0 0 7.6-5.6l16.3-51.8a8 8 0 0 1 8.2-5.6l71.6 5.4a8 8 0 0 0 4-.7l71.3-33.5q1.2-.6 2.6-.8l101.6-9.8 102.4-16.8a8 8 0 0 1 9.2 9l-9 71.7-.6 2-18.7 46a8 8 0 0 1-2.5 3.3l-89 68.8a8 8 0 0 1-9 .6l-29.4-17.6a8 8 0 0 0-4-1.1h-24.9l-31.5-4.6a8 8 0 0 1-6.3-10.8l13.7-34.8a8 8 0 0 0 .5-3.7l-3.3-35.8a8 8 0 0 0-7.3-7.3l-44-3.6a8 8 0 0 0-6.9 3l-23.2 29a8 8 0 0 0 .2 10.2l33 38.8a8 8 0 0 1 1.8 6l-3.5 34.7a8 8 0 0 1-11.2 6.5l-22-9.5a8 8 0 0 1-3.7-3.5l-25.1-45.6a8 8 0 0 0-14.6 1.2l-4.7 13.3a8 8 0 0 1-4.8 4.8l-78.2 28.4-1.6.4-29.9 4.3a8 8 0 0 1-6.7-13.6l1.3-1.3a8 8 0 0 0-.8-12l-15.5-11.6a8 8 0 0 0-5.6-1.6l-53.1 5.4a8 8 0 0 1-5.2-1.2l-59.2-38.1a8 8 0 0 1-3.5-5.3l-5-27.3a8 8 0 0 0-1.4-3.2l-16.2-22.2a8 8 0 0 0-4.6-3l-25.2-6.3a8 8 0 0 0-7.6 2.2l-15.3 15.6a8 8 0 0 1-10 1.2l-27-17.2a8 8 0 0 1-3.7-8l7.2-43.8 5.9-52.4v-2.2l-5.3-32.1a8 8 0 0 1 2-6.6l32-36.2a8 8 0 0 0 0-10.8l-5.8-6.2a8 8 0 0 0-12.5 1L194 933 160 995a8 8 0 0 0 2.7 10.5l26.4 17a8 8 0 0 1 3.5 8.5l-7.7 33.5-5.5 28.6a8 8 0 0 0 3.5 8.3l84 54.3a8 8 0 0 1 3.3 9l-8.3 28.7a8 8 0 0 0 6.7 10.1l53.4 6.7q1.3.2 2.5.8l92 44.8a8 8 0 0 1 3.5 3.2l42.3 72.8 36.4 50.8a8 8 0 0 1-6.5 12.7h-33.5a8 8 0 0 0-7.6 5.7l-2.4 8a8 8 0 0 0 4 9.3l60 31.5 51.6 20.1a8 8 0 0 0 6.7-.4l98.8-52a8 8 0 0 1 11 10.5l-20 41.8a8 8 0 0 1-1.9 2.5l-72.5 63.6a8 8 0 0 1-7.3 1.7l-40.3-10.8a8 8 0 0 1-3.6-2.1l-34.5-35.4a8 8 0 0 0-9.9-1.3l-41.5 25.2a8 8 0 0 0-3.5 4.3l-11.5 34.7a8 8 0 0 0 6.4 10.4l87.5 12.9q1.5.2 2.9 1l71.2 42.7a8 8 0 0 0 10.3-1.8l71.3-85.3 1.2-1.9 64.5-144.8 1.3-2 44-50.7 1.6-1.5 96.6-63.4 93.6-44.3a8 8 0 0 1 2.7-.8c25.3-2.4 73.8-7.8 76.6-11.3 3.5-4.5 15.5-39 15.5-54s-63.5-39-82-40-33-45.5-35-59 35-26 29-29 0-45 6-52 39 36 39 23.6c0-12.5 53-5 66.5-16.5s104.9 82.5 117.4 74 135.4 67 144.4 67 113.5 122.4 116.5 125.4c2.3 2.3 49.8 61.8 74.3 92.5q1.1 1.5 1.7 3.1c6 16.7 42.2 36.6 51 45.3 9 9 35.9 33 38.9 50.5s36 50 36 78.4 32 9.5 43 29.5 35.4 19 42 33c6.4 14 14 5 28.4 0 14.5-5 39-9.5 50-14s52.5.5 95.5 4.5 20.4 28 27.4 28 1-28-7-37-9.5-20.5 0-34.5 5-36 0-38-51-23-59-23-57-71.4-61.9-86.4c-2.6-7.8 2.2-15.2 7.8-20.6 4-3.7 4.7-10.2.7-13.7-7.5-6.6-16.4-13.7-19.5-13.7-5.5 0-48.5-21-62.5-23s-30-25-42-27 12-53 12-67c0-11.1 39-7.6 58.5-4.4 39.2 3.5 119 10.6 125.5 11q.7 0 2.2.6c8.7 3 16.4-10.5 7.3-11.6-8-1-9.5-34-9.5-40s-106.5-34-111-35.5-74-8-73-12.5 21-75.4 30-92c9-16.4-9.5-76.4-15-88.9s-68.4-35-74-35c-5.4 0-37.4-32.5-48.9-32.5s-31 32.5-38 32.5-48.5 132-59 140.5-40 126.4-47.4 129.4c-7.5 3-55-45.5-48.5-54s40.5-148 44-160.9c2.8-10.4-11.2-36.6-18.5-48.5h-60c-21 0-183.4 3.5-214.9 17s-37-72-37-91.4 63.5-21 94.5-17.5 135.4 38 169.9 48 76.5 44 96.5 54 37.4-133.5 37.4-148-160.9-94.5-168.4-83.5-79.5-4.5-104.4 16-114.5 12-147.5 22-69-42.5-57.4-42.5c11.5 0 116.4-40.4 125-40.4 8.4 0 36.4-25.5 41.9-28s-43.5-49.5-50.5-57-89 32.5-90 18.5-56-74.5-78.4-85.5-61-69-68-97.4 78.5-67.5 77-77.5-47.5-81.4-49-99c-1.5-17.4-74.4-65.4-89-68.4-14.4-3-279.8 167.4-289.8 170.4s-56-83.9-70.5-93-155.9 84-159.9 83-69.5-46.5-92-73.9c-22.4-27.4-15.4 41.4-18 60-2 14.7-37-33.8-54.4-60l-26 11.6c20.7 31.1 61.3 96 58.5 106.3-3.5 13-66 53.5-119.5 67.5M4018.2 2805a8 8 0 0 0 7.6-5.6l77.3-243.6.4-2.4V2538c0-8.5-11.6-11.1-15.2-3.4l-30 63a8 8 0 0 1-10.3 4l-63.8-25.8a8 8 0 0 0-10.6 5.2l-19.1 64.6q-.5 1.5-.3 2.8l3.7 54.4a8 8 0 0 1-.9 4.3l-41.8 79.2a8 8 0 0 0-.4 6.4l2.4 6.9a8 8 0 0 0 7.5 5.3h10.8a8 8 0 0 0 7.5-5.3l54.1-149a8 8 0 0 1 11.9-4l5.8 3.8a8 8 0 0 1 3.4 8.5l-17.4 74.2-.6 1.6-28.1 58.8a8 8 0 0 0 7.2 11.4z"/><path fill="#dde7d9" d="M1575.9 1561.8a8 8 0 0 0 .8 5.5l236.4 423.7 51.5 110.3a8 8 0 0 0 4.8 4.2l286.5 93.9 199.4 83 244 109.9 330.8 109 121.4 51.1a8 8 0 0 0 6 .1l156.6-62a8 8 0 0 0 3.1-2.3l92.2-110a8 8 0 0 0 1.8-5.5l-6.3-145.3v-89.7a8 8 0 0 0-1.3-4.3l-54.8-84.8a8 8 0 0 1-1.3-4.7l11.4-277.3 37.5-221.2q.3-1.2 0-2.4l-23.5-182.2-46.3-254.2v-2.3l11.2-104.4V998l-11.2-85.6q-.2-1.4-.8-2.6l-163.3-322.1-141.4-251.4-106.6-208-.6-1.8-27.5-109-.3-2V-27a8 8 0 0 0-8-8h-92a8 8 0 0 0-8 9.6l31.6 152.8 64.8 285.5.2 1.8v61.8a8 8 0 0 0 8 8h111.7a8 8 0 0 1 7.5 5.4l64.3 186.6q.3.6.3 1.4l23.3 155q.3 1.7 1 3l128.2 212.8.8 1.6 58 171.1q1.2 3.4 4.4 5c21 10.3 52.2 41.8 31.7 98-21.5 58.9-96 199-131 262.5l-1 1.5-52 58.3a8 8 0 0 1-3.2 2.2l-354.6 134.9a8 8 0 0 0-3.2 2.2l-56.2 65-1 1-57.2 48a8 8 0 0 1-8.2 1.2l-202.2-84q-1.2-.7-2.3-1.6l-48-44-50.1-40.4-1.7-1-40.4-18.6a8 8 0 0 0-10.8 4.3l-11 27.6a8 8 0 0 1-13.5 2.4l-15.9-18a8 8 0 0 0-12 0L2125 1743l-1 1-28.8 22.4a8 8 0 0 0-1.2 11.5l16.2 18.8a8 8 0 0 0 6 2.8h10.8a8 8 0 0 1 6 13.2l-61 70.4a8 8 0 0 0-1.3 8.5l20.2 44.7a8 8 0 0 0 13.8 1.3l16.2-22.5a8 8 0 0 1 9.5-2.8l252.5 104 69.2 30a8 8 0 0 1 4.8 7.3v27.2a8 8 0 0 1-6.4 7.9l-168.5 34.6c-37.2 3-120.7 0-157.4-36s-117.3-111.2-153-144.4l-172.9-199.4-88.4-100-68.6-83.9-1-1-43.7-38a8 8 0 0 0-13 4.3z"/><path fill="#c9ded6" d="M3905.5 1484.5a20 20 0 0 1 28 3.8 161 161 0 0 0 29 30.7c11.2 9.4 16.7 15 26 22.3a1925 1925 0 0 0 46.5 35.2c10.1 7.5 16 14.6 22.3 22.6l3.1 4 .3.5c3.8 5.5 7.2 10.8 10.2 15q.4.8.9 1.4l3.3 5q2.7 4.8 4 10.3a20 20 0 1 1-38.7 9.9v-.1q0-.4-.4-1l-.8-1-1-1.5-10.1-15a77 77 0 0 0-16.8-18 1976 1976 0 0 1-47.5-35.9c-9.2-7.2-19.2-16.5-27-23.1a200 200 0 0 1-35.2-37.2 20 20 0 0 1 3.9-28M3961.8 1818.6a20 20 0 0 1 6.1 38.8q-3 1-4.9 3.2c-4.2 5.4-9 10.3-13.8 13.5l-1.4 1-.6.2-.7.5-2.2 1.8-.6.5-.5.5c-3.7 2.8-6.9 4-8.4 4.6a20 20 0 0 1-16.6-36.2l1.9-1.3a52 52 0 0 1 8-5.8l.7-.6a53 53 0 0 0 4.3-5.2q4.6-6.1 11-10.3c4-2.4 10-5.2 17.1-5.2zM3942 1678.2q7.6.2 13 4.8.8.7 1.8 1.3a20 20 0 0 1 8 25.3c-4.5 10-16.3 14.5-26.4 10a36 36 0 0 1-8.5-5.1c-1-.8-3.4-3-5.3-6.4-2.5-4.7-2.5-9-2.5-9.9 0-11 9-20 20-20m20 20v-.3zM3984.8 1618.3a20 20 0 0 1 20 19q0 .8.2 1.8l.2.6.2.7c.7 3.4.6 6.3.6 6.8a20 20 0 0 1-39.7 2.4l-.4-1.8-.4-1.6-.2-1-.1-1.2-.4-5.7c0-11 9-20 20-20M4069 1733.1a20 20 0 0 1 19.5 15.7q0 .7.3 1.3l.6 1.9a20 20 0 0 1-38.3 11l-.2-.2v-.4q-.3-.4-.7-1.6c-1.2-3.7-1.2-6.7-1.2-7.7 0-11 9-20 20-20M4106.8 834.3a8 8 0 0 1-4.6 6.7l-66.8 30.3a8 8 0 0 1-7.4-.4l-216-125.3a8 8 0 0 1-3.4-10l60.6-143a8 8 0 0 0-4.5-10.7l-103-38.5a8 8 0 0 1-5.2-8.4l8.1-77.7a8 8 0 0 1 3.2-5.5l67.6-51q.7-.4 1-1l46.9-50.4a8 8 0 0 1 8.5-2l127.1 45a8 8 0 0 1 2.3 1.2l107.5 84.3a8 8 0 0 1 3 6.8zM4101.6 1092a8 8 0 0 0-6.6-7l-27.8-5a8 8 0 0 1-5.1-3.1l-26.3-36.3a8 8 0 0 0-11.3-1.7l-276 206.4a8 8 0 0 0-2.7 9.4l33.3 83.9 1 1.7 47.5 65.5a8 8 0 0 0 10.8 2l173-112a8 8 0 0 0 3.6-6.6V1226a8 8 0 0 1 3.9-6.8l51.4-30.7a8 8 0 0 1 8.3 0l21.5 13.4a8 8 0 0 0 12.2-7.6z"/><path fill="#c9ded6" d="m3972 172-113.5 122.9a8 8 0 0 0-2 3.8l-12 58.7a8 8 0 0 1-2.4 4.4l-83.9 75.5a8 8 0 0 0-2.6 5.5l-6 96.8a8 8 0 0 1-9.4 7.4l-27-4.7a8 8 0 0 1-6.7-7.8v-44.6a8 8 0 0 0-13.6-5.8l-102.3 99a8 8 0 0 1-12.8-2.4l-39.2-86.1a8 8 0 0 0-8.7-4.6l-42.4 7.2a8 8 0 0 1-7.9-3.4l-146-209.5a8 8 0 0 1 .8-10l84-90.3a8 8 0 0 1 12.3.7l86.6 117 1.6 1.5 142.8 110.4a8 8 0 0 0 11.2-1.4l154.6-197.7L3991.3-.6a8 8 0 0 1 5.8-3.2l105.3-8a8 8 0 0 1 8.5 9.3l-8 50.8a8 8 0 0 1-2.4 4.6zM3274 1801.6c-.5-9.7-14.5-10.4-16-.8l-36 241.3a8 8 0 0 0 1.1 5.4l46 72.6q.9 1.5 1.2 3l16.4 99.2.1 1.4-.4 158.4a8 8 0 0 1-2.5 5.7c-33.7 32-98.5 91.7-105.9 91.7s-122.7 13.4-181.2 20.3q-1.8.2-3.6-.4l-179.7-63.9-231.2-72.7c-8-2.5-14 7.4-8 13.3l39.8 39.7q1.2 1.2 2.9 1.8l367.9 137.6a8 8 0 0 0 4.3.4l230-46.1a8 8 0 0 0 4-2.2l99.7-100.7a8 8 0 0 0 2.3-5l13.7-177q.1-1.6-.4-3l-51.8-166.6-.4-2zM2351.2 1812.6c-7.8-3-14.5 6.4-9 12.7l22.6 25.8q1.2 1.4 3 2.1l190.9 78.5a8 8 0 0 0 8-1l68.3-53.8a8 8 0 0 0 3-6.3V1826a8 8 0 0 0-13.4-6l-74 66.7a8 8 0 0 1-8.2 1.5zM1933.8 2129.7a8 8 0 0 0 7.4-12.3l-354.4-545.3a8 8 0 0 1-.6-7.5l9.8-23.4a8 8 0 0 1 13.4-2.2l500.2 564.1a8 8 0 0 0 9.3 2l40.2-18a8 8 0 0 0 2.5-12.8L1608.2 1501a8 8 0 0 0-12.6 1.4l-30 49.2a8 8 0 0 0-1.1 4.1v50.2a8 8 0 0 0 1 4l286.4 509.9a8 8 0 0 0 6.4 4zM1681.7 1470c-5.3-6.3-15.6-1.3-14 6.8l12.4 60.6a8 8 0 0 0 3.2 5l88.8 63.8a8 8 0 0 0 5.6 1.5l177-19.7a8 8 0 0 1 7 2.9l6.6 8a8 8 0 0 0 14.2-5v-121.1a8 8 0 0 0-3.6-6.7l-106.8-70.5a8 8 0 0 0-6.9-1l-15 5a8 8 0 0 0-4.7 11.4l34.5 64 24.6 50.7a8 8 0 0 1-.2 7.5l-10 17.2a8 8 0 0 1-5.4 3.8l-96.1 18.6a8 8 0 0 1-6.7-1.7l-65.2-54.6-1-1zM245.5 2406.4a8 8 0 0 1-2.6-10l45.8-96.7a8 8 0 0 1 13.3-1.7l19.6 23.1c1.5 1.8 2 4.3 1.1 6.5-2.4 6.8 6.4 11.9 11.2 6.4l3.3-3.9c2.9-3.3 8-3.5 11-.4l14.8 14.8a8 8 0 0 1 2.1 7.2l-21.6 106.4a8 8 0 0 0 3 8l122 92.8a8 8 0 0 1 2.3 2.8l76.5 151.9a8 8 0 0 1-1.7 9.5l-87.7 80.6a8 8 0 0 1-11.7-1l-131-166.4a8 8 0 0 0-10.1-2.1L105 2741a8 8 0 0 1-5.5.7l-61.4-14.3a8 8 0 0 1-5.7-5c-11.1-29.8-30-84.2-27-91.5 3-7 35-48.6 54.4-73.2a8 8 0 0 0-1-10.8L23 2514.2a8 8 0 0 1-1.7-9.7l155.7-299 73.2-114.5a8 8 0 0 1 13.8.5l15.5 28.7a8 8 0 0 1 .7 5.9l-65.6 246a8 8 0 0 1-10 5.6l-10.4-3a8 8 0 0 1-5.5-9.9l55.4-194.6c2.5-8.7-9.2-14.2-14.3-6.7l-22.3 32.5-157.6 308.3a8 8 0 0 0 2 9.8l28.3 23.9a8 8 0 0 1 2.1 9.6L43 2628.9a8 8 0 0 0-.7 4.5l8.4 64.8a8 8 0 0 0 11 6.4l96.8-39.6 136.5-63a8 8 0 0 1 8.4 1l45 35.6a8 8 0 0 1 1.8 2.1l64.2 105a8 8 0 0 0 11 2.7l72.4-43.6a8 8 0 0 0 3-10.4l-61.4-127.1a8 8 0 0 0-2.5-3l-109-80a8 8 0 0 1-3.2-7.6l15.7-102.7a8 8 0 0 0-10.7-8.7l-2.2.9a8 8 0 0 0-4.7 4.8l-19.7 55.5a8 8 0 0 1-12.2 3.8l-14.8-10.5a7.4 7.4 0 0 1-2.6-8.6c3.2-8.4-8.4-14.2-13.2-6.6l-1 1.7a7.6 7.6 0 0 1-10.8 2.1zM1094.3 2243.8a8 8 0 0 0-12.4-3.6l-175.4 136.4a8 8 0 0 0 2.2 13.8l26.6 9.5a8 8 0 0 0 6.2-.4l171.5-84.3a8 8 0 0 0 4-10zM1096.7 2039a8 8 0 0 0-7.8 6l-15.8 60.9a8 8 0 0 1-5.1 5.5l-61.1 21.4a8 8 0 0 1-3.9.4l-61.1-9.7a8 8 0 0 0-6.1 1.6l-53 40.9a8 8 0 0 0 3.4 14.2l135.2 24.5a8 8 0 0 0 7.6-2.8l42.3-51.5 1.7-1.6 68.3-45.5a8 8 0 0 0 3.5-7.8l-7.3-49.7a8 8 0 0 0-8-6.8zM3278 1418l-75.7-379a8 8 0 0 1 0-3l16.7-81.5a8 8 0 0 0-.5-4.8L3097 672l122.5 244.5 23.7 49.4a8 8 0 0 1 .8 3.4v157.2zM2795.2 28.4c-5.7-6.7-16.5-.6-13.7 7.8l86.7 254.5.7 1.5L3026.7 556c3.4 5.6 11.4 5 13.6-1 4.2-11.7 7.4-24.7 2.7-27.5-6.8-4-156.9-320.7-231.6-479.6l-1-1.7zM2877.2 507.4a8 8 0 0 1 10.7 5.3l95.4 348 .5 1.5 160.7 321.8 20.7 32a8 8 0 0 0 14.5-2.5l6.3-27.1q.4-2.4-.3-4.6c-23.8-62.9-71-184.6-76.2-185.8s-75.2-129-110-193.6q-.5-1-.7-2L2949 579l-38.7-113.6a8 8 0 0 0-7.5-5.4h-92a8 8 0 0 1-7.8-6.1L2731.5 157l-36.1-147a8 8 0 0 0-4.2-5.2l-1.9-1a8 8 0 0 0-11.5 8.6l77.7 437.8a8 8 0 0 1-1 5.3l-39.7 70.6a8 8 0 0 1-2 2.4L2566 641.9a8 8 0 0 0-2.8 4.2l-79.7 292.6a8 8 0 0 0 3.6 9l49.2 29.7a8 8 0 0 0 12-5.6l6.3-39.2q.3-1.5 1.2-3L2803 539.2a8 8 0 0 1 3.8-3.2zM2207.8 1163a8 8 0 0 1 12 3.4l46.6 112.2a8 8 0 0 0 7.4 4.9h87.8c4 0 7.3-3 7.9-6.8l11-75.1v-52.9a8 8 0 0 1 2.8-6.1c29.8-25 84.2-72 84.2-77.1 0-3.4 2.3-23 4.6-42 1-7.9-9.1-12.2-14.2-6l-39.4 48-55.1 65.9a8 8 0 0 0-1.8 3.7l-21.3 121.4a8 8 0 0 1-8.8 6.6l-41-4.9a8 8 0 0 1-7-6.7l-14.3-90a8 8 0 0 0-5-6.2l-67-26.7a8 8 0 0 0-9 2.2l-59 68.3a8 8 0 0 0-2 4.4l-11.4 119.8a8 8 0 0 0 1.1 5l38.1 60.6a8 8 0 0 0 2.6 2.6l75 45.8a8 8 0 0 0 4.2 1.2h62.7q1.5 0 3 .6l30.8 12.1a8 8 0 0 1 5 8.4l-9.7 82.4a8 8 0 0 0 4.3 8l62.1 32a8 8 0 0 0 9.1-1.3l68.7-63.7a8 8 0 0 1 6.3-2.1l180.5 19.2a8 8 0 0 0 6-1.8l56.2-47.5a8 8 0 0 0 2.7-4.6l47.4-250.5.1-1.5v-117.5a8 8 0 0 0-4-7l-60.7-34.6a8 8 0 0 0-10.5 2.4l-61 87.6a8 8 0 0 1-6.5 3.4h-67a8 8 0 0 1-8-7.2l-7.8-75.3-4.7-40.2c-1-8.5-13-9.6-15.6-1.5l-11.4 35.4-.4 1.6-7.2 67.6a8 8 0 0 0 .6 4l27.4 64.8a8 8 0 0 0 8 4.8l69.3-5.7a8 8 0 0 0 5.7-3l61.3-78.8a8 8 0 0 1 5.1-3l32.2-5c4.1-.5 8 2 9 6l16.3 63.3a8 8 0 0 1 0 3.5l-32.6 168.2-44.6 133.7a8 8 0 0 1-8 5.5L2507 1493h-63.2a8 8 0 0 0-6.7 3.7l-34.3 53a8 8 0 0 1-7.9 3.5l-30.8-4.6a8 8 0 0 1-6.8-8.7l10.7-96.9a8 8 0 0 0-3.1-7.2l-34.8-26.2a8 8 0 0 0-4.8-1.6h-70.2l-2.2-.3-57.5-16.2a8 8 0 0 1-5-4.1l-33.3-65.7a8 8 0 0 1-.8-4.7l11.5-86.9q.1-1 .7-2.1l22.6-51.5a8 8 0 0 1 2.6-3.3zM1934.5 1215.5a8 8 0 0 1-10.2 4.3l-197.5-73.4a8 8 0 0 1-5-9.1l18.5-91.8c1.8-8.8-9.9-13.4-14.6-5.9l-47.5 75.6a8 8 0 0 1-11 2.6l-76.6-48a8 8 0 0 1-2.9-10.3l60.3-122q1.5-3 .4-6.2l-9-25.9a8 8 0 0 0-15-.4L1511 1170.8a8 8 0 0 1-2.9 3.5l-25.8 17.2a8 8 0 0 1-9.8-.7l-57.9-53a8 8 0 0 1-2.4-8l44.4-178.6a8 8 0 0 0-8-10l-237.3 5.7a8 8 0 0 1-8-5.8L1194 909a8 8 0 0 1 8-10.2l269.2 6.6a8 8 0 0 1 7.5 5.7l20.2 68.5a8 8 0 0 1 .2 3.9l-33.6 158.5a8 8 0 0 0 9.5 9.5l12.5-2.6a8 8 0 0 0 6-5.2l44-130.7 75.7-178.6a8 8 0 0 1 11-4L1669 853a8 8 0 0 1 4.4 6.4l3.6 41a8 8 0 0 0 5.4 6.8l92.1 32.2a8 8 0 0 1 5.3 6.3l9 55.4a8 8 0 0 1 0 2.8l-20.4 105a8 8 0 0 0 5.4 9.2l169.8 53.3a8 8 0 0 1 5 10.7z"/><path fill="#c9ded6" d="M1603.6 1133.3a8 8 0 0 0-11 2.2l-73.7 107.4a8 8 0 0 0 2.6 11.4l72.7 41.8a8 8 0 0 0 10.8-2.8l65-107.2a8 8 0 0 0-2.5-10.8zM1714.1 1281.1a8 8 0 0 0-10.7-3.5l-74.9 38a8 8 0 0 0-3.7 10.2l13.2 32.7a8 8 0 0 0 11.5 3.9l75.4-43.6a8 8 0 0 0 3.1-10.6zM1075.8 771q-1.3-.6-2.5-.2c-9.3 3.2-58.2 30.6-95 51.6-6.7 4-4.5 14.2 3.3 14.9l82.4 7.4a8 8 0 0 0 6.1-2.1l48.1-44.5a8 8 0 0 0-2.8-13.5zM1083.4 687.1a8 8 0 0 0-11.4-4.7l-160.3 84a8 8 0 0 0-3 11.4l15.7 25a8 8 0 0 0 9.8 3.2l158.5-64.7a8 8 0 0 0 4.6-9.8zM1107.5 595.7a8 8 0 0 0-6.6 9.3l5.5 31.2a8 8 0 0 0 10.5 6.2l60.5-21a8 8 0 0 0 5.1-5.6l5.5-22a8 8 0 0 0-9-9.8zM1528.4 752.8a8 8 0 0 0-6.5 5.4l-35.5 107a8 8 0 0 1-9.9 5l-233.2-70.1a8 8 0 0 0-3.7-.3l-74.2 13.3a8 8 0 0 0-5.6 11.7l14.2 26a8 8 0 0 0 6.2 4.1l183.8 17.6 95 22.5 39.4 10.2 2.1 1 22 13.3a8 8 0 0 0 11.8-4.7c8.5-31 21.8-80 23.2-88.3 1.4-8 4.2-44.8 5.8-69.1a8 8 0 0 0-9.1-8.4zM971 1233a8 8 0 0 0-9.3-11.5l-148.6 43q-1.5.5-2.9 1.5l-75.5 62.1q-1.7 1.5-2.5 3.4L668 1504.2q-.5 1.3-1.4 2.4l-63.2 73.4a8 8 0 0 1-8.4 2.4l-92.5-29.4-27.3-12.3a8 8 0 0 1-4.5-5.7l-6.5-30.9a8 8 0 0 0-15-2l-31.4 63.3a8 8 0 0 0 4 11l97.8 41.3a8 8 0 0 0 4 .6l112.7-12.8a8 8 0 0 0 6.2-4.3l97.7-186.6a8 8 0 0 1 2.3-2.7L961 1249q1.5-1 2.2-2.5zM417.7 1268.3a8 8 0 0 0 3.3-14.5l-121.3-84.3-1.3-1.1-64.7-70.1a8 8 0 0 1-1.7-3l-34.4-107a8 8 0 0 1 .6-6.3l33.3-60.7a8 8 0 0 0 1-3.9v-49.6a8 8 0 0 0-14.3-5l-78.9 101.3a8 8 0 0 0-1.6 5.4l7.2 125a8 8 0 0 0 1.7 4.5l85.3 106.2 1.4 1.4 98.4 73.8a8 8 0 0 0 6.2 1.5zM546.9 666.7a7 7 0 0 0-3.4 6.8c2.5 17.6 15.2 73.1 23.4 107.6a8 8 0 0 0 10.7 5.5l64.7-25.3c4-1.6 6-6 4.7-10l-24.6-70.4a8 8 0 0 0-3-3.9l-37.1-26a8 8 0 0 0-8.8-.3zM-4.1 627.8a8 8 0 0 1 6-6l36.3-8.5a8 8 0 0 1 9.8 7.8v34.2a8 8 0 0 1-6 7.8L-3 675a8 8 0 0 1-9.9-9.6zM-7.6 328.5A8 8 0 0 1-3 320L705.7-1.2a8 8 0 0 1 5.7-.3l12 3.8a8 8 0 0 1 1 14.9L242.3 248.8a8 8 0 0 0-3.4 11.2l17.4 30.5a8 8 0 0 1-7 12h-20.6a8 8 0 0 1-7.2-4.7L204 260.1a8 8 0 0 0-11-3.7l-186 97a8 8 0 0 1-11.7-6zM-8.8 236.9a8 8 0 0 0-4.7 9.2l8.3 35a8 8 0 0 0 11 5.4l628-283.7a8 8 0 0 0 1.8-13.5l-17.8-14.7a8 8 0 0 0-8.3-1.2zM1005.5 261.6a8 8 0 0 0-11.7-.7L901.3 349a8 8 0 0 0 .2 11.8l50.4 45.1a8 8 0 0 0 9.7.7l98.5-64.7a8 8 0 0 0 1.7-11.8zM1390.3 365.9a8 8 0 0 0 5.6 4.4l86.8 17.7a8 8 0 0 1 4 2.1l103 99.8a8 8 0 0 1 1.6 9.4l-41.4 81a8 8 0 0 1-2.5 2.8l-51 37a8 8 0 0 1-11.4-2.2c-30-47-82-129.7-82-133.9 0-4-13.3-67.2-21.6-105.5a8 8 0 0 0-10.6-5.8l-61 22.9a8 8 0 0 1-7.2-.9l-33.5-22.2a8 8 0 0 1-3.4-8.4l8-36.4a8 8 0 0 1 3.5-5l43.9-28.5a8 8 0 0 1 7.2-.7l30.7 11.9a8 8 0 0 1 4.4 4zM1782 127.4a8 8 0 0 0-10.7-1.8L1655 203.2a8 8 0 0 0-2.3 10.9l10.8 17.2a8 8 0 0 0 11.4 2.2l114.9-82.7a8 8 0 0 0 1.6-11.4zM1325.1 74.9a8 8 0 0 0-2.5 9.1l66 176a8 8 0 0 0 15 0l5.2-13.5q1.2-3 0-6l-68.3-164.8a8 8 0 0 0-12.3-3.2zM1404.2 23a8 8 0 0 0-5.2 10.5l80 215.3a8 8 0 0 0 14.5 1l1.9-3.4a8 8 0 0 0 .6-6.1l-63.7-217.1a8 8 0 0 0-10-5.4zM1465.9 6c-4.8 0-7.9 4-6.4 8.4 11 33.8 56.5 157.3 83.3 229.6a8 8 0 0 0 12.3 3.6l26.4-19.8a8 8 0 0 0 2.5-9.6l-89.4-207.4a8 8 0 0 0-7.4-4.8zM1541 10.3c-5.5.8-9.3 7.3-7.3 12.5a36057 36057 0 0 1 71.3 193.7 8 8 0 0 0 12.8 3.2l26.5-23.5a8 8 0 0 0 2.2-8.9C1622 123.7 1575.6 6 1572.5 6c-2.4 0-18.3 2.3-31.5 4.3"/><path fill="#c8dad7" d="M3317.8 1473.8q0-10.6-2.8-21l-20.5-75.2-.3-1.5-8.8-45.8a15 15 0 0 0-2-5l-1.5-2.5c-2.5-4.1-9.5-3.2-12.1.8a6 6 0 0 0-.2 6.5l2.2 3.3q4.5 6.7 6.6 14.5l27.3 102.6q4 15.2 4 30.9V1582l-1.1 12.3c-.4 4.2 5.8 5.3 6.8 1.1a80 80 0 0 0 2.4-19.4zm-500.4 1079.4c-3.2.1-6.6 4.2-6 7.4q1.7 8.4-2.7 17.2c-.7 1.4 0 3.1 1.5 3.6l11.1 3.3q4.3 1.3 8.4 3.3l38.4 19.3.7.3q5.2 2.7 10.9 4.4l63.5 20.2q13.6 4.3 27.9 3.7l60-2.7q8.1-.4 15.9-2.3l6.8-1.7c5.5-1.4 6.6-9.7 2.5-13.7a12 12 0 0 0-10.4-3l-14 3a39 39 0 0 1-18-.6 11 11 0 0 0-9 1.7c-5.8 3.9-12.7 5.9-19.8 5.4h-.6l-14.5-1.2h-3.2l-23.9 3c-7.7.8-15.5-.8-22.1-4.6a11 11 0 0 0-6.4-1.3c-9.2.8-18.4-3-24.4-10.2q-1.4-1.6-3.2-2.6l-5.7-2.7a8 8 0 0 0-4.6-.7l-3.3.4c-14 2-25.9-7.5-28.6-20q0-.7-.9-1c-7.3-2.8-13.4-8-17.4-14.7l-7.7-13.1zm192.5 57.5 1.8-4.3zm199.1-46.4a6 6 0 0 0-4.4 4.3 33 33 0 0 1-8.3 13.9l-7.7 7.7c-.5.5 0 1.4.7 1.2l3.7-1.5q6-2.4 10.6-6.8l10.2-9.7c3.8-3.7.5-10.2-4.8-9m-435.7-3.9a2 2 0 0 0-2.5 0c-1.2 1-1.3 3.4-.2 4.4a12 12 0 0 1 3.5 6.3q.3 1.6 1.3 2.7l4.7 4.5q.7.6 1.3-.3l.2-.3 5.9-11.1q.5-1 .3-1.5 0-.7-.6-1.5-.5-.6-1.2-.9-.5-.2-1.5 0h-.4c-4 1-8 0-10.8-2.2m-34.5 11.8v.1zm53.5-35.4q-1.6.2-1.3 1.7v.2q.2.5.7.7c.9.2 1.7-.8 1.3-1.6l-.2-.6zm541.5-79c0-1.2-2.7-2-3.4-.9l-.8 1.3c-.5.8-.3 2 .4 2.7 1.3 1.3 3.7.6 3.8-1.3v-1.7m-901.1-53.7q2.1 2 3.8 4.5c2.1 3 5.6 5 9.2 5.5a24 24 0 0 1 17.7 11.9q2.6 4.2 7.4 5.7a27 27 0 0 1 15.7 11.8l1 1.5.4.2q5.8-.5 11.3 1 3.7.9 7.1-.4c7-2.7 14.6-1.7 20.5 1.6l3 1.6h1l.1-.1.3-.2h.2a27 27 0 0 1 17.5-1.4c3.4.8 9.2 1 13.9.7a25 25 0 0 1 20.7 8.6 9 9 0 0 0 5 3.2l1.4-.1 11.6-4c.6-.1.7-1 .1-1.3l-16.6-8.2a35 35 0 0 0-10-3.3l-11.8-2a34 34 0 0 1-12-4.3q-2.8-1.6-6-1.5c-6.3.2-12.6-1.5-18-4.8q-.8-.6-1.7 0a41 41 0 0 1-44 0l-10.7-7q-1.5-1-3.3-1.6l-20.4-8.5a50 50 0 0 1-14.4-9.1m31 50.7q-.6.2-.1.6l1.8 1.1q.8.1.6-.5-.6-.8-1.6-1.2zm-21.1-16.8h-.6l-.2.2c-.5.2-.6.9-.1 1.2q.6.3 1-.4l.1-.3v-.4zm904.8-38.7-6.1 18.3-2 10.2 7-22.8q.8-2.7 1.5-5.5 0-.4-.4-.2m-919.2.4h-.3q-.6.2-.2.6 2.3 1.5 4.4 3.2l-.5-.5zm-82.1-50.5c-.5-.2-1.1.3-1 .8l.2.7.3.8.6 2q.5 1.2 1.8 1.7a25 25 0 0 1 14.4 16.8q.4 1.8.9 3.2a5 5 0 0 0 3.1 2.8l19 5.4a32 32 0 0 1 18.3 13.8q.7 1 2 .6c1.5-.4 1.8-3 .5-4q-2.4-1.5-4.5-3.5l-20.7-19-.6-.6a58 58 0 0 0-13.2-10zm-7.4 28.2.3.6h.1l-.2-.5zm-17-19.7c-1-.3-2 .8-1.6 1.8l.9 3q.4 1.7 2 2.3l1.9.4q.2 0 .1-.1a43 43 0 0 1-2.4-6.6q-.2-.6-1-.8m-16.1-5.2h-.1m1034.3-90.4c-1.4-1.8-4.2-1.6-5.6.3l-1.5 1.7q-.3.4 0 .8a41 41 0 0 1 10 27.5q0 1.6 1.2 2.4h.2c2.2 1.5 5.6 0 5.6-2.6v-3.7c0-8.7-2.8-17-8-24zm-1108.2 10.5q-1.2-.9-2.3.3c-.6.8-.3 2.1.7 2.4l2.2.8c1 .3 1.8-1 1-1.8zm-31.2-31.8q-1.5.4-2.5 1.6l-3.2 3.6c-.6.7-.5 1.7.2 2.2l.4.4 5 4q.7.7 1.6 1.2l7.6 4.5.3.1h.3l.2-.5v-.3q-1.4-4.7.1-8.4c.8-2-.1-4.3-2-4.7a20 20 0 0 1-7.9-3.6zm-422.2-137.2c-1.6-.4-3.2 1-3.1 2.5q0 .8.7 1.4l7.9 6.4a48 48 0 0 1 15 22l.2.4a8 8 0 0 0 3.5 4.1l26.4 14.8h.2-.1l63 35.5 53 23.2a80 80 0 0 0 16.6 5.2l52.8 10.5q3.3.5 5.7-2 2.7-3 5.8-5c1.1-.9 1-2.8-.3-3.3l-1.5-.3h-.2l-2.7.6c-7.3 1.5-15 .7-21.7-2.3q-2.8-1.1-5.7-.9c-6.2.7-12.4-.9-17.5-4.3a13 13 0 0 0-9.6-1.9c-6.4 1.2-13.3 0-19-4.2l-.4-.2-10.2-7.7q-1.2-.7-2.2-1.8-.8-.8-1.5-1.3-.5-.3-1-.2l-1.5.2c-9 1.3-18-1-25.3-6.2-2.5-2-5.9-2.5-9-2a22.5 22.5 0 0 1-24.7-13.7q-1.5-3.2-4.8-4a32 32 0 0 1-19.2-12.5q-2.3-3-5.9-4.2-3.9-1.3-7.2-3.9a43 43 0 0 0-6.8-4.1q-2.8-1.5-5.2-3.7l-1-.8q0-.3-.4-.3l-3.2-1.2a28 28 0 0 1-16.6-15.4 9 9 0 0 0-2.6-3.3q-3.5-2.7-6-6.5l-.3-.5-2.9-4.5a8 8 0 0 0-6.2-3.7l-.7-.1q-2.4-.2-4.7-.8m1548.9 103.6c-.4-.4-1.2-.1-1.2.5l.2 1.8c0 1 1.8 1.2 2.2.3v-.2q.3-.4 0-.9zm-25.7-109c-1.6-.2-3 2.5-2 3.7q1.3 1.6 2.4 3.5l.2.5 6.3 11.2.7.8c8.8 7.3 11.7 20 6 30.7l-3 5.7a8 8 0 0 0-.8 5.2l5 26.8q0 .5.4.8c1 1.2 4.2.2 4.4-1.5q.8-7 4.8-12.8.6-1 .8-2.2l1-9.5a31 31 0 0 1 11.8-21.4l1-1v-.5q-1-2.2-1.7-4.5c-.9-3.2-3-6-6-7.5-9-5-15-14.5-15-25.3v-.2q0-.4-.6-.6zM1896 2159.4c-.6-.7-2.3.3-2.2 1.2.1.6.8.9 1.3.6l.8-.4q.8-.6.2-1.4zm1468.2-12.8a.6.6 0 0 0-1 0c-.6 1.4.2 3 1.7 3.3h.4q.3 0 .5-.2v-.6zm-1610.6-70q.3.8 1.3 1.2l1.3.7 1.2.6q-1.7-2.7-2.5-5.9l-1-3.5-.3-.3-1.4-.7c-1-.5-2.2.6-1.7 1.6zm49.3-4.1v-.3zm1458.8-8.5v.5q.1 1.4.7 2.6c.3.5.8.2.6-.4l-.8-2.7c0-.3-.5-.2-.5 0m-1545-61.2h-.2q1 1.5 1.8 3.1l1.7 3.5c.5 1 1.9.4 1.6-.6l-.2-.4q-3-2.4-4.7-5.6m1552.7-202.4-7.4 48.8q-1.3 8.2-.8 16.4c0 1.3 1.5 1.3 1.6 0l7-63.5v-.3l.1-.4v-.2l.2-.9 2.8-14zm-1630-56.3c-1-.5-2.2.5-2 1.5q1.2 4 .8 8.3c-.1 2 .1 4.7.8 7.1l.2.7.1.5v.3l4.3 17 .1.2a4 4 0 0 0 2.5 2.7c.6.2 1.2-.4 1-1l-.7-2a47 47 0 0 1-.6-29.8v-.1q.3-1-.5-1.5zm-25-24c-.7-.8-1.4-.4-.7.3l1.4 1.1q.5.2.3-.3zm-897.3-157.7a12 12 0 0 1-6 2.5c-1.3.1-2.5 2.2-2 3.3q.4.8 1.3.4l7-5.7.1-.2v-.2h-.4m435.5-333.3-.4.1-.6.4a27 27 0 0 1-29.8 1.7l-.6-.2-9-.6q-3.2-.2-6.3.4l-.5.1-11.5 2.5q-9 2-18.4 2.6l-9 .5q-5.3.3-10.4 2.3l-5.1 2c-1.4.5-1.6 2.6-.3 3.4q5 3.1 8.3 8l1.2 1.5q.3.3.7.2l81-9.3h.9a26 26 0 0 1 13.6 2.4l.8-.4a77 77 0 0 1 66.7 1.3l22.9 11.5a45 45 0 0 0 20.2 4.8c26.7 0 52 12.6 68 34l16.2 21.5 27.1 31.9.1.1q.6.5 1.2.5h3.7c16.2 0 29.6 12 32 27.5q.2 2.2 1.4 4l38.1 55q.4.2.5-.2v-9.9q0-.3-.2-.4-4-4.3-6.8-9.3l-13-24.3a80 80 0 0 0-12.7-17.7l-56-58.4-.2-.2-13.3-14.2q-6-6.4-13.3-11.4l-11.7-8-.7-.5-24.7-18.6q-5.8-4.5-12.2-7.7l-32.4-16.2q-6-3-12.3-5l-12.3-3.8a32 32 0 0 0-5-1.1l-10.5-1.6q-2.4-.3-4.7.6a30 30 0 0 1-19.6.7l-8.7-2.6q-1.2-.4-2.5-.4l-19-.4zm-344.2 145.2.1-.2zm2.2-5v-.6zM790 1359l-.1.1zm106.4-21.3zm-16-36.2c.3-1.6-1.8-3-3.1-2a60 60 0 0 1-16.9 7.5l-1 .3a23 23 0 0 0-7.9 4l-3.4 2.6c-.8.6-.5 1.8.4 2q.7.2 1.2-.2c3.7-4 8.5-6.4 13.4-7.2h.7a34 34 0 0 0 11-3.8l4.6-1.8q1-.4 1-1.4m35.8-31.3q.1-.5-.3-.3l-1.8 1c-.6.4-.3 1.3.3 1.3l.2-.1zm65 0q.4 0 0-.1h-.4q-.2.2 0 .2zM3236 827.7l-10.2 4.7 10-5zM2905 287a28 28 0 0 0 10 14.6l3.3 2.4 2.4 2c.9.7 2.2-.1 2-1.2l-1.4-5.2a21 21 0 0 0-5.4-9.7l-5.8-5.8q-6-6.1-8-14.3l-2.2-8.5a3 3 0 0 0-1-1.7l-1-.7c-.3-.3-.8 0-.7.5zm-51.4-113.2q-.6-.2-.6.4l1 2.9.1.7 2.7 10.2q0 .8.9 1.3l2 1.3c5.4 3.1 9.6 8.5 10.9 15.4l.1.7v.2l.1.4v.2l.8 6.3q.2.9.8 1.5.4.2.6-.2.3-3.8 1.4-7.4.7-2-.5-4l-6.4-9.5q-3-4.7-4.4-10a12 12 0 0 0-5.4-7.3q-2.3-1.3-4.1-3M-55 1903.5a5 5 0 0 0 4.2 4.7l62.5 10.4q2.4.4 4-1.3a45 45 0 0 1 31.5-12.8h10.4q3 0 5-2.2l2.4-2.3a39 39 0 0 1 27.8-11.5h3.5q.8 0 1.3-.6l1.2-1.8c5.9-9.6 18-15.4 30.4-11.4l2 .6a8 8 0 0 0 5.5-.2l11.9-4.9 30.2-15.1 1.4-.7q10.4-5 21.5-7.8l17-4.3a42 42 0 0 1 20.2 0c2 .5 4-.6 5-2.5a30 30 0 0 1 27.7-16.6q2.4.1 4.5-1l16.2-8a95 95 0 0 1 19.4-7.2l16.2-4q4.6-1.1 8.4-3.8l14.8-9.8.1-.1.3-.2.2-.1q3.5-2.2 7.5-3.3 3-.8 5.1-2.9c6-6 14.3-9.2 22.8-8.8a11 11 0 0 0 6.4-1.7q4.4-2.8 9.4-4.2l32.7-8.9q4.7-1.2 9-4l5.8-3.6.9-.6a52 52 0 0 1 32-7.4q4.2.4 7.8-1.8l107.2-67.1a80 80 0 0 0 16.6-14l49.4-54q3.8-4 5-9.4l.4-1.2a62 62 0 0 1 8.1-18q1.1-2 0-4c-1.2-2-4.1-2.6-5.8-1l-26 26q-1.2 1.2-2 2.9l-2.8 5.5a36 36 0 0 1-16.9 16.4 9 9 0 0 0-4 3.5l-3.6 6.2q-5 8.2-13.6 12.1a12 12 0 0 0-5.6 5.6 30 30 0 0 1-11.7 13l-.4.3-81.4 47.7q-10.5 6.2-22 10l-1.5.6-58.9 19.3q-1 .3-1.4 1.2a27 27 0 0 1-34 14 30 30 0 0 1-21.3 11.2 15 15 0 0 0-12.3 9 29 29 0 0 1-23.9 17.5l-9.6.9q-.5 0-1 .4l-1.2 1.3a23 23 0 0 1-13.2 6.7l-10 1.5a8 8 0 0 0-2.8.9l-3.2 1.8a68 68 0 0 1-28.2 8.5l-37.6 2.7q-.6 0-1.2.5l-1.5 1.5a38 38 0 0 1-30.8 9.8 9 9 0 0 0-4.2.4l-19.8 7.1-87.2 39.5-.2.1-30 13.4a50 50 0 0 1-20.5 4.4h-2q-2 0-3.4 1.3a45 45 0 0 1-43.5 9.3l-.8-.2-25.2-8.5a5 5 0 0 0-6.6 4.8zm1566.5-322.2q0 1 .7 2l4.9 7.4q.2.3.7.5l1.6.6a24 24 0 0 1 15.7 19.3l.4 2.2q.1.8.8 1.4l.3.2a33 33 0 0 1 12.5 26.3c0 1.4 1 2.7 2.4 3 2.8.6 5.5-2.8 4-5.1l-9.7-15q-4.5-7-7.1-14.9l-1.6-4.8a8 8 0 0 0-2.5-3.6l-.3-.3-.7-.5a27 27 0 0 1-9-23q0-1-.5-1.7l-4.5-5.4a49 49 0 0 1-10.8-26.5l-.5-5.4q-.4-4.2-2-8l-.2-.5-13.4-29.5c-.6-1.3-2.3-.5-1.9.8l.6 2 9.5 33.3a9 9 0 0 0 1.8 3.3c5.6 6.7 8.8 15.1 8.8 24v17.8M2902.1 352a20 20 0 0 0-8-15.9l-3-2.4a68 68 0 0 1-24.5-35.7l-7.6-26.4a10 10 0 0 0-4.5-5.5 26 26 0 0 1-11.4-14.6q-.9-2.9-3-5a23 23 0 0 1-6.3-13.2l-.7-5.3q-.1-1-1-1.8l-2-1.5c-4-3-7.2-7.4-8.5-12.8l-5.7-22.3q-.4-1.4-1.1-2.4l-11.6-17.4q-.7-1-1.6-2a53 53 0 0 1-13-20.8l-10.6-32.3q-1.9-5.9-5.4-11l-5.3-7.9c-6-8.8-9.1-19.2-9.1-29.9v-4.6q0-1-.7-1.6c-11-11-15-27.2-10.6-42.1l15.1-50.4.3-.8a43.8 43.8 0 0 1 85.3 10.5l5.8 85.9q.3 5.7 4 10.2l.3.5c8.1 10.1 12.5 22.6 12.5 35.5v2.4q0 8.5-3.2 16.5a4 4 0 0 0 1 4.9l6.4 5.9a3 3 0 0 0 2 .8c13 .1 24.8 10.1 25.7 24.3v7.8a8 8 0 0 0 1.3 4.4l6.7 10 .3.6a35 35 0 0 1 4.1 28.2q-.6 2.3.8 4.2l.4.5q.4.5 1 .6l1.9.5a22 22 0 0 1 16 14.5l.2.8v.2l.1.4.1.3 4.8 18.9a8 8 0 0 0 2 3.7l2.5 2.5a61 61 0 0 1 15.8 28l1.3 5.3A59 59 0 0 0 2972 317l45.7 58.9.2.1.2.3v.1l.5.6 42.9 64.3a89 89 0 0 1 10.4 21.2 49 49 0 0 0 11.7 19l2.3 2.4q12.7 12.7 20.3 29l2.8 6q6 13 9 27.2l1.2 6.4a80 80 0 0 0 6 18.1l22.9 49 .2.6.2.5 47.6 119.4 12.4 24.7a120 120 0 0 1 6.6 16l3.4 10.3q1.9 5.5 4.5 10.7l12.7 25.4-10 5 10.2-4.7-.1-.2 16 32 .1.4.2.4.2.3 21.3 50.1q3.1 7.2 5 14.9l21.2 84.2q1.3 5.3.4 10.3-.7 4.2 1.2 8c3.1 6.3 3 13.7.1 20a11 11 0 0 0-.8 7.5q1.1 4 1.7 8l7.4 58.5v1.5l4 80v.4l1.9 66a30 30 0 0 1-3.8 15.4c-1.6 3-2 6.7-.2 9.6l5.9 9.7.6 1a55 55 0 0 1 6.2 16l.2 1.3 8.7 45 20.3 74.5a120 120 0 0 1 4.2 31.5v102.3a120 120 0 0 1-3.6 29l-20.8 83.7-23.8 118.6-7 62.8q-1 10-3.8 19.7l-7.4 26c-3 10.7-3.3 22-.8 32.7l.6 2.6q2.7 11.7 2.7 23.6v37q.1 7.3 1.6 14.5l5.3 27 .1.3.3.9.2.4q1.6 3.1 5 3.5l13 1.7 2.5-.1a31 31 0 0 1 34.1 20.7 13 13 0 0 0 7.7 7.6l1.5.6a23 23 0 0 1 13.1 21.5l-.3 10.3a8 8 0 0 0 1.2 4.4l7.1 11.5.5.7c4.2 7.5 4.3 16.6.1 24.1l-.4.8a25 25 0 0 1-14.7 11c-3 .8-5.5 3-5.8 6.1q-.5 4.6-2.3 8.7-.2.6.1 1a31 31 0 0 1 3 34.2 9 9 0 0 0-1.1 4.4v.1q0 2.1 1.3 3.8l6.7 9a80 80 0 0 1 16.1 48v92.8q0 18.1-5.3 35.5l-8.5 27.6a50 50 0 0 0-2.2 14.6c0 13.2-3 26.2-8.6 38.1l-1 2.1c-7 14.7-17.3 27.5-30.3 37.2l-14.9 11.3-20.2 20.3a22 22 0 0 1-11.5 6l-1.2.2-1 .2q-.8.2-1.4.8l-8 8a26 26 0 0 1-22 7.5h-.1l-22.5 21.4a73 73 0 0 1-23.3 15l-30.6 12.2-2.5.8-118 29.6q-11.6 2.9-23.7 3.4l-60.1 2.8a120 120 0 0 1-41.9-5.6l-63.5-20.2q-9-2.8-17.3-7l-38.5-19.3-1.9-.8-23.2-7a32 32 0 0 1-19.4-16.2l-1-1.3q-1-1.3-2.9-3c-1.9-2-5.5-5.2-7.6-7.6l-.3-.4-.3-.2-9.7-4.9h-.2a22 22 0 0 1-12.3-24.5c.8-4.3-.6-9-3.8-12a33 33 0 0 1-10.7-24.5q0-1.3-1.5-1.8-2.3-.5-4.3-1.4l-30.8-12.4q-.8-.3-1.7-.2h-.2l-5 1.2q-7.2 1.8-14.5-.4a4 4 0 0 0-2.9.2l-2.6 1.4c-5.9 3.5-13.4 4.4-20.6 1.3l-2-.6a30 30 0 0 1-15.7-9.1c-2.6-2.9-6.5-4.5-10.2-3.3l-3.8 1.3a43 43 0 0 1-21.2 1.5l-.7-.1-10.8-2.1-1-.3c-3.5-.8-8.5-1.2-12.1-1q-7.4.7-14.1-3.2c-2.7-1.5-6-2.1-8.8-.8-6.5 3-13.4 2.9-19.2.6-3.7-1.5-8-2.6-11-2.7q-5.2-.2-10-2.4l-1.8-.8a8 8 0 0 0-4.6-.6l-7.6 1.2a26 26 0 0 1-20-5.2c-4-3.2-11.3-7.7-15.9-9.8q-4-2-7.5-5.2l-4.7-4.8a22 22 0 0 0-7.7-4.8q-2.4-.6-4.8-1.8l-3.5-1.8q-7.5-3.8-11.4-10.6a4 4 0 0 0-3.8-2.2h-.4a32 32 0 0 1-28-16.5 9 9 0 0 0-5.3-4.5l-30.3-8.7a25 25 0 0 1-17.3-17.6l-1-3.2a5 5 0 0 0-3.2-2.8c-8.2-2.2-13.6-8-16-14.6-1-2.6-3-4.9-5.2-6.4a20 20 0 0 1-7.1-8.5 13 13 0 0 0-7.5-7.2q-9.6-3.1-16-11l-.6-.9-12.5-16.5a4 4 0 0 0-3-1.6h-.2q-7.2 0-14-2.3l-43.8-14.6-43.4-12q-1 0-1.7-.4l-16.3-6q-4.8-1.9-8.5-5.1-.8-.7-1.9-.6c-6.4.2-12.1-2.3-16.3-6.3l-2-1.9a3 3 0 0 0-2.4-.7l-15.2 1.3c-8 .7-15.8-1.6-22.2-6.4l-5.2-4c-3.5-2.5-8.3-1.9-11.6.8a37 37 0 0 1-30.2 7.4l-58.3-11.5q-12.8-2.6-24.8-7.8l-54-23.7-1.7-.8-63.9-36-26.4-14.8a48 48 0 0 1-22.1-26.8 8 8 0 0 0-2.5-3.7l-10.4-8.5c-6-4.9-10-11.6-11.7-19q-1-4.1-4.5-6.6a39 39 0 0 1-13.3-15l-33.7-67.4a9 9 0 0 0-2.7-3.2 29 29 0 0 1-10.6-27.8c.5-3.4-.3-6.9-2.3-9.6-3-4.2-4.8-9.5-4.5-15.5l.5-12.7q0-.3-.2-.4a29.6 29.6 0 0 1-11.6-38.3 9 9 0 0 0 1-4.8l-6-66.4q-.4-5.1-3.7-9a56 56 0 0 1-7.1-11l-4-8q-.7-1.4-2.2-2a44 44 0 0 1-26.5-30.3l-2-8.5-.4-.5-1.2-1a24 24 0 0 1-8.4-23.5v-.5q0-.4-.2-.6a50 50 0 0 1-19.4-25.7l-.4-1a8 8 0 0 0-5-5 25.6 25.6 0 0 1-17.3-27.2c.3-3.3-.6-6.8-3.1-8.9l-2.7-2.2a8 8 0 0 0-4-1.7l-4.5-.7a33.4 33.4 0 0 1-28.6-34.1c.1-3-.9-5.9-3.2-7.7l-2.7-2.2a24 24 0 0 1-6.6-8.4c-1.1-2.3-2.8-4.9-4.5-7q-.8-1-1.5-2l-10.3-15.4a45 45 0 0 1-7.4-24.6v-13.2q-.1-3.1-2-5.5-4.4-5.7-6.4-12.5l-10.2-35.9a80 80 0 0 0-11.2-23.7l-60.3-87a33 33 0 0 1-3-5.3 11 11 0 0 0-7.6-6.4c-8.8-1.9-16.9-6.7-22.8-13.7l-27.6-32.3-.4-.5q0-.2-.3-.5l-16.6-22a45 45 0 0 0-36-18 85 85 0 0 1-38.1-9l-22.9-11.5a38 38 0 0 0-20.4-3.8h-.7q-5.9.8-11.2 3.2l-8.4 3.8a26 26 0 0 1-24.2-1.4q-.7-.5-1.5-.3l-85.2 9.8a28 28 0 0 1-26.9-13.4l-.9-1.4-.3-.1h-21.2q-.3 0-.4.2l-1 1.3a27 27 0 0 1-42 4.6 5 5 0 0 0-7.6.4l-9.5 11.9a36 36 0 0 1-19 12.4c-3.5 1-6.4 3.6-7.6 7a34 34 0 0 1-19.6 20.3 10 10 0 0 0-4.4 4 23 23 0 0 1-20.4 10.9 12 12 0 0 0-6.3 1.6 28 28 0 0 1-24.3 1.8c-1.4-.5-3-.2-4 .8a27 27 0 0 1-6 3.8 22 22 0 0 0-7.2 6 26 26 0 0 1-15.7 9.8h-.2q-.9.3-1 1.1a23 23 0 0 1-12.9 16.5l-2 1q-.8.5-1 1.3l-.6 1.5q-.3 1-.3 2.2v6.4a45 45 0 0 1-4.7 19.6l-12.3 24.5a22 22 0 0 1-7.8 8.7q-1.5 4.5-4.5 8.2l-3.5 4.3a18 18 0 0 0-2.6 4.6l-3.6 9a51 51 0 0 1-11.3 17.1q-1.2 1.2-2 2.8l-9.9 19.6a61 61 0 0 0-4.6 12.4q-.2 1.6 1.3 2.5a24 24 0 0 1 13.7 14.8l.3.8v.2l.1.5.1.4.1.5.1.2c1.9 9-1.4 18.2-8.6 24l-16.9 13.4q-5.7 4.6-7.4 11.7a62 62 0 0 1-14.4 26.8l-49.3 54a120 120 0 0 1-25 20.9l-107.2 67a52 52 0 0 1-32.7 7.8q-4.1-.3-7.8 2l-5.8 3.6q-8.7 5.6-18.6 8.5l-1.4.3-29.2 8q-1.9.5-3.4 1.8c-5.3 4.4-11.9 7-18.6 7.3q-4.2.3-7.2 3.2c-4.8 4.5-11.2 7-17.8 7.2q-.5 0-.8.2l-10.4 7a67 67 0 0 1-21 9.3l-16.2 4a55 55 0 0 0-11.2 4.2l-21.2 10.6q-2.2 1-4.6 1.8-4.6 1.5-6.9 5.9a31 31 0 0 1-35.2 16.2l-13.1-3.3h-.8l-17 4.2q-7.6 2-14.6 5.4l-31 15.5-1.4.7-18.3 7.5a31 31 0 0 1-10 2.2 12 12 0 0 0-8 3.7 26 26 0 0 1-18.9 8.1H96.1q-3 0-5.1 2.1a47 47 0 0 1-33.4 13.9H47.2q-2 0-3.4 1.3a45 45 0 0 1-38.7 12.3l-62.4-10.4a45 45 0 1 1 21.6-87.2l25.2 8.4q2.7.8 5-1c8.2-7.4 19-11.5 30-11.5h2q2.1 0 4.2-.8l30-13.4 88-39.9h.1l.3-.2h.2l.8-.4 23.2-8.3.6-.2c5.7-2 11.9-2.5 17.8-1.6a2 2 0 0 0 1.8-.5c7-6.5 16-10.5 25.5-11.2l37.5-2.7q6.2-.5 11.7-3.5l5.3-3q5.6-3.1 11.9-4l1.8-.3q.5 0 .8-.4l1.3-1.3.3-.4a23 23 0 0 1 14.8-7.2c4.4-.4 7.5-4.3 8.5-8.6a24 24 0 0 1 16.8-17.1q2.3-.7 4-2c6.1-4.7 13.9-6.6 21.3-5.4 3.4.6 7-.3 9.6-2.5a30 30 0 0 1 19.3-6.6q4.6 0 8-3 4-3.4 9.1-5.1l67.1-22 1-.3q7.7-2.6 14.6-6.7l74.1-43.4q3-1.9 4-5.3c3-9.2 10.3-16.4 19.5-19.3q3.5-1 5.4-4l1.5-2.5.4-.7a36 36 0 0 1 14.7-13.2 9 9 0 0 0 4.2-4l.7-1.4q3.8-7.3 9.5-13.2l29.7-29.7.6-.6q4.5-4.5 7.4-10l12-22.2a9 9 0 0 0 .6-7 31 31 0 0 1 5.8-27.6l16.7-20.6 9.7-13q3.2-4.2 3.5-9.7l.1-2c.4-9.6 3.6-18.9 9-26.8q.8-1 1.2-2l1.3-3.3q3.2-7.5 7.7-14.2l18.6-28q.5-.7.4-1.5a26 26 0 0 1 11.5-24l1-.6v-.1l.5-.9.4-.6q3-5 8-8.1l5.6-3.5q.5-.4.8-1a26 26 0 0 1 24.8-17.4h8.1a8 8 0 0 0 4.9-1.7l19.5-15a63 63 0 0 1 21-10.7l.7-.2 1-.3q6.5-1.8 10.6-7.2a60 60 0 0 1 17.4-15.3l15.3-9a9 9 0 0 0 3-3 37 37 0 0 1 34-17.5l6.7.4q1.5.2 3-.4l14.7-5.2q13.1-4.5 27-6l24-2.7q10.6-1 20.6 1.6 5.5 1.3 10.7-.7l5.1-2a75 75 0 0 1 22.3-4.7l9-.6h.8q5.8-.4 11.5-1.7l11.5-2.5 1.1-.2a64 64 0 0 1 17-1l13.2.8q1.6.1 3.3.5 3.2.6 6.3-.6a31 31 0 0 1 8.6-2l14.7-1.2h2.1l20.2.4q6.8 0 13.3 2.1l1.9.6q2.8.7 5.6-.2a30 30 0 0 1 13.7-1.2l16.3 2.3q5.7.8 11.2 2.6l12.3 3.8a119 119 0 0 1 18.4 7.4l32.3 16.3q9.8 4.8 18.5 11.4l24.2 18.4 11.3 7.7 1.3 1q10.2 7 18.6 16l13.2 14.2 56 58.3q11.3 12 19.2 26.6l13 24.3v.1l2.5 2.6a32 32 0 0 1 9 20.1q0 1.1.8 2l2 1.6c4.8 4 8.2 10.3 8.6 17.2q0 3.4 2 6 0 .3.2.4l10.7 16q5.4 8.2 9.5 17.2l13.4 29.4a67 67 0 0 1 5.5 20.1l.2 1.4.4 5.4v.3q.5 2.6 2 4.5l9.5 11.6.5.6q5 6.8 5.5 14.7.2 3.5 2.3 6.3 3.4 4.5 5.2 9.8l3 9 .3.7q.9 2.3 2 4.4l.5.6 14.1 21.8a10 10 0 0 0 3 3q5.7 3.4 9.5 9l29.6 46.2a80 80 0 0 0 8.3 10.8l12.4 13.6q2.1 2.2 4.5 3.7l8.1 5.1a38 38 0 0 1 16.6 23l.2.7a38 38 0 0 1-.7 20l-.8 2.4q-.7 2.2 0 4.6l8.1 22.4q.5 1.5 1.5 2.6l2.5 2.8q4.5 5 5.7 11.5.7 3.5 3.3 6.2a27 27 0 0 1 7.3 24.4 10 10 0 0 0 0 4l.4 2.1q.8 3.3.5 6.4-.2 3.3 1.6 5.9l7.1 9.7a25 25 0 0 1 4.3 9.6q.9 3.6 2.2 5.4c5.3 7 7 16.4 4.2 25.2l-.6 4.6-.5 2.7-2 7.7a10 10 0 0 0 1 7q1.3 2.4 2.2 5.2l2.7 8.9.1.3.4 1 2.6 5.2.5 1q1 2 2.3 3.5 4 4.3 5.4 9.8l.2.6.1.7q.6 2.3 1.4 4.1 1.4 3 1.8 6.3v.7c.2 1 1 3 2.1 5.1q.5 1 2.3 2.9a20 20 0 0 1 5.5 16.7v.6l4.3 16.8a8 8 0 0 0 2.1 3.8l2.8 2.7.4.4q2.8 2.8 4.6 6.4c1.2 2.3 3.7 5.1 6.1 7q6.2 4.6 8.9 12.5l.1.5.1.4v.2l.6 2q.2.5.7.9l1.6 1.1q4.9 3.4 7.7 8.7 2 3.7 5.6 5.5 8 3.8 13 11.4l5.1 8.2.5.5q7.6 4 11.7 11.6 1.6 3.1 4.8 4.5h.5c6.2-.3 12.2 1.9 16.7 5.8l.4.4 1 1q3.6 3 6 4.2a27 27 0 0 1 13.4 13.7l.3.6v.2l.8.1h.7l.7.1 8.5 1h1.2c7.5-.5 14 2.7 18.4 7.5q2.4 3 4.6 5 2.4 2.2 3 2.4 4.5 2.1 8 5.4c2 2 4.8 3.2 7.6 2.8l5.9-1h.5c8.7-1 16.6 2.5 21.8 8.6a11 11 0 0 0 8.3 3.7h.7q2.3 0 4.8-.5l.4-.1c7.2-1.3 15.3.9 20.8 6.8q2.8 3.2 7 3.9 6 1 11.2 4.1.5.3 1 .2l.5-.1.9-.2c8.4-1.5 17.2-.5 25 3l8.5 3.7a23 23 0 0 0 12.7 1.7l1.5-.2a44 44 0 0 1 28.4 5.8l7 4.2a31 31 0 0 0 7.3 3.3l6.9 2q3 1 5.9.7l1.2-.2c12.8-1 25.5 2.5 36 9.9l9.3 6.5.1.1.3.2.2.1.5.5 6.3 5.1a5 5 0 0 0 7-.6l.3-.3a23 23 0 0 1 11.3-7l1.8-.5h.1l.4-.1.1-.1a24 24 0 0 1 18 2.8q1.5.8 3 1.2l3.2.7.7.1q5.2 1.2 10 3.2l.8.3 3 1.3a79 79 0 0 1 29.5 20.3l4.2 4.7q5 5.4 10.9 9.5l31.2 22 77.1 42a98 98 0 0 1 22 16.5l16.3 15a9 9 0 0 0 6 2.3c8.8.3 17.2 3.7 23.6 10l5 4.8q1.5 1.4 3.1 2l20.4 8.5q5 2 9.5 5l10.8 6.9q.5 0 .8 0l5.5-3.6a33 33 0 0 1 34.2-.5q2.8 1.6 6 1.5c7.2-.3 14.3 2 20 6.3q1.9 1.5 4.1 1.9l7.8 1.3q10.5 1.7 20 6.2l1.3.6 15.7 7.8 62.7 23.5 35.5 12h.3l.3.1.3.1 21 8.1a45 45 0 0 1 15.6 10.3q1.3 1.1 3 1.3l6.5.7c6.6.7 12.7 3.5 17.5 7.9l.5.4 5 4.8 1 .6.4.2a25 25 0 0 1 15.3 9q.7.7 1.6.8c8 .9 15 5 19.6 11a12 12 0 0 0 5.8 4.2q5.2 1.6 9.4 5.4l6 5.4q3.9 3.5 6.6 8l.4.6 6.5 11c10.3-1.8 21.1 4 25.7 13.4q2.2 4.4 6.6 6.3l2 .8 15.4 7.3.5.3q2.1 1 3.9 2.3 3 2.1 6.6 2.2a29 29 0 0 1 17.6 6q2.2 1.7 4.9 1.4l19.6-2.3q5.6-.7 11-.2l6.1.4q3.8.2 6.8-2.4a32 32 0 0 1 32.7-5l3 1.2a8 8 0 0 0 4.8.5l11.2-2.3.8-.2a52 52 0 0 1 45.5 13.5c2.8 2.6 6.6 3.8 10.4 3l15.5-3 .7-.2a42 42 0 0 0 10-3.5l8.2-4.2h.1l26.3-13.2.4-.2q2.6-1.4 4.7-3.5l3.8-3.8q1.9-2 2.4-4.9a33 33 0 0 1 25.9-26.3l28.5-5.8 24.8-7.3q6.7-2 13-5.1l4.1-2.2q8.9-4.5 15.5-12.1l8.8-10.3c2.4-2.8 2.5-6.7 1-10a31 31 0 0 1 2.4-29l6.2-9.7.1-.2q.3-.4.3-1l5.2-25.6v-.2l.1-.2v-.2l.5-1.8 6.6-19.6q2.2-6.6 6.5-12.1 2.8-3.6 2.2-8l-.3-4.6v-30.4c0-3-1.6-5.6-3.9-7.4a30 30 0 0 1-11.4-24.4l.1-8.1v-.4l-.1-.1-5.1-5.9c-6-7-8.8-16.2-7.6-25.3l.9-6.8v-.3l.1-.6v-.2l.3-1.3q1-4.5-1-8.7-2.1-4.3-2.6-9.5l-1-16.4a9 9 0 0 0-2-5q-5.4-6.7-7.2-15.3l-.2-.7-6-32.8a35 35 0 0 1 3.5-22.9v-.7l-3.2-5.7a9 9 0 0 0-5.3-4.1 30 30 0 0 1-19.1-20q-.9-3.2-3.7-5.3l-.6-.4a47 47 0 0 1-21-39v-68.5l3.6-89.3q.3-8.6-1.2-17l-1.2-7.3c-2.3-12.8-2.4-26-.5-38.8l7.6-49.8v-.6l.2-.3.1-1 30.2-120.3q1.5-6 2-12.4l7.1-79.5v-98q0-10.5-2.7-20.6l-27.3-102.6q-.4-1.6-1.2-2.8l-6.2-9.3a36 36 0 0 1 0-39.4 9 9 0 0 0 1.3-8l-7.4-22a85 85 0 0 1-4.3-26.9v-53.5l.1-2.5 1.1-8.6a47 47 0 0 0-3.8-25.4q-6-13.1-7.5-27.6l-6-61.9v-.8l-3.4-59a62 62 0 0 1 4-25.8c2.2-5.6 2-12-.7-17.4l-.3-.5-13.2-25.3-.5-1v-.1l-25.5-57.2q-5.3-11.7-14-21.4l-.2-.3a120 120 0 0 1-29.7-61.4l-1.6-9.7a80 80 0 0 0-7.5-23l-21.2-42.2c-4-8-6.2-17-6.2-25.9v-6q-.2-4.6-4-7.3a38 38 0 0 1-12.7-16.5l-.3-.8-21.2-56.6-12.8-25.7q-3.3-6.6-5.7-13.6l-3.5-10.6a15 15 0 0 0-3.6-5.8l-4.5-4.6a39 39 0 0 1-11.3-24.1q-.3-3.1-2.3-5.6a38 38 0 0 1-5.5-8.9l-25.2-56.5a11 11 0 0 0-6.6-6 51 51 0 0 1-27.7-22.2l-17.8-29.7-9-13.7a60 60 0 0 1-10-33m40 .8q.3 5.2 3 9.6l.3.6 9.3 14.1.2.3.2.2.1.3 18 30a11 11 0 0 0 6 4.8 51 51 0 0 1 30.6 27.7l24.5 55q.6 1.2 1.6 2.4a39 39 0 0 1 10.2 26l4.3 4.4q9 9.1 13.1 21.3l3.6 10.7q1.4 4.2 3.4 8.3L3084 595l.1.3.2.4.1.3.4 1 20.2 54a9 9 0 0 0 3.6 4.3 38 38 0 0 1 17.3 31.8v12.1q0 4.2 2 7.9l21.1 42.2q8.3 16.4 11.3 34.6l1.6 9.6a80 80 0 0 0 19.7 41l.3.3a120 120 0 0 1 20.4 30.9l.5 1 25.3 56.8 12.9 24.7.3.7a62 62 0 0 1 2.8 49.3l-.2.8q-1.6 4.1-1.5 8.5v.6l3.4 58.6 6 61.5q.7 7.8 4 15c6.6 14.7 9.1 31 7.1 47l-1 7.3v52.2q0 7.2 2.4 14.2l.5 1.7c1.2 3.6 6.8 4 9.4 1.3q1.4-1.3 1.4-3.3l-1.6-58.6-4-79-7.2-57.7q-.3-2.3-1.3-4.2l-3.5-7-.3-.3-.2-.3-.2-.3q-3.7-4.6-4.4-10c-.5-3.1-.7-6.7-.8-9.6q-.2-4.8-.6-7.6c-.8-6.6 1-13.4 5.1-18.7q.9-1 1.3-1.8.3-.5.2-1.2l-18.2-72.3-.2-1.1q-1.2-4-2.7-7.8l-21.2-49.5-15.7-31.5-12.8-25.5q-3.9-7.7-6.6-16l-3.5-10.3a79 79 0 0 0-4.4-10.7l-12.8-25.5-.5-1.1-.2-.4-47.6-119.6-22.7-48.5q-6-13.1-8.9-27.3l-1.3-6.3a80 80 0 0 0-6-18.2l-2.7-6q-4.6-9.8-12.4-17.7l-2.4-2.3a89 89 0 0 1-21.3-34.6 49 49 0 0 0-5.7-11.7l-42.5-63.7-38.6-49.7c-1.5-2-5-.5-5 2zm-144-286.9q0 4.1 2.4 7.6l5.3 7.9A85 85 0 0 1 2816 102l10.7 32.3q.1.2.2 0-1.2-11 3-21.4.3-.8.3-1.7V109q0-5.8-3.7-10.5l-.4-.4a59 59 0 0 1-12.6-32.6l-5.8-86a3.8 3.8 0 0 0-7.4-.8l-15 50.4q-.4 1.3.5 2.3c8 8 12.4 18.7 12.4 29.9z"/><path fill="#d5e5e8" d="M2819.6-52a16 16 0 0 1 16 15l7.1 107.6a8 8 0 0 0 1.8 4.4l11 13.9a16 16 0 0 1 3.5 10v15.6q0 3-1.2 6l-3.3 8.2a8 8 0 0 0 2 8.9l12.3 11.4c2.2 2 5.4 2.5 8.4 2.5 7 0 13.5 5.6 13.7 13.3v10.4a8 8 0 0 0 1.4 4.4l10.8 16.2a16 16 0 0 1 1 16l-1.3 2.4a8 8 0 0 0 1 8.7l4.6 5.5c2 2.4 5.3 3.1 8.3 3.8a10 10 0 0 1 7.4 7l.1.4 5.6 22.1a8 8 0 0 0 2 3.7l11.2 11.3q3 3.1 4.1 7.3l6.8 26.9q.4 1.5 1.4 3l53.8 69.2.2.2 47.6 71.3a16 16 0 0 1 1.9 3.9l6.5 19.4a8 8 0 0 0 2 3.2l20.3 20.4q2 2 3.2 4.5l13 27.8a16 16 0 0 1 1.1 3.7l5.5 27q0 1 .6 2l27.1 58 .1.3.1.2 47.8 119.8 15.6 31 .9 2.2 7.4 22.5.5 1 15.5 30.9 16 32.1v.2l23.8 55.5.8 2.4 22.5 89.6c1 4 0 8-2.2 11-1.2 1.7-1.2 4.2.6 5.3a11 11 0 0 1 4 14.4c-2 3.8-4.1 8.5-2.2 12.2a16 16 0 0 1 1.6 5.3l8 62.7v.6l4 80v.1l1.8 67.2c.2 5.9-3 11.4-8.1 14.3a3 3 0 0 0-1 4.2l15.3 25a16 16 0 0 1 2 5.4l9.7 50.3 23.6 86.8q.6 2 .6 4.2V1587q0 2-.5 4l-23.7 94.7-24 119.4-7.7 71-.5 2.6-14.6 51.3a8 8 0 0 0 0 4l6.6 27.2q.5 1.8.5 3.8v53.5q0 .7.2 1.6l7.2 36.3q.2 1 .7 2l3.1 6.4a8 8 0 0 0 6.2 4.3l20.4 2.6q1.5.1 3-.2l3-.8a16 16 0 0 1 20 15.5v13.6q.1 1.1 1.3 1.4.7.1 1.3-.4c6.5-5.7 18.3-1.4 18 8.8l-.4 13.8a8 8 0 0 0 1.2 4.4l9 14.6a12.5 12.5 0 0 1-12.6 19c-4.2-.7-8 2.3-8.4 6.4l-1 10.1a16 16 0 0 1-4.7 9.7q-.8.9-.1 1.9l6.7 8.5a16 16 0 0 1 0 20l-.6.6a8 8 0 0 0-1.7 5v7a8 8 0 0 0 1.6 4.9l19.3 25.5a16 16 0 0 1 3.2 9.6v124q0 2.6-.6 4.8l-15 48.6q-.4 1-.4 2.3v21.9q0 3.5-1.6 6.8l-14.5 30.6a16 16 0 0 1-4.8 6l-29.8 22.4-20.8 20.9a10 10 0 0 1-5.1 2.7c-3.1.5-6.5 1-8.7 3.2l-9.3 9.3c-3 3-7 4.4-11 4-3.5-.2-7.4 0-10 2.4l-29.7 28.3a16 16 0 0 1-5 3.2l-39.3 15.7-127.4 32-3.2.4-85.8 3.9a16 16 0 0 1-5.6-.7l-86-27.4-2.4-1-46-23-1.4-.6-29.3-8.8a16 16 0 0 1-10.2-9.3c-1.8-4.4-7.5-10.4-10.6-14.1q-1.1-1.6-2.9-2.5l-10.8-5.5c-11.1-5.5-6.2-22.4 6.2-21l5 .5a2.5 2.5 0 0 0 1.6-4.6l-4.7-3a7 7 0 0 0-5-1.2l-5.2.8a16 16 0 0 1-18.3-15.8v-12.4c0-3.5-2.9-6.4-6.4-6.4q-3 0-6-1.1l-33.9-13.7a8 8 0 0 0-4.8-.3l-7.1 1.7q-5 1.1-9.6-.8l-.4-.1c-4.3-1.8-9.3 1-13.4 3.4-3 1.8-7 2.2-10.8 0q-1-.4-2-.5l-.6-.1a16 16 0 0 1-14-12.8 5 5 0 0 0-6.1-3.6l-20.3 6.8a16 16 0 0 1-8.2.5l-14.6-3h-.5c-4.7-1.2-11-1.7-15.8-1.3-4.1.3-8.4-1.4-11.3-5.3a5.6 5.6 0 0 0-6.9-1.8l-9 4a12 12 0 0 1-9.7.4 49 49 0 0 0-15-3.5q-2.7 0-5.4-1.3l-5-2.3a8 8 0 0 0-4.6-.6l-11.2 1.7c-4 .6-8-.6-10.8-2.8-4.7-3.7-12.7-8.7-18.2-11.2q-2.2-1-4-2.8l-4.8-4.8a33 33 0 0 0-13-7.8l-2.6-1-3.6-1.8a15 15 0 0 1-8.3-11.5c-.4-2.6-3-4.8-5.5-3.8q-3 1.2-6.2 1.2h-4a16 16 0 0 1-15.5-12.2l-.3-1a8 8 0 0 0-5.6-5.7l-35.8-10.3c-4.8-1.4-7.9-5-9-9.2-1.4-5.2-3.7-12-9-13.4l-3.7-1c-5-1.5-8-5.5-8.6-9.8-.5-3.5-2.3-7.6-5.8-8.3a8.4 8.4 0 0 1-6.9-8q.1-2.7-1-5.2a7 7 0 0 0-6.6-4h-2.4a16 16 0 0 1-12.8-6.5l-16.7-22.2a8 8 0 0 0-6.4-3.2h-6.7a16 16 0 0 1-5-.8l-46.7-15.6-43.7-12h-.4l-.3-.2-16.3-6q-2.7-1-4.7-2.8c-2.4-2.1-5.4-4-8.6-3.7h-.9c-3.4.4-6.3-.8-8.4-2.8-3.1-3-6.7-6.5-11-6.1l-19.5 1.6a16 16 0 0 1-11-3.1l-16-12a8 8 0 0 0-11.4 1.8l-3.8 5.6a16 16 0 0 1-16.3 6.7l-73.9-14.6q-1.6-.3-3.3-1l-63.1-27.7-.4-.2-64.3-36.1-33.2-18.6a16 16 0 0 1-7.4-9l-3.5-10.6a8 8 0 0 0-2.5-3.7l-15.5-12.6a16 16 0 0 1-5.8-12.4v-2.3a8 8 0 0 0-4.4-7.2l-5-2.5a16 16 0 0 1-7.1-7.1l-36.8-73.6a8 8 0 0 0-3-3.2l-1.3-.8a16 16 0 0 1 0-27.1l.9-.6q.5-.3.5-1-.1-1.2-1.3-1.2c-7 .3-13.6-5.4-13.2-13.3l.6-13.2.2-1.2a8 8 0 0 0-4.1-8.4l-3.4-1.8a16 16 0 0 1-4.7-24.3q1.6-2 1.4-4.5l-6.8-77.2a8 8 0 0 0-1.9-4.4l-6.2-7.5q-1.2-1.4-2-3l-6.9-13.8a8 8 0 0 0-4.2-3.8l-10.5-4.3a16 16 0 0 1-9.6-11l-4.5-17.7c-.7-2.8-3-4.9-5.2-6.7a12 12 0 0 1-4.3-11.8c.8-3.9 1-8.7-2-11.2l-9.3-6.2a16 16 0 0 1-6.3-8.3l-4.6-13.9a8 8 0 0 0-5-5l-5.6-2a13.8 13.8 0 0 1-5.5-22.6q.7-.7.4-1.5 0-.4-.4-.6l-16.5-13.5a8 8 0 0 0-4-1.7l-14.1-2a16 16 0 0 1-13-21l1.5-4.2a8 8 0 0 0-2.6-8.8l-8.3-6.7a12 12 0 0 1-3.3-4.1 46 46 0 0 0-6.9-10.6l-13-19.4a16 16 0 0 1-2.7-8.9v-23a8 8 0 0 0-2.3-5.5l-1.8-2a16 16 0 0 1-4-6.8l-14.7-51.5q-.3-1.2-1.1-2.3l-69-99.7a16 16 0 0 1-3-9c0-3.2-2.4-5.7-5.5-5.7h-8.7a16 16 0 0 1-12.2-5.6l-31.8-37.3-31.4-41.8a8 8 0 0 0-6.4-3.2h-38q-3.8 0-7.2-1.7l-46-23a8 8 0 0 0-4.5-.9l-18.8 2.2-2.4.6-14.3 6.5a14 14 0 0 1-13-.7 12 12 0 0 0-7.3-2.2l-87 10c-6.4.8-12.2-2.5-15.2-7.5-2.2-3.8-5.6-7.4-9.9-7.4h-24.6c-4.2 0-7.5 3.5-9.8 7a15 15 0 0 1-23.4 2.6l-7.2-7.2a8 8 0 0 0-12 .6l-18.3 23a16 16 0 0 1-12.5 6h-4.2a8 8 0 0 0-8 8v2.6a16 16 0 0 1-10 14.8l-8.6 3.4q-3.2 1.3-4.4 4.5a11.8 11.8 0 0 1-16.6 6.3q-1.5-.7-2.6.5a16 16 0 0 1-18.4 5.2l-4.7-2a8 8 0 0 0-8.6 1.9l-1.8 1.8a16 16 0 0 1-4.5 3c-4.3 2-8.7 5.9-11.6 9.7q-3.1 4-8.5 5.3l-3.7.7a8 8 0 0 0-6.3 6.3l-.7 3.6a11 11 0 0 1-6.2 8c-3.5 1.6-7.4 3.6-8.7 7.3l-1.7 5.1a8 8 0 0 0-.4 2.6v11.6q0 3.8-1.6 7.2l-14.1 28a10 10 0 0 1-2.9 3.5c-2.1 1.7-4.4 3.4-5.2 6a16 16 0 0 1-2.8 5.2l-5.6 7q-.7 1-1.1 2l-6.6 16.4q-1.2 3-3.5 5.4l-5 5q-1 1-1.6 2l-14 28.2-.6 1.6-6.2 24.5.1.4h.4a12.3 12.3 0 0 1 15.1 19.4l-23.6 18.9a8 8 0 0 0-2.8 4.3l-4.1 16.8q-1 3.9-3.7 7l-63.7 69.5q-1.4 1.6-3.3 2.8l-125 78.2a16 16 0 0 1-9.9 2.3l-13.8-1.3a8 8 0 0 0-5 1.3L454 1782a16 16 0 0 1-4.4 2l-38.7 10.4a8 8 0 0 0-3.5 2l-1.9 2a16 16 0 0 1-15.1 4l-1-.2c-2.8-.7-5.7.5-7 3a15 15 0 0 1-12.7 7.5q-3.4-.1-6.2 1.6l-17 11.4a16 16 0 0 1-5.1 2.3l-29 7.2-1.7.6-27.7 13.8a16 16 0 0 1-11 1.3c-1.6-.4-3.1.8-3.1 2.4v4.3a16 16 0 0 1-20 15.6l-18-4.6a8 8 0 0 0-4 0l-26.4 6.6-1.6.6-38.4 19.3h-.2l-.3.2-19.3 8a16 16 0 0 1-11 .3c-3-1-6.3 1.5-7.7 4.4-2.3 4.7-7 8-12.7 8H91.5a8 8 0 0 0-5.7 2.3l-8.9 8.9q-4.7 4.6-11.3 4.7h-22a8 8 0 0 0-5.6 2.3l-8.6 8.5a16 16 0 0 1-13.9 4.4l-85.1-14.2a16 16 0 0 1-13.4-15.8v-38a16 16 0 0 1 21-15.3l52.7 17.6a8 8 0 0 0 7.9-1.6l8.8-7.9q4.6-4 10.6-4h11.5a8 8 0 0 0 3.3-.7l32.8-14.6 88-39.9.3-.1 26.1-9.4a16 16 0 0 1 8.8-.6l3.6.8a8 8 0 0 0 7-2l6-5.4a16 16 0 0 1 9.6-4.3l49.6-3.6q1.8-.2 3.3-1l12.7-7a16 16 0 0 1 5.4-2l4.6-.6c3.2-.5 5.6-3 7.7-5.4a11 11 0 0 1 7.3-3.6l12.3-1a8 8 0 0 0 7-9.8l-.2-1.4a11.8 11.8 0 0 1 12.9-14.2l.2-.1.2-.4c5-6.9 14.6-8.5 21.5-3.6l.3.2c2 1.5 4.8 1.1 6.3-.8l4.4-5.5a16 16 0 0 1 19.7-4.3c2.3 1 5-.4 6.1-2.6q2.8-5.2 8.6-7.3l75.7-24.8q.7-.2 1.6-.7l87.4-51.2c1.8-1 2.9-3 2.9-5.1a16 16 0 0 1 16-16c2.3 0 4.4-1.2 5.5-3.2l6.2-10.3q3-5 8.7-7l2.8-1a8 8 0 0 0 4.7-4l4.4-8.8a16 16 0 0 1 3-4.2l37.5-37.5 1.4-1.8 18.8-34.5c1-2 1-4.4-.3-6.3a16 16 0 0 1 .8-19l18.2-22.3 13.8-18.4a8 8 0 0 0 1.6-4.5l.7-15.2q.2-4.6 2.9-8.5l4.7-6.7.8-1.5 4-9.7q.7-1.4 1.5-2.7l22.7-34c1.5-2.3 1.6-5 1.3-7.7-.4-5 1.9-10 6.3-13l1.6-1q2.4-2 3.7-4.7 1.5-2.7 4-4.4l7.2-4.4c2.2-1.3 3.4-3.7 4.3-6.2 2-5.5 7.4-9.4 13.6-9.4H807a8 8 0 0 0 5-1.7l28.1-21.8q2.6-1.9 5.6-2.7l15.4-4.3a8 8 0 0 0 4.2-2.8l8.8-11.5a16 16 0 0 1 4.6-4.1l23.6-13.9a8 8 0 0 0 3-3.2l3-5.7c3-5.7 9-9 15.3-8.6l15 1q1.6 0 3.2-.5l27-9.5a16 16 0 0 1 3.6-.8l40.1-4.3q3-.2 5.7.4l11.9 3a8 8 0 0 0 4.9-.2l18.3-7a16 16 0 0 1 4.7-1l22.8-1.4 1.2-.1 23-5q2.2-.6 4.4-.4l18.4 1.3q2.9.2 5.4 1.4c1.7.9 3.9 1 5.5-.2a16 16 0 0 1 8.3-3.2l16-1.4 23.5.5q2.3 0 4.4.7l10.8 3.3q1.6.5 3-.4a16 16 0 0 1 11.2-2.5l20.6 3q1.2 0 2.4.5l23 7.1 2.5 1 46.6 23.4 2.5 1.6 31.1 23.5 19.9 13.6 2.7 2.3 20 21.5 64.9 67.6q1.5 1.5 2.6 3.5l19.2 36 1.3 1.9 4 4.1c3 3 4.6 7 4.6 11.2v1.9c0 4.2 3.7 7.6 7 10.3 3.9 3.3 5.8 9 3 14.5l.1.7 3 3q1.2 1.1 2.1 2.4l15.3 22.8q.7 1 1.2 2.3l19.2 42.2q1.2 2.5 1.4 5.2l1.4 15.8a8 8 0 0 0 1.8 4.4l12 14.7q3.8 4.7 3.3 10.6c-.3 3 .3 6.3 2.6 8.3a16 16 0 0 1 5.1 7.3l4.6 13.8q.3 1 .9 1.8l19 29.4q.3.5.9.7a16 16 0 0 1 8.5 6.5l33.7 52.5.8 1.1 19.6 21.4q.7.8 1.7 1.4l14.5 9.1a16 16 0 0 1 7 9.7l1.6 6.7a16 16 0 0 1-.2 8.6l-2.8 8.8a8 8 0 0 0 .1 5l10 28.2q.7 1.4 1.6 2.6l4 4.5c2.9 3.3 3.8 7.7 2.7 11.8v.3l2.2 2.4q1 1 2.2 1.8c6 4 8.4 11.8 5.4 18.5q-.2.6 0 1.2l1.5 7q.8 3.3-.6 5.9c-1 2-1.2 5.1.7 6.5a16 16 0 0 1 3.5 3.5l7.6 10.4a13 13 0 0 1 2.3 5c.7 3.6 2.2 7.3 4.4 10.2 3 4 4 9.2 2.3 14.2l-.5 2-.6 5.4-3.5 13q-.6 2.4-1.9 4.2-.2.7.3 1.1 4.5 3.1 6.2 8.5l3 10 .5 1.3 3.2 6.2q1 2.2 1 4.5v.3l.1.1c3.3 1.3 5.4 4.1 6.2 7.3a39 39 0 0 0 2.2 7q.7 1.6 1 3.3a29 29 0 0 0 7.6 15.1 8 8 0 0 1 2.3 6.5q-.4 2.3 0 4.5l5.3 21a8 8 0 0 0 2.2 3.8l5.1 5.1q1.8 1.7 2.8 3.7c2.1 4.1 5.8 8.2 9.5 11q3.5 2.6 4.8 7v.3l1 3.6c1 3.2 4 5.3 6.7 7.1q4 2.9 5 8c.3 2.6 2 5.4 4.7 5.6a16 16 0 0 1 12.5 7.4l6.4 10.3q1.8 2.4 4.6 3.7c4.6 2.4 7.7 7 8.2 12.3v.6q0 .4.5.6l9.3 3.3q2.5.8 5.1.7c3-.2 6.1 1 8.3 3 3 2.7 6.5 5.7 10.1 7.3q5.2 2.4 7.6 7.9l.2.6.6 1.7a8 8 0 0 0 7.1 5.3l3.4.2h.3l9.1 1.1h2.9c6.5-.7 12 4.9 11.7 11q0 .7.6.6c5.6-.4 11 2.1 14.3 6.7l1.6 2.3a8 8 0 0 0 7.7 3.3l12.7-1.8h.3c6.3-.8 12 3 13.8 8.8q.7 2.4 2.5 4c2.4 1.8 5.7 1.2 8.5.2q2-.7 4-.7 3.8 0 7.7-.8c4.4-.9 9.2.9 11.7 5.4l.2.4 1.4 2.9a4 4 0 0 0 4.5 2 16 16 0 0 1 12 2l2.8 1.6a8 8 0 0 0 5.8 1l7.3-1.4a16 16 0 0 1 9.7 1l20 8.8a8 8 0 0 0 4.3.6l10.3-1.5q1.2-.2 2.4-.2h5.1q4.6 0 8.4 2.3l14.3 8.8 1.9.8 15 4.5q1.5.5 3 .3l13.9-1.3a16 16 0 0 1 10.8 2.8l17.8 12.5 16.6 13.6a2 2 0 0 0 2.3.1l.5-.2a48 48 0 0 0 10.9-10.4 11 11 0 0 1 5.6-3.5l1.7-.5h.3a12 12 0 0 1 9.8 1.8l.2.2h.2a8 8 0 0 0 3.1 1.5l8.8 1.8 3 1 6 2.6 11.2 4.3a16 16 0 0 1 6 4.2l17.6 19.2 1.3 1.2 38.2 26.7 86.5 47.3q2 1 3.6 2.7l7 7 20.3 18.8a8 8 0 0 0 6.6 2l3.1-.4a16 16 0 0 1 13.3 4.3l9.5 9.2q1.2 1.1 2.5 1.6l25.6 10.6 2.5 1.3 15.7 10.1a8 8 0 0 0 8.7 0l11-7a16 16 0 0 1 19.7 1.9l1.8 1.7a6 6 0 0 0 6.3 1.5 16 16 0 0 1 15.6 3.3l2 1.8a8 8 0 0 0 4.1 2l18.3 3q2.3.3 4.5 1.4l22.6 11.3 63.4 23.7 35.8 12h.2l.2.1 24.3 9.4q3.2 1.2 5.6 3.7l4.8 4.7a8 8 0 0 0 4.8 2.4l10.6 1a16 16 0 0 1 9.4 4.4l5.7 5.4c2 2 4.8 3.5 7.6 4 4.6.7 8.7 4 10.2 8.7l.1.3.1.1 7.6.8a16 16 0 0 1 14.1 13.3q.2 1 1.4.9c4.3-1 8.8.2 12.2 3.3l7 6.3q1.8 1.6 3 3.7l8.5 14.3a8 8 0 0 0 4 3.4h.2c2.2 1 4.6.6 6.9.2 8.2-1.4 16.5 6.7 13 16-.4 1 .5 2.3 1.8 2.1l2.4-.3a16 16 0 0 1 9.1 1.4l16.4 7.7a16 16 0 0 1 7.4 7.3q.3.5.9.3l1-.4a16 16 0 0 1 16.4 1.8l4 3a8 8 0 0 0 5.8 1.7l26.8-3.2h3.1l14.7 1.1a8 8 0 0 0 7.3-3.6l.2-.3a16 16 0 0 1 19.7-6.1l9.3 4a8 8 0 0 0 4.7.4l27-5.7a16 16 0 0 1 14.4 4.2l15 14.3a8 8 0 0 0 7 2l29.7-5.8 2-.7 13.9-7 29.8-15q1-.5 2-1.4l9.6-9.6a8 8 0 0 0 2.3-5.6v-2.8a16 16 0 0 1 12.8-15.7l33.1-6.7 32.3-9.5 1.4-.5 20.3-10.4a8 8 0 0 0 2.5-2l20.7-24a16 16 0 0 1 8.7-5.2c.3 0 .4-.5.2-.7l-6.9-5a16 16 0 0 1-4-21.5l8.5-13.2q1-1.2 1.1-2.7l5.5-27v-.6l.2-.4 7.4-22.2a16 16 0 0 1 3.9-6.3l3.6-3.6a8 8 0 0 0 2-8.2l-.5-1.4q-.8-2.4-.8-5v-30.8l.1-10.2c0-2.2-1.4-4.1-3.6-4.6a16 16 0 0 1-12-15.9l.3-11.8a8 8 0 0 0-2-5.3l-7.4-8.7a16 16 0 0 1-3.8-12.6l1.2-8.7v-.6q1.3-5.9 6.6-8.8.7-.4.5-1.3a1 1 0 0 0-.7-.7c-5.2-1.4-9.2-6-9.5-11.5l-1.4-20.7a8 8 0 0 0-2.3-5.1l-2-2a16 16 0 0 1-4.4-8.4l-7-37.8a16 16 0 0 1 1.5-10.5l2.8-5.1c1.3-2.4.5-5.2-.8-7.6l-7.3-13.2a6 6 0 0 0-4.9-2.8 16 16 0 0 1-16-16c0-2.3-1.1-4.5-3-5.7l-13.9-9.2a16 16 0 0 1-7.1-13.3v-78l3.9-98.4-.1-1.7-5.5-31a16 16 0 0 1 0-5.2l9.9-65 31.8-127.1.2-1.2 7.7-86.6V1470l-.3-2-30.7-115.3q-.3-1.4-1-2.4l-11-16.4a16 16 0 0 1 2.1-20.2l4.4-4.4a8 8 0 0 0 2-8.1l-12.5-37.4q-.9-2.4-.9-5v-63.2l3-23.5a8 8 0 0 0-.7-4.3l-10-22.2q-1.2-2.4-1.4-5l-7-71.7v-.3l-3.8-66.3q-.2-3.5 1-6.7l6.9-17.7a8 8 0 0 0-.4-6.6l-18.7-35.8-.1-.2-31-69.6q-.5-1.2-1.4-2.2l-27.8-30.5a16 16 0 0 1-4-8.2l-8-49.2q-.2-1.2-.8-2.3l-30.1-60a16 16 0 0 1-1.7-7.2V686a8 8 0 0 0-4.4-7.1l-4.4-2.3a16 16 0 0 1-7.7-8.6l-22.7-60.8-15.6-31-.9-2.1-6.6-20a8 8 0 0 0-2-3l-10.9-11c-3-3-4.7-7.1-4.7-11.4v-6a8 8 0 0 0-2.3-5.6l-2.2-2.1a16 16 0 0 1-3.3-4.9l-28.7-64.4a8 8 0 0 0-4.8-4.3l-14.4-4.8a16 16 0 0 1-8.7-7l-22.3-37.2-14.5-22a16 16 0 0 1-2.7-8.8V340a8 8 0 0 0-3.2-6.4l-23.4-17.7a16 16 0 0 1-5.8-8.4l-12.8-45.2a8 8 0 0 0-5.2-5.2 14 14 0 0 1-9.7-15.4q.1-.5-.5-.8c-4-1.1-7.3-4.4-7.9-9.2l-1-7.6c-.4-4-4.2-6.7-7.4-9.1q-3-2.2-4-6.1l-6.3-24.3q-.3-1.3-1-2.4l-13.7-20.5-1-1.3-5.4-5.3a16 16 0 0 1-4-6.3l-14.6-44.3-1-2-13.4-19.9a16 16 0 0 1-2.7-9v-15a8 8 0 0 0-2.3-5.6l-8-7.9a16 16 0 0 1-4-15.9l21-69.8A16 16 0 0 1 2793-52z"/><path fill="#c8dad7" d="M2953.3 402.4a2.5 2.5 0 0 1 4 1l4.9 13.1a2.6 2.6 0 1 1-4.8 1.8l-4.8-13.2q-.5-1.6.7-2.7M2936.9 368.4a2.5 2.5 0 0 0-1.3 3.4l7.9 16a8 8 0 0 0 9.6 4.2l1-.4a8 8 0 0 0 5-10.7l-5.9-13.5a3.6 3.6 0 1 0-6.4 3.2l5.2 9.4a2.8 2.8 0 1 1-5 2.7l-7-13.1c-.5-1.2-2-1.7-3.1-1.2M2897 282.4a3.5 3.5 0 0 0-4.7 4l1.7 8.1.2 1.2a4.2 4.2 0 1 0 8-2l-3.2-9.2q-.5-1.5-2-2M3051.4 544.8l.3.3.3.2a2 2 0 0 0 3-1.7v-3.4a4 4 0 0 1 6.6-3l6.8 6a8 8 0 0 1 2.6 4.5l1.9 9.5q0 .8.4 1.5l.8 2.1c1.2 2.8.4 6-1.8 8.1l-2 2a3.4 3.4 0 0 0 2.7 5.8l29.9-4a2 2 0 1 1 .5 4l-30.7 3.6a4 4 0 0 0-3.2 2.1 4 4 0 0 1-5.8 1.6l-.5-.4q-1.6-1-3.7-.6l-2.7.8a1.3 1.3 0 0 1-.8-2.4l2.4-1q2-1 2.1-3.1v-5.5a8 8 0 0 0-.4-2.6l-3.2-9.2a8 8 0 0 0-3.1-4l-2.7-1.8q-1-.7-1.1-2v-7c0-.8 1-1.1 1.4-.4"/><path fill="#c8dad7" d="M3083.8 566.7a1.8 1.8 0 1 0-3.4 1.4 1.8 1.8 0 0 0 3.4-1.4M3082.8 556.5c-1-1.4-3-.7-3 1a1.6 1.6 0 1 0 3-1M3091 582.3a3 3 0 0 0-2.5 2.7v1.2a2.7 2.7 0 1 0 5.5 0V585c0-1.6-1.4-2.9-3-2.7M3102.4 596.9q-.9.6-.9 1.7v.8a2.2 2.2 0 1 0 4.3-.8l-.4-.8a2 2 0 0 0-3-.9M3018 484.8c0-3.5 4.6-4.8 6.5-1.9l6.3 9.7a3.2 3.2 0 0 1-5.2 3.6l-7-9.3q-.6-1-.6-2M3271.4 1052.8a4.9 4.9 0 1 0-8.6 4.7l3.5 6a4.8 4.8 0 0 0 8.3-4.7zM3324.8 1504.5a1.6 1.6 0 1 0 .9 3l1-.6c1-.7.6-2.4-.7-2.4zM3272.5 1847.5a4 4 0 0 0-4 2.8l-4.6 14.5a8 8 0 0 0 0 5.3l2 5.1a4.6 4.6 0 0 0 8.8-2.6l-.7-3q-.5-2.1.2-4.1l2-6.3.3-2.4v-5.2a4 4 0 0 0-4-4.1M3272.7 1812.2a3 3 0 0 0-4.4 3l.8 9.5a3.2 3.2 0 0 0 6.3-.5l-.7-9.2q-.2-2-2-2.8M3273 2062.4c-1.3-.5-2.5 1-1.8 2.3.4.7 1.4 1 2.1.5 1.1-.7 1-2.3-.3-2.8M3270 2045q-2.5 1-1.8 3.5l2.9 8c.4 1.2 2 1.5 2.8.6l.1-.1q.5-.5.4-1.2v-.2c-.2-1.4 1.6-2.1 2.3-1 .7 1 2.2.8 2.4-.4l.6-3q.3-1.6-1-2.6l-4.8-3.3a4 4 0 0 0-4-.4M3343.4 2306.3a3 3 0 1 0-3.1 4.3 3 3 0 0 0 3.1-4.3M3310 2262.5a8 8 0 0 1 8.8-5.5l11.1 1.6a8 8 0 0 1 6.9 7.5l.7 16.4-.8 14.3a8 8 0 0 1-3.2 5.9c-3.4 2.4-7.4 4.9-8 4.3-.7-.7-1.2-10.5-1.4-17.3 0-1.8 1.3-3.4 3-3.6a3.5 3.5 0 0 0 1.6-6.3l-6.5-4.3-1.5-.8-5.7-1.8a8 8 0 0 1-5.2-10zM3312.3 2165.2q-1.6.9-1.5 2.8l4 27.6q.1 1.5-.1 2.8l-2 9.3a8 8 0 0 0 .6 5.3l1.3 2.7q.5.7.6 1.6l4.3 16.8q.4 1.9-.7 3.5-1.2 2-.5 4l1.9 4.9a8 8 0 0 0 4.9 4.7l4.3 1.4q1 .5 1.1 1.6.2 1.6 1.8 1.6l3.9-.4a5 5 0 0 0 3.8-7.7l-5-8.5q-1-1.7-1.1-3.6l-1.4-26.6-1.7-17.3a8 8 0 0 0-2.7-5.3l-6.4-5.4a8 8 0 0 1-2.4-3.7l-3.4-10.5a2.6 2.6 0 0 0-3.6-1.6M3329.2 2427c-1.6-1-3.7-.2-4.2 1.6l-6.2 21.3a8 8 0 0 1-3 4.2 8 8 0 0 0-1.6 11.4l3.4 4.3c1.8 2.1 5 2.1 6.7 0l.4-.6q1.2-1.7.2-3.6-.8-1.6 0-3.2l3.3-5.7a8 8 0 0 0 1-4.7l-.7-8.5v-8.7q0-1.3.7-2.4l.9-1.5c.8-1.3.4-3-1-3.9M3201.9 2549.5q-1.9 0-3 1.6l-14.5 22.8a6.3 6.3 0 0 0 9 8.4l24.5-18a8 8 0 0 0 1.9-2l2.9-4.2c2.2-3.3.3-7.9-3.6-8.6h-.2q-2.8-.4-4.8 1.7a5 5 0 0 1-4 1.8h-1.3a5 5 0 0 1-3.8-1.7l-.5-.6a4 4 0 0 0-2.6-1.2M3002.8 2601c-.4 1 .4 2 1.4 2h1.2c1.3 0 2.2-1.2 1.9-2.4a2 2 0 0 0-3-1l-1 .6zM2808.8 2568.5a5 5 0 1 0-3.2 9.6l1 .2a5 5 0 0 0 3-9.4zM2434.4 2386.2a4.6 4.6 0 0 0-1.6 8.5l23 13.2a4.4 4.4 0 0 0 4.4-7.7l-22.8-13.4q-1.5-.7-3-.6M2483 2416.7a1.5 1.5 0 0 0 0 2.8l15.1 6.5a2.4 2.4 0 1 0 1.7-4.5l-15.8-4.8zM2517.9 2416.3a8 8 0 0 0-1.2 13l14.7 12.5a8 8 0 0 0 6 1.9l28.8-2.8c7-.7 8.6-10 2.4-13.1l-1.2-.5-28.9-7.8-14.2-4a8 8 0 0 0-6.2.7zM1636.7 1763.7c-3.1-2-7.1.8-6.2 4.4v.4a4 4 0 0 0 5 2.7l3.1-1a1.4 1.4 0 0 1 1 2.6l-2.3.9c-2.2.7-3.6 3-3.2 5.3l.1 1.2q.3 1.8 1.7 3l.8.6a4.3 4.3 0 0 0 7-4.1l-.4-1.6a2 2 0 0 1 1.1-2.3 2 2 0 0 0 1-2.5l-.8-2.9a6 6 0 0 0-2.3-3zM1600 1721.5c.5.5 2.6 4.2 4.6 8 .7 1.3 2.9.8 2.9-.8q0-.7-.5-1.2zM1634.2 1721.8c-1.4.4-2.1 2-1.5 3.3l.2.5a2.4 2.4 0 1 0 4-2.7l-.5-.5q-1-.9-2.2-.6M1628.7 1712.3a3 3 0 1 0-3.5 5 3 3 0 0 0 3.5-5M1644.4 1729.4a3 3 0 0 0-2.1 3l.4 3.5q.3 3.1 2.8 4.9l5.5 3.8q2 1.5 2.6 3.7l2.2 8.3a2.3 2.3 0 0 0 4.5-1.2l-2.8-12a8 8 0 0 0-1.8-3.4l-8.6-9.7a3 3 0 0 0-2.7-.9M1523.3 1568.8q-2.2-.2-3.4 1.7l-1 1.6c-.8 1.5.3 3.4 2 3.4h.7q.4 0 .7-.3a1 1 0 0 1 1.5.6l-.1 1.8c-.1 1 .8 1.7 1.7 1.4l.7-.2a2 2 0 0 0 1.5-1.7l.2-3.5a4.4 4.4 0 0 0-3.8-4.7zM1511.2 1565.5a1.5 1.5 0 0 0-.8 2.6c.8.7 2 .4 2.4-.5.5-1.1-.4-2.3-1.6-2.1M1434.9 1395.5c-3-2.4-7.4.3-6.6 4l1.8 9q.5 2 1.8 3.5l15 16.8q.6.8 1.4 1.2l4.8 3.4q2.4 1.6 3 4.4l.5 2q.5 1.7 2 2.4 1.8.8 1.9 3v2.9c0 1.2 1.2 2.1 2.3 1.8q1.6-.5 1.4-2l-.5-3.7q-.1-1.2.9-1.7c1-.5 1.2-1.8.5-2.6l-5-5.6a4 4 0 0 1-.6-4l.8-2c.6-1.5-.3-3-1.7-3.2h-.5q-.6 0-1 .3c-.8.8-2.2.1-2-1l.3-2q0-.9-.5-1.6l-13.8-15.1-1-1.5-4.2-7.5q-.4-.8-1-1.2M1130.2 1244.5a3.9 3.9 0 0 0 0 7.6l5.4 1q1.9.4 3.5-.8a4.3 4.3 0 0 0-.4-7.1l-1-.7q-1.7-1-3.6-.7zM1044.3 1260.4a5.5 5.5 0 0 1 2.7-9.4c6-1.2 9.1 6.6 4.2 10a5.5 5.5 0 0 1-7-.6M676.8 1575.6a6.2 6.2 0 0 0-9.4 2.6l-4.8 11.4a5.3 5.3 0 0 0 9.5 4.9l6.4-10.6c1.7-2.8 1-6.4-1.7-8.3M527.2 1682.3a3.2 3.2 0 0 0 2.8 5.8l7.2-2.6a4 4 0 1 0-3.4-7.2zM281 1817v12.5l4.2-3a5.3 5.3 0 0 0-3.8-9.6zM293.6 1813.6a3 3 0 0 0-2.3 2.5l-.2 1.3a3 3 0 1 0 5.9.3v-1.2c0-1.8-1.6-3.2-3.4-2.9M205 1833a4.3 4.3 0 0 0 2.7 8.2l1-.2a4.4 4.4 0 1 0-2.8-8.3zM206.5 1814v7.5l2.7-.9a3.4 3.4 0 0 0-1-6.6zM224 1805.4c-.5-1-1.8-1.2-2.6-.4l-2 1.7a1.7 1.7 0 1 0 2.4 2.5l1.9-1.9q.8-.8.3-1.9M227 1818c.6-1.1-.8-2.3-1.9-1.6l-2.1 1.3c-.9.5-.5 1.8.5 1.8h.3q.7 0 .7.7c0 .7 1 .9 1.3.3z"/><path stroke="#94b1a4" stroke-dasharray="16 16" stroke-linecap="round" stroke-linejoin="round" stroke-width="8" d="M1475.5 1200.7h244.4l191.8 6.4q1.5 0 3 .7l89 38.3 56 33.5 67.7 52.5q.8.5 1.3 1.2l11.1 13.6a8 8 0 0 0 4.6 2.8l52.3 11a8 8 0 0 1 5.6 4.5l22 47.8.4 1.2 18.9 69.4 30.8 119.4.4 1 29.7 71a8 8 0 0 1 .4 5l-25.9 106m477.3 605.8 65-48m372.2-285.4-41.9 89.2a8 8 0 0 1-1.5 2.2l-59.3 60.8q-1.2 1.2-2.9 1.8l-93.8 35.9-142.3 73.2-1.1.7-29.5 21.7m0 0 9.8-78a8 8 0 0 1 1.1-3l38.1-63.6 9.1-16a8 8 0 0 0 1-5.2l-4.8-31.6a8 8 0 0 0-1.2-3l-22.1-34.7q-.9-1.4-1.2-3.2l-10.5-78.6a8 8 0 0 1 .6-4.1l30.5-72.3a8 8 0 0 1 3.7-4l97.3-50.6q1-.5 1.9-1.4l79.1-76.2m10-14.5 112.4-28.4M3028.1 1479l81.6 42.2a8 8 0 0 1 3.5 3.6l8.4 17.2a8 8 0 0 0 2.7 3.1l26.3 17.8m79.4-198.9 7.4-95.6v-1.7l-9.4-70.6-19.5-117-24-97q-.5-1.5-1.4-2.8l-32-42.7a8 8 0 0 0-2.7-2.3l-44.8-22.6m0 92-155.6 76.5q-.8.5-1.8.6l-40 8.8m0 0-51-29.5-44.3-25.8a8 8 0 0 1-3.2-3.4l-15.2-31a8 8 0 0 0-11.2-3.5l-13 7.5a8 8 0 0 1-8.8-.5l-8.5-6.5a8 8 0 0 0-11.1 1.3l-13 16.2a8 8 0 0 0-1.6 6.2l4.5 30a8 8 0 0 0 3 5l26 21a8 8 0 0 1 2.2 9.7l-9.8 20.4a8 8 0 0 0-.8 4l4.4 78.4-4.4 53.6q0 1.8.5 3.5l9.4 24.3m145.9-181-16.5 40.6-24.5 52-1.2 1.8-46.2 52-1.2 1.1-27.2 20q-.6.6-1.4.9l-27.7 12.6m0 0v27.2a8 8 0 0 1-3 6.2l-18.6 15.2a8 8 0 0 0-3 6.2v34.4l.3 1.6 10 49.2a8 8 0 0 1-2 7l-32.2 35.8a8 8 0 0 0-1.5 2.6l-11.4 30.7a8 8 0 0 0 1.4 8l31 36.3 84 83a8 8 0 0 0 4.7 2.3l60.6 6.5a8 8 0 0 1 7.1 7.3l5 63.4"/><path stroke="#bfd2c7" stroke-dasharray="16 16" stroke-linecap="round" stroke-linejoin="round" stroke-width="6" d="M1475.5 1200.7h244.4l191.8 6.4q1.5 0 3 .7l89 38.3 56 33.5 67.7 52.5q.8.5 1.3 1.2l11.1 13.6a8 8 0 0 0 4.6 2.8l52.3 11a8 8 0 0 1 5.6 4.5l22 47.8.4 1.2 18.9 69.4 30.8 119.4.4 1 29.7 71a8 8 0 0 1 .4 5l-25.9 106m477.3 605.8 65-48m372.2-285.4-41.9 89.2a8 8 0 0 1-1.5 2.2l-59.3 60.8q-1.2 1.2-2.9 1.8l-93.8 35.9-142.3 73.2-1.1.7-29.5 21.7m0 0 9.8-78a8 8 0 0 1 1.1-3l38.1-63.6 9.1-16a8 8 0 0 0 1-5.2l-4.8-31.6a8 8 0 0 0-1.2-3l-22.1-34.7q-.9-1.4-1.2-3.2l-10.5-78.6a8 8 0 0 1 .6-4.1l30.5-72.3a8 8 0 0 1 3.7-4l97.3-50.6q1-.5 1.9-1.4l79.1-76.2m10-14.5 112.4-28.4M3028.1 1479l81.6 42.2a8 8 0 0 1 3.5 3.6l8.4 17.2a8 8 0 0 0 2.7 3.1l26.3 17.8m79.4-198.9 7.4-95.6v-1.7l-9.4-70.6-19.5-117-24-97q-.5-1.5-1.4-2.8l-32-42.7a8 8 0 0 0-2.7-2.3l-44.8-22.6m0 92-155.6 76.5q-.8.5-1.8.6l-40 8.8m0 0-51-29.5-44.3-25.8a8 8 0 0 1-3.2-3.4l-15.2-31a8 8 0 0 0-11.2-3.5l-13 7.5a8 8 0 0 1-8.8-.5l-8.5-6.5a8 8 0 0 0-11.1 1.3l-13 16.2a8 8 0 0 0-1.6 6.2l4.5 30a8 8 0 0 0 3 5l26 21a8 8 0 0 1 2.2 9.7l-9.8 20.4a8 8 0 0 0-.8 4l4.4 78.4-4.4 53.6q0 1.8.5 3.5l9.4 24.3m145.9-181-16.5 40.6-24.5 52-1.2 1.8-46.2 52-1.2 1.1-27.2 20q-.6.6-1.4.9l-27.7 12.6m0 0v27.2a8 8 0 0 1-3 6.2l-18.6 15.2a8 8 0 0 0-3 6.2v34.4l.3 1.6 10 49.2a8 8 0 0 1-2 7l-32.2 35.8a8 8 0 0 0-1.5 2.6l-11.4 30.7a8 8 0 0 0 1.4 8l31 36.3 84 83a8 8 0 0 0 4.7 2.3l60.6 6.5a8 8 0 0 1 7.1 7.3l5 63.4"/><path stroke="#b1b5a9" stroke-linecap="round" stroke-width="8" d="m2486.2 1880.7 99.3 30m597.5 107.5-64.9 14.6a8 8 0 0 1-3.2 0l-78.4-14.6-385-87.5-9-2.7m453-1019.5 33.8 104.9.5 1.1 43 84.9.4 1.1 30.3 94.4 26.7 114.5q.3 1.5.1 3l-6.6 48.6a8 8 0 0 0 0 2.7l11.3 52.1 7.4 59.8v1.4l-4.4 96q0 .7-.2 1.6l-35.8 133.2-23.5 121-8.4 90v1.8l12.9 97.6m0 0 29 83.1a8 8 0 0 0 1.3 2.4l48.6 61.1 1 1.7 12.6 28q.5 1 .6 2.3l7.4 65.8m-48.5-846.8-18.3 13.8a8 8 0 0 0-2.5 3.1l-53.8 121.2-1 1.7-45.3 57.4a8 8 0 0 1-2.6 2l-58 30.8-207.5 82.4-41 17.5m0 0-69.7 23.4a8 8 0 0 0-3.1 2l-64.6 63.5q-.6.7-1.3 1l-47 29.8q-1.3.8-2.2 2l-31.6 43.3m219.5-165-24.8 36q-.7 1-1.7 1.8l-66.9 51.2-1.1 1.1-30 34.4-38 57.8m-57-17.3 57 17.3m0 0-57 73.2m0 0 241 123 97 48.4 127.8 59.4a8 8 0 0 0 2.5.7l120.4 14.3h1.6l47-4.3a8 8 0 0 1 3.3.4l57.4 19.5m-698-261.4-89.5 98.4m0 0-150.9 20.4-1.2.1-161.8-3.4a8 8 0 0 1-3-.8l-56.2-25.4q-1-.3-1.6-1l-84.8-65.4-1-1-66.6-72.5a8 8 0 0 0-11.3-.5l-69 64a8 8 0 0 0-.3 11.4l40.1 40.6q1.1 1 2.5 1.6l97 43.2 1.2.4 103.8 28.2q.6 0 1.1.3l99.5 43.3 207 102.5 136.5 56 176.3 51.2 1.4.3 45.2 4.8 2 .5 65.4 25.4 1.4.3 144.3 28 158.8 24a8 8 0 0 0 5.8-1.5l88.1-62.3a8 8 0 0 0 2.7-3.3l31.3-69q.8-2 .6-4l-3.7-47.7q0-1.7-1-3.2l-12.1-22.5m-787.5-163-9.8-59.5m9.8 59.5 10.4 68.6q0 .9.5 1.8l70.1 171.5"/><path stroke="#d5d8cb" stroke-linecap="round" stroke-width="6" d="m2486.2 1880.7 99.3 30m597.5 107.5-64.9 14.6a8 8 0 0 1-3.2 0l-78.4-14.6-385-87.5-9-2.7m453-1019.5 33.8 104.9.5 1.1 43 84.9.4 1.1 30.3 94.4 26.7 114.5q.3 1.5.1 3l-6.6 48.6a8 8 0 0 0 0 2.7l11.3 52.1 7.4 59.8v1.4l-4.4 96q0 .7-.2 1.6l-35.8 133.2-23.5 121-8.4 90v1.8l12.9 97.6m0 0 29 83.1a8 8 0 0 0 1.3 2.4l48.6 61.1 1 1.7 12.6 28q.5 1 .6 2.3l7.4 65.8m-48.5-846.8-18.3 13.8a8 8 0 0 0-2.5 3.1l-53.8 121.2-1 1.7-45.3 57.4a8 8 0 0 1-2.6 2l-58 30.8-207.5 82.4-41 17.5m0 0-69.7 23.4a8 8 0 0 0-3.1 2l-64.6 63.5q-.6.7-1.3 1l-47 29.8q-1.3.8-2.2 2l-31.6 43.3m219.5-165-24.8 36q-.7 1-1.7 1.8l-66.9 51.2-1.1 1.1-30 34.4-38 57.8m-57-17.3 57 17.3m0 0-57 73.2m0 0 241 123 97 48.4 127.8 59.4a8 8 0 0 0 2.5.7l120.4 14.3h1.6l47-4.3a8 8 0 0 1 3.3.4l57.4 19.5m-698-261.4-89.5 98.4m0 0-150.9 20.4-1.2.1-161.8-3.4a8 8 0 0 1-3-.8l-56.2-25.4q-1-.3-1.6-1l-84.8-65.4-1-1-66.6-72.5a8 8 0 0 0-11.3-.5l-69 64a8 8 0 0 0-.3 11.4l40.1 40.6q1.1 1 2.5 1.6l97 43.2 1.2.4 103.8 28.2q.6 0 1.1.3l99.5 43.3 207 102.5 136.5 56 176.3 51.2 1.4.3 45.2 4.8 2 .5 65.4 25.4 1.4.3 144.3 28 158.8 24a8 8 0 0 0 5.8-1.5l88.1-62.3a8 8 0 0 0 2.7-3.3l31.3-69q.8-2 .6-4l-3.7-47.7q0-1.7-1-3.2l-12.1-22.5m-787.5-163-9.8-59.5m9.8 59.5 10.4 68.6q0 .9.5 1.8l70.1 171.5"/><path stroke="#aeb0a7" stroke-linecap="round" stroke-width="18" d="m148 165 11.9 54.6a8 8 0 0 0 3 4.7l32.6 24.6M354 368.4l-61.6 25.5a8 8 0 0 1-4.9.4l-43-10a8 8 0 0 1-5.9-5.2l-43-130.2M354 368.4 195.5 248.9M354 368.4l340.1 244.4L1051.7 898l157.5 130.4 199.5 128.3q1 .7 1.8 1.6l196.5 234a8 8 0 0 0 2 1.6l259.8 156.9 1.2.6 244.6 96.7q1.3.5 2.4 1.4l115 101.5m0 0 80.7 59 1.7.9 171.1 68.2a8 8 0 0 1 4 11.3l-63.1 112.4a8 8 0 0 1-9.9 3.6l-262.5-103-2-1.2-30.5-23.8a8 8 0 0 1-1.8-10.5l37-60q.8-1.5 2-2.3z"/><path stroke="#d3d4cc" stroke-linecap="round" stroke-width="16" d="m148 165 11.9 54.6a8 8 0 0 0 3 4.7l32.6 24.6M354 368.4l-61.6 25.5a8 8 0 0 1-4.9.4l-43-10a8 8 0 0 1-5.9-5.2l-43-130.2M354 368.4 195.5 248.9M354 368.4l340.1 244.4L1051.7 898l157.5 130.4 199.5 128.3q1 .7 1.8 1.6l196.5 234a8 8 0 0 0 2 1.6l259.8 156.9 1.2.6 244.6 96.7q1.3.5 2.4 1.4l115 101.5m0 0 80.7 59 1.7.9 171.1 68.2a8 8 0 0 1 4 11.3l-63.1 112.4a8 8 0 0 1-9.9 3.6l-262.5-103-2-1.2-30.5-23.8a8 8 0 0 1-1.8-10.5l37-60q.8-1.5 2-2.3z"/><use href="#b"/><use href="#c"/><use x="1856.6" y="-67.7" href="#b"/><use x="352.6" y="5" href="#c"/><use x="2191.6" y="-4.6" href="#b"/><use x="2751" y="-8.8" href="#b"/><use x="1240.4" y="-35.4" href="#c"/><use x="-813.5" y="104.1" href="#c"/><use x="-211.4" y="169.5" href="#c"/><use x="-26.8" y="120.6" href="#c"/><use x="80.1" y="92.3" href="#c"/><use x="2175.3" y="105.4" href="#b"/><use x="2282.1" y="146.2" href="#b"/><use x="1135.3" y="120.5" href="#c"/><use x="1852.4" y="170" href="#c"/><use x="760.2" y="226.7" href="#b"/><use x="-433.2" y="290.5" href="#c"/><use x="1612.3" y="292.1" href="#b"/><use x="78" y="249.6" href="#c"/><use x="245.9" y="321.8" href="#c"/><use x="2187.1" y="244.4" href="#b"/><use x="677.2" y="276.2" href="#c"/><use x="1294" y="261.4" href="#c"/><use x="1333.4" y="297.1" href="#c"/><use x="1811.7" y="274" href="#c"/><use x="895.6" y="370" href="#b"/><use x="-644.4" y="407.7" href="#c"/><use x="-514" y="475.7" href="#c"/><use x="-359.3" y="467.3" href="#c"/><use x="1420.3" y="397.1" href="#b"/><use x="331.4" y="457.4" href="#c"/><use x="2342.1" y="381.7" href="#b"/><use x="757.4" y="557.7" href="#c"/><use x="2918.7" y="360.5" href="#b"/><use x="1426.3" y="449" href="#c"/><use x="1147" y="545.3" href="#b"/><use x="-343.1" y="560.6" href="#c"/><use x="-189.9" y="590.8" href="#c"/><use x="2.2" y="557.2" href="#c"/><use x="134.4" y="627.4" href="#c"/><use x="1872.8" y="509" href="#b"/><use x="1994.5" y="499.3" href="#b"/><use x="2158.3" y="535.5" href="#b"/><use x="2451.6" y="735.6" href="#b"/><use x="1808.3" y="572.3" href="#c"/><use x="-1882.1" y="748.9" href="#c"/><use x="1321.6" y="726" href="#b"/><use x="1595.9" y="690.3" href="#b"/><use x="397.7" y="684.5" href="#c"/><use x="493.2" y="733.6" href="#c"/><use x="3065.6" y="678.6" href="#b"/><use x="3433.2" y="711" href="#b"/><use x="-457.7" y="821.1" href="#b"/><use x="-1927.4" y="851.1" href="#c"/><use x="1444.5" y="836" href="#b"/><use x="1843.2" y="847.2" href="#b"/><use x="2271.6" y="834.2" href="#b"/><use x="1365.4" y="874.8" href="#c"/><use x="1773.1" y="911.1" href="#c"/><use x="-2074.9" y="996" href="#c"/><use x="-249.3" y="985.7" href="#b"/><use x="-706.4" y="927.1" href="#c"/><use x="1580.6" y="964.6" href="#b"/><use x="858.1" y="1000.3" href="#c"/><use x="994.4" y="997" href="#c"/><use x="1389.9" y="1042.6" href="#c"/><use x="1544.8" y="968.7" href="#c"/><use x="3460.6" y="967.7" href="#b"/><use x="-2037" y="1172.6" href="#c"/><use x="-318.2" y="1106.2" href="#b"/><use x="1603.7" y="1065.1" href="#b"/><use x="819.7" y="1120" href="#c"/><use x="973.7" y="1151.2" href="#c"/><use x="1431.5" y="1142.1" href="#c"/><use x="3201.4" y="1105.5" href="#b"/><use x="1743" y="1147.7" href="#c"/><use x="1814.3" y="1150.3" href="#c"/><use x="-1934" y="1260.6" href="#c"/><use x="-149.3" y="1239.3" href="#b"/><use x="709.8" y="1207.1" href="#b"/><use x="-752.5" y="1326" href="#c"/><use x="1709.7" y="1284.4" href="#b"/><use x="2366.5" y="1245.5" href="#b"/><use x="2459.6" y="1227" href="#b"/><use x="983.2" y="1322.7" href="#c"/><use x="3205" y="1228.9" href="#b"/><use x="-2020.1" y="1455" href="#c"/><use x="-1925.5" y="1498.8" href="#c"/><use x="-1779.8" y="1407" href="#c"/><use x="488.6" y="1439.3" href="#b"/><use x="-1018.4" y="1395.5" href="#c"/><use x="762.2" y="1420.9" href="#b"/><use x="1411.6" y="1445" href="#b"/><use x="-54.7" y="1404.6" href="#c"/><use x="1894.8" y="1395.8" href="#b"/><use x="2150.8" y="1439.8" href="#b"/><use x="2358.8" y="1429.8" href="#b"/><use x="3168.8" y="1449.8" href="#b"/><use x="1651.7" y="1400.1" href="#c"/><use x="-473.2" y="1497.8" href="#b"/><use x="-1240.3" y="1588.1" href="#c"/><use x="-1018.3" y="1554.1" href="#c"/><use x="-788.3" y="1596.1" href="#c"/><use x="1882.8" y="1559.8" href="#b"/><use x="-25.2" y="1723.8" href="#b"/><use x="174.8" y="1669.8" href="#b"/><use x="306.8" y="1713.8" href="#b"/><use x="-1176.3" y="1782.1" href="#c"/><use x="574.8" y="1639.8" href="#b"/><use x="848.8" y="1693.8" href="#b"/><use x="1030.8" y="1669.8" href="#b"/><use x="3190.8" y="1663.8" href="#b"/><use x="-475.2" y="1871.8" href="#b"/><use x="-1948.3" y="1914.1" href="#c"/><use x="-159.2" y="1871.8" href="#b"/><use x="-1641.3" y="1856.1" href="#c"/><use x="148.8" y="1809.8" href="#b"/><use x="254.8" y="1813.8" href="#b"/><use x="456.8" y="1801.8" href="#b"/><use x="750.8" y="1811.8" href="#b"/><use x="-482.3" y="1844.1" href="#c"/><use x="1722.8" y="1813.8" href="#b"/><use x="1701.7" y="1912.1" href="#c"/><use x="-261.2" y="1963.8" href="#b"/><use x="185.8" y="1963.8" href="#b"/><use x="-886.3" y="2008.1" href="#c"/><use x="3046.8" y="1927.8" href="#b"/><use x="3198.8" y="1977.8" href="#b"/><use x="3332.8" y="1933.8" href="#b"/><use x="3502.8" y="1917.8" href="#b"/><use x="-248.2" y="2161.8" href="#b"/><use x="-139.2" y="2133.8" href="#b"/><use x="-5.2" y="2121.8" href="#b"/><use x="319.8" y="2151.8" href="#b"/><use x="-902.3" y="2144.1" href="#c"/><use x="874.8" y="2097.8" href="#b"/><use x="978.8" y="2109.8" href="#b"/><use x="-34.3" y="2182.1" href="#c"/><use x="3046.8" y="2131.8" href="#b"/><use x="1551.7" y="2216.1" href="#c"/><use x="-1768.3" y="2294.1" href="#c"/><use x="-1500.3" y="2280.1" href="#c"/><use x="-2028.3" y="2297.1" href="#c"/><use x="840.8" y="2285.8" href="#b"/><use x="1736.8" y="2299.8" href="#b"/><use x="3032.8" y="2293.8" href="#b"/><use x="3454.8" y="2227.8" href="#b"/><use x="-1618.3" y="2430.1" href="#c"/><use x="166.8" y="2387.8" href="#b"/><use x="232.8" y="2431.8" href="#b"/><use x="-146.3" y="2450.1" href="#c"/><use x="-52.3" y="2471.1" href="#c"/><use x="1768.8" y="2391.8" href="#b"/><use x="1881.8" y="2417.8" href="#b"/><use x="-259.2" y="2387.8" href="#b"/><use x="573.7" y="2472.1" href="#c"/><use x="1147.4" y="1262.7" href="#b"/></g><defs><g id="b"><path stroke="#a9987e" stroke-linecap="round" stroke-width="4" d="M533.2 245.2v24"/><path fill="#aec9be" stroke="#88ada0" stroke-linejoin="round" stroke-width="2" d="m533.7 176.2-24.4 47.2h12.2l-18.3 34.8h61L546 223.4h12.2z"/><path fill="#cfe0d8" d="M533.6 188.7 519 219.3h8.3l-12.5 26.4h24.9l2.5-24 1.6-2.4z" opacity=".4"/></g><g id="c"><path stroke="#a9987e" stroke-linecap="round" stroke-width="4" d="M2170.4 195.3v34"/><path fill="#aec9be" stroke="#88ada0" stroke-width="2" d="M2161.4 201.3c13.8 0 25-11 25-24.5a25 25 0 0 0-25-24.5c-13.8 0-25 11-25 24.5a25 25 0 0 0 25 24.5Z"/><path fill="#cfe0d8" stroke="#88ada0" stroke-width="2" d="M2183.9 192.3a21.5 21.5 0 1 0 0-43 21.5 21.5 0 0 0 0 43Z"/><path fill="#aec9be" stroke="#88ada0" stroke-width="2" d="M2170.4 172.3a20 20 0 1 0 0-40 20 20 0 0 0 0 40Z"/></g><clipPath id="a"><path fill="#fff" d="M0 0h4096v2803H0z"/></clipPath></defs></svg>