<svg xmlns="http://www.w3.org/2000/svg" fill="none" viewBox="0 0 4096 2803"><g clip-path="url(#clip0_13490_1944)"><path fill="#66877c" d="M4096 0H0v2803h4096z"/><path fill="#7c9b8f" fill-rule="evenodd" d="M2508 969.3a18.6 18.6 0 0 1 33 14.2l-20.8 145.3a24 24 0 0 0 5.6 19l33.7 39.3a24 24 0 0 0 18.2 8.4h35.7a24 24 0 0 0 22.8-16.4l23.8-71.6q2.7-7.8 9.5-12.5l11.1-7.3q6-4 13.3-4h16a24 24 0 0 1 15.6 5.8l38.4 33a24 24 0 0 1 7.9 23l-67.8 330.6a24 24 0 0 1-6.5 12.1l-26.7 26.7a24 24 0 0 1-19.8 6.8l-173.6-20.9c-9-1-17.8 3-22.8 10.6l-32.5 48.8a24 24 0 0 1-20 10.7h-9.3a24 24 0 0 1-17-7l-25-25c-5-5-7.6-12-7-19.2l6.1-65.2a24 24 0 0 0-26.3-26.2l-53.3 5.3a24 24 0 0 1-23.2-12l-20.3-35.7a24 24 0 0 0-11-10l-65-29.5a24 24 0 0 1-13.9-24.6l13.5-114.7q.5-3.5 1.8-6.7l16.4-38.2a24 24 0 0 1 22-14.5h22.4a24 24 0 0 1 17 7l19.4 19.4a24 24 0 0 1 6.7 13l12 71a24 24 0 0 0 20.3 19.8l31.1 4.3a24 24 0 0 0 14-2.3l15.4-7.6a24 24 0 0 0 12.6-15.7l11-44.4a24 24 0 0 0-1.7-16.5l-10.7-21.7a24 24 0 0 1 7.7-30.3l57-39.8q6-4.3 8.7-11.2l20-53.3q1.4-3.5 3.8-6.5zM8 1457.9a24 24 0 0 1 34.7-21.5l8.6 4.3a24 24 0 0 1 8 6.6l23.4 29.2a24 24 0 0 1 5.2 15v11.5a24 24 0 0 1-9.6 19.2l-51.2 38.5A12 12 0 0 1 8 1551zm3900.9-6.6a17.2 17.2 0 0 1 30.3-10.1l82.2 95.6a24 24 0 0 0 21.8 8l21.5-3.2a24 24 0 0 1 25.1 13l9.7 19.3a24 24 0 0 1 2.5 10.7v367.7a10.6 10.6 0 0 1-19.4 6l-15.3-22q-1.2-1.9-2.7-3.4l-34.4-34.4-28-33.4a24 24 0 0 0-29-6l-26.8 13.3a24 24 0 0 1-34.3-17l-4.3-22a24 24 0 0 0-9-14.4l-43.4-33.3a24 24 0 0 1-9.3-18.9v-3.8a20.6 20.6 0 0 1 24-20.3c12.6 2 24.1-7.6 24.1-20.4v-12.6q0-3 .7-5.8l4.4-17.7a24 24 0 0 0-4.4-20.5l-34.8-44.8a24 24 0 0 1 3.4-33l30.8-26.3a24 24 0 0 0 8.4-16.7zM10.5 2037a15.5 15.5 0 1 1 25.5-16.8l10.3 26a24 24 0 0 1 1.7 8.8v5.3a24 24 0 0 1-12 20.8l-32.2 18.5a11 11 0 1 1-8.3-20.2l7-1.8c7.9-2 13.4-9 13.4-17.2V2049a16 16 0 0 0-4.7-11.2zm1051.2 4.2a24 24 0 0 1 21.3-3.2l20 6.7a24 24 0 0 1 16.3 22.7v33.1a24 24 0 0 1-11.6 20.6l-58.4 35a24 24 0 0 0-11.5 17.2l-3.5 25.5a24 24 0 0 0 15.3 25.8l30.4 11.5a24 24 0 0 1 15.6 22.4v10a24 24 0 0 1-11.4 20.4l-142.8 88.2a24 24 0 0 1-26.8-1.2l-13.4-9.8a24 24 0 0 1-8.2-11l-21.6-57.3-21.9-73.7a24 24 0 0 1-.3-12.6l4.2-16.8a24 24 0 0 1 9.5-13.9zm2685 140.7a24 24 0 0 1 23.6-20h15.8q4 0 7.6 1.3l81.8 27.1a24 24 0 0 1 14.7 13.8l8.4 20.7a24 24 0 0 1 0 18l-90.5 225.8a24 24 0 0 0-1.7 10l7.5 157.6q.2 5-1.5 9.6l-20.7 55.3a24 24 0 0 1-4.4 7.4l-48 55a24 24 0 0 1-12.4 7.5l-8.4 2a24 24 0 0 1-25.7-10l-2.6-4a24 24 0 0 1-4-13.2v-206.3q0-2 .4-4zm-2221.2 199.9q1.9 4 5 7l182.8 175.1a24 24 0 0 1 7 13.4l34 203.8a24 24 0 0 1-23.6 27.9h-179.2a24 24 0 0 1-14.8-5.1l-95-74.6a24 24 0 0 1-9-21.2l22.4-231.6q.3-3-.2-6l-11.1-70.7q-.5-2.3-.3-4.4l1.8-64.4q0-3.3 1-6.4l1.9-5.9a24 24 0 0 1 42-7.5l2.7 3.5a24 24 0 0 1 2.6 4.3zm-295 144a24 24 0 0 1 18.3-1.2l28.2 9.3a24 24 0 0 1 14.6 13.7l82.4 201.9q1.5 3.6 4 6.5l11.4 13.4a24 24 0 0 1-18.2 39.6H890.8a24 24 0 0 1-23.8-27l3.9-30.8a24 24 0 0 0-1.6-12l-7.8-19.1a24 24 0 0 1 5.2-26l48.5-48.6a24 24 0 0 1 10-6l200.5-61.6q1.9-.5 3.6-1.4z" clip-rule="evenodd"/><path fill="#7c9b8f" d="M1308.9 155.2a24 24 0 0 0-20.5-15.1l-78.2-6.1a24 24 0 0 1-17.3-9.5l-14.6-19.3a24 24 0 0 1-4.1-8.6l-15.4-61.4A24 24 0 0 1 1182 5.4h69.1a24 24 0 0 1 22.7 16.2l17.3 50.4a5 5 0 1 0 9.3-3.5c-8.7-21.5-22.1-56-22.1-63.1 0-6.4 24.9-4.7 45-2a23 23 0 0 1 18.6 15.3l16.3 46.2 73.9 218.2a17.5 17.5 0 1 0 33-11.6l-79.6-221.1a14 14 0 0 0-14.9-9.1 14 14 0 0 1-15.3-10.6l-6-25.3h50c4 0 68.5 171 100.4 256.4L1415.3 5.4h32.5c10 0 97.4 243.4 103.4 243.4s-88-243.4-80-243.4 100.5 243.4 107.5 243.4-95.4-243.4-85-243.4h38.5c9.5 0 81 218.9 85 225.9s28.5 4.5 32.5 17.5 49 90.4 50 100.4 84 217.4 79 222.4-42.5-29.5-53.5-37.5-116-269.3-126-272.3-17.5 37-48 32.5-37.4 19.4-57.4 32.4-42 0-56 12.5 27.5 77 45.5 115.5 59 22.5 79.4 46c20.5 23.4-22.5 27-49 33.4-26.4 6.5-18 70-20 60.5s-61.9-122.4-67.9-140c-6-17.4-36-95.4-48-105.4s-45.5 10-59 22.5-40.4-2-40.4-12.5 82.4-56.5 80-71c-1.9-10.4-31-86-49.6-133M1617.6 5.4c-17.9 0-31.6 19.7-25.7 36.5 21.7 62 62.8 180.2 68.8 176.4a8427 8427 0 0 0 98.5-69.3 16.4 16.4 0 0 0 5.6-20c-6.4-14.6-27.8-12.8-33.5 2-2.4 6.2-4.6 10.3-6.1 10.3-6 0-38.5 6.5-41-6.5-1.8-9.1-24.8-72.3-40.2-113.8a24 24 0 0 0-22.5-15.6zm1268.9 24a24 24 0 0 0-24-24h-6.2a24 24 0 0 0-22.7 31.9l51.4 147.5a24 24 0 0 0 4.5 7.7l45 52.5 27.9 34.9a24 24 0 0 1 5 11.5l6.4 44.7a24 24 0 0 0 3.2 8.9l19.8 33a24 24 0 0 0 4 5l4 3.8a24 24 0 0 1 3.3 4l59.7 89.8q2.7 4 3.5 8.6l14.4 71a24 24 0 0 0 3.3 8l52.3 82.2q1.2 2 2 4l44.1 109.6c30.2 68.5 90.4 206.2 90 209.4-.4 3.6 15.5-6.8 19.2-2.3-3.2-15.7-16.2-90.5-28.2-101.6-14-13-58.5-45.5-51-63 6.6-15.2-2-41-4.4-51.1q-.6-3.4-1.7-6.6c-7.5-19.7-43.6-96.8-46.8-100.2-3.5-3.7-27-53.5-35.5-93s13.5-21.5 8.5-29.5-80.5-152.4-88-173.9-89-179.4-97.4-203c-6.8-19-30.6-45.3-41.6-56l-16.9-16.7a24 24 0 0 1-7.1-17.1zM3583.4 591c-12.7-13.7-34.8-.1-28 17.4 53.5 137.7 129.5 327.8 134.8 347.5 4.6 17 14.2-237.5 20-411.6a24 24 0 0 0-41.4-17.1l-60.5 64a17 17 0 0 1-25-.1m-259.9 506.8c-3.6-15.9-27.6-10.1-28 6-2 73.4-5 185.5 1.2 204.8 8.8 27.5 59.8 167 53.8 191s-41 255.3-53.8 284.8-22.2 121.5-23.2 142c-1 20.4 0 64 0 88.9s8.5 79.5 23.2 76c6.8-1.7 19.2-3.7 31-5.4 11-1.6 20 8.4 17.4 19.3a16 16 0 0 0 7 17.1l25.9 16.2c7.1 4.5 16 4.8 23.8 1.7 19.8-7.7 45.7-13 48.6 5.5 4.5 28.5-17 48-24 48s-6 40 6 40 48.5-22 54.5-40-9.5-46.5-16.5-58.5-22-41-7-52.4c15-11.5 30-7 32-23.5s-5.5-79 11.5-89 23-16 27.5-44c4.5-27.9-9.5-64.3-9.5-75.9 0-11.5 21-74.2 23.5-89s15-13.6 7.5-54.8-20.5-54.3-31-79.1-36-41.8-18-48.6 36-17.2 18-40-54.5-9.9-54.5-28.8c0-19-21.5-92.5-38-111.5s-4.5-136.4-20-150.4-33-62-47.4-82c-14.5-20-38-53-41.5-68.5m194.2-995a24 24 0 0 0-36.3 5.2l-45.2 72.6a24 24 0 0 0 1.5 27.4l49 63.3a24 24 0 0 0 25 8.5l52.5-13.5a24 24 0 0 1 23.4 6.6l61 64a24 24 0 0 0 29.7 4l45.8-27.6a24 24 0 0 0 1.4-40.2l-76.2-53.3zm162.9-94.4a24 24 0 0 0-17 41l136.2 135.1a24 24 0 0 0 36-2.5l102.6-135a24 24 0 0 0-19.1-38.6zm423.7 98.3a24 24 0 0 0-41.7-17.2l-70.5 77a24 24 0 0 0 5.4 36.9l65.6 38.9a24 24 0 0 0 36.2-19.6zM1610 1934.5c9 0 15-9.3 11.3-17.5l-198-439a24 24 0 0 0-2.4-4.2l-59.4-82a4.4 4.4 0 0 0-7.3 4.8l40.2 69a24 24 0 0 1 1.6 21l-59 148.7a24 24 0 0 0 5 25.5l259 269.9q3.8 3.7 9 3.8m-631.4-395.7a24 24 0 0 1 4.3 30.5l-17 27.4a24 24 0 0 1-27.7 10.2l-120-38.6q-3.6-1-7.4-1.1h-67.7a24 24 0 0 1-22.3-32.9l59.5-149a24 24 0 0 1 9.2-11.2l148-95.7a24 24 0 0 1 12.1-3.8l128-5a24 24 0 0 1 20.7 37.5l-50.1 74a24 24 0 0 0 .7 28l40.9 53.7a12.4 12.4 0 0 1-17 17.7l-54-37.7a24 24 0 0 0-33.2 5.5l-29.8 41a24 24 0 0 0 3.3 32zM33.7 2641.5a24 24 0 0 1 3.6-17.2l39.4-59.5a24 24 0 0 0-8.3-34.2l-14.4-8.1a24 24 0 0 1-8.7-33.6l90.1-145 77.5-166.5c10.1-20 40.6-10 36.7 12.2l-6.2 36.3-49.1 155.7a24 24 0 0 0 22.8 31.2h21.5a24 24 0 0 0 22.3-15.2l30.3-76.6a10 10 0 0 1 19 5.9l-3 12.8c-3 13.6 16 20.3 22 7.7a11.8 11.8 0 0 1 21.5.8l3.4 8.2q2.1 5.4.4 11l-25.8 77.6a24 24 0 0 0 8.2 26.6l67.8 52a24 24 0 0 1 6 6.4l68 111.3 39.3 79a17 17 0 0 1-15.4 24.7 17 17 0 0 0-11.8 4.8l-32.6 31.2a24 24 0 0 1-36-3.3l-43.9-60.6-46-78a24 24 0 0 0-26.3-11.2l-88.9 21.7a24 24 0 0 0-7.8 3.5l-89 60.8a24 24 0 0 1-10.6 4l-38.9 4.8a24 24 0 0 1-26.7-19.7zM-16.7 286.2a24 24 0 0 1 14.2-23.7l634-282.2a24 24 0 0 1 13-1.9l36.5 5a23.4 23.4 0 0 1 6.4 44.5l-479.5 214-26 11.6-163.3 73a24 24 0 0 1-33.7-20.1zM121 427.3c-23.1 6-50.6-7.7-74.6-26.2-18-13.9-49.1-2-49 20.8l2 323A24 24 0 0 0 25 768.7l59.2-4.4a13.4 13.4 0 0 1 8 24.8L78 797.9a12.2 12.2 0 0 0 12.3 21l32.8-18.3 3.3-2.3 77.6-62.6a24 24 0 0 0 8.2-13l28.9-119a24 24 0 0 1 35.6-14.9l15 9a24 24 0 0 1 11.7 22L295 761.2l-.6 3.8-22 98.7a24 24 0 0 1-1.5 4.6l-24.1 53.6a24 24 0 0 0-1.9 6.5l-7.6 55a24 24 0 0 0 1.6 12.7l17 40.4 3.3 7.5a24 24 0 0 0 17.5 13.8l26.2 5a24 24 0 0 1 14.5 8.9l7.3 9.3a24 24 0 0 0 20.1 9.3l43.7-2.1q5.3-.3 10.2 1.8l54.8 22.3a24 24 0 0 0 17.7.2l22.4-8.6c7.9-3 16.8.7 20 8.5 2.5 5.8 8.2 9.5 14.5 9.5h3.9c9.3 0 17.6-6 20.5-15l9.5-30.3a24 24 0 0 1 24.7-16.7l54.7 4a24 24 0 0 0 12-2.1l65-30.6a24 24 0 0 1 7.9-2.1l98.8-9.6 81.2-13.3a24 24 0 0 1 27.7 26.6l-6 48.5q-.5 3-1.7 6l-16.3 40.2a24 24 0 0 1-7.5 9.9l-77 59.5a24 24 0 0 1-27 1.6l-16.2-9.7a24 24 0 0 0-12.3-3.4h-18.2l-3.4-.2-10.3-1.5a24 24 0 0 1-19-32.5l5-12.5a24 24 0 0 0 1.5-11l-1.6-18.6a24 24 0 0 0-22-21.8l-22.1-1.8a24 24 0 0 0-20.7 9l-9.7 12a24 24 0 0 0 .5 30.5l20 23.6a24 24 0 0 1 5.6 18l-.9 8.8a22 22 0 0 1-41.1 8.4l-17.2-31.2a13.2 13.2 0 0 0-24.1 2 13 13 0 0 1-8 8l-74.9 27.2q-1.6.6-3.4.8l-27.7 4a8.4 8.4 0 0 1-7-14.3 8.4 8.4 0 0 0-1-12.8l-11.2-8.4c-4-3-9.1-4.4-14.2-3.9l-42.7 4.3a24 24 0 0 1-15.5-3.6l-48.6-31.4a24 24 0 0 1-10.7-15.8l-3-16.9a24 24 0 0 0-4.3-9.8l-10.6-14.5a24 24 0 0 0-13.6-9.1l-10.8-2.7c-8.2-2-16.9.4-22.7 6.5a24 24 0 0 1-29.8 3.4l-7.3-4.7a24 24 0 0 1-10.9-24l5.5-33.4 5.6-50.2a24 24 0 0 0-.1-6.5l-3.7-22.5a24 24 0 0 1 5.8-19.8l24.7-28a11.9 11.9 0 1 0-18.7-14.4l-39.6 59-26.7 48.7a24 24 0 0 0 8 31.8l4.4 2.8a24 24 0 0 1 10.5 25.6l-5.2 22.5-3.5 18a24 24 0 0 0 10.6 24.7l65.1 42.2a24 24 0 0 1 10 26.4 23.5 23.5 0 0 0 19.7 30l32.6 4q3.9.6 7.5 2.3l85.3 41.6a24 24 0 0 1 10.3 9.5l39.8 68.6 22.3 31.2c9.7 13.5 0 32.3-16.6 32.3h-5.3a13.3 13.3 0 0 0-6.2 25l56.2 29.5 44.8 17.5a24 24 0 0 0 20-1.2l54-28.4a22.4 22.4 0 0 1 25.2 36.6l-63.8 56a24 24 0 0 1-22 5L543 1528a24 24 0 0 1-11-6.4l-22.5-23.1a24 24 0 0 0-29.7-3.8l-25.6 15.6A24 24 0 0 0 444 1523l-3.7 11a24 24 0 0 0 19.3 31.3l65.4 9.6a24 24 0 0 1 8.8 3.2l56.8 34a24 24 0 0 0 30.7-5.2l61.2-73.2q2.1-2.6 3.5-5.6l62.7-140.7q1.5-3.2 3.8-5.9l41-47.3a24 24 0 0 1 4.9-4.3l94.7-62.2 91-43.1q3.9-1.9 8.1-2.2c25.9-2.5 71.1-7.7 73.8-11.1 3.5-4.5 15.5-39 15.5-54s-63.5-39-82-40-33-45.5-35-59 35-26 29-29 0-45 6-52 39 36 39 23.6c0-12.5 53-5 66.5-16.5s104.9 82.5 117.4 74 135.4 67 144.4 67 113.5 122.4 116.5 125.4c2.3 2.3 47 58.3 72 89.7 2.3 2.8 3.7 6.1 5.5 9.2 9 16 41.3 33.9 49.4 42 9 9 36 33 39 50.5s36 50 36 78.4 32 9.5 43 29.5 35.4 19 42 33c6.4 14 14 5 28.4 0 14.5-5 39-9.5 50-14s52.5.5 95.5 4.5 20.4 28 27.4 28 1-28-7-37-9.5-20.5 0-34.5 5-36 0-38-51-23-59-23-57-71.4-61.9-86.4l-.4-1.5c-3.4-15.8 6.3-39-8.4-45.8q-1.3-.7-2.2-.7c-5.5 0-48.5-21-62.5-23s-30-25-42-27 12-53 12-67c0-11.1 39-7.6 58.5-4.4 39.2 3.5 119 10.6 125.5 11q.7 0 2.2.6c8.7 3 16.4-10.5 7.3-11.6-8-1-9.5-34-9.5-40s-106.5-34-111-35.5-74-8-73-12.5 21-75.4 30-92c9-16.4-9.5-76.4-15-88.9s-68.4-35-74-35c-5.4 0-37.4-32.5-48.9-32.5s-31 32.5-38 32.5-48.5 132-59 140.5-40 126.4-47.4 129.4c-7.5 3-55-45.5-48.5-54s40.5-148 44-160.9c2.8-10.4-11.2-36.6-18.5-48.5h-60c-21 0-183.4 3.5-214.9 17s-37-72-37-91.4 63.5-21 94.5-17.5 135.4 38 169.9 48 76.5 44 96.5 54 37.4-133.5 37.4-148-160.9-94.5-168.4-83.5-79.5-4.5-104.4 16-114.5 12-147.5 22-69-42.5-57.4-42.5c11.5 0 116.4-40.4 125-40.4 8.4 0 36.4-25.5 41.9-28s-43.5-49.5-50.5-57-89 32.5-90 18.5-56-74.5-78.4-85.5-61-69-68-97.4 78.5-67.5 77-77.5-47.5-81.4-49-99c-1.5-17.4-74.4-65.4-89-68.4-14.4-3-279.8 167.4-289.8 170.4s-56-83.9-70.5-93-155.9 84-159.9 83-69.5-46.5-92-73.9c-22.4-27.4-15.4 41.4-18 60-2 14.7-37-33.8-54.4-60l-26 11.6c20.7 31.1 61.3 96 58.5 106.3-3.5 13-66 53.5-119.5 67.5M4006.5 2805a24 24 0 0 0 22.8-16.7l73.7-232q.5-1.7.5-3.4c0-12.1-16.4-15.8-21.6-4.9l-18.4 38.7a21 21 0 0 1-26.8 10.5l-36.1-14.6a24 24 0 0 0-32 15.4l-13.3 45q-1.2 4-1 8.4l3.3 47a24 24 0 0 1-2.7 12.8l-38.4 72.7a14.4 14.4 0 0 0 12.7 21.1h1c6.5 0 12.4-4.1 14.6-10.3l50.8-139.8a11.6 11.6 0 0 1 22 6.6l-16.4 70a24 24 0 0 1-1.8 4.9l-16.4 34.2a24 24 0 0 0 21.7 34.4zM1577.2 1555.8a24 24 0 0 0 2.5 16.8L1813 1991l48.6 104a24 24 0 0 0 14.3 12.7l280 91.7 199.3 83 244 109.9 330.8 109 115.4 48.6a24 24 0 0 0 18.1.2l146.7-58.1a24 24 0 0 0 9.5-7l85.6-102a24 24 0 0 0 5.6-16.5l-6.1-139.1v-85a24 24 0 0 0-3.9-13l-49.4-76.5a24 24 0 0 1-3.9-14l11.2-272.3 37.1-218.8q.6-3.6.2-7.1l-23.3-179.9-45.8-252a24 24 0 0 1-.3-6.8l10.8-100.2q.3-2.9 0-5.7l-10.6-81a24 24 0 0 0-2.4-7.7l-162-319.7L2921 336.3l-105.7-206.5q-1.3-2.4-2-5L2787 19.4q-.8-3-.8-6V-11a24 24 0 0 0-24-24h-56.4A24 24 0 0 0 2682-6.2l27.6 133.6 64.4 283.8q.5 2.6.6 5.3v44a24 24 0 0 0 24 24h84.3a24 24 0 0 1 22.7 16.2l60 174.4q.7 2 1 4.2l22.6 150.5a24 24 0 0 0 3.2 8.9l125.6 208.5q1.5 2.2 2.2 4.7l55.1 162.6a31 31 0 0 0 13.2 15.5c20.1 13 43.8 43.6 25.3 94.3-21.3 58.5-94.8 196.9-130.1 261q-1.4 2.4-3.1 4.4l-48.3 54q-3.8 4.5-9.3 6.5l-347.2 132.2q-5.7 2.2-9.7 6.7l-52.7 61q-1.2 1.5-2.8 2.7l-48.8 40.9a24 24 0 0 1-24.6 3.7l-190.6-79.2a24 24 0 0 1-7-4.5l-45.8-42.1-48.7-39.1a24 24 0 0 0-5-3.1l-28-12.9a19 19 0 0 0-25.7 10.3l-1.5 3.6a16.7 16.7 0 0 1-28 4.9 16.7 16.7 0 0 0-25 0l-6 6.7-3.3 3-14.3 11.2a24 24 0 0 0-3.5 34.5l4 4.7a12 12 0 0 0 9.1 4.2 12 12 0 0 1 9.1 20l-48.5 55.8a24 24 0 0 0-3.8 25.6l8.1 18a19 19 0 0 0 32.8 3.3 19 19 0 0 1 22.7-6.5l244.4 100.7 59.5 25.7a24 24 0 0 1 14.5 22v3.7a24 24 0 0 1-19.2 23.5l-155.7 32c-37.2 3-120.7 0-157.4-36s-117.3-111.2-153-144.4l-172.9-199.4-88.4-100-67.7-82.8-2.8-3-22.4-19.4a24 24 0 0 0-39.2 13z"/><path fill="#729287" d="M3905.5 1484.5a20 20 0 0 1 28 3.8 161 161 0 0 0 29 30.7c11.2 9.4 16.7 15 26 22.3a1925 1925 0 0 0 46.5 35.2c10.1 7.5 16 14.6 22.3 22.6l3.1 4 .3.5c3.8 5.5 7.2 10.8 10.2 15l.9 1.4 3.3 5q2.7 4.8 4 10.3a20 20 0 1 1-38.7 9.9v-.1q0-.4-.4-1l-.8-1-1-1.5-10.1-15a77 77 0 0 0-16.8-18 1976 1976 0 0 1-47.5-35.9c-9.2-7.2-19.2-16.5-27-23.1a200 200 0 0 1-35.2-37.2 20 20 0 0 1 3.9-28m56.3 334.2a20 20 0 0 1 11.6 35.8c-4.8 3.6-10.4 6.6-14.4 11a54 54 0 0 1-9.8 8.7l-1.4 1-.6.2-.7.5-2.2 1.8-.6.5-.5.5c-3.7 2.8-6.9 4-8.4 4.6a20 20 0 0 1-18.6-35q3-1.9 5.7-4 2-1.6 4.1-2.8 1.6-1 2.8-2.1a53 53 0 0 0 4.3-5.2q4.6-6.1 11-10.3c4-2.4 10-5.2 17.1-5.2zm-19.8-140.4q6.4.1 11.2 3.4l5.4 3.9a20 20 0 0 1-20.2 34.1 36 36 0 0 1-8.5-5.1c-1-.8-3.4-3-5.3-6.4-2.5-4.7-2.5-9-2.5-9.9 0-11 9-20 20-20m20 20v-.3zm22.7-79.9a20 20 0 0 1 20 19l.2 1.8.2.6.2.7c.7 3.4.6 6.3.6 6.8a20 20 0 0 1-39.5 4l-1-5-.2-1-.1-1.2-.4-5.7c0-11 9-20 20-20m84.2 114.8a20 20 0 0 1 19.2 14.4l1 3.9.2.6a20 20 0 0 1-38.3 11l-.2-.2-.1-.4-.6-1.6c-1.2-3.7-1.2-6.7-1.2-7.7 0-11 9-20 20-20m38.5-908.3a24 24 0 0 1-14 20.1l-50.6 23a24 24 0 0 1-22-1.1l-196.7-114.1a24 24 0 0 1-10-30.1l48.5-114.7a24 24 0 0 0-13.7-31.8l-75.8-28.4a24 24 0 0 1-15.4-25l6.1-58.5a24 24 0 0 1 9.4-16.6l61-46q1.7-1.2 3.1-2.8l38.7-41.7a24 24 0 0 1 25.6-6.3l114.7 40.6a24 24 0 0 1 6.8 3.8l98.8 77.4a24 24 0 0 1 9.1 20.6zm-4.6 279.2a24 24 0 0 0-19.7-21.1l-9.6-1.7a24 24 0 0 1-15.3-9.6l-13-17.9a24 24 0 0 0-33.8-5.1L3758.2 1238a24 24 0 0 0-8 28l28.2 70.7a24 24 0 0 0 2.9 5.2l37.3 51.6a24 24 0 0 0 32.5 6.1l153-99a24 24 0 0 0 10.9-20.1V1235a24 24 0 0 1 11.7-20.6l38.6-23a18 18 0 0 1 18.3.1 17.6 17.6 0 0 0 26.7-16.7zM3972 172l-110.5 119.6a24 24 0 0 0-5.8 11.5l-10.1 49.2a24 24 0 0 1-7.5 13l-75 67.6a24 24 0 0 0-7.9 16.4l-4.7 74.7a22 22 0 0 1-44-1.3 22 22 0 0 0-37.2-15.7l-62.4 60.4a24 24 0 0 1-38.5-7.3l-24.8-54.3a24 24 0 0 0-25.8-13.7l-20.3 3.4a24 24 0 0 1-23.7-10L3341.1 295a24 24 0 0 1 2.1-30l62.1-66.8a24 24 0 0 1 36.9 2l73.8 99.7a24 24 0 0 0 4.6 4.7l128.5 99.4a24 24 0 0 0 33.6-4.2l144.8-185.2L3987 5.1a24 24 0 0 1 17.3-9.4l78-6a24 24 0 0 1 25.5 27.8l-4 25.3a24 24 0 0 1-7.4 13.9zM2381.3 1824.5c-15.5-6-28.7 12.7-17.7 25.2q2.4 2.8 5.8 4.2l180.6 74.3a24 24 0 0 0 24-3.4l54.8-43a24 24 0 0 0 9.2-19v-.9a24 24 0 0 0-40-17.8l-40 36a24 24 0 0 1-24.8 4.4zm-479.8 302.7a24 24 0 0 0 22-37l-333.2-512.8a20 20 0 0 1 31.7-24.2l479.8 541.1a24 24 0 0 0 27.8 6l8.6-3.9a24 24 0 0 0 7.5-38.5l-523.1-542a24 24 0 0 0-37.8 4.2l-16.8 27.7a24 24 0 0 0-3.5 12.4v41.5q0 6.3 3 11.8l280.2 498.8c4 7 11 11.6 19 12.2zM1718 1513c-15-17.6-43.6-3.7-39 19a22 22 0 0 0 8.8 13.6l79.3 57a24 24 0 0 0 16.7 4.4l169.2-18.8a11 11 0 0 1 9.8 4 11 11 0 0 0 19.7-7v-103.7c0-8.2-4-15.7-10.8-20.1l-95.9-63.3a17.5 17.5 0 0 0-24.9 22.8l29.1 54.1 21 43a24 24 0 0 1-1 22.6l-2 3.5a24 24 0 0 1-16.2 11.5l-81.4 15.7a24 24 0 0 1-20-5.1l-58.5-49q-1.5-1.2-2.8-2.7zM246.7 2407.2a10 10 0 0 1-3.2-12l36-76a21.8 21.8 0 0 1 36.4-4.8l5.7 6.7c1.5 1.8 2 4.3 1.1 6.5-2.4 6.8 6.4 11.9 11.2 6.4l3.3-3.9c2.9-3.3 8-3.5 11-.4l10 10c4.9 4.9 7 11.9 5.6 18.6l-18.3 90a24 24 0 0 0 9 23.8l111 84.5q4.5 3.4 7 8.4l69.4 137.8a24 24 0 0 1-5.2 28.5l-66.1 60.7a24 24 0 0 1-35.1-2.8l-112-142.4a24 24 0 0 0-30.2-6.3l-182.8 97.7a24 24 0 0 1-16.8 2.2l-47.2-11a24 24 0 0 1-17-14.9c-11.2-30.7-26.8-76.8-24-83.5 2.5-6 26.3-37.1 45.2-61.4 7.7-10 6.6-24.2-2.7-32.7l-16-14.5a24 24 0 0 1-5-28.8l150-288.1 59-92.2a23.6 23.6 0 0 1 42.6 18.8L216 2366.8a13.4 13.4 0 1 1-25.8-7.2l43-151.5c4.6-15.7-16.5-25.6-25.7-12.1L55.7 2493a24 24 0 0 0 5.9 29.3l9.1 7.7c8.4 7 11 19 6.2 28.8L45 2624.6a24 24 0 0 0-2 13.4l5.1 39.5a24 24 0 0 0 32.9 19.1l77.6-31.7 127.6-58.8a24 24 0 0 1 25 3l35 27.6a24 24 0 0 1 5.6 6.4l54.4 89a24 24 0 0 0 32.8 8l46.3-28a24 24 0 0 0 9.3-31L441 2571a24 24 0 0 0-7.4-9l-98-71.8a24 24 0 0 1-9.5-23l14-91.2a9 9 0 0 0-17.6-4.4l-15.8 44.5a16.4 16.4 0 0 1-25 7.8l-5.7-4a7.4 7.4 0 0 1-2.6-8.6c3.2-8.4-8.4-14.2-13.2-6.6l-1 1.7a7.6 7.6 0 0 1-10.8 2.1zm855.2-142.9a24 24 0 0 0-37.3-10.7l-140 108.9a20.6 20.6 0 0 0 21.7 34.7l153.8-75.6a24 24 0 0 0 11.9-29.9zm7.1-225.3a24 24 0 0 0-23.2 18l-10.6 40.6a24 24 0 0 1-15.3 16.6l-49.2 17.3a24 24 0 0 1-11.7 1l-50.3-7.9a24 24 0 0 0-18.4 4.7l-19 14.7a24 24 0 0 0 10.4 42.6l90.4 16.4a24 24 0 0 0 22.9-8.4l34.7-42.3q2.3-2.9 5.3-4.8l57.9-38.6a24 24 0 0 0 10.4-23.4l-3.8-26a24 24 0 0 0-23.7-20.5zm2169-621-75-375.7a24 24 0 0 1 0-9.5l15-73.3c1-4.9.4-10-1.6-14.5L3097 672l122.5 244.5 22.1 46a24 24 0 0 1 2.4 10.5v153.5zM2810 45.7c-8.9-10.3-25.5-.9-21.1 12l78.8 231.4q.7 2.4 2.1 4.6l142 237.5c9.7 16 47.3 5.8 31.2-3.7-6.8-4-156.6-320-231.3-479q-.7-1.5-1.8-2.8m50.6 468.5a24 24 0 0 1 32.2 15.9l90.2 329.1q.6 2.3 1.7 4.4l159.9 320.4 7.3 11.3a18.4 18.4 0 0 0 32.7-16.5c-24-63.6-70-181.6-75-182.8s-73.8-126.4-109-191.6q-1.5-3-2.2-6.1L2949 579l-35-102.7a24 24 0 0 0-22.7-16.3h-67.9a24 24 0 0 1-23.3-18.4L2731.5 157l-36-146.6a8.9 8.9 0 0 0-17.4 3.7l76.4 430.4a24 24 0 0 1-2.7 16l-35.4 62.8a24 24 0 0 1-6.2 7.2l-139.8 108a24 24 0 0 0-8.5 12.8L2486.8 927a24 24 0 0 0 10.7 26.9l18.6 11.2a24 24 0 0 0 36-16.7l2.1-12.5a24 24 0 0 1 3.4-9l242.8-383.4a24 24 0 0 1 11.2-9.4zm-664.3 657.2c10-7.3 24.4-3.3 29.2 8.2l37 89.1a24 24 0 0 0 22.1 14.8h63.2c12 0 22-8.7 23.8-20.5l8.8-60.3.2-3.4v-43.1c0-7.1 3.1-13.8 8.6-18.4 30.5-25.8 78.4-67.6 78.4-72.3 0-20.2-23.6-31-36.4-15.4l-12.6 15.4-52.4 62.6a24 24 0 0 0-5.2 11.2l-18 102.3a24 24 0 0 1-26.5 19.7l-13.9-1.6a24 24 0 0 1-20.8-20.1l-11-69.1a24 24 0 0 0-14.9-18.5l-48-19.2a24 24 0 0 0-27 6.6l-48.3 55.8a24 24 0 0 0-5.7 13.4l-10.5 109.3a24 24 0 0 0 3.5 15l33.2 52.8a24 24 0 0 0 7.8 7.7l68 41.6a24 24 0 0 0 12.5 3.5h55.1q4.5 0 8.8 1.7l16.6 6.5a24 24 0 0 1 15 25.1l-6.9 59.2a24 24 0 0 0 12.9 24.1l42.2 21.7a24 24 0 0 0 27.3-3.7l55.2-51.2c5-4.7 12-7 18.9-6.2l166.4 17.7a24 24 0 0 0 18-5.5l46.7-39.4a24 24 0 0 0 8-13.9l46-243.4q.6-2.2.5-4.5V1120a24 24 0 0 0-12.1-20.8l-45-25.7a24 24 0 0 0-26.5 1.8l-28.1 21.4a24 24 0 0 0-8.2 11.3l-13 38.4a24 24 0 0 1-22.8 16.2h-39.7a24 24 0 0 1-23.8-21.5l-6.3-61-.5-4c-2-17-25.7-19.4-31-3q-.5 1.5-.7 3.2l-6.6 62.6a24 24 0 0 0 1.7 12l21.3 50.2a24 24 0 0 0 24.1 14.6l50.7-4.2a24 24 0 0 0 17-9.2l53.1-68.2a24 24 0 0 1 15.3-9l11.6-1.7a24 24 0 0 1 26.9 17.7l11.8 45.8q1.3 5.2.3 10.5l-32 164.7-40.7 122.1a24 24 0 0 1-24 16.4L2507 1493h-54.4a24 24 0 0 0-20.2 11l-24 37a24 24 0 0 1-23.7 10.7l-5.4-.8a24 24 0 0 1-20.3-26.4l8-72.4a24 24 0 0 0-9.4-21.8l-23.2-17.5a24 24 0 0 0-14.4-4.8h-55c-7 0-13.6-3-18.2-8.5l-19.8-23.2q-1.5-1.8-3.3-3.3l-57-45a24 24 0 0 1-9-22l9.9-73.6q.4-3.5 1.8-6.5l20.5-46.7q2.1-4.6 6.3-7.8m-255.8 29.9a24 24 0 0 1-30.4 13.2l-171.3-63.7a23 23 0 0 1-14.4-25.9l1-5.4c4.9-23.8-26.9-36.5-39.7-16a22 22 0 0 1-30 7l-52.7-33a24 24 0 0 1-8.8-31l52.2-105.5a17.1 17.1 0 1 0-31.1-14.3l-102.4 239.7a24 24 0 0 1-8.7 10.6l-11.4 7.6a24 24 0 0 1-29.6-2.3l-41.6-38.2a24 24 0 0 1-7-23.4l37-149.2a24 24 0 0 0-24-29.8l-204.3 4.9a23.7 23.7 0 1 1 0-47.3l236.3 5.8a24 24 0 0 1 22.5 17.2l15.8 53.4q1.7 5.7.4 11.8l-30.7 145.4a14 14 0 0 0 27 7.4l43-127.3 69-162.9a24 24 0 0 1 32.9-12l21.7 10.9a24 24 0 0 1 13 19.3l2 21.8a24 24 0 0 0 16 20.5l73.4 25.7a24 24 0 0 1 15.8 18.8l7 43.2a24 24 0 0 1-.1 8.4L1771 1095a24 24 0 0 0 16.4 27.4l139.3 43.7a24 24 0 0 1 15 32.2zm-323.7-59.4a24 24 0 0 0-33 6.5l-55 80.2a24 24 0 0 0 7.8 34.4l44.1 25.3a24 24 0 0 0 32.5-8.4l48.9-80.6a24 24 0 0 0-7.4-32.5zm104.6 153.1a23.6 23.6 0 0 0-31.8-10.3l-47.8 24.3a24 24 0 0 0-11.4 30.4l.8 2a24 24 0 0 0 34.3 11.8l46.6-27c11-6.2 15-20 9.3-31.2m-643-523.2q-3.8-1.4-7.6 0a845 845 0 0 0-48.4 25.8c-20.5 11.4-13.8 42 9.6 44.2l25 2.2a24 24 0 0 0 18.4-6.2l23.3-21.6a24 24 0 0 0-8.4-40.3zm10.8-66.4a24 24 0 0 0-34-14l-128.6 67.3a23.4 23.4 0 0 0 19.6 42.4l133-54.3a24 24 0 0 0 13.8-29.4zm32.9-112.1a22.5 22.5 0 1 0 11 43.5l38.8-13.4a19 19 0 0 0-9.3-36.7zm415 158.2a22 22 0 0 0-17.8 14.9l-27.9 84a24 24 0 0 1-29.6 15.4L1247 801.2a24 24 0 0 0-11.1-.7l-49.4 8.8a23.4 23.4 0 0 0 1.9 46.4l175.6 16.8 95 22.5 37 9.6a24 24 0 0 1 6.5 2.7l1.8 1.1a24 24 0 0 0 35.6-14c7.8-28.7 16.5-61.3 17.6-67.9 1-6.2 3-30 4.6-51.7a22 22 0 0 0-25.2-23.3m-572.9 494c6-10.8-4-23.5-16-20l-131.8 38.1a24 24 0 0 0-8.5 4.5l-69.7 57.3a24 24 0 0 0-7.3 10.2L669 1501.5a24 24 0 0 1-4.3 7.3l-54.4 63.2a24 24 0 0 1-25.4 7.2l-82.4-26.2-23-10.4c-5-2.2-8.7-6.8-9.8-12.2a17.3 17.3 0 0 0-32.4-4.2l-12 24a24 24 0 0 0 12.2 32.7l78.2 33.1a24 24 0 0 0 12 1.8l100.1-11.4a24 24 0 0 0 18.6-12.7l92-175.9q2.6-4.8 7-8l214.8-160q2.3-1.9 3.7-4.3m-584.7 29.4a24 24 0 0 0 9.7-43.4l-87.8-61q-2.1-1.5-3.9-3.4l-61.1-66.2a24 24 0 0 1-5.2-9l-31.2-97a24 24 0 0 1 1.8-19l28-51a23.7 23.7 0 0 0-39.3-26L143 959.4a24 24 0 0 0-5 16.1l6.6 113.8a24 24 0 0 0 5.2 13.7l80.8 100.6a24 24 0 0 0 4.3 4.2l91.3 68.5a24 24 0 0 0 18.5 4.5zM554.7 662a19 19 0 0 0-9.7 20.4c3.5 18.8 11.2 52.7 17.7 80.8a24 24 0 0 0 32 16.7l33.2-13a24 24 0 0 0 14-30.2l-17.8-51a24 24 0 0 0-9-11.6l-24.3-17.2a24 24 0 0 0-26.2-.9zM-6.4 637.5a24 24 0 0 1 17.9-18l7-1.6A24 24 0 0 1 48 641.3v1.7a24 24 0 0 1-17.8 23.2l-7.6 2a24 24 0 0 1-29.5-28.6zm-.2-302.3a17 17 0 0 1 9.8-18L704.2-.5a12.4 12.4 0 0 1 10.4 22.4l-460.2 221a20.6 20.6 0 0 0-9 28.8l3.3 5.8a16.7 16.7 0 1 1-29.7 15.3l-8-17.4a24 24 0 0 0-32.9-11.3L18 347.6a17 17 0 0 1-24.5-12.4M3.6 231.6a24 24 0 0 0-14 27.6l.7 3a24 24 0 0 0 33.3 16.3l595-268.8a18.5 18.5 0 0 0-15-33.8zM1016.4 275a24 24 0 0 0-35-2.2L913.7 337a24 24 0 0 0 .6 35.2l28.3 25.4a24 24 0 0 0 29.2 2.2l73.3-48.2a24 24 0 0 0 5.3-35.3zm370.5 83.7a24 24 0 0 0 16.8 13.2l74.4 15.2q6.8 1.4 12 6.3l91.1 88.2a24 24 0 0 1 4.7 28.2l-34.3 67a24 24 0 0 1-7.3 8.6l-34.2 24.7a24 24 0 0 1-34.2-6.5c-30.3-47.8-72.9-115.8-72.9-119.6 0-3.5-9.7-50-17.7-87.3a24 24 0 0 0-31.8-17.5l-36 13.5a24 24 0 0 1-21.7-2.5l-17.5-11.6a24 24 0 0 1-10.2-25.2l4.3-19.3a24 24 0 0 1 10.3-15l31.5-20.4a24 24 0 0 1 21.8-2.3l17 6.7a24 24 0 0 1 13.1 12zM1786.5 133c-5-6.4-14.3-8-21.2-3.4L1663 197.8a18 18 0 1 0 20.4 29.5l99.7-71.8a16 16 0 0 0 3.3-22.4M1326.2 74a10 10 0 0 0-3.1 11.3l61.1 162.9a12.8 12.8 0 1 0 23.8-9.4L1341.5 78a10 10 0 0 0-15.3-4m87.4-53.7a17 17 0 0 0-11.2 22.4l75.4 203a9.5 9.5 0 0 0 18-6l-61-207.8a17 17 0 0 0-21.2-11.6M1479.3 6c-12 0-19.4 9.9-15.5 21.1 14.2 41 47.7 132.2 71.8 197.4a23.5 23.5 0 1 0 43.6-17.5l-81.5-188.9A20 20 0 0 0 1479.3 6m84.7 1c-16.6 2.2-28 21.8-22.2 37.6 14 37.6 37 100.6 55.1 149.9a24 24 0 0 0 38.5 9.6l.6-.5a24 24 0 0 0 6.5-26.6c-25.3-65.2-67-171-70-171-1 0-4.1.4-8.4 1"/><mask id="path-4-outside-1_13490_1944" width="3450" height="2705" x="-77" y="-46" fill="#000" maskUnits="userSpaceOnUse"><path fill="#fff" d="M-77-46h3450v2705H-77z"/><path d="M2819.6-42h.3a6 6 0 0 1 5.6 5.6l7.2 107.6a18 18 0 0 0 4 10l11 14a6 6 0 0 1 1.3 3.7v15.6q0 1.1-.4 2.2l-3.4 8.3a18 18 0 0 0 4.5 20l12.3 11.3.5.5a22 22 0 0 0 14.7 4.7c2 0 3.7 1.6 3.8 3.6v10.1q0 5.4 3 10l10.7 16.1a6 6 0 0 1 .4 6l-1.2 2.5a18 18 0 0 0 2.3 19.5l4.5 5.5c4.6 5.4 11.7 6.7 13.8 7.1v.2l5.6 22a18 18 0 0 0 4.6 8.3l11.2 11.3.3.3a6 6 0 0 1 1.2 2.5l6.8 26.8a18 18 0 0 0 3.2 6.6l53.8 69.3 47.4 71 .2.3.5 1.1 6.5 19.5q1.4 4 4.3 7l20.4 20.4.2.2 1 1.5 13 27.9.4 1.3 5.5 27.2q.3 2 1.3 4l27.2 58.2 47.8 120.1 15.8 31.5.4.8 7.4 22.4 1 2.4 15.4 30.7.1.2 16 32 23.6 55.2.3 1 22.5 89.6v.1a3 3 0 0 1-.4 2.3l-.1.2q-3.1 4.4-2.8 9.6a13 13 0 0 0 6 10l.5.4v1.1c-1 1.9-2.5 4.9-3.4 8.2s-1.3 8.2 1.2 13l.6 2 7.9 62.7 4 79.8 1.8 67.2c0 2-1 4-2.7 5.1l-.3.2a13 13 0 0 0-4.7 18l15.3 25.2q.6 1 .8 2l9.7 50.7.1.3 23.7 86.8v.4l.2 1.2V1587l-.2 1.5-23.7 95-24.1 120.1v.4l-7.8 71-.2.7v.3l-14.6 51.2q-1.4 4.6-.2 9.3l6.7 27v.4l.2 1v53.6q0 1.8.4 3.5l7.2 36.4.1.6q.5 2 1.4 3.9l3.2 6.3a18 18 0 0 0 13.9 9.9l20.4 2.5q3.4.5 6.6-.4l3.1-.8a6 6 0 0 1 7.5 5.8v14.1a11.5 11.5 0 0 0 19.1 8.1l.3-.2.8.2q.3 0 .3.3.2.2.1.6l-.4 13.8q0 5.4 2.7 10l9 14.5a2.5 2.5 0 0 1-2.3 4l-.2-.1h-.5a17.3 17.3 0 0 0-19.4 14.9v.4l-1.1 10a6 6 0 0 1-1.8 3.7 11.4 11.4 0 0 0-.9 15.2l6.8 8.5a6 6 0 0 1 0 7.5l-.5.6a18 18 0 0 0-4 11.3v7q0 6.1 3.6 10.9l19.3 25.5a6 6 0 0 1 1.2 3.6v124l-.1 1.6-.1.2-15 48.6q-.8 2.2-.8 4.6v22.5a6 6 0 0 1-.5 2.3l-.2.3-14.4 30.6a6 6 0 0 1-1.8 2.2l-30.4 23-17.3 17.2q-4 3.8-9.5 5.3a19 19 0 0 0-8.3 4.7l-9.3 9.4a4 4 0 0 1-2.9 1.1h-.2c-3.7-.3-11.4-.6-17.3 4.8l-.3.3-29.8 28.2a6 6 0 0 1-1.9 1.2l-38.6 15.5-126.8 31.7-.9.2h-.3l-85.8 3.9q-1 0-2-.3l-86.1-27.4-.9-.3-46.1-23.1-.4-.2-2.1-.9h-.4l-29.3-8.9a6 6 0 0 1-3.9-3.5 42 42 0 0 0-6.3-9.8l-4.7-5.6-1.1-1.3c-.8-1-2.9-3.5-6-5l-10.8-5.5h-.1l-.3-.2-.3-.2v-1.1l.4-.6.2-.1h.6l5 .5c4 .4 7.9-1 10.5-4a12.5 12.5 0 0 0-2.3-18.9l-4.8-3a17 17 0 0 0-12-2.7l-5 .8a6 6 0 0 1-7-6v-12.3c0-9-7.3-16.4-16.3-16.4a6 6 0 0 1-2.2-.4l-34-13.7a18 18 0 0 0-10.9-.8l-7 1.8q-1.8.3-3.5-.3l-.4-.2a20 20 0 0 0-13.8 0q-4.6 1.7-7.7 3.6l-.7.4-.4.2h-.2l-.6-.3q-2.6-1.4-5.6-1.7h-.6a6 6 0 0 1-5.2-4.8 15 15 0 0 0-19.1-11.2l-20.2 6.8a6 6 0 0 1-3.1.2l-14.6-3h-.2c-5.7-1.3-13-2-18.8-1.5q-.8 0-1.3-.2t-1.2-1l-.2-.3a15.6 15.6 0 0 0-19-4.7l-9 4.1-.9.3-.9-.2-1-.4c-5-1.9-11.4-3.5-17.3-3.8l-1.6-.3-5-2.4-.6-.2q-4.6-2-9.7-1.2l-11.2 1.7a4 4 0 0 1-3-.7l-.2-.1a136 136 0 0 0-18.8-11.8l-1.2-.5-.2-.1-1.1-.8-4.8-4.8a43 43 0 0 0-18-10.6h-.1l-3.6-1.9-.3-.1q-2.1-1.3-2.6-3.6v-.7q-1.4-6-6-9.4c-3-2.2-7.9-4-13.2-1.8l-.3.2q-1 .3-2 .3h-4.1a6 6 0 0 1-5.8-4.3v-.3l-.3-1a18 18 0 0 0-12.5-13l-35.8-10.3a3 3 0 0 1-1.4-.8q-.5-.4-.7-1.2c-.8-2.8-2-6.8-4-10.5a20 20 0 0 0-12-10.1l-3.7-1q-1-.3-1-.5-.3-.3-.4-1-.5-4.3-3.2-9-.9-1.6-2.4-3.2a52 52 0 0 1-9-12.3l-.3-.6c-3-5.6-8.9-9-15.3-9h-2.4a6 6 0 0 1-4.8-2.5l-16.7-22.2-.4-.4a18 18 0 0 0-14-6.8h-6.7q-.9 0-1.9-.3l-46.6-15.6h-.2l-.3-.1-43.7-12-16.3-6-1.5-.8c-2.8-2.6-8.5-7-16.1-6.3l-.9.1h-.4l-.2-.1c-1.4-1.4-3.7-3.7-6.5-5.5a20 20 0 0 0-11.8-3.4h-.5l-19.5 1.7a6 6 0 0 1-4-1.2l-16-12-.5-.3a18 18 0 0 0-25 4.2l-.3.4-3.7 5.5a6 6 0 0 1-6.2 2.5l-73.8-14.6-1.3-.4-63-27.6-63.9-36-33.2-18.5a6 6 0 0 1-2.8-3.4l-3.5-10.6-.2-.6a18 18 0 0 0-5.5-7.7l-15.4-12.7a6 6 0 0 1-2.2-4.3v-2.6a18 18 0 0 0-9.4-15.8l-.5-.3-5-2.5a6 6 0 0 1-2.7-2.7l-36.7-73.5a18 18 0 0 0-6.6-7.2l-1.3-.9a6 6 0 0 1 0-10.2l.8-.5a11 11 0 0 0 5.3-9.5c0-7.1-6.2-11.4-11.8-11.2q-1.1 0-2-.8-1-.7-.8-2l.5-12.7.1-.6a18 18 0 0 0-9.1-18.7l-3.5-2a6 6 0 0 1-1.7-9c2.7-3.3 4-7.5 3.7-11.8l-6.9-77.2a18 18 0 0 0-4-9.9l-6.3-7.5-.7-1.1-7-13.7a18 18 0 0 0-9-8.5l-.3-.2-10.6-4.2a6 6 0 0 1-3.6-4.2l-4.5-17.8-.1-.6a22 22 0 0 0-7.7-10.7l-.9-.7q-.8-.8-.7-2c.5-2.4 1-5.7.6-9.2s-1.8-8.1-5.9-11.6l-.4-.4-9.8-6.5a6 6 0 0 1-2.4-3.1l-4.6-14a18 18 0 0 0-11.3-11.3l-5.6-2a3.8 3.8 0 0 1-1.6-6c2.8-2.9 4.3-7.3 2.8-11.8l-.2-.3q-1-2.7-3-4.6l-.4-.3-16.5-13.4a18 18 0 0 0-8.2-3.8l-.6-.1-14.2-2a6 6 0 0 1-4.8-7.9l1.4-4.3a18 18 0 0 0-5.8-19.7l-8.4-6.7-.1-.1-.4-.5a56 56 0 0 0-7.6-11.8l-13-19.5a6 6 0 0 1-1-3.3v-23c0-4.5-1.7-9-4.9-12.3l-.3-.3-1.8-1.9a6 6 0 0 1-1.4-2.2l-.1-.3-14.7-51.5q-.8-2.9-2.5-5.3l-69-99.7q-1-1.6-1.1-3.4v-.4a15.6 15.6 0 0 0-15.6-15.2h-8.7a6 6 0 0 1-4.3-1.8l-.3-.3-31.6-37-31.2-41.6-.4-.5a18 18 0 0 0-14-6.7h-38q-1.3 0-2.4-.5l-.3-.2-46-23a18 18 0 0 0-10.2-1.8l-18.7 2.1q-2.9.5-5.4 1.5l-14.3 6.5a4 4 0 0 1-3.8-.2c-2.5-1.5-7.2-4-13-3.6h-.5l-87 10c-2.3.3-4.4-.8-5.5-2.6-2.4-4.1-8.4-12.3-18.5-12.3h-24.6c-5 0-9.1 2.1-12 4.4q-4 3.6-6.2 7.3-1.3 1.9-3.8 2.3-2.1.4-4.1-1.4l-7.2-7.3-.4-.3a18 18 0 0 0-26.1 1.4l-.3.4-18.4 23-.2.2a6 6 0 0 1-4.5 2h-4.2c-10 0-18 8-18 17.9v2.6a6 6 0 0 1-3.6 5.5h-.2l-8.6 3.5a18 18 0 0 0-10 10.3l-.4.7-.6.3q-1 .3-1.6 0a12 12 0 0 0-15.2 3.3 6 6 0 0 1-6.7 1.9l-4.7-2-.6-.2a18 18 0 0 0-18.3 3.8l-.5.5-1.8 1.8q-.7.7-1.6 1.1l-.6.3a44 44 0 0 0-14.7 12.3q-1 1.3-2.5 1.6l-3.7.7a18 18 0 0 0-14 13.5l-.2.7-.7 3.5-.2.6-.4.3c-1.8.8-4.5 2-7 4a19 19 0 0 0-6.8 8.8l-.1.4-1.8 5.2a18 18 0 0 0-.9 5.7v11.6a6 6 0 0 1-.6 2.7l-9.8 19.6c-2.8 5.6-7.5 10-11 15.1a17 17 0 0 0-2 4.3l-.8 1.8-.2.2-5.6 7q-1.4 1.8-2.4 4l-.2.6-6.5 16.3-1.2 1.8-.2.2-5 5a18 18 0 0 0-3 4l-.4.7-14 28q-1 1.9-1.4 3.8l-6.2 24.5a10.4 10.4 0 0 0 16.3 10.7q.8-.5 2.1-.2.6.1 1 .5.3.3.5 1v.2q.3 1.3-.8 2.2l-23.6 18.9a18 18 0 0 0-6.2 9.4v.3l-4.2 16.8a6 6 0 0 1-1.4 2.6l-63.6 69.6-1 .8-.3.2-125 78.2a6 6 0 0 1-3.4.9h-.3l-13.7-1.3h-.4a18 18 0 0 0-11 2.7l-16.3 10.4-1.6.7-38.7 10.5a18 18 0 0 0-7.9 4.5l-1.9 1.9a6 6 0 0 1-5.7 1.5l-1-.2a16.4 16.4 0 0 0-18.2 7.8 5 5 0 0 1-4 2.4 21 21 0 0 0-11.2 3l-.4.3-17.1 11.4-2 .8-29 7.3q-2 .5-3.7 1.4l-27.6 13.8a6 6 0 0 1-4.2.5c-7.9-2-15.5 4-15.5 12.1v4.7a6 6 0 0 1-7.5 5.5l-18.1-4.6-.6-.1a18 18 0 0 0-7.6 0l-.6.1-26.4 6.6q-1.7.5-3.2 1.2l-.5.2-38.3 19.2-19.2 7.9a6 6 0 0 1-4.1.1c-5-1.6-9.7-.2-12.8 1.8a19 19 0 0 0-6.7 7.1l-.3.6a4 4 0 0 1-3.7 2.3H91.5a18 18 0 0 0-12.4 5l-.4.3-8.9 9a6 6 0 0 1-4.2 1.7h-22a18 18 0 0 0-12.3 4.8l-.3.4-8.6 8.5a6 6 0 0 1-5.2 1.6l-85.2-14.1a6 6 0 0 1-5-6v-38c0-4.2 4-7 7.9-5.8l52.6 17.6a18 18 0 0 0 17.7-3.7l8.8-7.8a6 6 0 0 1 4-1.5h11.5q3.8 0 7.4-1.6l32.8-14.6 88-39.8 25.7-9.3a6 6 0 0 1 3.3-.2l3.6.7a18 18 0 0 0 16-4.4l5.8-5.4a6 6 0 0 1 3.7-1.6l49.5-3.7a18 18 0 0 0 7.5-2.2l12.6-7 2-.7 4.7-.7c7.2-1.1 12-6.7 13.6-8.6l.4-.2.4-.1 12.2-1.1a18 18 0 0 0 16-21.8l-.3-1.5v-.9q0-.3.4-.6.7-.7 1.5-.6c3.7.5 7.5-1.1 9.7-4.3l.2-.3c1.7-2.4 5-3 7.5-1.3l.3.2a14.6 14.6 0 0 0 20-2.7l4.3-5.5a6 6 0 0 1 7.4-1.6 14 14 0 0 0 12.2.1q4.9-2.4 7.3-7 1-1.8 2.8-2.4l75.7-24.8q1.8-.6 3.5-1.5l87.4-51.3c4.9-2.9 7.9-8 7.9-13.7a6 6 0 0 1 6-6c5.8 0 11.1-3 14.1-8l6.2-10.4a6 6 0 0 1 3.3-2.6l2.8-1a18 18 0 0 0 10.4-9l4.4-8.8 1.2-1.6 37.5-37.5q1.8-1.9 3-4l18.8-34.6a16 16 0 0 0-.7-16.6 6 6 0 0 1 .3-7.2l18.1-22.3.1-.1.1-.2 14-18.4a18 18 0 0 0 3.5-10l.7-15.2a6 6 0 0 1 1-3.2l4.8-6.7q1-1.5 1.8-3.4l4-9.7.2-.3.4-.8 22.7-34 .3-.5c3.1-5 3-10.6 2.7-13.6a4 4 0 0 1 1.8-3.7l1.6-1.1c4-2.7 6-6.5 7-8.2q.1-.4.6-.7l7-4.4a21 21 0 0 0 8.5-11.2l.2-.3a4 4 0 0 1 4-2.6H807q6.2 0 11-3.8l28.3-21.7.2-.2q.8-.6 1.8-.9l15.4-4.2a18 18 0 0 0 9.6-6.5l8.7-11.5.2-.2q.7-.8 1.5-1.3l23.7-13.9a18 18 0 0 0 6.9-7.2l3-5.7a6 6 0 0 1 5.6-3.2l15 1q3.8.2 7.2-1l27-9.5 1.4-.4 40-4.3a6 6 0 0 1 2.2.2l11.9 3 .7.2q5.3 1.2 10.2-.7l18.3-7q.9-.4 1.8-.4l22.8-1.4q1.4 0 2.8-.4l22.9-5h1.7l18.3 1.2h.2q.8 0 1.5.4c4 2 10.4 3 16-1.3a6 6 0 0 1 3-1.2l15.5-1.3 23 .5 1.7.3 10.8 3.3q6 1.8 11.5-1.7a6 6 0 0 1 4.2-1l20.5 3 1 .2 23 7.2.9.3 46.6 23.5.3.1.4.3.2.1 31.2 23.6.2.1.2.2 19.9 13.5 1 .9 20 21.5h.1v.1l64.9 67.6.2.3.7 1 19.3 36 .3.6q1 2 2.7 3.6l4 4.1a6 6 0 0 1 1.7 4v2.1c0 5.1 2.3 9.1 4.4 11.8a40 40 0 0 0 6.2 6.2q.6.5.7 1.1v.5l-.2.7c-2 4.1-1.2 9 2 12.3l3 3 .8 1 15.2 22.7.5.8 19.2 42.3.1.2q.3.8.4 1.7l1.5 15.8a18 18 0 0 0 4 9.8l12 14.7q1.1 1.5 1 3.4c-.4 4.3.1 11.8 6.3 17a6 6 0 0 1 2 2.7l4.5 13.8q.7 2.2 2 4l19 29.4q2.2 3.5 6.2 4.8a6 6 0 0 1 3.2 2.4l33.7 52.5q.8 1.3 1.8 2.5l19.7 21.4q1.6 1.7 3.6 3l14.5 9.2a6 6 0 0 1 2.6 3.6l1.7 6.7q.3 1.5 0 2.9v.4l-2.8 8.7a18 18 0 0 0 .2 11.4l10 28.2.2.4q1.3 3 3.3 5.4l4 4.5.1.2q.8 1 .5 2.2-1 3.5.4 7.1.7 1.5 1.9 2.8l2 2.3q2.5 2.5 4.2 3.5l.2.1a5 5 0 0 1 1.6 6 12 12 0 0 0-.7 7.5l.4 1.7a27 27 0 0 1-.3 9.8q-.2 1.5-.1 3.1c.1 3.2 1.4 7.6 5.5 10.6q.8.5 1.3 1.3l7.7 10.4.5 1.2c1 4.6 2.9 9.7 6.2 14.1q1.6 2.3.8 5-.5 1.5-.9 4l-.6 4.7-3.3 12.4q0 .6-.4 1l-.2.4c-3 4.6-2 11.2 3 14.7a6 6 0 0 1 2.3 3.1l3 10q.5 1.5 1.2 2.9l3.1 6.2v.5a10 10 0 0 0 6.4 9.2v.1l.1.1.3 1.1a48 48 0 0 0 2.7 8.2 39 39 0 0 0 5.4 14.6q3.4 6 4.9 12.8l5.2 21a18 18 0 0 0 4.9 8.5l5.1 5 1 1.3a45 45 0 0 0 12.2 14.3q.9.6 1.3 1.8v.2l1 3.6c2 7.3 8.6 11.3 10.7 12.7l.1.1q.5.5.5.9.5 4.4 3.5 8.4c2 2.7 5.6 5.5 10.5 5.9a6 6 0 0 1 4.7 2.8l6.5 10.2a21 21 0 0 0 8.4 7.3q2.5 1.4 2.8 4.2v.5c.3 4.3 3.1 8 7.2 9.4l9.4 3.2q4 1.5 8.3 1.3h.6l1 .3c3 2.8 7.5 6.8 12.7 9.1l.2.1q1.5.8 2.2 2.4l.2.4.5 1.6.3.6a18 18 0 0 0 15.7 11.3l3.3.1 8.8 1.1q2.6.3 4.2 0h1l.3.2.3.5v.2a10.6 10.6 0 0 0 11.4 10.8 6 6 0 0 1 5.3 2.5l1.7 2.4a18 18 0 0 0 17.2 7.3l12.6-1.8h.2q2.3-.2 3 2c.8 2.3 2.3 5.9 5.8 8.6l.3.3c6.8 5 14.8 2.8 18 1.6h.4a50 50 0 0 0 10.4-1h.1l.2.2v.2l1.5 2.8a14 14 0 0 0 15.7 7.4 6 6 0 0 1 4.6.7l2.7 1.7a18 18 0 0 0 13 2.2l7.3-1.5h.3a6 6 0 0 1 3.4.4l19.9 8.8a18 18 0 0 0 9.9 1.4l10.3-1.6h6a6 6 0 0 1 3.2.9l14.3 8.7q2 1.2 4.2 2l15 4.4q3.3 1.1 7 .7l13.8-1.4h.3a6 6 0 0 1 3.7 1l17.5 12.3 16.3 13.4a12 12 0 0 0 14.1.9l.2-.1a58 58 0 0 0 13.6-12.7l.4-.2 1.7-.4h.1a2 2 0 0 1 1.6.2l.2.2a18 18 0 0 0 7 3.2l8.8 1.8.3.1.6.2h.2l6.2 2.7h.1l.2.1 11.1 4.3.3.2a6 6 0 0 1 2 1.4l17.5 19.2q1.3 1.6 3 2.7l38.6 27 87 47.5.2.1 1.2 1 7.1 7.1 20.4 18.9a18 18 0 0 0 14.7 4.6l3.2-.4a6 6 0 0 1 5 1.6l9.5 9.2a18 18 0 0 0 5.6 3.7l25.5 10.6q.6.1 1 .4l15.7 10.1a18 18 0 0 0 19.4 0l11.1-7a6 6 0 0 1 7.4.7l1.8 1.7a16 16 0 0 0 16.3 3.8 6 6 0 0 1 5.8 1.2l2.1 1.9a18 18 0 0 0 9 4.3l18.3 3q1 .2 1.7.6l23 11.4 64 24h.2l.2.1 35.7 12 24.3 9.3a6 6 0 0 1 2.1 1.4l4.8 4.8q4.5 4.6 10.9 5.2l10.6 1.1a6 6 0 0 1 3.5 1.6l5.7 5.4a25 25 0 0 0 12.9 6.6q1.7.4 2.3 2v.2c1.3 3.9 4.7 6.6 8.7 7l7.5.8a6 6 0 0 1 5.3 5 11 11 0 0 0 13.3 9 4 4 0 0 1 3.5 1l7 6.3 1.1 1.4 8.5 14.3.2.3a18 18 0 0 0 8.8 7.3l.2.1c5 2 10 1 12.2.7q.7-.2 1.7.7.4.4.4.7l-.1 1-.2.5c-2.8 8.1 4 16.4 12.7 15.2l2.4-.3h.2q1.7-.3 3.2.5l16.4 7.8a6 6 0 0 1 2.8 2.7c2.5 5.2 8.7 7.3 14 5l1-.5a6 6 0 0 1 6.1.7l4 3 .4.3a18 18 0 0 0 12.7 3.3l26.7-3.1h1.2l14.7 1 .6.1a18 18 0 0 0 16-8.2l.1-.3a6 6 0 0 1 7.4-2.3l9.3 4 .6.2a18 18 0 0 0 10 .8l27.1-5.7q3.2-.6 5.4 1.6l14.9 14.3a18 18 0 0 0 16 4.7l29.6-6q2.4-.4 4.6-1.5l13.9-7 29.7-14.9a18 18 0 0 0 4.7-3.3l9.5-9.6a18 18 0 0 0 5.3-12.7v-2.8a6 6 0 0 1 4.8-5.9l33.5-6.8 32.7-9.6q1.6-.5 3.1-1.2l20.4-10.4q3.1-1.6 5.5-4.3l20.7-24a6 6 0 0 1 3.3-2c8.6-2 11-13.2 4-18.5l-7-5a6 6 0 0 1-1.4-8.1l8.4-13.2q1.8-2.9 2.5-6.1l5.4-27 7.4-22a6 6 0 0 1 1.5-2.4l3.6-3.7a18 18 0 0 0 4.4-18.4l-.5-1.4q-.3-.9-.3-1.9V2332l.1-10a15 15 0 0 0-11-14.5 6 6 0 0 1-4.5-6l.2-11.7a18 18 0 0 0-4.3-12.2l-7.6-8.7a6 6 0 0 1-1.4-4.7l1.2-8.6v-.3q.3-1.1 1.3-1.6c4.3-2.3 7.2-7.6 5.5-13.1l-.2-.6c-1.3-3.6-4.3-6-7.6-6.9q-1.8-.6-2-2.4l-1.4-20.7v-.4a18 18 0 0 0-5.2-11.2l-2-2a6 6 0 0 1-1.7-3v-.1l-7-37.8a6 6 0 0 1 .6-4l2.7-5.1c3.7-6.9 1-13.7-.8-17.2l-7.4-13.2c-2.8-4.9-8-8-13.6-8h-.3a6 6 0 0 1-5.7-5.6v-.3a17 17 0 0 0-7-13.8l-.5-.3-13.8-9.2a6 6 0 0 1-2.7-5V1996l3.9-98.2q0-2-.3-3.8l-5.4-31v-2l9.8-64.5 31.7-126.7.5-2.8 7.7-87v-110q0-2.3-.6-4.6l-30.7-115.3q-.8-2.9-2.4-5.3l-10.9-16.4a6 6 0 0 1 .8-7.6l4.3-4.4a18 18 0 0 0 4.6-17.8l-.2-.6-12.5-37.4q-.3-.9-.3-1.9v-62.5l3-22.9a18 18 0 0 0-1.6-9.7l-10-22.1q-.5-1-.6-2l-7-71.6-3.7-66.2q-.1-1.3.4-2.5l6.8-17.7a18 18 0 0 0-.6-14.4l-.2-.4-18.6-35.5-31-69.6a18 18 0 0 0-3.1-4.8l-27.8-30.5-.1-.2a6 6 0 0 1-1.3-2.7v-.2l-8.1-49.2q-.5-2.7-1.7-5.2l-30.2-60a6 6 0 0 1-.6-2.7V686a18 18 0 0 0-9.9-16l-4.4-2.3a6 6 0 0 1-2.9-3.2l-22.7-60.8-.2-.5-.2-.5-15.6-31-.2-.6-.1-.2-6.7-20-.1-.4a18 18 0 0 0-4.2-6.5l-11-11-.1-.3a6 6 0 0 1-1.6-4v-6c0-4.8-1.9-9.4-5.3-12.7l-2.1-2.1a6 6 0 0 1-1.3-1.9l-28.7-64.4-.2-.4a18 18 0 0 0-10.6-9.3l-14.4-4.8a6 6 0 0 1-3.2-2.6l-22.5-37.4-14.6-22.2a6 6 0 0 1-1-3.3V340a18 18 0 0 0-7.2-14.4l-23.4-17.6a6 6 0 0 1-2-3l-.2-.2-12.8-45.2c-1.6-5.6-5.8-10-11.3-11.9l-.5-.2a4 4 0 0 1-2.8-4.3c.9-5.7-2.8-10.5-7.7-11.9l-.5-.3v-.2l-.2-.2v-.1l-1-7.6v-.5c-.7-4.6-3.1-8-5.2-10.3-2.2-2.2-4.6-4-6.1-5.2l-.2-.1-.1-.3-6.3-24.4-.1-.3a18 18 0 0 0-2.2-4.9l-.1-.3-13.7-20.4-.2-.4-2-2.5-5.5-5.3q-.9-1-1.3-2l-.2-.4-14.6-44.2a18 18 0 0 0-2.2-4.4L2782 77a6 6 0 0 1-1-3.3v-15a18 18 0 0 0-5.3-12.8L2768 38a6 6 0 0 1-1.6-6l21-69.7a6 6 0 0 1 5.7-4.3zm65 2616.2v-.3z"/></mask><path fill="#5c9f98" d="M2819.6-42h.3a6 6 0 0 1 5.6 5.6l7.2 107.6a18 18 0 0 0 4 10l11 14a6 6 0 0 1 1.3 3.7v15.6q0 1.1-.4 2.2l-3.4 8.3a18 18 0 0 0 4.5 20l12.3 11.3.5.5a22 22 0 0 0 14.7 4.7c2 0 3.7 1.6 3.8 3.6v10.1q0 5.4 3 10l10.7 16.1a6 6 0 0 1 .4 6l-1.2 2.5a18 18 0 0 0 2.3 19.5l4.5 5.5c4.6 5.4 11.7 6.7 13.8 7.1v.2l5.6 22a18 18 0 0 0 4.6 8.3l11.2 11.3.3.3a6 6 0 0 1 1.2 2.5l6.8 26.8a18 18 0 0 0 3.2 6.6l53.8 69.3 47.4 71 .2.3.5 1.1 6.5 19.5q1.4 4 4.3 7l20.4 20.4.2.2 1 1.5 13 27.9.4 1.3 5.5 27.2q.3 2 1.3 4l27.2 58.2 47.8 120.1 15.8 31.5.4.8 7.4 22.4 1 2.4 15.4 30.7.1.2 16 32 23.6 55.2.3 1 22.5 89.6v.1a3 3 0 0 1-.4 2.3l-.1.2q-3.1 4.4-2.8 9.6a13 13 0 0 0 6 10l.5.4v1.1c-1 1.9-2.5 4.9-3.4 8.2s-1.3 8.2 1.2 13l.6 2 7.9 62.7 4 79.8 1.8 67.2c0 2-1 4-2.7 5.1l-.3.2a13 13 0 0 0-4.7 18l15.3 25.2q.6 1 .8 2l9.7 50.7.1.3 23.7 86.8v.4l.2 1.2V1587l-.2 1.5-23.7 95-24.1 120.1v.4l-7.8 71-.2.7v.3l-14.6 51.2q-1.4 4.6-.2 9.3l6.7 27v.4l.2 1v53.6q0 1.8.4 3.5l7.2 36.4.1.6q.5 2 1.4 3.9l3.2 6.3a18 18 0 0 0 13.9 9.9l20.4 2.5q3.4.5 6.6-.4l3.1-.8a6 6 0 0 1 7.5 5.8v14.1a11.5 11.5 0 0 0 19.1 8.1l.3-.2.8.2q.3 0 .3.3.2.2.1.6l-.4 13.8q0 5.4 2.7 10l9 14.5a2.5 2.5 0 0 1-2.3 4l-.2-.1h-.5a17.3 17.3 0 0 0-19.4 14.9v.4l-1.1 10a6 6 0 0 1-1.8 3.7 11.4 11.4 0 0 0-.9 15.2l6.8 8.5a6 6 0 0 1 0 7.5l-.5.6a18 18 0 0 0-4 11.3v7q0 6.1 3.6 10.9l19.3 25.5a6 6 0 0 1 1.2 3.6v124l-.1 1.6-.1.2-15 48.6q-.8 2.2-.8 4.6v22.5a6 6 0 0 1-.5 2.3l-.2.3-14.4 30.6a6 6 0 0 1-1.8 2.2l-30.4 23-17.3 17.2q-4 3.8-9.5 5.3a19 19 0 0 0-8.3 4.7l-9.3 9.4a4 4 0 0 1-2.9 1.1h-.2c-3.7-.3-11.4-.6-17.3 4.8l-.3.3-29.8 28.2a6 6 0 0 1-1.9 1.2l-38.6 15.5-126.8 31.7-.9.2h-.3l-85.8 3.9q-1 0-2-.3l-86.1-27.4-.9-.3-46.1-23.1-.4-.2-2.1-.9h-.4l-29.3-8.9a6 6 0 0 1-3.9-3.5 42 42 0 0 0-6.3-9.8l-4.7-5.6-1.1-1.3c-.8-1-2.9-3.5-6-5l-10.8-5.5h-.1l-.3-.2-.3-.2v-1.1l.4-.6.2-.1h.6l5 .5c4 .4 7.9-1 10.5-4a12.5 12.5 0 0 0-2.3-18.9l-4.8-3a17 17 0 0 0-12-2.7l-5 .8a6 6 0 0 1-7-6v-12.3c0-9-7.3-16.4-16.3-16.4a6 6 0 0 1-2.2-.4l-34-13.7a18 18 0 0 0-10.9-.8l-7 1.8q-1.8.3-3.5-.3l-.4-.2a20 20 0 0 0-13.8 0q-4.6 1.7-7.7 3.6l-.7.4-.4.2h-.2l-.6-.3q-2.6-1.4-5.6-1.7h-.6a6 6 0 0 1-5.2-4.8 15 15 0 0 0-19.1-11.2l-20.2 6.8a6 6 0 0 1-3.1.2l-14.6-3h-.2c-5.7-1.3-13-2-18.8-1.5q-.8 0-1.3-.2t-1.2-1l-.2-.3a15.6 15.6 0 0 0-19-4.7l-9 4.1-.9.3-.9-.2-1-.4c-5-1.9-11.4-3.5-17.3-3.8l-1.6-.3-5-2.4-.6-.2q-4.6-2-9.7-1.2l-11.2 1.7a4 4 0 0 1-3-.7l-.2-.1a136 136 0 0 0-18.8-11.8l-1.2-.5-.2-.1-1.1-.8-4.8-4.8a43 43 0 0 0-18-10.6h-.1l-3.6-1.9-.3-.1q-2.1-1.3-2.6-3.6v-.7q-1.4-6-6-9.4c-3-2.2-7.9-4-13.2-1.8l-.3.2q-1 .3-2 .3h-4.1a6 6 0 0 1-5.8-4.3v-.3l-.3-1a18 18 0 0 0-12.5-13l-35.8-10.3a3 3 0 0 1-1.4-.8q-.5-.4-.7-1.2c-.8-2.8-2-6.8-4-10.5a20 20 0 0 0-12-10.1l-3.7-1q-1-.3-1-.5-.3-.3-.4-1-.5-4.3-3.2-9-.9-1.6-2.4-3.2a52 52 0 0 1-9-12.3l-.3-.6c-3-5.6-8.9-9-15.3-9h-2.4a6 6 0 0 1-4.8-2.5l-16.7-22.2-.4-.4a18 18 0 0 0-14-6.8h-6.7q-.9 0-1.9-.3l-46.6-15.6h-.2l-.3-.1-43.7-12-16.3-6-1.5-.8c-2.8-2.6-8.5-7-16.1-6.3l-.9.1h-.4l-.2-.1c-1.4-1.4-3.7-3.7-6.5-5.5a20 20 0 0 0-11.8-3.4h-.5l-19.5 1.7a6 6 0 0 1-4-1.2l-16-12-.5-.3a18 18 0 0 0-25 4.2l-.3.4-3.7 5.5a6 6 0 0 1-6.2 2.5l-73.8-14.6-1.3-.4-63-27.6-63.9-36-33.2-18.5a6 6 0 0 1-2.8-3.4l-3.5-10.6-.2-.6a18 18 0 0 0-5.5-7.7l-15.4-12.7a6 6 0 0 1-2.2-4.3v-2.6a18 18 0 0 0-9.4-15.8l-.5-.3-5-2.5a6 6 0 0 1-2.7-2.7l-36.7-73.5a18 18 0 0 0-6.6-7.2l-1.3-.9a6 6 0 0 1 0-10.2l.8-.5a11 11 0 0 0 5.3-9.5c0-7.1-6.2-11.4-11.8-11.2q-1.1 0-2-.8-1-.7-.8-2l.5-12.7.1-.6a18 18 0 0 0-9.1-18.7l-3.5-2a6 6 0 0 1-1.7-9c2.7-3.3 4-7.5 3.7-11.8l-6.9-77.2a18 18 0 0 0-4-9.9l-6.3-7.5-.7-1.1-7-13.7a18 18 0 0 0-9-8.5l-.3-.2-10.6-4.2a6 6 0 0 1-3.6-4.2l-4.5-17.8-.1-.6a22 22 0 0 0-7.7-10.7l-.9-.7q-.8-.8-.7-2c.5-2.4 1-5.7.6-9.2s-1.8-8.1-5.9-11.6l-.4-.4-9.8-6.5a6 6 0 0 1-2.4-3.1l-4.6-14a18 18 0 0 0-11.3-11.3l-5.6-2a3.8 3.8 0 0 1-1.6-6c2.8-2.9 4.3-7.3 2.8-11.8l-.2-.3q-1-2.7-3-4.6l-.4-.3-16.5-13.4a18 18 0 0 0-8.2-3.8l-.6-.1-14.2-2a6 6 0 0 1-4.8-7.9l1.4-4.3a18 18 0 0 0-5.8-19.7l-8.4-6.7-.1-.1-.4-.5a56 56 0 0 0-7.6-11.8l-13-19.5a6 6 0 0 1-1-3.3v-23c0-4.5-1.7-9-4.9-12.3l-.3-.3-1.8-1.9a6 6 0 0 1-1.4-2.2l-.1-.3-14.7-51.5q-.8-2.9-2.5-5.3l-69-99.7q-1-1.6-1.1-3.4v-.4a15.6 15.6 0 0 0-15.6-15.2h-8.7a6 6 0 0 1-4.3-1.8l-.3-.3-31.6-37-31.2-41.6-.4-.5a18 18 0 0 0-14-6.7h-38q-1.3 0-2.4-.5l-.3-.2-46-23a18 18 0 0 0-10.2-1.8l-18.7 2.1q-2.9.5-5.4 1.5l-14.3 6.5a4 4 0 0 1-3.8-.2c-2.5-1.5-7.2-4-13-3.6h-.5l-87 10c-2.3.3-4.4-.8-5.5-2.6-2.4-4.1-8.4-12.3-18.5-12.3h-24.6c-5 0-9.1 2.1-12 4.4q-4 3.6-6.2 7.3-1.3 1.9-3.8 2.3-2.1.4-4.1-1.4l-7.2-7.3-.4-.3a18 18 0 0 0-26.1 1.4l-.3.4-18.4 23-.2.2a6 6 0 0 1-4.5 2h-4.2c-10 0-18 8-18 17.9v2.6a6 6 0 0 1-3.6 5.5h-.2l-8.6 3.5a18 18 0 0 0-10 10.3l-.4.7-.6.3q-1 .3-1.6 0a12 12 0 0 0-15.2 3.3 6 6 0 0 1-6.7 1.9l-4.7-2-.6-.2a18 18 0 0 0-18.3 3.8l-.5.5-1.8 1.8q-.7.7-1.6 1.1l-.6.3a44 44 0 0 0-14.7 12.3q-1 1.3-2.5 1.6l-3.7.7a18 18 0 0 0-14 13.5l-.2.7-.7 3.5-.2.6-.4.3c-1.8.8-4.5 2-7 4a19 19 0 0 0-6.8 8.8l-.1.4-1.8 5.2a18 18 0 0 0-.9 5.7v11.6a6 6 0 0 1-.6 2.7l-9.8 19.6c-2.8 5.6-7.5 10-11 15.1a17 17 0 0 0-2 4.3l-.8 1.8-.2.2-5.6 7q-1.4 1.8-2.4 4l-.2.6-6.5 16.3-1.2 1.8-.2.2-5 5a18 18 0 0 0-3 4l-.4.7-14 28q-1 1.9-1.4 3.8l-6.2 24.5a10.4 10.4 0 0 0 16.3 10.7q.8-.5 2.1-.2.6.1 1 .5.3.3.5 1v.2q.3 1.3-.8 2.2l-23.6 18.9a18 18 0 0 0-6.2 9.4v.3l-4.2 16.8a6 6 0 0 1-1.4 2.6l-63.6 69.6-1 .8-.3.2-125 78.2a6 6 0 0 1-3.4.9h-.3l-13.7-1.3h-.4a18 18 0 0 0-11 2.7l-16.3 10.4-1.6.7-38.7 10.5a18 18 0 0 0-7.9 4.5l-1.9 1.9a6 6 0 0 1-5.7 1.5l-1-.2a16.4 16.4 0 0 0-18.2 7.8 5 5 0 0 1-4 2.4 21 21 0 0 0-11.2 3l-.4.3-17.1 11.4-2 .8-29 7.3q-2 .5-3.7 1.4l-27.6 13.8a6 6 0 0 1-4.2.5c-7.9-2-15.5 4-15.5 12.1v4.7a6 6 0 0 1-7.5 5.5l-18.1-4.6-.6-.1a18 18 0 0 0-7.6 0l-.6.1-26.4 6.6q-1.7.5-3.2 1.2l-.5.2-38.3 19.2-19.2 7.9a6 6 0 0 1-4.1.1c-5-1.6-9.7-.2-12.8 1.8a19 19 0 0 0-6.7 7.1l-.3.6a4 4 0 0 1-3.7 2.3H91.5a18 18 0 0 0-12.4 5l-.4.3-8.9 9a6 6 0 0 1-4.2 1.7h-22a18 18 0 0 0-12.3 4.8l-.3.4-8.6 8.5a6 6 0 0 1-5.2 1.6l-85.2-14.1a6 6 0 0 1-5-6v-38c0-4.2 4-7 7.9-5.8l52.6 17.6a18 18 0 0 0 17.7-3.7l8.8-7.8a6 6 0 0 1 4-1.5h11.5q3.8 0 7.4-1.6l32.8-14.6 88-39.8 25.7-9.3a6 6 0 0 1 3.3-.2l3.6.7a18 18 0 0 0 16-4.4l5.8-5.4a6 6 0 0 1 3.7-1.6l49.5-3.7a18 18 0 0 0 7.5-2.2l12.6-7 2-.7 4.7-.7c7.2-1.1 12-6.7 13.6-8.6l.4-.2.4-.1 12.2-1.1a18 18 0 0 0 16-21.8l-.3-1.5v-.9q0-.3.4-.6.7-.7 1.5-.6c3.7.5 7.5-1.1 9.7-4.3l.2-.3c1.7-2.4 5-3 7.5-1.3l.3.2a14.6 14.6 0 0 0 20-2.7l4.3-5.5a6 6 0 0 1 7.4-1.6 14 14 0 0 0 12.2.1q4.9-2.4 7.3-7 1-1.8 2.8-2.4l75.7-24.8q1.8-.6 3.5-1.5l87.4-51.3c4.9-2.9 7.9-8 7.9-13.7a6 6 0 0 1 6-6c5.8 0 11.1-3 14.1-8l6.2-10.4a6 6 0 0 1 3.3-2.6l2.8-1a18 18 0 0 0 10.4-9l4.4-8.8 1.2-1.6 37.5-37.5q1.8-1.9 3-4l18.8-34.6a16 16 0 0 0-.7-16.6 6 6 0 0 1 .3-7.2l18.1-22.3.1-.1.1-.2 14-18.4a18 18 0 0 0 3.5-10l.7-15.2a6 6 0 0 1 1-3.2l4.8-6.7q1-1.5 1.8-3.4l4-9.7.2-.3.4-.8 22.7-34 .3-.5c3.1-5 3-10.6 2.7-13.6a4 4 0 0 1 1.8-3.7l1.6-1.1c4-2.7 6-6.5 7-8.2q.1-.4.6-.7l7-4.4a21 21 0 0 0 8.5-11.2l.2-.3a4 4 0 0 1 4-2.6H807q6.2 0 11-3.8l28.3-21.7.2-.2q.8-.6 1.8-.9l15.4-4.2a18 18 0 0 0 9.6-6.5l8.7-11.5.2-.2q.7-.8 1.5-1.3l23.7-13.9a18 18 0 0 0 6.9-7.2l3-5.7a6 6 0 0 1 5.6-3.2l15 1q3.8.2 7.2-1l27-9.5 1.4-.4 40-4.3a6 6 0 0 1 2.2.2l11.9 3 .7.2q5.3 1.2 10.2-.7l18.3-7q.9-.4 1.8-.4l22.8-1.4q1.4 0 2.8-.4l22.9-5h1.7l18.3 1.2h.2q.8 0 1.5.4c4 2 10.4 3 16-1.3a6 6 0 0 1 3-1.2l15.5-1.3 23 .5 1.7.3 10.8 3.3q6 1.8 11.5-1.7a6 6 0 0 1 4.2-1l20.5 3 1 .2 23 7.2.9.3 46.6 23.5.3.1.4.3.2.1 31.2 23.6.2.1.2.2 19.9 13.5 1 .9 20 21.5h.1v.1l64.9 67.6.2.3.7 1 19.3 36 .3.6q1 2 2.7 3.6l4 4.1a6 6 0 0 1 1.7 4v2.1c0 5.1 2.3 9.1 4.4 11.8a40 40 0 0 0 6.2 6.2q.6.5.7 1.1v.5l-.2.7c-2 4.1-1.2 9 2 12.3l3 3 .8 1 15.2 22.7.5.8 19.2 42.3.1.2q.3.8.4 1.7l1.5 15.8a18 18 0 0 0 4 9.8l12 14.7q1.1 1.5 1 3.4c-.4 4.3.1 11.8 6.3 17a6 6 0 0 1 2 2.7l4.5 13.8q.7 2.2 2 4l19 29.4q2.2 3.5 6.2 4.8a6 6 0 0 1 3.2 2.4l33.7 52.5q.8 1.3 1.8 2.5l19.7 21.4q1.6 1.7 3.6 3l14.5 9.2a6 6 0 0 1 2.6 3.6l1.7 6.7q.3 1.5 0 2.9v.4l-2.8 8.7a18 18 0 0 0 .2 11.4l10 28.2.2.4q1.3 3 3.3 5.4l4 4.5.1.2q.8 1 .5 2.2-1 3.5.4 7.1.7 1.5 1.9 2.8l2 2.3q2.5 2.5 4.2 3.5l.2.1a5 5 0 0 1 1.6 6 12 12 0 0 0-.7 7.5l.4 1.7a27 27 0 0 1-.3 9.8q-.2 1.5-.1 3.1c.1 3.2 1.4 7.6 5.5 10.6q.8.5 1.3 1.3l7.7 10.4.5 1.2c1 4.6 2.9 9.7 6.2 14.1q1.6 2.3.8 5-.5 1.5-.9 4l-.6 4.7-3.3 12.4q0 .6-.4 1l-.2.4c-3 4.6-2 11.2 3 14.7a6 6 0 0 1 2.3 3.1l3 10q.5 1.5 1.2 2.9l3.1 6.2v.5a10 10 0 0 0 6.4 9.2v.1l.1.1.3 1.1a48 48 0 0 0 2.7 8.2 39 39 0 0 0 5.4 14.6q3.4 6 4.9 12.8l5.2 21a18 18 0 0 0 4.9 8.5l5.1 5 1 1.3a45 45 0 0 0 12.2 14.3q.9.6 1.3 1.8v.2l1 3.6c2 7.3 8.6 11.3 10.7 12.7l.1.1q.5.5.5.9.5 4.4 3.5 8.4c2 2.7 5.6 5.5 10.5 5.9a6 6 0 0 1 4.7 2.8l6.5 10.2a21 21 0 0 0 8.4 7.3q2.5 1.4 2.8 4.2v.5c.3 4.3 3.1 8 7.2 9.4l9.4 3.2q4 1.5 8.3 1.3h.6l1 .3c3 2.8 7.5 6.8 12.7 9.1l.2.1q1.5.8 2.2 2.4l.2.4.5 1.6.3.6a18 18 0 0 0 15.7 11.3l3.3.1 8.8 1.1q2.6.3 4.2 0h1l.3.2.3.5v.2a10.6 10.6 0 0 0 11.4 10.8 6 6 0 0 1 5.3 2.5l1.7 2.4a18 18 0 0 0 17.2 7.3l12.6-1.8h.2q2.3-.2 3 2c.8 2.3 2.3 5.9 5.8 8.6l.3.3c6.8 5 14.8 2.8 18 1.6h.4a50 50 0 0 0 10.4-1h.1l.2.2v.2l1.5 2.8a14 14 0 0 0 15.7 7.4 6 6 0 0 1 4.6.7l2.7 1.7a18 18 0 0 0 13 2.2l7.3-1.5h.3a6 6 0 0 1 3.4.4l19.9 8.8a18 18 0 0 0 9.9 1.4l10.3-1.6h6a6 6 0 0 1 3.2.9l14.3 8.7q2 1.2 4.2 2l15 4.4q3.3 1.1 7 .7l13.8-1.4h.3a6 6 0 0 1 3.7 1l17.5 12.3 16.3 13.4a12 12 0 0 0 14.1.9l.2-.1a58 58 0 0 0 13.6-12.7l.4-.2 1.7-.4h.1a2 2 0 0 1 1.6.2l.2.2a18 18 0 0 0 7 3.2l8.8 1.8.3.1.6.2h.2l6.2 2.7h.1l.2.1 11.1 4.3.3.2a6 6 0 0 1 2 1.4l17.5 19.2q1.3 1.6 3 2.7l38.6 27 87 47.5.2.1 1.2 1 7.1 7.1 20.4 18.9a18 18 0 0 0 14.7 4.6l3.2-.4a6 6 0 0 1 5 1.6l9.5 9.2a18 18 0 0 0 5.6 3.7l25.5 10.6q.6.1 1 .4l15.7 10.1a18 18 0 0 0 19.4 0l11.1-7a6 6 0 0 1 7.4.7l1.8 1.7a16 16 0 0 0 16.3 3.8 6 6 0 0 1 5.8 1.2l2.1 1.9a18 18 0 0 0 9 4.3l18.3 3q1 .2 1.7.6l23 11.4 64 24h.2l.2.1 35.7 12 24.3 9.3a6 6 0 0 1 2.1 1.4l4.8 4.8q4.5 4.6 10.9 5.2l10.6 1.1a6 6 0 0 1 3.5 1.6l5.7 5.4a25 25 0 0 0 12.9 6.6q1.7.4 2.3 2v.2c1.3 3.9 4.7 6.6 8.7 7l7.5.8a6 6 0 0 1 5.3 5 11 11 0 0 0 13.3 9 4 4 0 0 1 3.5 1l7 6.3 1.1 1.4 8.5 14.3.2.3a18 18 0 0 0 8.8 7.3l.2.1c5 2 10 1 12.2.7q.7-.2 1.7.7.4.4.4.7l-.1 1-.2.5c-2.8 8.1 4 16.4 12.7 15.2l2.4-.3h.2q1.7-.3 3.2.5l16.4 7.8a6 6 0 0 1 2.8 2.7c2.5 5.2 8.7 7.3 14 5l1-.5a6 6 0 0 1 6.1.7l4 3 .4.3a18 18 0 0 0 12.7 3.3l26.7-3.1h1.2l14.7 1 .6.1a18 18 0 0 0 16-8.2l.1-.3a6 6 0 0 1 7.4-2.3l9.3 4 .6.2a18 18 0 0 0 10 .8l27.1-5.7q3.2-.6 5.4 1.6l14.9 14.3a18 18 0 0 0 16 4.7l29.6-6q2.4-.4 4.6-1.5l13.9-7 29.7-14.9a18 18 0 0 0 4.7-3.3l9.5-9.6a18 18 0 0 0 5.3-12.7v-2.8a6 6 0 0 1 4.8-5.9l33.5-6.8 32.7-9.6q1.6-.5 3.1-1.2l20.4-10.4q3.1-1.6 5.5-4.3l20.7-24a6 6 0 0 1 3.3-2c8.6-2 11-13.2 4-18.5l-7-5a6 6 0 0 1-1.4-8.1l8.4-13.2q1.8-2.9 2.5-6.1l5.4-27 7.4-22a6 6 0 0 1 1.5-2.4l3.6-3.7a18 18 0 0 0 4.4-18.4l-.5-1.4q-.3-.9-.3-1.9V2332l.1-10a15 15 0 0 0-11-14.5 6 6 0 0 1-4.5-6l.2-11.7a18 18 0 0 0-4.3-12.2l-7.6-8.7a6 6 0 0 1-1.4-4.7l1.2-8.6v-.3q.3-1.1 1.3-1.6c4.3-2.3 7.2-7.6 5.5-13.1l-.2-.6c-1.3-3.6-4.3-6-7.6-6.9q-1.8-.6-2-2.4l-1.4-20.7v-.4a18 18 0 0 0-5.2-11.2l-2-2a6 6 0 0 1-1.7-3v-.1l-7-37.8a6 6 0 0 1 .6-4l2.7-5.1c3.7-6.9 1-13.7-.8-17.2l-7.4-13.2c-2.8-4.9-8-8-13.6-8h-.3a6 6 0 0 1-5.7-5.6v-.3a17 17 0 0 0-7-13.8l-.5-.3-13.8-9.2a6 6 0 0 1-2.7-5V1996l3.9-98.2q0-2-.3-3.8l-5.4-31v-2l9.8-64.5 31.7-126.7.5-2.8 7.7-87v-110q0-2.3-.6-4.6l-30.7-115.3q-.8-2.9-2.4-5.3l-10.9-16.4a6 6 0 0 1 .8-7.6l4.3-4.4a18 18 0 0 0 4.6-17.8l-.2-.6-12.5-37.4q-.3-.9-.3-1.9v-62.5l3-22.9a18 18 0 0 0-1.6-9.7l-10-22.1q-.5-1-.6-2l-7-71.6-3.7-66.2q-.1-1.3.4-2.5l6.8-17.7a18 18 0 0 0-.6-14.4l-.2-.4-18.6-35.5-31-69.6a18 18 0 0 0-3.1-4.8l-27.8-30.5-.1-.2a6 6 0 0 1-1.3-2.7v-.2l-8.1-49.2q-.5-2.7-1.7-5.2l-30.2-60a6 6 0 0 1-.6-2.7V686a18 18 0 0 0-9.9-16l-4.4-2.3a6 6 0 0 1-2.9-3.2l-22.7-60.8-.2-.5-.2-.5-15.6-31-.2-.6-.1-.2-6.7-20-.1-.4a18 18 0 0 0-4.2-6.5l-11-11-.1-.3a6 6 0 0 1-1.6-4v-6c0-4.8-1.9-9.4-5.3-12.7l-2.1-2.1a6 6 0 0 1-1.3-1.9l-28.7-64.4-.2-.4a18 18 0 0 0-10.6-9.3l-14.4-4.8a6 6 0 0 1-3.2-2.6l-22.5-37.4-14.6-22.2a6 6 0 0 1-1-3.3V340a18 18 0 0 0-7.2-14.4l-23.4-17.6a6 6 0 0 1-2-3l-.2-.2-12.8-45.2c-1.6-5.6-5.8-10-11.3-11.9l-.5-.2a4 4 0 0 1-2.8-4.3c.9-5.7-2.8-10.5-7.7-11.9l-.5-.3v-.2l-.2-.2v-.1l-1-7.6v-.5c-.7-4.6-3.1-8-5.2-10.3-2.2-2.2-4.6-4-6.1-5.2l-.2-.1-.1-.3-6.3-24.4-.1-.3a18 18 0 0 0-2.2-4.9l-.1-.3-13.7-20.4-.2-.4-2-2.5-5.5-5.3q-.9-1-1.3-2l-.2-.4-14.6-44.2a18 18 0 0 0-2.2-4.4L2782 77a6 6 0 0 1-1-3.3v-15a18 18 0 0 0-5.3-12.8L2768 38a6 6 0 0 1-1.6-6l21-69.7a6 6 0 0 1 5.7-4.3zm65 2616.2v-.3z"/><path stroke="#67928d" stroke-linejoin="round" stroke-width="8" d="M2819.6-42h.3a6 6 0 0 1 5.6 5.6l7.2 107.6a18 18 0 0 0 4 10l11 14a6 6 0 0 1 1.3 3.7v15.6q0 1.1-.4 2.2l-3.4 8.3a18 18 0 0 0 4.5 20l12.3 11.3.5.5a22 22 0 0 0 14.7 4.7c2 0 3.7 1.6 3.8 3.6v10.1q0 5.4 3 10l10.7 16.1a6 6 0 0 1 .4 6l-1.2 2.5a18 18 0 0 0 2.3 19.5l4.5 5.5c4.6 5.4 11.7 6.7 13.8 7.1v.2l5.6 22a18 18 0 0 0 4.6 8.3l11.2 11.3.3.3a6 6 0 0 1 1.2 2.5l6.8 26.8a18 18 0 0 0 3.2 6.6l53.8 69.3 47.4 71 .2.3.5 1.1 6.5 19.5q1.4 4 4.3 7l20.4 20.4.2.2 1 1.5 13 27.9.4 1.3 5.5 27.2q.3 2 1.3 4l27.2 58.2 47.8 120.1 15.8 31.5.4.8 7.4 22.4 1 2.4 15.4 30.7.1.2 16 32 23.6 55.2.3 1 22.5 89.6v.1a3 3 0 0 1-.4 2.3l-.1.2q-3.1 4.4-2.8 9.6a13 13 0 0 0 6 10l.5.4v1.1c-1 1.9-2.5 4.9-3.4 8.2s-1.3 8.2 1.2 13l.6 2 7.9 62.7 4 79.8 1.8 67.2c0 2-1 4-2.7 5.1l-.3.2a13 13 0 0 0-4.7 18l15.3 25.2q.6 1 .8 2l9.7 50.7.1.3 23.7 86.8v.4l.2 1.2V1587l-.2 1.5-23.7 95-24.1 120.1v.4l-7.8 71-.2.7v.3l-14.6 51.2q-1.4 4.6-.2 9.3l6.7 27v.4l.2 1v53.6q0 1.8.4 3.5l7.2 36.4.1.6q.5 2 1.4 3.9l3.2 6.3a18 18 0 0 0 13.9 9.9l20.4 2.5q3.4.5 6.6-.4l3.1-.8a6 6 0 0 1 7.5 5.8v14.1a11.5 11.5 0 0 0 19.1 8.1l.3-.2.8.2q.3 0 .3.3.2.2.1.6l-.4 13.8q0 5.4 2.7 10l9 14.5a2.5 2.5 0 0 1-2.3 4l-.2-.1h-.5a17.3 17.3 0 0 0-19.4 14.9v.4l-1.1 10a6 6 0 0 1-1.8 3.7 11.4 11.4 0 0 0-.9 15.2l6.8 8.5a6 6 0 0 1 0 7.5l-.5.6a18 18 0 0 0-4 11.3v7q0 6.1 3.6 10.9l19.3 25.5a6 6 0 0 1 1.2 3.6v124l-.1 1.6-.1.2-15 48.6q-.8 2.2-.8 4.6v22.5a6 6 0 0 1-.5 2.3l-.2.3-14.4 30.6a6 6 0 0 1-1.8 2.2l-30.4 23-17.3 17.2q-4 3.8-9.5 5.3a19 19 0 0 0-8.3 4.7l-9.3 9.4a4 4 0 0 1-2.9 1.1h-.2c-3.7-.3-11.4-.6-17.3 4.8l-.3.3-29.8 28.2a6 6 0 0 1-1.9 1.2l-38.6 15.5-126.8 31.7-.9.2h-.3l-85.8 3.9q-1 0-2-.3l-86.1-27.4-.9-.3-46.1-23.1-.4-.2-2.1-.9h-.4l-29.3-8.9a6 6 0 0 1-3.9-3.5 42 42 0 0 0-6.3-9.8l-4.7-5.6-1.1-1.3c-.8-1-2.9-3.5-6-5l-10.8-5.5h-.1l-.3-.2-.3-.2v-1.1l.4-.6.2-.1h.6l5 .5c4 .4 7.9-1 10.5-4a12.5 12.5 0 0 0-2.3-18.9l-4.8-3a17 17 0 0 0-12-2.7l-5 .8a6 6 0 0 1-7-6v-12.3c0-9-7.3-16.4-16.3-16.4a6 6 0 0 1-2.2-.4l-34-13.7a18 18 0 0 0-10.9-.8l-7 1.8q-1.8.3-3.5-.3l-.4-.2a20 20 0 0 0-13.8 0q-4.6 1.7-7.7 3.6l-.7.4-.4.2h-.2l-.6-.3q-2.6-1.4-5.6-1.7h-.6a6 6 0 0 1-5.2-4.8 15 15 0 0 0-19.1-11.2l-20.2 6.8a6 6 0 0 1-3.1.2l-14.6-3h-.2c-5.7-1.3-13-2-18.8-1.5q-.8 0-1.3-.2t-1.2-1l-.2-.3a15.6 15.6 0 0 0-19-4.7l-9 4.1-.9.3-.9-.2-1-.4c-5-1.9-11.4-3.5-17.3-3.8l-1.6-.3-5-2.4-.6-.2q-4.6-2-9.7-1.2l-11.2 1.7a4 4 0 0 1-3-.7l-.2-.1a136 136 0 0 0-18.8-11.8l-1.2-.5-.2-.1-1.1-.8-4.8-4.8a43 43 0 0 0-18-10.6h-.1l-3.6-1.9-.3-.1q-2.1-1.3-2.6-3.6v-.7q-1.4-6-6-9.4c-3-2.2-7.9-4-13.2-1.8l-.3.2q-1 .3-2 .3h-4.1a6 6 0 0 1-5.8-4.3v-.3l-.3-1a18 18 0 0 0-12.5-13l-35.8-10.3a3 3 0 0 1-1.4-.8q-.5-.4-.7-1.2c-.8-2.8-2-6.8-4-10.5a20 20 0 0 0-12-10.1l-3.7-1q-1-.3-1-.5-.3-.3-.4-1-.5-4.3-3.2-9-.9-1.6-2.4-3.2a52 52 0 0 1-9-12.3l-.3-.6c-3-5.6-8.9-9-15.3-9h-2.4a6 6 0 0 1-4.8-2.5l-16.7-22.2-.4-.4a18 18 0 0 0-14-6.8h-6.7q-.9 0-1.9-.3l-46.6-15.6h-.2l-.3-.1-43.7-12-16.3-6-1.5-.8c-2.8-2.6-8.5-7-16.1-6.3l-.9.1h-.4l-.2-.1c-1.4-1.4-3.7-3.7-6.5-5.5a20 20 0 0 0-11.8-3.4h-.5l-19.5 1.7a6 6 0 0 1-4-1.2l-16-12-.5-.3a18 18 0 0 0-25 4.2l-.3.4-3.7 5.5a6 6 0 0 1-6.2 2.5l-73.8-14.6-1.3-.4-63-27.6-63.9-36-33.2-18.5a6 6 0 0 1-2.8-3.4l-3.5-10.6-.2-.6a18 18 0 0 0-5.5-7.7l-15.4-12.7a6 6 0 0 1-2.2-4.3v-2.6a18 18 0 0 0-9.4-15.8l-.5-.3-5-2.5a6 6 0 0 1-2.7-2.7l-36.7-73.5a18 18 0 0 0-6.6-7.2l-1.3-.9a6 6 0 0 1 0-10.2l.8-.5a11 11 0 0 0 5.3-9.5c0-7.1-6.2-11.4-11.8-11.2q-1.1 0-2-.8-1-.7-.8-2l.5-12.7.1-.6a18 18 0 0 0-9.1-18.7l-3.5-2a6 6 0 0 1-1.7-9c2.7-3.3 4-7.5 3.7-11.8l-6.9-77.2a18 18 0 0 0-4-9.9l-6.3-7.5-.7-1.1-7-13.7a18 18 0 0 0-9-8.5l-.3-.2-10.6-4.2a6 6 0 0 1-3.6-4.2l-4.5-17.8-.1-.6a22 22 0 0 0-7.7-10.7l-.9-.7q-.8-.8-.7-2c.5-2.4 1-5.7.6-9.2s-1.8-8.1-5.9-11.6l-.4-.4-9.8-6.5a6 6 0 0 1-2.4-3.1l-4.6-14a18 18 0 0 0-11.3-11.3l-5.6-2a3.8 3.8 0 0 1-1.6-6c2.8-2.9 4.3-7.3 2.8-11.8l-.2-.3q-1-2.7-3-4.6l-.4-.3-16.5-13.4a18 18 0 0 0-8.2-3.8l-.6-.1-14.2-2a6 6 0 0 1-4.8-7.9l1.4-4.3a18 18 0 0 0-5.8-19.7l-8.4-6.7-.1-.1-.4-.5a56 56 0 0 0-7.6-11.8l-13-19.5a6 6 0 0 1-1-3.3v-23c0-4.5-1.7-9-4.9-12.3l-.3-.3-1.8-1.9a6 6 0 0 1-1.4-2.2l-.1-.3-14.7-51.5q-.8-2.9-2.5-5.3l-69-99.7q-1-1.6-1.1-3.4v-.4a15.6 15.6 0 0 0-15.6-15.2h-8.7a6 6 0 0 1-4.3-1.8l-.3-.3-31.6-37-31.2-41.6-.4-.5a18 18 0 0 0-14-6.7h-38q-1.3 0-2.4-.5l-.3-.2-46-23a18 18 0 0 0-10.2-1.8l-18.7 2.1q-2.9.5-5.4 1.5l-14.3 6.5a4 4 0 0 1-3.8-.2c-2.5-1.5-7.2-4-13-3.6h-.5l-87 10c-2.3.3-4.4-.8-5.5-2.6-2.4-4.1-8.4-12.3-18.5-12.3h-24.6c-5 0-9.1 2.1-12 4.4q-4 3.6-6.2 7.3-1.3 1.9-3.8 2.3-2.1.4-4.1-1.4l-7.2-7.3-.4-.3a18 18 0 0 0-26.1 1.4l-.3.4-18.4 23-.2.2a6 6 0 0 1-4.5 2h-4.2c-10 0-18 8-18 17.9v2.6a6 6 0 0 1-3.6 5.5h-.2l-8.6 3.5a18 18 0 0 0-10 10.3l-.4.7-.6.3q-1 .3-1.6 0a12 12 0 0 0-15.2 3.3 6 6 0 0 1-6.7 1.9l-4.7-2-.6-.2a18 18 0 0 0-18.3 3.8l-.5.5-1.8 1.8q-.7.7-1.6 1.1l-.6.3a44 44 0 0 0-14.7 12.3q-1 1.3-2.5 1.6l-3.7.7a18 18 0 0 0-14 13.5l-.2.7-.7 3.5-.2.6-.4.3c-1.8.8-4.5 2-7 4a19 19 0 0 0-6.8 8.8l-.1.4-1.8 5.2a18 18 0 0 0-.9 5.7v11.6a6 6 0 0 1-.6 2.7l-9.8 19.6c-2.8 5.6-7.5 10-11 15.1a17 17 0 0 0-2 4.3l-.8 1.8-.2.2-5.6 7q-1.4 1.8-2.4 4l-.2.6-6.5 16.3-1.2 1.8-.2.2-5 5a18 18 0 0 0-3 4l-.4.7-14 28q-1 1.9-1.4 3.8l-6.2 24.5a10.4 10.4 0 0 0 16.3 10.7q.8-.5 2.1-.2.6.1 1 .5.3.3.5 1v.2q.3 1.3-.8 2.2l-23.6 18.9a18 18 0 0 0-6.2 9.4v.3l-4.2 16.8a6 6 0 0 1-1.4 2.6l-63.6 69.6-1 .8-.3.2-125 78.2a6 6 0 0 1-3.4.9h-.3l-13.7-1.3h-.4a18 18 0 0 0-11 2.7l-16.3 10.4-1.6.7-38.7 10.5a18 18 0 0 0-7.9 4.5l-1.9 1.9a6 6 0 0 1-5.7 1.5l-1-.2a16.4 16.4 0 0 0-18.2 7.8 5 5 0 0 1-4 2.4 21 21 0 0 0-11.2 3l-.4.3-17.1 11.4-2 .8-29 7.3q-2 .5-3.7 1.4l-27.6 13.8a6 6 0 0 1-4.2.5c-7.9-2-15.5 4-15.5 12.1v4.7a6 6 0 0 1-7.5 5.5l-18.1-4.6-.6-.1a18 18 0 0 0-7.6 0l-.6.1-26.4 6.6q-1.7.5-3.2 1.2l-.5.2-38.3 19.2-19.2 7.9a6 6 0 0 1-4.1.1c-5-1.6-9.7-.2-12.8 1.8a19 19 0 0 0-6.7 7.1l-.3.6a4 4 0 0 1-3.7 2.3H91.5a18 18 0 0 0-12.4 5l-.4.3-8.9 9a6 6 0 0 1-4.2 1.7h-22a18 18 0 0 0-12.3 4.8l-.3.4-8.6 8.5a6 6 0 0 1-5.2 1.6l-85.2-14.1a6 6 0 0 1-5-6v-38c0-4.2 4-7 7.9-5.8l52.6 17.6a18 18 0 0 0 17.7-3.7l8.8-7.8a6 6 0 0 1 4-1.5h11.5q3.8 0 7.4-1.6l32.8-14.6 88-39.8 25.7-9.3a6 6 0 0 1 3.3-.2l3.6.7a18 18 0 0 0 16-4.4l5.8-5.4a6 6 0 0 1 3.7-1.6l49.5-3.7a18 18 0 0 0 7.5-2.2l12.6-7 2-.7 4.7-.7c7.2-1.1 12-6.7 13.6-8.6l.4-.2.4-.1 12.2-1.1a18 18 0 0 0 16-21.8l-.3-1.5v-.9q0-.3.4-.6.7-.7 1.5-.6c3.7.5 7.5-1.1 9.7-4.3l.2-.3c1.7-2.4 5-3 7.5-1.3l.3.2a14.6 14.6 0 0 0 20-2.7l4.3-5.5a6 6 0 0 1 7.4-1.6 14 14 0 0 0 12.2.1q4.9-2.4 7.3-7 1-1.8 2.8-2.4l75.7-24.8q1.8-.6 3.5-1.5l87.4-51.3c4.9-2.9 7.9-8 7.9-13.7a6 6 0 0 1 6-6c5.8 0 11.1-3 14.1-8l6.2-10.4a6 6 0 0 1 3.3-2.6l2.8-1a18 18 0 0 0 10.4-9l4.4-8.8 1.2-1.6 37.5-37.5q1.8-1.9 3-4l18.8-34.6a16 16 0 0 0-.7-16.6 6 6 0 0 1 .3-7.2l18.1-22.3.1-.1.1-.2 14-18.4a18 18 0 0 0 3.5-10l.7-15.2a6 6 0 0 1 1-3.2l4.8-6.7q1-1.5 1.8-3.4l4-9.7.2-.3.4-.8 22.7-34 .3-.5c3.1-5 3-10.6 2.7-13.6a4 4 0 0 1 1.8-3.7l1.6-1.1c4-2.7 6-6.5 7-8.2q.1-.4.6-.7l7-4.4a21 21 0 0 0 8.5-11.2l.2-.3a4 4 0 0 1 4-2.6H807q6.2 0 11-3.8l28.3-21.7.2-.2q.8-.6 1.8-.9l15.4-4.2a18 18 0 0 0 9.6-6.5l8.7-11.5.2-.2q.7-.8 1.5-1.3l23.7-13.9a18 18 0 0 0 6.9-7.2l3-5.7a6 6 0 0 1 5.6-3.2l15 1q3.8.2 7.2-1l27-9.5 1.4-.4 40-4.3a6 6 0 0 1 2.2.2l11.9 3 .7.2q5.3 1.2 10.2-.7l18.3-7q.9-.4 1.8-.4l22.8-1.4q1.4 0 2.8-.4l22.9-5h1.7l18.3 1.2h.2q.8 0 1.5.4c4 2 10.4 3 16-1.3a6 6 0 0 1 3-1.2l15.5-1.3 23 .5 1.7.3 10.8 3.3q6 1.8 11.5-1.7a6 6 0 0 1 4.2-1l20.5 3 1 .2 23 7.2.9.3 46.6 23.5.3.1.4.3.2.1 31.2 23.6.2.1.2.2 19.9 13.5 1 .9 20 21.5h.1v.1l64.9 67.6.2.3.7 1 19.3 36 .3.6q1 2 2.7 3.6l4 4.1a6 6 0 0 1 1.7 4v2.1c0 5.1 2.3 9.1 4.4 11.8a40 40 0 0 0 6.2 6.2q.6.5.7 1.1v.5l-.2.7c-2 4.1-1.2 9 2 12.3l3 3 .8 1 15.2 22.7.5.8 19.2 42.3.1.2q.3.8.4 1.7l1.5 15.8a18 18 0 0 0 4 9.8l12 14.7q1.1 1.5 1 3.4c-.4 4.3.1 11.8 6.3 17a6 6 0 0 1 2 2.7l4.5 13.8q.7 2.2 2 4l19 29.4q2.2 3.5 6.2 4.8a6 6 0 0 1 3.2 2.4l33.7 52.5q.8 1.3 1.8 2.5l19.7 21.4q1.6 1.7 3.6 3l14.5 9.2a6 6 0 0 1 2.6 3.6l1.7 6.7q.3 1.5 0 2.9v.4l-2.8 8.7a18 18 0 0 0 .2 11.4l10 28.2.2.4q1.3 3 3.3 5.4l4 4.5.1.2q.8 1 .5 2.2-1 3.5.4 7.1.7 1.5 1.9 2.8l2 2.3q2.5 2.5 4.2 3.5l.2.1a5 5 0 0 1 1.6 6 12 12 0 0 0-.7 7.5l.4 1.7a27 27 0 0 1-.3 9.8q-.2 1.5-.1 3.1c.1 3.2 1.4 7.6 5.5 10.6q.8.5 1.3 1.3l7.7 10.4.5 1.2c1 4.6 2.9 9.7 6.2 14.1q1.6 2.3.8 5-.5 1.5-.9 4l-.6 4.7-3.3 12.4q0 .6-.4 1l-.2.4c-3 4.6-2 11.2 3 14.7a6 6 0 0 1 2.3 3.1l3 10q.5 1.5 1.2 2.9l3.1 6.2v.5a10 10 0 0 0 6.4 9.2v.1l.1.1.3 1.1a48 48 0 0 0 2.7 8.2 39 39 0 0 0 5.4 14.6q3.4 6 4.9 12.8l5.2 21a18 18 0 0 0 4.9 8.5l5.1 5 1 1.3a45 45 0 0 0 12.2 14.3q.9.6 1.3 1.8v.2l1 3.6c2 7.3 8.6 11.3 10.7 12.7l.1.1q.5.5.5.9.5 4.4 3.5 8.4c2 2.7 5.6 5.5 10.5 5.9a6 6 0 0 1 4.7 2.8l6.5 10.2a21 21 0 0 0 8.4 7.3q2.5 1.4 2.8 4.2v.5c.3 4.3 3.1 8 7.2 9.4l9.4 3.2q4 1.5 8.3 1.3h.6l1 .3c3 2.8 7.5 6.8 12.7 9.1l.2.1q1.5.8 2.2 2.4l.2.4.5 1.6.3.6a18 18 0 0 0 15.7 11.3l3.3.1 8.8 1.1q2.6.3 4.2 0h1l.3.2.3.5v.2a10.6 10.6 0 0 0 11.4 10.8 6 6 0 0 1 5.3 2.5l1.7 2.4a18 18 0 0 0 17.2 7.3l12.6-1.8h.2q2.3-.2 3 2c.8 2.3 2.3 5.9 5.8 8.6l.3.3c6.8 5 14.8 2.8 18 1.6h.4a50 50 0 0 0 10.4-1h.1l.2.2v.2l1.5 2.8a14 14 0 0 0 15.7 7.4 6 6 0 0 1 4.6.7l2.7 1.7a18 18 0 0 0 13 2.2l7.3-1.5h.3a6 6 0 0 1 3.4.4l19.9 8.8a18 18 0 0 0 9.9 1.4l10.3-1.6h6a6 6 0 0 1 3.2.9l14.3 8.7q2 1.2 4.2 2l15 4.4q3.3 1.1 7 .7l13.8-1.4h.3a6 6 0 0 1 3.7 1l17.5 12.3 16.3 13.4a12 12 0 0 0 14.1.9l.2-.1a58 58 0 0 0 13.6-12.7l.4-.2 1.7-.4h.1a2 2 0 0 1 1.6.2l.2.2a18 18 0 0 0 7 3.2l8.8 1.8.3.1.6.2h.2l6.2 2.7h.1l.2.1 11.1 4.3.3.2a6 6 0 0 1 2 1.4l17.5 19.2q1.3 1.6 3 2.7l38.6 27 87 47.5.2.1 1.2 1 7.1 7.1 20.4 18.9a18 18 0 0 0 14.7 4.6l3.2-.4a6 6 0 0 1 5 1.6l9.5 9.2a18 18 0 0 0 5.6 3.7l25.5 10.6q.6.1 1 .4l15.7 10.1a18 18 0 0 0 19.4 0l11.1-7a6 6 0 0 1 7.4.7l1.8 1.7a16 16 0 0 0 16.3 3.8 6 6 0 0 1 5.8 1.2l2.1 1.9a18 18 0 0 0 9 4.3l18.3 3q1 .2 1.7.6l23 11.4 64 24h.2l.2.1 35.7 12 24.3 9.3a6 6 0 0 1 2.1 1.4l4.8 4.8q4.5 4.6 10.9 5.2l10.6 1.1a6 6 0 0 1 3.5 1.6l5.7 5.4a25 25 0 0 0 12.9 6.6q1.7.4 2.3 2v.2c1.3 3.9 4.7 6.6 8.7 7l7.5.8a6 6 0 0 1 5.3 5 11 11 0 0 0 13.3 9 4 4 0 0 1 3.5 1l7 6.3 1.1 1.4 8.5 14.3.2.3a18 18 0 0 0 8.8 7.3l.2.1c5 2 10 1 12.2.7q.7-.2 1.7.7.4.4.4.7l-.1 1-.2.5c-2.8 8.1 4 16.4 12.7 15.2l2.4-.3h.2q1.7-.3 3.2.5l16.4 7.8a6 6 0 0 1 2.8 2.7c2.5 5.2 8.7 7.3 14 5l1-.5a6 6 0 0 1 6.1.7l4 3 .4.3a18 18 0 0 0 12.7 3.3l26.7-3.1h1.2l14.7 1 .6.1a18 18 0 0 0 16-8.2l.1-.3a6 6 0 0 1 7.4-2.3l9.3 4 .6.2a18 18 0 0 0 10 .8l27.1-5.7q3.2-.6 5.4 1.6l14.9 14.3a18 18 0 0 0 16 4.7l29.6-6q2.4-.4 4.6-1.5l13.9-7 29.7-14.9a18 18 0 0 0 4.7-3.3l9.5-9.6a18 18 0 0 0 5.3-12.7v-2.8a6 6 0 0 1 4.8-5.9l33.5-6.8 32.7-9.6q1.6-.5 3.1-1.2l20.4-10.4q3.1-1.6 5.5-4.3l20.7-24a6 6 0 0 1 3.3-2c8.6-2 11-13.2 4-18.5l-7-5a6 6 0 0 1-1.4-8.1l8.4-13.2q1.8-2.9 2.5-6.1l5.4-27 7.4-22a6 6 0 0 1 1.5-2.4l3.6-3.7a18 18 0 0 0 4.4-18.4l-.5-1.4q-.3-.9-.3-1.9V2332l.1-10a15 15 0 0 0-11-14.5 6 6 0 0 1-4.5-6l.2-11.7a18 18 0 0 0-4.3-12.2l-7.6-8.7a6 6 0 0 1-1.4-4.7l1.2-8.6v-.3q.3-1.1 1.3-1.6c4.3-2.3 7.2-7.6 5.5-13.1l-.2-.6c-1.3-3.6-4.3-6-7.6-6.9q-1.8-.6-2-2.4l-1.4-20.7v-.4a18 18 0 0 0-5.2-11.2l-2-2a6 6 0 0 1-1.7-3v-.1l-7-37.8a6 6 0 0 1 .6-4l2.7-5.1c3.7-6.9 1-13.7-.8-17.2l-7.4-13.2c-2.8-4.9-8-8-13.6-8h-.3a6 6 0 0 1-5.7-5.6v-.3a17 17 0 0 0-7-13.8l-.5-.3-13.8-9.2a6 6 0 0 1-2.7-5V1996l3.9-98.2q0-2-.3-3.8l-5.4-31v-2l9.8-64.5 31.7-126.7.5-2.8 7.7-87v-110q0-2.3-.6-4.6l-30.7-115.3q-.8-2.9-2.4-5.3l-10.9-16.4a6 6 0 0 1 .8-7.6l4.3-4.4a18 18 0 0 0 4.6-17.8l-.2-.6-12.5-37.4q-.3-.9-.3-1.9v-62.5l3-22.9a18 18 0 0 0-1.6-9.7l-10-22.1q-.5-1-.6-2l-7-71.6-3.7-66.2q-.1-1.3.4-2.5l6.8-17.7a18 18 0 0 0-.6-14.4l-.2-.4-18.6-35.5-31-69.6a18 18 0 0 0-3.1-4.8l-27.8-30.5-.1-.2a6 6 0 0 1-1.3-2.7v-.2l-8.1-49.2q-.5-2.7-1.7-5.2l-30.2-60a6 6 0 0 1-.6-2.7V686a18 18 0 0 0-9.9-16l-4.4-2.3a6 6 0 0 1-2.9-3.2l-22.7-60.8-.2-.5-.2-.5-15.6-31-.2-.6-.1-.2-6.7-20-.1-.4a18 18 0 0 0-4.2-6.5l-11-11-.1-.3a6 6 0 0 1-1.6-4v-6c0-4.8-1.9-9.4-5.3-12.7l-2.1-2.1a6 6 0 0 1-1.3-1.9l-28.7-64.4-.2-.4a18 18 0 0 0-10.6-9.3l-14.4-4.8a6 6 0 0 1-3.2-2.6l-22.5-37.4-14.6-22.2a6 6 0 0 1-1-3.3V340a18 18 0 0 0-7.2-14.4l-23.4-17.6a6 6 0 0 1-2-3l-.2-.2-12.8-45.2c-1.6-5.6-5.8-10-11.3-11.9l-.5-.2a4 4 0 0 1-2.8-4.3c.9-5.7-2.8-10.5-7.7-11.9l-.5-.3v-.2l-.2-.2v-.1l-1-7.6v-.5c-.7-4.6-3.1-8-5.2-10.3-2.2-2.2-4.6-4-6.1-5.2l-.2-.1-.1-.3-6.3-24.4-.1-.3a18 18 0 0 0-2.2-4.9l-.1-.3-13.7-20.4-.2-.4-2-2.5-5.5-5.3q-.9-1-1.3-2l-.2-.4-14.6-44.2a18 18 0 0 0-2.2-4.4L2782 77a6 6 0 0 1-1-3.3v-15a18 18 0 0 0-5.3-12.8L2768 38a6 6 0 0 1-1.6-6l21-69.7a6 6 0 0 1 5.7-4.3zm65 2616.2v-.3z" mask="url(#path-4-outside-1_13490_1944)"/><path fill="#67928d" d="M2953.3 402.4a2.5 2.5 0 0 1 4 1l4.9 13.1a2.6 2.6 0 1 1-4.8 1.8l-4.8-13.2q-.5-1.6.7-2.7m-16.4-34a2.5 2.5 0 0 0-1.3 3.4l7.9 16a8 8 0 0 0 9.6 4.2l1-.4a8 8 0 0 0 5-10.7l-5.9-13.5a3.6 3.6 0 1 0-6.4 3.2l5.2 9.4a2.8 2.8 0 1 1-5 2.7l-7-13.1c-.5-1.2-2-1.7-3.1-1.2m-39.9-86a3.5 3.5 0 0 0-4.7 4l1.7 8.1.2 1.2a4.2 4.2 0 1 0 8-2l-3.2-9.2q-.5-1.5-2-2m154.4 262.3.3.3.3.2a2 2 0 0 0 3-1.7v-3.4a4 4 0 0 1 6.6-3l6.8 6a8 8 0 0 1 2.6 4.5l1.9 9.5q0 .8.4 1.5l.8 2.1c1.2 2.8.4 6-1.8 8.1l-2 2a3.4 3.4 0 0 0 2.7 5.8l29.9-4a2 2 0 1 1 .5 4l-30.7 3.6a4 4 0 0 0-3.2 2.1 4 4 0 0 1-5.8 1.6l-.5-.4q-1.6-1-3.7-.6l-2.7.8a1.3 1.3 0 0 1-.8-2.4l2.4-1q2-1 2.1-3.1v-5.5a8 8 0 0 0-.4-2.6l-3.2-9.2a8 8 0 0 0-3.1-4l-2.7-1.8q-1-.7-1.1-2v-7c0-.8 1-1.1 1.4-.4m32.4 21.9a1.8 1.8 0 1 0-3.4 1.4 1.8 1.8 0 0 0 3.4-1.4m-1-10.2c-1-1.4-3-.7-3 1a1.6 1.6 0 1 0 3-1m8.2 25.8a3 3 0 0 0-2.5 2.7v1.2a2.7 2.7 0 1 0 5.5 0V585c0-1.6-1.4-2.9-3-2.7m11.4 14.6q-.9.6-.9 1.7v.8a2.2 2.2 0 1 0 4.3-.8l-.4-.8a2 2 0 0 0-3-1m-84.4-112c0-3.5 4.6-4.8 6.5-1.9l6.3 9.7a3.2 3.2 0 0 1-5.2 3.6l-7-9.3q-.6-1-.6-2m253.4 567.9a4.9 4.9 0 1 0-8.6 4.7l3.5 6a4.8 4.8 0 0 0 8.3-4.7zm53.4 451.7a1.6 1.6 0 1 0 .9 3l1-.6c1-.7.6-2.4-.7-2.4zm-52.3 343a4 4 0 0 0-4 2.8l-4.6 14.5a8 8 0 0 0 0 5.3l2 5.1a4.6 4.6 0 0 0 8.7-2.6l-.6-3q-.5-2.1.2-4.1l2-6.3.3-2.4v-5.2a4 4 0 0 0-4-4.1m.2-35.3a3 3 0 0 0-4.4 3l.8 9.5a3.2 3.2 0 0 0 6.3-.5l-.7-9.2q-.2-2-2-2.8m.3 250.2c-1.3-.5-2.5 1-1.8 2.3.4.7 1.4 1 2.1.5 1.1-.7 1-2.3-.3-2.8m-3-17.4q-2.5 1-1.8 3.5l2.9 8c.4 1.2 2 1.5 2.8.6l.1-.1q.5-.5.4-1.2v-.2c-.2-1.4 1.6-2.1 2.3-1 .7 1 2.2.8 2.4-.4l.6-3q.3-1.6-1-2.6l-4.8-3.3a4 4 0 0 0-4-.4m73.5 261.4a3 3 0 1 0-5.3 2.7 3 3 0 0 0 5.3-2.7m-33.4-43.8a8 8 0 0 1 8.8-5.5l11.1 1.6a8 8 0 0 1 6.9 7.5l.7 16.4-.8 14.3a8 8 0 0 1-3.2 5.9c-3.4 2.4-7.4 4.9-8 4.3-.7-.7-1.2-10.5-1.4-17.3 0-1.8 1.3-3.4 3-3.6a3.5 3.5 0 0 0 1.6-6.3l-6.5-4.3-1.5-.8-5.7-1.8a8 8 0 0 1-5.2-10zm2.3-97.3q-1.6.9-1.5 2.8l4 27.6q.1 1.5-.1 2.8l-2 9.3a8 8 0 0 0 .6 5.3l1.3 2.7q.5.7.6 1.6l4.3 16.8q.4 1.9-.7 3.5-1.2 2-.5 4l1.9 4.9a8 8 0 0 0 4.9 4.7l4.3 1.4q1 .5 1.1 1.6.2 1.6 1.8 1.6l3.9-.4a5 5 0 0 0 3.8-7.7l-5-8.5q-1-1.7-1.1-3.6l-1.4-26.6-1.7-17.3a8 8 0 0 0-2.7-5.3l-6.4-5.4a8 8 0 0 1-2.4-3.7l-3.4-10.5a2.6 2.6 0 0 0-3.6-1.6m16.9 261.8c-1.6-1-3.7-.2-4.2 1.6l-6.2 21.3a8 8 0 0 1-3 4.2 8 8 0 0 0-1.6 11.4l3.4 4.3c1.8 2.1 5 2.1 6.7 0l.4-.6q1.2-1.7.2-3.6-.8-1.6 0-3.2l3.3-5.7a8 8 0 0 0 1-4.7l-.7-8.5v-8.7q0-1.3.7-2.4l.9-1.5c.8-1.3.4-3-1-3.9m-127.2 122.5q-1.9 0-3 1.6l-14.5 22.8a6.3 6.3 0 0 0 9 8.4l24.5-18a8 8 0 0 0 1.9-2l2.9-4.2c2.2-3.3.3-7.9-3.6-8.6h-.2q-2.8-.4-4.8 1.7a5 5 0 0 1-4 1.8h-1.3a5 5 0 0 1-3.8-1.7l-.5-.6a4 4 0 0 0-2.6-1.2m-199.1 51.5c-.4 1 .4 2 1.4 2h1.2a2 2 0 0 0 1.9-2.4 2 2 0 0 0-3-1l-1 .6zm-194-32.5a5 5 0 1 0-3.2 9.6l1 .2a5 5 0 0 0 3-9.4zm-374.4-182.3a4.6 4.6 0 0 0-1.6 8.5l23 13.2a4.4 4.4 0 0 0 4.4-7.7l-22.8-13.4q-1.5-.7-3-.6m48.6 30.5a1.5 1.5 0 0 0 0 2.8l15.1 6.5a2.4 2.4 0 1 0 1.7-4.5l-15.8-4.8zm34.9-.4a8 8 0 0 0-1.2 13l14.7 12.5a8 8 0 0 0 6 1.9l28.8-2.8c7-.7 8.6-10 2.4-13.1l-1.2-.5-28.9-7.8-14.2-4a8 8 0 0 0-6.2.7zm-881.2-652.6c-3.1-2-7.1.8-6.2 4.4v.4a4 4 0 0 0 5 2.7l3.1-1a1.4 1.4 0 0 1 1 2.6l-2.3.9c-2.2.7-3.6 3-3.2 5.3l.1 1.2q.3 1.8 1.7 3l.8.6a4.3 4.3 0 0 0 7-4.1l-.4-1.6a2 2 0 0 1 1.1-2.3 2 2 0 0 0 1-2.5l-.8-2.9a6 6 0 0 0-2.3-3zm-36.7-42.2c.5.5 2.6 4.2 4.6 8 .7 1.3 2.9.8 2.9-.8q0-.7-.5-1.2zm34.2.3c-1.4.4-2.1 2-1.5 3.3l.2.5a2.4 2.4 0 1 0 4-2.7l-.5-.5q-1-.9-2.2-.6m-5.5-9.5a3 3 0 1 0-3.5 5 3 3 0 0 0 3.5-5m15.7 17.1a3 3 0 0 0-2.1 3l.4 3.5q.3 3.1 2.8 4.9l5.5 3.8q2 1.5 2.6 3.7l2.2 8.3a2.3 2.3 0 0 0 4.5-1.2l-2.8-12a8 8 0 0 0-1.8-3.4l-8.6-9.7a3 3 0 0 0-2.7-.9m-121.1-160.6q-2.2-.2-3.4 1.7l-1 1.6c-.8 1.5.3 3.4 2 3.4h.7q.4 0 .7-.3a1 1 0 0 1 1.5.6l-.1 1.8c-.1 1 .8 1.7 1.7 1.4l.7-.2a2 2 0 0 0 1.5-1.7l.2-3.5a4.4 4.4 0 0 0-3.8-4.7zm-12.1-3.3a1.5 1.5 0 0 0-.8 2.6c.8.7 2 .4 2.4-.5.5-1.1-.4-2.3-1.6-2.1m-76.3-170c-3-2.4-7.4.3-6.6 4l1.8 9q.5 2 1.8 3.5l15 16.8q.6.8 1.4 1.2l4.8 3.4q2.4 1.6 3 4.4l.5 2q.5 1.7 2 2.4 1.8.8 1.9 3v2.9c0 1.2 1.2 2.1 2.3 1.8q1.6-.5 1.4-2l-.5-3.7q-.1-1.2.9-1.7c1-.5 1.2-1.8.5-2.6l-5-5.6a4 4 0 0 1-.6-4l.8-2c.6-1.5-.3-3-1.7-3.2h-.5q-.6 0-1 .3c-.8.8-2.2.1-2-1l.3-2q0-.9-.5-1.6l-13.8-15.1-1-1.5-4.2-7.5q-.4-.8-1-1.2m-304.7-151a3.9 3.9 0 0 0 0 7.6l5.4 1q1.9.4 3.5-.8a4.3 4.3 0 0 0-.4-7.1l-1-.7q-1.7-1-3.6-.7zm-85.9 15.9a5.5 5.5 0 0 1 2.7-9.4c6-1.2 9.1 6.6 4.2 10a5.5 5.5 0 0 1-7-.6m-367.4 315.2a6.2 6.2 0 0 0-9.4 2.6l-4.8 11.4a5.3 5.3 0 0 0 9.5 4.9l6.4-10.6c1.7-2.8 1-6.4-1.7-8.3m-149.6 106.7a3.2 3.2 0 0 0 2.8 5.8l7.2-2.6a4 4 0 1 0-3.4-7.2zM281 1817v12.5l4.2-3a5.3 5.3 0 0 0-3.8-9.6zm12.6-3.4a3 3 0 0 0-2.3 2.5l-.2 1.3a3 3 0 1 0 5.9.3v-1.2a3 3 0 0 0-3.4-2.9M205 1833a4.3 4.3 0 0 0 2.7 8.2l1-.2a4.4 4.4 0 1 0-2.8-8.3zm1.5-19v7.5l2.7-.9a3.4 3.4 0 0 0-1-6.6zm17.5-8.6c-.5-1-1.8-1.2-2.6-.4l-2 1.7a1.7 1.7 0 1 0 2.4 2.5l1.9-1.9q.8-.8.3-1.9m3 12.6c.6-1.1-.8-2.3-1.9-1.6l-2.1 1.3c-.9.5-.5 1.8.5 1.8h.3q.7 0 .7.7c0 .7 1 .9 1.3.3z"/><path stroke="#b6c5bf" stroke-dasharray="8 8" stroke-linecap="round" stroke-width="4" d="m1465 1218.6 180-6.5 252.5 8.3q4.6.2 8.7 2l81.3 35a25 25 0 0 1 4.7 2.7l25.8 19q2 1.3 4.2 2.4l36.9 16.8q2.4 1.2 4.5 2.8l44.8 34a24 24 0 0 1 5.3 5.5l7 10.3a24 24 0 0 0 9.8 8.2l16.3 7.5q2.7 1.2 5.6 1.8l28.7 5.3a24 24 0 0 1 16.8 12.3l13 24.2q2.1 4 2.6 8.7l4.6 41.2q.5 3.6 1.8 7l16.3 37.2q.8 1.9 1.3 3.9l18 72.9 14.5 48.6q.5 1.8 1.3 3.5l15.2 31.5q2 4.3 2.3 9l2.9 48q.3 5.2-1.5 10l-18.7 49a24 24 0 0 1-2.6 5l-10.4 15.1m486 162.3-7.5 29-22.2 65.1a24 24 0 0 0-1.3 7.8v17.5a24 24 0 0 0 6.4 16.3l38.2 41.4a24 24 0 0 1 4.5 7.2l14.1 34.4a24 24 0 0 1 .7 16.3l-.2.8a24 24 0 0 0 .7 16.5l8.6 20.3 22.9 40.8a24 24 0 0 1 2.4 17.3l-9.8 41.3-5.5 54.5 3.5 29.4m-3.5-29.4 23.3-27.8q2.8-3.2 6.4-5.3l40.2-23.2a24 24 0 0 1 17.2-2.6l20.8 4.6q3.6.8 6.8 2.6l38.3 22.2m112-159.3-12.5 29-12.2 22.4c-1.9 3.5-6 5-9.7 3.6a8 8 0 0 0-10.7 6.6l-2.7 26.5a24 24 0 0 1-4.9 12.2l-19.7 25.4a24 24 0 0 1-3.7 3.8l-35.9 29.8-26.5 20.7a24 24 0 0 1-7.7 4l-11.7 3.6a24 24 0 0 0-6.7 3.3L2846 2427m284.5-642.2-52.6 21a24 24 0 0 0-8.6 5.9l-23.8 25.4a24 24 0 0 0-4 5.9l-36.6 74.3a24 24 0 0 1-5 6.8l-38.4 36.5H2918l-32.2 2.4a24 24 0 0 0-20.4 14.8l-3.5 8.5a24 24 0 0 0-1.7 12l5 41.3q.3 3 1.3 5.6l25.5 67.7a24 24 0 0 1 1 13.3l-10 48.6m78.5-214.2 1.2-17.5a24 24 0 0 0-9-20.3l-26.2-21a24 24 0 0 1-8.6-14.5l-5.6-30.8a24 24 0 0 0-3.4-8.8l-14.5-22.5a24 24 0 0 1-3.6-9.7l-6.7-46.9a24 24 0 0 1 .3-8.4l5-23q.5-2.8-1-5.2l-1.2-1.7a5.2 5.2 0 0 1 2.5-7.7c2.4-1 3.8-3.6 3.1-6.2l-5.6-21.5q-1.2-4.5-.7-9l3.1-25.6q.4-3.3-.4-6.6a18 18 0 0 0-15.8-13.3l-20.4-1.9h-22.4a24 24 0 0 1-16.5-6.6l-54.6-51.8-56.4-63.8a24 24 0 0 1-5.5-21l5-22.6a24 24 0 0 1 8.8-13.8l17.6-13.6 6.3-6.3a24 24 0 0 0 6.9-19.7l-3.4-29.6q-.3-3-1.3-5.5l-5-13.8a24 24 0 0 1-1.2-11.4l2.4-17.7a24 24 0 0 1 4.3-10.7l12.8-18a24 24 0 0 0 4.4-11.5l1.8-17.6m0 0 43.7-19a24 24 0 0 0 10.8-9.3l13.3-21.4a24 24 0 0 1 4.1-5l28.8-26.3a24 24 0 0 0 5.8-8l19.5-44.4 22-42m-148 175.4-8.5-12.5a24 24 0 0 1-3.8-9.8l-1.5-10a24 24 0 0 1 .1-8.4l8-40q.7-3.2.4-6.6l-3.7-47v-28.7q0-5.8 2.6-11l1.5-3a24 24 0 0 0-7.3-30.3l-10.2-7.3a24 24 0 0 1-9.2-13.7l-3.9-15.4a24 24 0 0 1 5-21.4l5-6a16 16 0 0 1 21.4-2.6 16 16 0 0 0 17.6.6l3.8-2.3a10 10 0 0 1 14 4.3l13.2 28.3c2.6 5.5 7.1 9.8 12.7 12.1l21.8 9 51.6 28.3q4 2.2 6.8 5.5l10.6 12.6m0 0 28.5-12.5 33-17.5 49.5-24 38.3-12.5q2.7-.9 5.1-2.4l71.1-44m-41-118.8 1.7-2.1a19.5 19.5 0 0 1 24.7-5l7.8 4.4a24 24 0 0 0 10.3 3l1.7.1a24 24 0 0 1 22.2 19.6l4.1 22.4 12.4 61.3a24 24 0 0 0 2 6l15 30q2 4 2.5 8.6l6.1 68.4 4 62.4m-176.5 336.6 69.7 37.4q3.8 2.1 6.7 5.3l18.6 21.2 18.5 17.5"/><path stroke="#93aca4" stroke-linecap="round" stroke-width="2" d="M3090.5 877.1a2 2 0 0 1 2.6 1.2l22.5 56h0v.2l13.6 48.8 35.4 83.8 40.2 82.4q1.5 2.8 2 5.8l14 63.7v.1h0l10.1 83.2q.5 3 0 6.2l-5.1 44.5v69.3l5.4 46.8 8.1 39.9q1 4.8.1 9.8l-5.6 30.8-2.4 44q0 3.7-1.3 7l-25.2 74.2q-.7 2-1 4.2l-7.1 48-2.9 43q0 2.7-.9 5.3l-15.7 56.2a23 23 0 0 0-.7 4.4l-3.1 35.3q-.3 1.9 0 3.7v.5l3.3 30.7v75.3h0l-2.9 43.7a14 14 0 0 0 7.4 13.2 26 26 0 0 1 12.8 15.5l10.6 35.4v.3l6.3 41a22 22 0 0 0 7 13l41.3 37.1q1.5 1.2 2.6 2.7l17 20.2.3.7 5.7 18q1 2.7 1.1 5.3l5.2 50.2q.5 5.4 3.3 10l14 23h0l5.2 11.4c3 6.8 3 14.5 0 21.3l-9.6 21.9q-.8 2-1.4 4.3l-5 23.2q-1 5.3-4.1 9.6l-14 19.8a26 26 0 0 1-5.8 6l-88.4 65a26 26 0 0 1-13.2 5l-31 2.7q-3.5.3-7-.4l-106.8-20.3h0l-108-21.1a26 26 0 0 1-4.4-1.3l-63.8-24.7q-2.5-.9-5.1-1.3l-42.6-5.6-59.7-3.8q-3-.2-5.9-1l-165.3-50.3h0l-115.6-41h-.1 0l-136-60.5-26.6-10.7a26 26 0 0 1-14.4-14.3l-1.6-3.9a26 26 0 0 1-1.6-14l4.4-28.1a24 24 0 0 0-24.9-27.7l-24.8 1.2q-3.5.2-6.8-.6l-41.8-9a24 24 0 0 0-6.8-.5l-50.4 3.6a26 26 0 0 1-5-.2l-25.4-3.1q-4.7-.7-9-2.8l-72.7-38.2q-3-1.6-6.5-2.3l-24-4.8a26 26 0 0 1-9.6-4l-99.4-67.6a26 26 0 0 1-8-8.6l-66.7-116.7-65-109.6q-.9-1.7-2.2-3.2l-52-60.5a26 26 0 0 1-3.7-5.6l-40-81.5a26 26 0 0 1-2.4-8.4l-2-17a2 2 0 0 1 4-.4l2 17q.5 3.7 2 7l40 81.6q1.2 2.6 3 4.7l52.2 60.5q1.5 1.8 2.6 3.7l65 109.7h0l66.7 116.7a22 22 0 0 0 6.8 7.2l99.4 67.7q3.6 2.4 8 3.4l19 3.8a24 24 0 0 0 15.5-2.1l9-4.5a26 26 0 0 1 11.5-2.7c5.4 0 8.3-6.4 4.7-10.4L1998 2043h0l-48.7-60.5a26 26 0 0 1-5-9.9l-3.7-14.4a2 2 0 0 1 1.5-2.4 2 2 0 0 1 2.4 1.4l3.7 14.5a22 22 0 0 0 4.2 8.3l48.7 60.4 53.6 60.6q3.7 4 8.5 6.1L2178 2157q2.1 1 4.4 1.4l43 9.3q2.7.6 5.7.5l56.7-2.8 106.8-19.5 65.4-19.9a24 24 0 0 0 17-23v-12.7q0-4.6-1.7-8.7l-15.7-36.3a22 22 0 0 0-6.6-8.6l-18.2-14.4a2 2 0 0 1-.3-2.8c.7-.9 2 1 2.8 1.7l18.2 12.3a26 26 0 0 1 7.8 10.2l15.6 36.3a26 26 0 0 1 2.2 10.3v26.7a11.4 11.4 0 0 0 20.3 6.9l76.6-99.4h0l19.5-24v-.1h.1l29-29.4q1.5-1.5 2.5-3l13.8-20a24 24 0 0 0 4.2-13.7V1902q0-2.5-.6-4.9l-.1-.7-4.9-18.7a26 26 0 0 1 .8-15.5l3-8.1a26 26 0 0 1 6.5-10l41-38.6h0v-.1l18.6-15q2.6-2.2 5.7-3.6l74.9-33.5q3-1.2 6.3-1.9l21-3.5q2.3-.4 4.4-1.2l216.7-81.6 35.8-15.3a24 24 0 0 0 8.3-5.9l42.6-46.6q1.4-1.5 2.6-3.4l19.4-32q2-3.1 4.9-5.8l21-18.7a22 22 0 0 0 5.9-8.7l33.9-90.4h0l5-11.7q1.8-4.5 1.9-9.4v-64.4l5.2-44.7a22 22 0 0 0 0-5.2l-10.2-83-13.9-63.6q-.6-2.6-1.7-5l-40.2-82.4h0l-35.6-84v-.3l-13.5-48.9-22.5-55.9a2 2 0 0 1 1.1-2.6Zm-587.3 1251a24 24 0 0 0-4.1 21.2l29.5 105.3 41.7 102.4a24 24 0 0 0 15.3 13.9l153.5 46.6q2.4.8 5 .9l59.7 3.8h.1l42.7 5.7q3 .3 6 1.5l63.9 24.7q1.8.7 3.7 1l108 21.1 106.7 20.4q3 .6 6 .3l31-2.6q6.2-.6 11.1-4.2l88.4-65.2q3-2.1 5-5l14-19.8a22 22 0 0 0 3.4-8.1l5-23.3q.7-2.6 1.6-5l9.7-22a22 22 0 0 0 0-18l-5-11-13-21.2a24 24 0 0 0-10.3-9.3l-15-7q-2.6-1.2-4.7-2.9l-3-2.3a24 24 0 0 0-19.5-4.3l-80.4 17h-.2 0l-30.3 2.3q-4.1.3-8.1-.7l-64.8-16.1h0-.1l-39.9-12q-3.4-1.2-6.4-3l-71.2-45.2-59.9-29h0l-104-55.4-65-30.5h0l-75-38-36.4-18.1a24 24 0 0 0-29.7 6.8zm-107.6 21.6h-.1l-88.9 16.2a24 24 0 0 0-19.4 19.9l-6.6 41.6q-.9 6 1.4 11.8l1.6 4a22 22 0 0 0 12.2 12l26.6 10.7h0l136 60.5 60.7 21.5a24 24 0 0 0 30.3-31.7l-24.6-60.2v-.2l-31.4-112.1a22 22 0 0 0-27.8-15.2zm231.5-153q-2.1 2.1-4.7 3.8l-3.2 2a24 24 0 0 0 2.3 41.7l14.6 7.3h0l75 38 65 30.4h0v.1l104 55.5 60 29h.2l71.2 45.3q2.6 1.6 5.5 2.5l39.8 12 64.7 16q3.4.9 7 .7l30-2.2 82.2-17.5a24 24 0 0 0 14.3-9.2l16-21.7a22 22 0 0 0 4.3-13v-3.2c0-5.6-2-11-5.6-15.4l-10.9-13-2.1-2.2-41.4-37.1a26 26 0 0 1-8.3-15.4l-6.2-40.9-10.6-35.2a22 22 0 0 0-10.8-13.2l-.7-.3a24 24 0 0 0-16.3-2.2l-28.7 6.2q-6 1.3-11.8-.1l-101.4-25.1a22 22 0 0 0-4.2-.6l-74.9-3.8q-2.2 0-4.3-.6l-.6-.1-64.8-16h0l-124.5-31.5q-1.9-.5-3.7-.6l-70.7-5.4a24 24 0 0 0-19.2 7.3zm654 226.8c-.3-1-2.3-.9-2.6.2a26 26 0 0 1-4.3 9l-12.5 17.1a14 14 0 0 0 2.8 19.3l.4.4 3.5 2c8.4 4 17.8-2.8 16.9-12l-3.3-31.6a22 22 0 0 0-.9-4.4Zm-1242.4-114.7a22 22 0 0 0-9.8 2.3 7.7 7.7 0 0 0-.1 13.7l59.4 31.2q3.5 1.8 7.5 2.3l25.3 3.2h.5q1.9.3 3.8.1c11.7-.8 14.5-16.9 3.7-21.6l-67.8-29.3a24 24 0 0 0-9.5-2zM3042 1668.7h0l-216.4 81.5q-2.5.9-4.7 2.4l-48 31.4a22 22 0 0 0-5 4.4l-24.6 29.6-17.2 26.8q-1.5 2.4-2.5 5.1l-8.8 27.3q-.8 2.4-2 4.6l-27.5 49.8a26 26 0 0 1-8.5 9.1l-5.9 3.9q-1.6 1-2.5 2.9c-2.2 4.6.8 10 6 10.3l69.4 5.3h.5q2 .3 3.9.8l124.5 31.4 64.8 16q2 .4 4.1.6l75 3.8h.6q2.2.1 4.3.7l101.3 25q5 1.5 10 .2l18.9-4.1a24 24 0 0 0 18.8-21.9l2.3-34.4v-74.8l-3.3-30.6q-.3-2.4 0-5l2.1-24.3c.6-7-3.5-13.5-10.1-16a26 26 0 0 1-12.7-10.2l-12-18.5q-1.3-2-2.2-4.3l-32.7-80.4h0v-.1l-12.9-40a24 24 0 0 0-32.3-14.7zM2632.5 1970q-1.2 2-3 3.6l-28.8 29.3c-2.1 2.5 1 6 3.8 4.3l15.7-10.2q2.2-1.4 4-3.2l34-35.3 1.4-2.1.6-1.3a7.2 7.2 0 0 0-12.5-7.2zm487.5-323.7a22 22 0 0 0-13-.9 21 21 0 0 0-15.2 27l13.8 43.2 32.7 80.3 1.9 3.7 12 18.4q4 6.1 10.7 8.6c5.6 2.1 12-1 13.5-6.9l12.8-45.6q.6-2.3.7-4.5l2.9-43h0v-.2l4.4-30a24 24 0 0 0-15-25.8zm98.6-206.8-33.9 90.4q-2.3 6-7 10.3l-21 18.7q-2.4 2.1-4 5l-19.5 32-3 4-29.7 32.3a5.7 5.7 0 0 0 5.5 9.4 26 26 0 0 1 15.5 1l56.2 22a24 24 0 0 0 31.4-14.7l17.2-50.6q1-3 1.1-6l2.4-44.3h0l5.7-31a22 22 0 0 0-.1-8.4l-8.1-40h0l-3.4-29.3c-.4-2.8-4.2-3.4-5.3-.8ZM2651.2 1929a12.8 12.8 0 0 0 19.8 10.7l3.6-2.3q4.6-3 7.2-7.8l27.5-49.7q1-2 1.7-4l8.8-27.2q1-3.3 2.9-6.1l17.3-26.9h0l24.8-29.9q2.5-3 5.8-5.1l30.6-20c2.7-1.7 1-6-2.2-5.4q-2.7.5-5.3 1.6l-74.8 33.5q-2.7 1.2-4.9 3l-18.5 15-40.8 38.5a22 22 0 0 0-5.6 8.4l-3 8.2a22 22 0 0 0-.6 13l4.8 18.8.2.9q.7 2.7.7 5.7z"/><path stroke="#dfe8e4" stroke-width="4" d="m172 230 8.9 23.4a24 24 0 0 0 6.5 9.5l93.6 82.5 239.4 163.4 181.4 127 240.4 185.4 178.4 158.4 108.5 86.3q1.5 1.2 3.1 2l166.8 94.4q2 1.2 3.8 2.7l57.5 49.5q1.6 1.5 3 3.2l132.6 164.2 25.6 41.8a24 24 0 0 0 7.5 7.6l88.9 57 38.6 30.3q2.9 2.1 6.2 3.5l121.1 46.2 152.8 50q3 .9 5.9 2.8l109 72.7q2.2 1.4 4 3.3l63.2 65.6m0 0-65 58.4-25.4 21.3a24 24 0 0 0 4.4 39.8l131.5 67.9 178.4 73 89.5 31.5a24 24 0 0 0 26.1-7l55.9-65a24 24 0 0 0-9.3-38l-91.7-36.5-135.5-47-62-29.5-54.6-28.2a24 24 0 0 1-6-4.4z"/></g><defs><clipPath id="clip0_13490_1944"><path fill="#fff" d="M0 0h4096v2803H0z"/></clipPath></defs></svg>